<?xml version="1.0" encoding="UTF-8"?>
<svg id="_иллюстрации" data-name="иллюстрации" xmlns="http://www.w3.org/2000/svg" viewBox="0 0 288 157">
  <defs>
    <style>
      .cls-1 {
        stroke: #231f20;
      }

      .cls-1, .cls-2 {
        fill: none;
        stroke-width: .72px;
      }

      .cls-3 {
        font-family: GothicA1-Medium, 'Gothic A1';
        font-size: 8.62px;
        font-weight: 500;
      }

      .cls-4 {
        fill: #fff200;
      }

      .cls-2 {
        stroke: #f37021;
      }
    </style>
  </defs>
  <polygon class="cls-4" points="226.74 126.6 226.74 126.6 235.74 126.26 235.66 124.22 226.66 124.56 226.74 126.6"/>
  <path class="cls-1" d="M46,8.5c16.96,1.31,143.8,11.1,188.34,14.47,8.35.62,15.14,6.79,15.14,15.13s-6.79,14.52-15.14,15.15c-44.19,3.38-171.36,13.17-188.34,14.47"/>
  <path class="cls-2" d="M46,25.58c16.93.5,143.63,4.29,188.34,5.79,3.72.13,6.74,3.04,6.74,6.74s-3.02,6.61-6.74,6.76c-44.19,1.64-171.36,5.3-188.34,5.79"/>
  <path class="cls-1" d="M46,17.77c16.96.84,143.96,7.14,188.34,9.4,6.03.31,10.94,4.91,10.94,10.94s-4.91,10.65-10.94,10.95c-44.19,2.26-171.36,8.57-188.34,9.41"/>
  <path class="cls-1" d="M46,85.76c16.96,1.31,143.8,11.1,188.34,14.47,8.35.63,15.14,6.79,15.14,15.14s-6.79,14.52-15.14,15.15c-44.19,3.38-171.36,13.17-188.34,14.47"/>
  <path class="cls-1" d="M46,102.84c16.93.5,143.63,4.29,188.34,5.79,3.72.13,6.74,3.04,6.74,6.74s-3.02,6.61-6.74,6.75c-44.19,1.64-171.36,5.31-188.34,5.8"/>
  <path class="cls-1" d="M46,95.03c16.96.84,143.96,7.14,188.34,9.4,6.03.31,10.94,4.91,10.94,10.94s-4.91,10.64-10.94,10.95c-44.19,2.26-171.36,8.57-188.34,9.41"/>
  <line class="cls-2" x1="235.7" y1="123.9" x2="46" y2="131.86"/>
  <text class="cls-3" transform="translate(58.5 40.86)"><tspan x="0" y="0">①</tspan></text>
  <text class="cls-3" transform="translate(58.5 118.43)"><tspan x="0" y="0">②</tspan></text>
</svg>