<?xml version="1.0" encoding="UTF-8"?>
<svg xmlns="http://www.w3.org/2000/svg" viewBox="0 0 379.84 428.03">
  <defs>
    <style>
      .cls-1, .cls-2 {
        fill: none;
      }

      .cls-3, .cls-4 {
        fill: #00a958;
      }

      .cls-5 {
        fill: #e1cbab;
      }

      .cls-5, .cls-4, .cls-2, .cls-6 {
        stroke: #231f20;
        stroke-linecap: round;
        stroke-linejoin: round;
        stroke-width: .5px;
      }

      .cls-7 {
        isolation: isolate;
      }

      .cls-8, .cls-9 {
        fill: #ffe06a;
      }

      .cls-10 {
        fill: #219e4c;
      }

      .cls-11, .cls-6 {
        fill: #fff;
      }

      .cls-9 {
        mix-blend-mode: multiply;
      }
    </style>
  </defs>
  <g class="cls-7">
    <g id="_иллюстрации" data-name="иллюстрации">
      <polygon class="cls-4" points="224.26 63.69 209.48 72.22 209.48 282.8 224.26 274.27 224.26 63.69"/>
      <polygon class="cls-5" points="263.69 302.72 263.69 92.15 219.34 66.54 219.34 277.11 263.69 302.72"/>
      <polygon class="cls-4" points="219.34 66.54 219.34 83.61 263.69 109.22 263.69 92.15 219.34 66.54"/>
      <polygon class="cls-4" points="219.34 260.04 219.34 277.11 263.69 302.72 263.69 285.65 219.34 260.04"/>
      <polygon class="cls-4" points="268.62 89.3 258.76 94.99 258.76 305.57 268.62 299.88 268.62 89.3"/>
      <polygon class="cls-5" points="372.12 166.13 372.12 376.71 253.84 308.41 253.84 97.84 372.12 166.13"/>
      <polygon class="cls-4" points="372.12 166.13 377.04 163.29 258.76 94.99 253.84 97.84 372.12 166.13"/>
      <polygon class="cls-4" points="377.04 163.29 372.12 166.13 372.12 376.71 377.04 373.86 377.04 163.29"/>
      <polygon class="cls-3" points="372.12 183.21 253.84 114.91 253.84 97.84 372.12 166.13 372.12 183.21"/>
      <polygon class="cls-4" points="209.48 282.8 91.2 214.51 91.2 197.43 209.48 265.73 209.48 282.8"/>
      <polygon class="cls-5" points="209.48 72.22 209.48 282.8 91.2 214.5 91.2 3.92 209.48 72.22"/>
      <polygon class="cls-3" points="91.2 3.92 91.2 214.5 105.98 194.59 105.98 35.23 91.2 3.92"/>
      <polygon class="cls-3" points="209.48 72.22 214.41 69.37 96.13 1.08 91.2 3.92 209.48 72.22"/>
      <polygon class="cls-4" points="263.69 92.15 268.62 89.3 224.26 63.69 219.34 66.53 263.69 92.15"/>
      <polygon class="cls-3" points="209.48 72.22 209.48 89.29 102.28 27.4 91.2 3.92 209.48 72.22"/>
      <polygon class="cls-3" points="209.48 282.8 91.2 214.51 91.2 197.43 209.48 265.73 209.48 282.8"/>
      <polygon class="cls-3" points="372.12 166.13 357.33 180.36 357.33 356.79 372.12 376.71 372.12 166.13"/>
      <polygon class="cls-3" points="372.11 376.71 253.83 308.41 253.83 291.34 357.33 351.11 357.33 356.79 372.11 376.71"/>
      <g id="glue">
        <g id="glue-2">
          <polygon class="cls-10" points="103.95 197.33 100.71 201.69 91.2 181.1 91.2 169.72 103.95 197.33"/>
          <polygon class="cls-10" points="119.41 230.8 112.24 226.66 112.23 226.65 101.48 203.37 108.65 207.51 119.4 230.78 119.41 230.8"/>
          <polygon class="cls-10" points="105.98 178.95 105.98 190.34 91.2 158.34 91.2 146.95 105.98 178.95"/>
          <polygon class="cls-10" points="133.74 239.07 126.58 234.93 126.57 234.92 115.82 211.65 122.99 215.79 133.74 239.07"/>
          <polygon class="cls-10" points="105.98 156.19 105.98 167.57 91.2 135.57 91.2 124.19 105.98 156.19"/>
          <polygon class="cls-10" points="148.08 247.34 148.08 247.35 140.91 243.21 140.91 243.2 130.16 219.93 137.33 224.06 148.08 247.34"/>
          <polygon class="cls-10" points="105.98 133.42 105.98 144.81 91.2 112.81 91.2 101.42 105.98 133.42"/>
          <polygon class="cls-10" points="162.42 255.62 162.42 255.63 155.25 251.49 155.25 251.48 144.5 228.21 151.67 232.35 162.42 255.62"/>
          <polygon class="cls-10" points="105.98 110.66 105.98 122.04 91.2 90.04 91.2 78.66 105.98 110.66"/>
          <polygon class="cls-10" points="176.75 263.9 169.59 259.77 169.58 259.76 158.83 236.48 166 240.62 176.75 263.9"/>
          <polygon class="cls-10" points="105.98 87.89 105.98 99.28 91.2 67.28 91.2 55.89 105.98 87.89"/>
          <polygon class="cls-10" points="191.09 272.18 183.92 268.04 173.17 244.76 180.34 248.9 191.09 272.18"/>
          <polygon class="cls-10" points="105.98 65.13 105.98 76.51 91.2 44.51 91.2 33.13 105.98 65.13"/>
          <polygon class="cls-10" points="205.42 280.46 198.26 276.32 187.51 253.04 194.67 257.18 205.42 280.46"/>
          <polygon class="cls-10" points="105.98 42.36 105.98 53.75 91.2 21.75 91.2 10.36 97.9 24.87 105.98 42.36"/>
          <polygon class="cls-10" points="209.48 266.47 209.48 277.85 201.85 261.32 209.01 265.46 209.48 266.47"/>
          <polygon class="cls-10" points="112.23 33.14 105.07 29.01 94.32 5.73 94.31 5.72 101.48 9.85 101.48 9.87 101.49 9.87 101.49 9.88 112.23 33.14"/>
          <polygon class="cls-10" points="126.57 41.42 119.4 37.28 108.65 14.01 108.65 14 115.82 18.14 115.82 18.15 115.83 18.15 115.83 18.16 115.84 18.16 126.57 41.42"/>
          <polygon class="cls-10" points="140.91 49.7 133.74 45.56 122.99 22.29 122.99 22.28 130.15 26.41 130.16 26.43 140.91 49.7"/>
          <polygon class="cls-10" points="155.25 57.98 148.08 53.84 137.33 30.57 137.33 30.56 144.49 34.69 144.5 34.71 155.25 57.98"/>
          <polygon class="cls-10" points="169.57 66.25 162.41 62.12 162.4 62.11 151.67 38.85 151.66 38.83 158.83 42.97 158.84 42.99 169.57 66.25"/>
          <polygon class="cls-10" points="183.92 74.53 176.75 70.39 166.01 47.13 166 47.11 173.15 51.24 173.16 51.25 173.17 51.26 183.92 74.53"/>
          <polygon class="cls-10" points="198.26 82.81 191.08 78.67 180.34 55.4 187.49 59.52 187.51 59.54 198.26 82.81"/>
          <polygon class="cls-10" points="209.48 84.35 209.48 89.29 205.42 86.95 205.41 86.94 194.68 63.68 201.84 67.81 201.85 67.82 209.48 84.35"/>
          <polygon class="cls-10" points="282.04 324.7 274.86 320.56 266.01 301.39 264.11 297.28 268.62 299.88 271.29 301.42 282.04 324.7"/>
          <polygon class="cls-10" points="296.37 332.98 289.21 328.84 278.45 305.56 285.62 309.7 296.37 332.98"/>
          <polygon class="cls-10" points="310.71 341.26 303.54 337.12 292.79 313.84 299.96 317.98 310.71 341.26"/>
          <polygon class="cls-10" points="325.05 349.53 317.88 345.39 307.13 322.12 314.3 326.26 325.05 349.53"/>
          <polygon class="cls-10" points="339.39 357.81 332.22 353.67 321.47 330.4 328.64 334.54 339.39 357.81"/>
          <polygon class="cls-10" points="353.72 366.09 346.55 361.95 335.8 338.67 342.97 342.81 353.72 366.09"/>
          <polygon class="cls-10" points="368.06 374.37 360.89 370.23 350.14 346.95 357.31 351.09 357.33 351.14 364.23 366.09 364.24 366.11 368.06 374.37"/>
          <polygon class="cls-10" points="260.53 118.78 258.76 117.76 253.83 114.91 253.83 104.27 258.76 114.94 260.53 118.78"/>
          <polygon class="cls-10" points="372.11 360.38 372.11 371.76 364.48 355.23 364.47 355.23 357.33 339.76 357.33 328.38 371.64 359.37 372.11 360.38"/>
          <polygon class="cls-10" points="274.87 127.06 268.62 123.45 267.7 122.92 263.69 114.24 260.53 107.4 260.53 107.39 258.76 103.56 256.95 99.64 258.76 100.69 263.69 103.53 264.12 103.78 268.62 113.52 274.87 127.06"/>
          <polygon class="cls-10" points="372.11 337.61 372.11 348.99 357.33 316.99 357.33 305.61 372.11 337.61"/>
          <polygon class="cls-10" points="289.21 135.34 282.04 131.2 271.29 107.92 278.45 112.05 278.45 112.06 278.46 112.06 278.46 112.07 289.21 135.34"/>
          <polygon class="cls-10" points="372.11 314.85 372.11 326.23 357.33 294.23 357.33 282.85 372.11 314.85"/>
          <polygon class="cls-10" points="296.37 139.48 296.37 139.47 285.64 116.21 292.79 120.33 292.79 120.34 292.8 120.34 292.8 120.35 303.55 143.62 296.37 139.48"/>
          <polygon class="cls-10" points="372.11 292.08 372.11 303.46 357.33 271.46 357.33 260.08 372.11 292.08"/>
          <polygon class="cls-10" points="310.71 147.76 310.71 147.75 299.96 124.47 307.12 128.6 307.12 128.61 307.13 128.61 317.88 151.89 310.71 147.76"/>
          <polygon class="cls-10" points="372.11 269.32 372.11 280.7 357.33 248.7 357.33 237.32 372.11 269.32"/>
          <polygon class="cls-10" points="325.05 156.04 325.05 156.03 314.3 132.75 321.46 136.88 321.46 136.89 321.47 136.89 332.22 160.17 325.05 156.04"/>
          <polygon class="cls-10" points="372.11 246.55 372.11 257.93 357.33 225.93 357.33 214.55 372.11 246.55"/>
          <polygon class="cls-10" points="346.55 168.45 339.4 164.32 339.39 164.31 328.63 141.03 335.79 145.16 335.8 145.17 346.55 168.45"/>
          <polygon class="cls-10" points="372.11 223.79 372.11 235.17 357.33 203.17 357.33 191.79 372.11 223.79"/>
          <polygon class="cls-10" points="360.89 176.73 353.74 172.6 353.73 172.59 342.97 149.31 350.12 153.43 350.13 153.43 350.13 153.44 350.14 153.44 350.15 153.45 360.89 176.73"/>
          <polygon class="cls-10" points="372.11 201.02 372.11 212.4 357.33 180.4 357.33 180.36 360.96 176.87 372.11 201.02"/>
          <polygon class="cls-10" points="372.11 178.26 372.11 189.64 368.06 180.87 364.59 173.37 357.3 157.58 364.47 161.72 368.23 169.86 372.11 178.26"/>
          <line class="cls-1" x1="260.53" y1="118.78" x2="258.76" y2="117.76"/>
          <polygon class="cls-10" points="263.69 296.36 264.11 297.28 268.62 299.88 263.69 296.36"/>
        </g>
        <g id="glue-1">
          <polygon class="cls-9" points="108.65 207.51 101.48 203.37 100.71 201.69 103.95 197.33 108.65 207.51"/>
          <polygon class="cls-9" points="122.99 215.79 115.82 211.65 105.98 190.34 105.98 178.95 122.99 215.79"/>
          <polygon class="cls-9" points="137.33 224.06 130.16 219.93 105.98 167.57 105.98 156.19 137.33 224.06"/>
          <polygon class="cls-9" points="151.67 232.35 144.5 228.21 105.98 144.81 105.98 133.42 151.67 232.35"/>
          <polygon class="cls-9" points="166 240.62 158.83 236.48 105.98 122.04 105.98 110.66 166 240.62"/>
          <polygon class="cls-9" points="180.34 248.9 173.17 244.76 105.98 99.28 105.98 87.89 180.34 248.9"/>
          <polygon class="cls-9" points="194.67 257.18 187.51 253.04 105.98 76.51 105.98 65.13 194.67 257.18"/>
          <polygon class="cls-9" points="209.48 243.71 209.48 255.09 105.07 29.01 112.23 33.14 209.48 243.71"/>
          <polygon class="cls-9" points="209.48 220.94 209.48 232.32 119.4 37.28 126.57 41.42 209.48 220.94"/>
          <polygon class="cls-9" points="130.15 26.41 130.16 26.43 122.99 22.29 122.99 22.27 130.15 26.41"/>
          <polygon class="cls-9" points="209.48 198.18 209.48 209.56 133.74 45.56 140.91 49.7 209.48 198.18"/>
          <polygon class="cls-9" points="144.49 34.69 144.5 34.71 137.33 30.57 137.33 30.55 144.49 34.69"/>
          <polygon class="cls-9" points="209.48 175.41 209.48 186.79 148.08 53.84 155.25 57.98 209.48 175.41"/>
          <polygon class="cls-9" points="158.83 42.97 158.84 42.99 151.67 38.85 151.66 38.83 158.83 42.97"/>
          <polygon class="cls-9" points="209.48 152.64 209.48 164.03 162.41 62.12 169.58 66.25 169.58 66.26 209.48 152.64"/>
          <polygon class="cls-9" points="209.48 129.88 209.48 141.26 176.75 70.39 183.92 74.53 209.48 129.88"/>
          <polygon class="cls-9" points="209.48 107.11 209.48 118.5 191.08 78.67 198.26 82.81 209.48 107.11"/>
          <polygon class="cls-9" points="209.48 89.29 209.48 95.73 205.42 86.95 209.48 89.29"/>
          <polygon class="cls-9" points="285.62 309.7 278.45 305.56 268.62 284.26 263.69 273.59 258.76 262.91 253.83 252.24 253.83 240.86 258.76 251.53 263.69 262.21 268.62 272.88 285.62 309.7"/>
          <polygon class="cls-9" points="299.96 317.98 292.79 313.84 268.62 261.5 263.69 250.83 258.76 240.15 253.83 229.48 253.83 218.09 258.76 228.76 263.69 239.44 268.62 250.11 299.96 317.98"/>
          <polygon class="cls-9" points="314.3 326.26 307.13 322.12 268.62 238.73 263.69 228.06 258.76 217.38 253.83 206.71 253.83 195.33 258.76 206 263.69 216.68 268.62 227.35 314.3 326.26"/>
          <polygon class="cls-9" points="328.64 334.54 321.47 330.4 268.62 215.97 263.69 205.3 258.76 194.62 253.83 183.95 253.83 172.56 258.76 183.23 263.69 193.91 268.62 204.58 328.64 334.54"/>
          <polygon class="cls-9" points="342.97 342.81 335.8 338.67 268.62 193.2 263.69 182.53 258.76 171.85 253.83 161.18 253.83 149.8 258.76 160.47 263.69 171.15 268.62 181.82 342.97 342.81"/>
          <polygon class="cls-9" points="268.62 159.05 357.31 351.09 350.14 346.95 268.62 170.44 263.69 159.77 258.76 149.09 253.83 138.42 253.83 127.03 258.76 137.7 263.69 148.38 268.62 159.05"/>
          <polygon class="cls-9" points="357.33 328.38 357.33 339.76 268.62 147.67 263.69 137 258.76 126.32 253.83 115.65 253.83 114.91 258.76 117.76 260.53 118.78 263.69 125.62 268.62 136.29 357.33 328.38"/>
          <polygon class="cls-9" points="357.33 305.61 357.33 316.99 268.62 124.91 267.7 122.92 268.62 123.45 274.87 127.06 357.33 305.61"/>
          <polygon class="cls-9" points="357.33 282.85 357.33 294.23 282.04 131.2 289.21 135.34 357.33 282.85"/>
          <polygon class="cls-9" points="357.33 260.08 357.33 271.46 296.37 139.48 303.55 143.62 357.33 260.08"/>
          <polygon class="cls-9" points="357.33 237.32 357.33 248.7 310.71 147.76 317.88 151.89 317.89 151.9 357.33 237.32"/>
          <polygon class="cls-9" points="321.45 136.88 321.46 136.88 321.46 136.89 321.45 136.88"/>
          <polygon class="cls-9" points="357.33 214.55 357.33 225.93 325.05 156.04 332.21 160.17 332.22 160.18 357.33 214.55"/>
          <polygon class="cls-9" points="357.33 191.79 357.33 203.17 339.4 164.32 346.55 168.45 357.33 191.79"/>
          <polygon class="cls-9" points="350.12 153.43 350.13 153.43 350.13 153.44 350.12 153.43"/>
          <polygon class="cls-9" points="360.96 176.87 357.33 180.36 357.33 180.4 353.74 172.6 360.89 176.73 360.96 176.87"/>
          <g>
            <polygon class="cls-9" points="209.01 265.46 201.85 261.32 201.84 261.32 105.98 53.75 105.98 42.36 209.01 265.46"/>
            <polygon class="cls-9" points="268.62 299.88 271.29 301.42 268.62 295.64 263.69 284.97 258.76 274.29 253.83 263.62 253.83 275.01 256.95 281.76 258.76 285.68 263.69 296.36 264.11 297.28 268.62 299.88"/>
          </g>
        </g>
      </g>
      <polygon class="cls-2" points="105.98 35.23 105.98 194.59 91.2 214.5 91.2 21 102.28 27.4 105.98 35.23"/>
      <polygon id="stroke" class="cls-2" points="209.48 89.29 91.2 21 91.2 3.92 209.48 72.22 209.48 89.29"/>
      <polygon id="stroke-2" data-name="stroke" class="cls-2" points="209.48 72.22 214.41 69.37 96.13 1.08 91.2 3.92 209.48 72.22"/>
      <g>
        <polygon class="cls-6" points="36.99 29.54 145.41 92.15 145.41 297.03 36.99 234.43 36.99 29.54"/>
        <polygon class="cls-6" points="2.49 89.3 145.41 92.15 145.41 297.03 2.49 294.19 2.49 89.3"/>
        <polygon class="cls-8" points="139.24 296.95 145.18 297.03 145.18 92.36 139.24 92.27 139.24 296.95"/>
      </g>
      <polygon class="cls-2" points="209.48 282.8 91.2 214.51 91.2 197.43 209.48 265.73 209.48 282.8"/>
      <g id="_блок" data-name="блок">
        <g id="_тетрадь" data-name="тетрадь">
          <polygon class="cls-6" points="44.38 176.08 44.38 386.66 157.73 321.22 157.73 110.64 44.38 176.08"/>
          <g>
            <path class="cls-11" d="M51.77,180.36s108.42-62.6,113.35-65.45c4.93-2.85-2.46-7.11-7.39-4.27s-113.35,65.45-113.35,65.45l7.39,4.27Z"/>
            <path class="cls-2" d="M51.77,180.36s108.42-62.6,113.35-65.45c4.93-2.85-2.46-7.11-7.39-4.27s-113.35,65.45-113.35,65.45"/>
          </g>
          <polygon class="cls-6" points="51.77 180.36 51.77 390.94 167.06 324.37 167.06 113.8 51.77 180.36"/>
        </g>
        <g id="_тетрадь-2" data-name="тетрадь">
          <polygon class="cls-6" points="51.77 180.35 51.77 390.92 167.06 324.36 167.06 113.78 51.77 180.35"/>
          <g>
            <path class="cls-11" d="M59.16,184.63s108.42-62.6,113.35-65.45-2.46-7.11-7.39-4.27c-4.93,2.85-113.35,65.45-113.35,65.45l7.39,4.27Z"/>
            <path class="cls-2" d="M59.16,184.63s108.42-62.6,113.35-65.45-2.46-7.11-7.39-4.27c-4.93,2.85-113.35,65.45-113.35,65.45"/>
          </g>
          <polygon class="cls-6" points="59.16 184.63 59.16 395.21 174.45 328.64 174.45 118.06 59.16 184.63"/>
        </g>
        <g id="_тетрадь-3" data-name="тетрадь">
          <polygon class="cls-6" points="59.16 184.61 59.16 395.19 174.45 328.62 174.45 118.05 59.16 184.61"/>
          <g>
            <path class="cls-11" d="M66.56,188.9s108.42-62.6,113.35-65.45c4.93-2.85-2.46-7.11-7.39-4.27-4.93,2.85-113.35,65.45-113.35,65.45l7.39,4.27Z"/>
            <path class="cls-2" d="M66.56,188.9s108.42-62.6,113.35-65.45c4.93-2.85-2.46-7.11-7.39-4.27-4.93,2.85-113.35,65.45-113.35,65.45"/>
          </g>
          <polygon class="cls-6" points="66.56 188.9 66.56 399.48 181.85 332.91 181.85 122.33 66.56 188.9"/>
        </g>
        <g id="_тетрадь-4" data-name="тетрадь">
          <polygon class="cls-6" points="66.56 188.88 66.56 399.46 181.85 332.89 181.85 122.31 66.56 188.88"/>
          <g>
            <path class="cls-11" d="M73.95,193.17s108.42-62.6,113.35-65.45c4.93-2.85-2.46-7.11-7.39-4.27-4.93,2.85-113.35,65.45-113.35,65.45l7.39,4.27Z"/>
            <path class="cls-2" d="M73.95,193.17s108.42-62.6,113.35-65.45c4.93-2.85-2.46-7.11-7.39-4.27-4.93,2.85-113.35,65.45-113.35,65.45"/>
          </g>
          <polygon class="cls-6" points="73.95 193.17 73.95 403.74 189.24 337.18 189.24 126.6 73.95 193.17"/>
        </g>
        <g id="_тетрадь-5" data-name="тетрадь">
          <polygon class="cls-6" points="73.95 193.15 73.95 403.73 189.24 337.16 189.24 126.58 73.95 193.15"/>
          <g>
            <path class="cls-11" d="M81.34,197.43s108.42-62.6,113.35-65.45c4.93-2.85-2.46-7.11-7.39-4.27-4.93,2.85-113.35,65.45-113.35,65.45l7.39,4.27Z"/>
            <path class="cls-2" d="M81.34,197.43s108.42-62.6,113.35-65.45c4.93-2.85-2.46-7.11-7.39-4.27-4.93,2.85-113.35,65.45-113.35,65.45"/>
          </g>
          <polygon class="cls-6" points="81.34 197.43 81.34 408.01 196.63 341.44 196.63 130.87 81.34 197.43"/>
        </g>
        <polygon class="cls-8" points="196.38 131.29 189.81 135.09 189.81 345.12 196.38 341.33 196.38 131.29"/>
      </g>
      <polygon class="cls-2" points="372.11 166.13 361.02 176.81 253.83 114.91 253.83 97.84 372.11 166.13"/>
      <polygon class="cls-2" points="372.12 166.13 357.33 180.36 357.33 356.79 372.12 376.71 372.12 166.13"/>
      <polygon class="cls-2" points="372.11 376.71 253.83 308.41 253.83 291.34 357.33 351.11 357.33 356.79 372.11 376.71"/>
      <g>
        <polygon class="cls-6" points="234.12 143.37 342.55 205.97 342.55 410.86 234.12 348.25 234.12 143.37"/>
        <polygon class="cls-6" points="234.12 143.37 288.33 220.2 288.33 425.09 234.12 348.25 234.12 143.37"/>
        <polygon class="cls-8" points="234.38 144.15 238.9 150.58 238.9 354.62 234.38 348.17 234.38 144.15"/>
      </g>
    </g>
  </g>
</svg>