<svg width="504" height="296" viewBox="0 0 504 296" fill="none" xmlns="http://www.w3.org/2000/svg">
<g clip-path="url(#clip0_918_15284)">
<path d="M0 30C0 13.4315 13.4315 0 30 0H474C490.569 0 504 13.4315 504 30V266C504 282.569 490.569 296 474 296H30C13.4315 296 0 282.569 0 266V30Z" fill="#F5F2EC"/>
<path opacity="0.1" d="M-4.07471 279.459H507.639" stroke="#3B3B3B" stroke-width="1.78194"/>
<path opacity="0.1" d="M-4.07471 226.002L507.639 226.002" stroke="#3B3B3B" stroke-width="1.78194"/>
<path opacity="0.1" d="M-4.07471 172.541L507.639 172.541" stroke="#3B3B3B" stroke-width="1.78194"/>
<path opacity="0.1" d="M-4.07471 119.082L507.639 119.082" stroke="#3B3B3B" stroke-width="1.78194"/>
<path opacity="0.1" d="M-4.07471 65.627L507.639 65.627" stroke="#3B3B3B" stroke-width="1.78194"/>
<path opacity="0.1" d="M-4.07483 12.1699L507.639 12.1699" stroke="#3B3B3B" stroke-width="1.78194"/>
<path opacity="0.1" d="M37.9492 -27.0332V314.357" stroke="#3B3B3B" stroke-width="1.78194"/>
<path opacity="0.1" d="M89.1803 -27.0332V314.357" stroke="#3B3B3B" stroke-width="1.78194"/>
<path opacity="0.1" d="M140.56 -27.0332V314.357" stroke="#3B3B3B" stroke-width="1.78194"/>
<path opacity="0.1" d="M243.32 -22.2812V319.109" stroke="#3B3B3B" stroke-width="1.78194"/>
<path opacity="0.1" d="M294.395 -22.2812V319.109" stroke="#3B3B3B" stroke-width="1.78194"/>
<path opacity="0.1" d="M345.471 -22.2812V319.109" stroke="#3B3B3B" stroke-width="1.78194"/>
<path opacity="0.1" d="M396.546 -22.2812V319.109" stroke="#3B3B3B" stroke-width="1.78194"/>
<path opacity="0.1" d="M447.621 -22.2812V319.109" stroke="#3B3B3B" stroke-width="1.78194"/>
<path opacity="0.1" d="M498.692 -22.2812V319.109" stroke="#3B3B3B" stroke-width="1.78194"/>
<path opacity="0.1" d="M191.94 -29.7051V311.685" stroke="#3B3B3B" stroke-width="1.78194"/>
<circle cx="145.644" cy="147.795" r="90.7656" fill="#FF711F"/>
<circle cx="145.644" cy="147.795" r="87.0982" fill="#FF711F" stroke="#3B3B3B" stroke-width="7.33493"/>
<path d="M105.543 110.121L188.162 192.74" stroke="#FFFAF1" stroke-width="6.82688"/>
<path d="M188.167 110.121L105.548 192.74" stroke="#FFFAF1" stroke-width="6.82688"/>
<path d="M102.48 104.951L185.099 187.57" stroke="#3B3B3B" stroke-width="7.33493"/>
<path d="M185.104 104.951L102.485 187.57" stroke="#3B3B3B" stroke-width="7.33493"/>
<circle cx="358.356" cy="147.795" r="90.7656" fill="#1FAE62"/>
<circle cx="358.356" cy="147.795" r="87.0982" fill="#1FAE62" stroke="#3B3B3B" stroke-width="7.33493"/>
<path d="M311.598 139.455L349.024 176.222L410.62 115.709" stroke="#FFFAF1" stroke-width="7.33493"/>
<path d="M308.771 131.787L346.196 168.554L407.792 108.041" stroke="#3B3B3B" stroke-width="7.33493"/>
</g>
<defs>
<clipPath id="clip0_918_15284">
<path d="M0 30C0 13.4315 13.4315 0 30 0H474C490.569 0 504 13.4315 504 30V266C504 282.569 490.569 296 474 296H30C13.4315 296 0 282.569 0 266V30Z" fill="white"/>
</clipPath>
</defs>
</svg>
