<svg width="504" height="296" viewBox="0 0 504 296" fill="none" xmlns="http://www.w3.org/2000/svg">
<g clip-path="url(#clip0_918_15451)">
<path d="M0 30C0 13.4315 13.4315 0 30 0H474C490.569 0 504 13.4315 504 30V266C504 282.569 490.569 296 474 296H30C13.4315 296 0 282.569 0 266V30Z" fill="#1FAE62"/>
<path opacity="0.1" d="M-4.07471 279.459H507.639" stroke="#3B3B3B" stroke-width="1.78194"/>
<path opacity="0.1" d="M-4.07471 226.002L507.639 226.002" stroke="#3B3B3B" stroke-width="1.78194"/>
<path opacity="0.1" d="M-4.07471 172.541L507.639 172.541" stroke="#3B3B3B" stroke-width="1.78194"/>
<path opacity="0.1" d="M-4.07471 119.082L507.639 119.082" stroke="#3B3B3B" stroke-width="1.78194"/>
<path opacity="0.1" d="M-4.07471 65.627L507.639 65.627" stroke="#3B3B3B" stroke-width="1.78194"/>
<path opacity="0.1" d="M-4.07483 12.1699L507.639 12.1699" stroke="#3B3B3B" stroke-width="1.78194"/>
<path opacity="0.1" d="M37.9492 -27.0332V314.357" stroke="#3B3B3B" stroke-width="1.78194"/>
<path opacity="0.1" d="M89.1803 -27.0332V314.357" stroke="#3B3B3B" stroke-width="1.78194"/>
<path opacity="0.1" d="M140.56 -27.0332V314.357" stroke="#3B3B3B" stroke-width="1.78194"/>
<path opacity="0.1" d="M243.32 -22.2812V319.109" stroke="#3B3B3B" stroke-width="1.78194"/>
<path opacity="0.1" d="M294.395 -22.2812V319.109" stroke="#3B3B3B" stroke-width="1.78194"/>
<path opacity="0.1" d="M345.471 -22.2812V319.109" stroke="#3B3B3B" stroke-width="1.78194"/>
<path opacity="0.1" d="M396.546 -22.2812V319.109" stroke="#3B3B3B" stroke-width="1.78194"/>
<path opacity="0.1" d="M447.621 -22.2812V319.109" stroke="#3B3B3B" stroke-width="1.78194"/>
<path opacity="0.1" d="M498.692 -22.2812V319.109" stroke="#3B3B3B" stroke-width="1.78194"/>
<path opacity="0.1" d="M191.94 -29.7051V311.685" stroke="#3B3B3B" stroke-width="1.78194"/>
<path d="M400.504 46.6914L460.159 109.347L117.791 435.314L58.137 372.659L400.504 46.6914Z" fill="#FFFAF1"/>
<path d="M321.034 391.138C321.034 355.482 314.251 320.174 301.072 287.232C287.894 254.289 268.577 224.357 244.226 199.144C219.875 173.931 190.966 153.931 159.15 140.285C127.334 126.64 93.2335 119.617 58.7959 119.617L58.7959 208.755C81.928 208.755 104.834 213.472 126.205 222.638C147.576 231.803 166.995 245.238 183.351 262.174C199.708 279.11 212.683 299.215 221.536 321.343C230.388 343.471 234.944 367.187 234.944 391.138L321.034 391.138Z" fill="#FFFAF1"/>
<path d="M411.118 60.3867L470.772 123.042L128.404 449.01L68.7502 386.354L411.118 60.3867Z" fill="#3B3B3B"/>
<path d="M339.866 12.8633L360.32 96.9228L155.302 146.807L134.849 62.7476L339.866 12.8633Z" fill="#FFFAF1"/>
<path d="M344.738 15.5703L365.191 99.6298L160.173 149.514L139.72 65.4546L344.738 15.5703Z" fill="#3B3B3B"/>
<path d="M323.065 393.167C323.065 357.682 316.075 322.544 302.496 289.76C288.916 256.976 269.012 227.187 243.92 202.096C218.829 177.004 189.04 157.1 156.256 143.52C123.472 129.941 88.3342 122.951 52.849 122.951L52.849 211.66C76.6848 211.66 100.287 216.355 122.309 225.477C144.33 234.598 164.339 247.968 181.194 264.822C198.048 281.677 211.418 301.686 220.539 323.707C229.661 345.729 234.356 369.331 234.356 393.167L323.065 393.167Z" fill="#3B3B3B"/>
<path d="M153.415 67.429L151.588 67.429L151.588 65.4941L155.68 65.4941L155.68 76.194L157.58 76.194L157.58 78.1289L151.516 78.1289L151.516 76.194L153.415 76.194L153.415 67.429Z" fill="#FFFAF1"/>
<path d="M240.575 96.1061L242.563 98.0945L242.563 101.492L237.089 106.842L237.089 106.895L242.804 106.895L242.804 108.83L234.111 108.83L234.111 106.895L240.299 100.778L240.299 99.004L239.336 98.041L237.089 98.041L235.733 99.3339L234.164 97.7824L235.867 96.1061L240.575 96.1061Z" fill="#FFFAF1"/>
<path d="M188.567 195.032L190.564 197.021L190.564 200.507L188.567 202.495L183.288 202.495L181.594 200.819L183.163 199.268L184.519 200.561L187.31 200.561L188.299 199.58L188.299 197.787L187.327 196.816L183.529 196.816L183.529 195.032L187.363 191.778L187.363 191.706L182.29 191.706L182.29 189.771L190.199 189.771L190.199 191.706L186.356 194.952L186.356 195.032L188.567 195.032Z" fill="#FFFAF1"/>
<path d="M310.352 194.82L309.077 194.82L309.077 197.611L306.794 197.611L306.794 194.82L301.052 194.82L301.052 192.903L306.571 184.977L309.077 184.977L309.077 192.903L310.352 192.903L310.352 194.82ZM306.045 189.025L303.361 192.921L306.812 192.921L306.812 187.491L306.732 187.491L306.045 189.025Z" fill="#FFFAF1"/>
<path d="M269.355 246.185L263.88 246.185L263.88 249.475L264.576 248.78L267.839 248.78L269.854 250.786L269.854 254.986L267.839 256.974L262.623 256.974L260.902 255.262L262.507 253.746L263.845 255.039L266.618 255.039L267.59 254.076L267.59 251.677L266.618 250.714L264.718 250.714L263.827 251.499L261.616 251.499L261.616 244.25L269.355 244.25L269.355 246.185Z" fill="#FFFAF1"/>
<circle cx="157.671" cy="90.2983" r="4.94867" fill="#FFFAF1"/>
<circle cx="234.066" cy="123.56" r="2.47434" fill="#FFFAF1"/>
<circle cx="196.333" cy="177.994" r="4.94867" fill="#FFFAF1"/>
<circle cx="305.822" cy="213.253" r="4.94867" fill="#FFFAF1"/>
<circle cx="265.938" cy="273.74" r="4.94867" fill="#FFFAF1"/>
<circle cx="234.743" cy="124.566" r="4.94867" fill="#FFFAF1"/>
<circle cx="305.822" cy="213.256" r="2.47434" fill="#FFFAF1"/>
<circle cx="265.582" cy="273.742" r="2.47434" fill="#FFFAF1"/>
<path d="M157.671 89.8477L233.448 122.633" stroke="#FFFAF1" stroke-width="3.06867"/>
<path d="M235.922 122.631L196.333 177.994" stroke="#FFFAF1" stroke-width="3.06867"/>
</g>
<defs>
<clipPath id="clip0_918_15451">
<path d="M0 30C0 13.4315 13.4315 0 30 0H474C490.569 0 504 13.4315 504 30V266C504 282.569 490.569 296 474 296H30C13.4315 296 0 282.569 0 266V30Z" fill="white"/>
</clipPath>
</defs>
</svg>
