<svg width="504" height="296" viewBox="0 0 504 296" fill="none" xmlns="http://www.w3.org/2000/svg">
<g clip-path="url(#clip0_918_15564)">
<path d="M0 30C0 13.4315 13.4315 0 30 0H474C490.569 0 504 13.4315 504 30V266C504 282.569 490.569 296 474 296H30C13.4315 296 0 282.569 0 266V30Z" fill="#FF711F"/>
<path opacity="0.1" d="M-4.07471 279.459H507.639" stroke="#3B3B3B" stroke-width="1.78194"/>
<path opacity="0.1" d="M-4.07471 226.002L507.639 226.002" stroke="#3B3B3B" stroke-width="1.78194"/>
<path opacity="0.1" d="M-4.07471 172.541L507.639 172.541" stroke="#3B3B3B" stroke-width="1.78194"/>
<path opacity="0.1" d="M-4.07471 119.082L507.639 119.082" stroke="#3B3B3B" stroke-width="1.78194"/>
<path opacity="0.1" d="M-4.07471 65.627L507.639 65.627" stroke="#3B3B3B" stroke-width="1.78194"/>
<path opacity="0.1" d="M-4.07483 12.1699L507.639 12.1699" stroke="#3B3B3B" stroke-width="1.78194"/>
<path opacity="0.1" d="M37.9492 -27.0332V314.357" stroke="#3B3B3B" stroke-width="1.78194"/>
<path opacity="0.1" d="M89.1803 -27.0332V314.357" stroke="#3B3B3B" stroke-width="1.78194"/>
<path opacity="0.1" d="M140.56 -27.0332V314.357" stroke="#3B3B3B" stroke-width="1.78194"/>
<path opacity="0.1" d="M243.32 -22.2812V319.109" stroke="#3B3B3B" stroke-width="1.78194"/>
<path opacity="0.1" d="M294.395 -22.2812V319.109" stroke="#3B3B3B" stroke-width="1.78194"/>
<path opacity="0.1" d="M345.471 -22.2812V319.109" stroke="#3B3B3B" stroke-width="1.78194"/>
<path opacity="0.1" d="M396.546 -22.2812V319.109" stroke="#3B3B3B" stroke-width="1.78194"/>
<path opacity="0.1" d="M447.621 -22.2812V319.109" stroke="#3B3B3B" stroke-width="1.78194"/>
<path opacity="0.1" d="M498.692 -22.2812V319.109" stroke="#3B3B3B" stroke-width="1.78194"/>
<path opacity="0.1" d="M191.94 -29.7051V311.685" stroke="#3B3B3B" stroke-width="1.78194"/>
<path d="M164.384 105.334L149.506 175.646H77.7499L92.6285 105.334H102.183L89.1452 166.888H110.642L123.729 105.334H133.284L120.246 166.888H141.743L154.781 105.334H164.384ZM181.502 175.646L175.78 168.332L170.057 195.004H161.1L175.979 125.188H182.597L182.945 132.553H183.344L192.201 125.188H206.881L213.798 134.046L206.881 166.789L196.082 175.646H181.502ZM192.599 167.884L198.72 162.908L204.243 136.932L201.158 132.951H193.196L181.204 142.953L177.82 158.827L184.637 167.884H192.599ZM229.522 125.188H238.479L230.368 163.903L233.404 167.884H240.868L252.86 157.931L259.777 125.188H268.784L258.085 175.646H251.467L251.119 168.332H250.721L241.863 175.646H227.681L220.764 166.789L229.522 125.188ZM280.627 175.646L273.71 166.789L280.627 134.046L291.425 125.188H303.368L305.906 128.373L310.783 105.334H319.789L314.863 128.373L318.844 125.188H330.787L337.703 134.046L330.787 166.789L319.988 175.646H308.145L305.508 172.512L300.731 195.004H291.724L296.551 172.512L292.669 175.646H280.627ZM325.064 132.951H313.967L306.503 167.884H316.505L322.626 162.908L328.099 136.932L325.064 132.951ZM286.35 167.884H297.546L305.01 132.951H294.909L288.788 137.927L283.264 163.903L286.35 167.884ZM392.988 132.951L386.868 138.027L378.906 175.646H369.949L378.11 136.932L375.024 132.951H366.565L359.449 138.873L351.686 175.646H342.729L353.428 125.188H360.046L361.091 129.368H361.489L366.565 125.188H379.005L384.131 131.707L391.943 125.188H407.967L414.883 134.046L406.125 175.646H397.168L405.329 136.932L402.244 132.951H392.988Z" fill="#FFFAF1"/>
<path d="M-9.53418 512.057L104.196 -10.7732" stroke="white" stroke-width="3.5459" stroke-dasharray="7.09 7.09"/>
<path d="M-6.2262 213.088L528.819 209.631" stroke="white" stroke-width="3.5459" stroke-dasharray="7.09 7.09"/>
<path d="M-6.2262 73.1172L528.819 69.6602" stroke="white" stroke-width="3.5459" stroke-dasharray="7.09 7.09"/>
<path d="M357.074 456.068L470.804 -66.7615" stroke="white" stroke-width="3.5459" stroke-dasharray="7.09 7.09"/>
</g>
<defs>
<clipPath id="clip0_918_15564">
<path d="M0 30C0 13.4315 13.4315 0 30 0H474C490.569 0 504 13.4315 504 30V266C504 282.569 490.569 296 474 296H30C13.4315 296 0 282.569 0 266V30Z" fill="white"/>
</clipPath>
</defs>
</svg>
