<svg width="34" height="34" viewBox="0 0 34 34" fill="none" xmlns="http://www.w3.org/2000/svg">
<circle cx="17" cy="17" r="17" fill="#470019"/>
<path d="M12.1689 9.50077V24.0924C12.1689 24.2483 12.0981 24.3191 11.9706 24.3191H9.19393C9.06643 24.3191 9.00977 24.2483 9.00977 24.0924V9.50077C9.00977 9.37327 9.0806 9.31661 9.2081 9.31661H11.9706C12.0556 9.30244 12.1406 9.35911 12.1548 9.45827C12.1689 9.47244 12.1689 9.48661 12.1689 9.50077Z" fill="#FF3066"/>
<path d="M20.3575 24.4887C19.3092 24.5029 18.2609 24.2904 17.3117 23.8512C16.4192 23.4404 15.6825 22.7604 15.1725 21.9246C14.6484 21.0604 14.3934 19.9837 14.3934 18.6946C14.3792 17.6462 14.6484 16.6121 15.1725 15.7054C15.7109 14.7846 16.49 14.0196 17.425 13.5096C18.4167 12.9571 19.6067 12.6879 21.0092 12.6879C21.08 12.6879 21.1792 12.6879 21.3067 12.7021C21.4342 12.7162 21.5759 12.7162 21.7459 12.7304V8.25374C21.7459 8.15457 21.7884 8.0979 21.8875 8.0979H24.7634C24.8342 8.08374 24.8909 8.1404 24.905 8.19707V8.22541V21.7121C24.905 21.9671 24.9192 22.2504 24.9334 22.5621C24.9617 22.8596 24.9759 23.1429 24.99 23.3837C24.99 23.4829 24.9475 23.5679 24.8484 23.6104C24.1117 23.9221 23.3325 24.1487 22.5392 24.2904C21.8309 24.4179 21.0942 24.4887 20.3575 24.4887ZM21.7459 21.6554V15.4221C21.6184 15.3937 21.4909 15.3654 21.3634 15.3512C21.2075 15.3371 21.0517 15.3229 20.8959 15.3229C20.3434 15.3229 19.7909 15.4362 19.295 15.6912C18.8134 15.9321 18.4025 16.2862 18.0909 16.7396C17.7792 17.1929 17.6234 17.8021 17.6234 18.5387C17.6092 19.0346 17.6942 19.5304 17.8642 19.9979C18.0059 20.3804 18.2184 20.7204 18.5017 21.0037C18.7709 21.2587 19.0967 21.4571 19.465 21.5704C19.8475 21.6979 20.2442 21.7546 20.6409 21.7546C20.8534 21.7546 21.0517 21.7404 21.2359 21.7262C21.42 21.7404 21.59 21.7121 21.7459 21.6554Z" fill="#FF3066"/>
</svg>
