<svg width="701" height="478" viewBox="0 0 701 478" fill="none" xmlns="http://www.w3.org/2000/svg">
<rect x="136.574" y="208.232" width="439.89" height="119.407" transform="rotate(2 136.574 208.232)" fill="#FFFAF1"/>
<rect y="121.4" width="693.02" height="119.407" transform="rotate(-5 0 121.4)" fill="#1FAE62"/>
<rect x="140.059" y="359.995" width="355.748" height="119.407" transform="rotate(-9 140.059 359.995)" fill="#FFFAF1"/>
<path d="M216.745 251.513L215.32 292.308L205.414 301.505L181.733 300.678L172.534 290.814L173.959 250.019L183.823 240.82L207.504 241.647L216.745 251.513ZM187.63 248.418L181.974 253.692L180.786 287.709L186.06 293.365L201.607 293.908L207.263 288.634L208.451 254.616L203.177 248.961L187.63 248.418ZM294.92 304.631L286.744 304.346L287.701 276.937L262.749 276.065L261.792 303.474L253.616 303.189L255.706 243.33L263.882 243.615L263.009 268.61L287.961 269.481L288.834 244.487L297.01 244.772L294.92 304.631ZM357.295 256.421L355.87 297.216L345.964 306.414L322.283 305.587L313.084 295.722L314.508 254.927L324.373 245.728L348.054 246.555L357.295 256.421ZM328.179 253.326L322.524 258.6L321.336 292.617L326.61 298.273L342.157 298.816L347.813 293.542L349.001 259.524L343.727 253.869L328.179 253.326ZM414.058 258.403L413.601 271.493L407.945 276.767L415.057 284.438L414.54 299.265L404.633 308.462L373.327 307.369L375.417 247.51L404.817 248.537L414.058 258.403ZM382.451 280.5L381.763 300.199L400.826 300.864L406.482 295.59L406.788 286.821L401.514 281.166L382.451 280.5ZM405.764 261.506L400.49 255.851L383.333 255.252L382.711 273.044L400.377 273.661L405.506 268.878L405.764 261.506ZM474.379 260.509L472.955 301.305L463.048 310.502L439.367 309.675L430.168 299.811L431.593 259.015L441.457 249.816L465.138 250.643L474.379 260.509ZM445.264 257.414L439.608 262.688L438.42 296.706L443.694 302.361L459.241 302.904L464.897 297.63L466.085 263.613L460.811 257.957L445.264 257.414ZM509.181 241.578L518.543 241.905L520.253 240.31L520.371 236.921L526.09 237.121L525.868 243.475L522.185 246.91L505.198 246.316L501.764 242.634L501.986 236.279L507.705 236.479L507.586 239.868L509.181 241.578ZM523.638 252.686L533.381 253.027L531.291 312.885L523.115 312.6L524.781 264.899L524.442 264.887L521.786 271.708L499.773 311.785L490.411 311.458L492.501 251.599L500.677 251.884L499.011 299.585L499.35 299.597L502.008 292.734L523.638 252.686Z" fill="#3B3B3B"/>
<path d="M201.255 376.939L236.591 371.342L237.758 378.711L210.502 383.028L218.705 434.817L210.625 436.097L201.255 376.939ZM254.037 429.221L245.957 430.501L244.677 422.42L249.031 421.731L251.152 418.863L249.106 369.36L282.222 364.115L291.592 423.273L283.512 424.553L275.309 372.763L257.474 375.588L259.351 421.856L254.037 429.221ZM347.397 414.434L338.898 415.78L332.082 402.01L312.279 405.147L310.177 420.329L302.306 421.576L310.94 359.567L319.438 358.22L347.397 414.434ZM316.339 369.269L316.265 375.847L313.331 397.427L328.612 395.007L318.902 375.429L316.757 369.203L316.339 369.269ZM388.793 356.892L390.842 369.829L386.297 376.085L394.742 382.258L397.063 396.911L389.093 407.83L358.153 412.731L348.784 353.573L377.839 348.971L388.793 356.892ZM361.983 384.614L365.067 404.082L383.907 401.098L388.452 394.842L387.08 386.176L380.823 381.63L361.983 384.614ZM381.243 361.521L374.987 356.976L358.031 359.661L360.816 377.246L378.275 374.48L382.397 368.806L381.243 361.521ZM443.045 372.118L418.302 376.037L421.332 395.171L448.839 390.814L450.006 398.183L414.419 403.819L405.049 344.661L440.636 339.025L441.803 346.393L414.297 350.75L417.135 368.669L441.878 364.75L443.045 372.118Z" fill="#3B3B3B"/>
<path d="M62.4571 188.552L43.4125 190.218L31.3971 151.612L39.9693 150.862L49.2653 182.217L63.2848 180.991L66.1925 148.568L74.3846 147.851L69.6103 198.819L60.9403 209.152L45.6118 210.493L44.9616 203.061L56.8275 202.023L61.7982 196.099L62.4571 188.552ZM127.448 152.783L128.589 165.831L123.619 171.755L131.613 178.502L132.906 193.282L124.194 203.618L92.9876 206.348L87.7674 146.681L117.073 144.117L127.448 152.783ZM98.7693 178.567L100.487 198.203L119.49 196.54L124.46 190.617L123.696 181.875L117.772 176.905L98.7693 178.567ZM119.593 156.874L113.67 151.903L96.5675 153.4L98.1191 171.135L115.728 169.595L120.236 164.222L119.593 156.874ZM180.506 171.757L155.549 173.94L157.238 193.238L184.981 190.811L185.631 198.243L149.738 201.383L144.518 141.716L180.411 138.575L181.061 146.007L153.318 148.435L154.899 166.508L179.855 164.325L180.506 171.757ZM202.239 136.666L235.05 133.795L239.62 186.03L246.081 185.465L247.714 204.13L239.606 204.839L238.623 193.607L202.392 196.776L203.375 208.009L195.225 208.722L193.592 190.057L197.561 189.71L200.721 185.944L202.239 136.666ZM227.55 141.94L210.152 143.462L208.757 184.901L205.078 189.052L231.47 186.743L227.55 141.94ZM297.53 137.903L301.087 178.568L292.375 188.904L268.77 190.969L258.438 182.299L254.88 141.634L263.55 131.302L287.155 129.236L297.53 137.903ZM268.254 138.379L263.283 144.303L266.25 178.212L272.174 183.182L287.671 181.826L292.642 175.903L289.675 141.994L283.751 137.023L268.254 138.379ZM351.828 183.702L343.34 184.445L326.114 145.614L323.699 137.953L323.235 137.994L327.421 185.838L319.651 186.518L314.431 126.85L326.55 125.79L344.444 166.903L346.781 173.676L347.119 173.647L348.244 166.57L358.178 123.023L370.213 121.97L375.433 181.637L367.326 182.347L363.14 134.503L362.675 134.543L361.543 142.514L351.828 183.702ZM394.432 179.975L386.282 180.688L385.569 172.538L389.961 172.154L392.277 169.441L393.688 119.916L427.09 116.994L432.31 176.661L424.16 177.374L419.59 125.139L401.601 126.713L400.247 172.999L394.432 179.975ZM481.232 145.446L456.276 147.63L457.964 166.928L485.708 164.501L486.358 171.933L450.465 175.073L445.244 115.405L481.138 112.265L481.788 119.697L454.045 122.124L455.626 140.198L480.582 138.014L481.232 145.446ZM543.488 166.934L535.338 167.647L532.948 140.326L508.076 142.502L510.466 169.823L502.317 170.536L497.096 110.869L505.246 110.156L507.426 135.07L532.298 132.894L530.118 107.98L538.268 107.267L543.488 166.934ZM587.502 102.96L597.214 102.11L602.434 161.777L594.284 162.49L590.125 114.942L589.787 114.972L587.982 122.065L571.017 164.526L561.685 165.342L556.465 105.675L564.615 104.962L568.774 152.51L569.112 152.48L570.913 145.345L587.502 102.96ZM651.314 130.566L626.358 132.75L628.046 152.048L655.79 149.62L656.44 157.052L620.546 160.193L615.326 100.525L651.22 97.385L651.87 104.817L624.126 107.244L625.708 125.318L650.664 123.134L651.314 130.566Z" fill="#FFFAF1"/>
<path d="M247.34 51H239.898V16.0781H225.133V51H217.691V9.48633H247.34V51ZM276.021 20.8242L281.119 25.9219V46.1953L276.021 51.293H267.848L263.131 46.8691V62.5723H256.334V21.1172H261.314L262.867 25.248H263.131L267.848 20.8242H276.021ZM272.008 45.8438L274.352 43.5V28.6172L272.008 26.2734H268.521L263.131 30.7266V41.3906L268.521 45.8438H272.008ZM313.756 51H306.988V31.3711H306.754L295.885 51H288.619V21.1172H295.416V40.7461H295.65L306.49 21.1172H313.756V51ZM356.529 21.1172V51H321.549V21.1172H328.346V45.5508H335.641V21.1172H342.438V45.5508H349.762V21.1172H356.529ZM366.725 51.293H361.012V44.2324H363.795L365.23 42.5918L367.809 21.1172H387.965V51H381.197V26.5664H373.756L371.295 46.5469L366.725 51.293ZM420.279 46.8105L415.768 51.293H400.592L395.494 46.1953V25.9219L400.592 20.8242H414.449L419.547 25.9219V38.6367H402.262V43.7344L404.664 46.1367H412.34L415.885 42.7676L420.279 46.8105ZM404.664 25.9805L402.262 28.3828V33.7148H412.838V28.3828L410.436 25.9805H404.664ZM446.09 51H439.674L433.434 30.4336H433.199V51H427.193V21.1172H437.506L443.16 41.6543H443.395L448.785 21.1172H459.068V51H452.271V30.4336H452.037L446.09 51Z" fill="#FFFAF1"/>
</svg>
