<svg width="1280" height="709" viewBox="0 0 1280 709" fill="none" xmlns="http://www.w3.org/2000/svg">
<g clip-path="url(#clip0_1209_18978)">
<rect width="1280" height="709" fill="#1FAE62"/>
<path d="M620 708.999L620 0.00106215" stroke="#FFFAF1" stroke-width="1.63065" stroke-dasharray="5.59 6.99"/>
<path d="M658.781 708.999L658.781 0.00106215" stroke="#FFFAF1" stroke-width="1.63065" stroke-dasharray="5.59 6.99"/>
<path d="M937.49 709L937.49 0.00203872" stroke="#FFFAF1" stroke-width="1.63065" stroke-dasharray="5.59 6.99"/>
<path d="M36 709L36 0.0020274" stroke="#FFFAF1" stroke-width="1.63065" stroke-dasharray="5.59 6.99"/>
<path d="M1243.8 709L1243.8 0.00203872" stroke="#FFFAF1" stroke-width="1.63065" stroke-dasharray="5.59 6.99"/>
<path d="M1324.62 556.038L-49.6105 556.038" stroke="#FFFAF1" stroke-width="1.63065" stroke-dasharray="5.59 6.99"/>
<path d="M1324.62 118.416L-49.6105 118.416" stroke="#FFFAF1" stroke-width="1.63065" stroke-dasharray="5.59 6.99"/>
<rect x="833.383" y="194.214" width="217.764" height="77.0005" transform="rotate(-3 833.383 194.214)" fill="#FFFAF1"/>
<path d="M882.492 247.541H876.998L868.114 221.628L866.993 216.571H866.693V247.541H861.663V208.917H869.508L878.693 236.334L879.813 240.817H880.032L881.153 236.334L889.982 208.917H897.772V247.541H892.524V216.571H892.223L891.048 221.628L882.492 247.541ZM934.235 247.541H928.686L925.734 238.083H912.804L909.934 247.541H904.795L916.549 208.917H922.098L934.235 247.541ZM919.009 215.641L918.299 219.824L914.253 233.272H924.23L920.021 219.824L919.283 215.641H919.009ZM960.747 208.917H966.46L958.287 227.614L968.073 247.541H962.141L953.64 230.183H946.533V247.541H941.258V208.917H946.533V225.373H953.804L960.747 208.917ZM997.62 230.238H981.465V242.73H999.424V247.541H976.189V208.917H999.424V213.728H981.465V225.427H997.62V230.238ZM1033.1 208.917V213.728H1021.97V247.541H1016.7V213.728H1005.54V208.917H1033.1Z" fill="#3B3B3B"/>
<path d="M821.606 178.79H819.11V176.647H823.956V191.709H826.647V193.852H818.891V191.709H821.606V178.79Z" fill="#FFFAF1"/>
<rect x="803.728" y="291.846" width="283.667" height="77.0005" transform="rotate(2 803.728 291.846)" fill="#3B3B3B"/>
<path d="M857.641 319.376V327.822L854.115 331.349L858.871 336.132V345.699L852.694 351.85H832.493V313.226H851.464L857.641 319.376ZM837.769 334.328V347.039H850.07L853.596 343.513V337.854L850.07 334.328H837.769ZM852.366 321.563L848.84 318.036H837.769V329.517H849.168L852.366 326.319V321.563ZM890.66 334.547H874.505V347.039H892.464V351.85H869.229V313.226H892.464V318.036H874.505V329.736H890.66V334.547ZM908.07 337.061V351.85H902.794V313.226H921.764L927.942 319.376V332.579L921.764 338.756H910.311L908.07 337.061ZM922.666 321.563L919.14 318.036H908.07V333.945H919.14L922.666 330.419V321.563ZM946.773 318.036L943.247 321.563V343.513L946.773 347.039H956.805L961.452 342.556L965.142 346.246L959.429 351.85H944.149L937.999 345.699V319.376L944.149 313.226H958.773L964.131 318.529L960.441 322.246L956.122 318.036H946.773ZM996.001 313.226V318.036H984.876V351.85H979.6V318.036H968.448V313.226H996.001ZM1023.03 313.226H1028.75L1020.57 331.923L1030.36 351.85H1024.43L1015.93 334.492H1008.82V351.85H1003.54V313.226H1008.82V329.681H1016.09L1023.03 313.226ZM1063.16 351.85H1057.61L1054.66 342.392H1041.73L1038.86 351.85H1033.72L1045.47 313.226H1051.02L1063.16 351.85ZM1047.93 319.95L1047.22 324.132L1043.18 337.581H1053.15L1048.94 324.132L1048.21 319.95H1047.93Z" fill="#FFFAF1"/>
<path d="M796.153 272.271L798.905 275.011V279.382L790.869 287.26V287.333H799.173V289.476H787.825V287.333L796.555 278.554V275.985L794.984 274.414H791.575L789.651 276.289L788.007 274.633L790.394 272.271H796.153Z" fill="#FFFAF1"/>
<rect x="775.646" y="403.271" width="335.677" height="77.0005" transform="rotate(-1 775.646 403.271)" fill="#FFFAF1"/>
<path d="M835.415 457.343H830.139V423.53H814.367V457.343H809.091V418.719H835.415V457.343ZM852.415 442.555V457.343H847.139V418.719H866.11L872.287 424.869V438.072L866.11 444.249H854.656L852.415 442.555ZM867.012 427.056L863.485 423.53H852.415V439.438H863.485L867.012 435.912V427.056ZM904.048 440.04H887.893V452.532H905.852V457.343H882.618V418.719H905.852V423.53H887.893V435.229H904.048V440.04ZM942.506 457.343H937.23V423.53H921.458V457.343H916.183V418.719H942.506V457.343ZM959.506 442.555V457.343H954.23V418.719H973.201L979.378 424.869V438.072L973.201 444.249H961.747L959.506 442.555ZM974.103 427.056L970.577 423.53H959.506V439.438H970.577L974.103 435.912V427.056ZM1011.14 440.04H994.984V452.532H1012.94V457.343H989.709V418.719H1012.94V423.53H994.984V435.229H1011.14V440.04ZM1031.77 423.53L1028.25 427.056V449.006L1031.77 452.532H1041.81L1046.45 448.049L1050.14 451.739L1044.43 457.343H1029.15L1023 451.192V424.869L1029.15 418.719H1043.77L1049.13 424.022L1045.44 427.739L1041.12 423.53H1031.77ZM1066.16 423.53L1062.63 427.056V449.006L1066.16 452.532H1076.19L1080.84 448.049L1084.53 451.739L1078.82 457.343H1063.54L1057.39 451.192V424.869L1063.54 418.719H1078.16L1083.52 424.022L1079.83 427.739L1075.51 423.53H1066.16Z" fill="#FF711F"/>
<path d="M768.397 387.925L771.137 390.664V395.23L768.397 397.97H761.883L759.497 395.595L761.141 393.952L763.064 395.827H767.228L768.799 394.256V391.638L767.228 390.068H761.883V387.925L767.496 382.981V382.908H760.386V380.765H770.662V382.908L765.025 387.852V387.925H768.397Z" fill="#FFFAF1"/>
<path d="M35.2031 227.235H619.11" stroke="#FFFAF1" stroke-width="1.8636"/>
<path d="M35.2031 310.235H619.11" stroke="#FFFAF1" stroke-width="1.8636"/>
<path d="M231.238 197.571H220.075L215.05 174.502H220.075L223.887 193.215H232.105L235.446 174.502H240.249L234.877 203.908L229.308 209.478H220.322V205.121H227.278L230.471 201.928L231.238 197.571ZM263.292 197.918H252.92L247.326 192.348V174.502H252.103V190.368L255.296 193.561H265.321V174.502H270.099V209.478H265.321V196.408L263.292 197.918ZM300.122 193.809H285.493V205.121H301.756V209.478H280.716V174.502H301.756V178.858H285.493V189.452H300.122V193.809ZM317.917 187.67H329.056L334.626 193.264V203.908L329.056 209.478H311.11V174.502H332.249V178.858H315.888V189.205L317.917 187.67ZM315.888 192.027V205.121H326.68L329.873 201.928V195.245L326.68 192.027H315.888ZM368.164 209.478H363.387V193.462H348.807V209.478H344.03V174.502H348.807V189.106H363.387V174.502H368.164V209.478ZM397.024 174.502H402.717V209.478H397.94V181.606H397.742L396.331 185.64L384.301 209.478H378.83V174.502H383.608V202.373H383.806L385.217 198.314L397.024 174.502ZM430.983 174.502H436.156L428.755 191.433L437.617 209.478H432.245L424.547 193.759H418.111V209.478H413.334V174.502H418.111V189.403H424.696L430.983 174.502ZM129.908 290.478H125.13V259.858H110.848V290.478H106.071V255.502H129.908V290.478ZM165.278 261.071V284.908L159.684 290.478H145.847L140.277 284.908V261.071L145.847 255.502H159.684L165.278 261.071ZM148.223 259.858L145.03 263.051V282.928L148.223 286.121H157.307L160.5 282.928V263.051L157.307 259.858H148.223ZM191.289 255.502H210.522V286.121H214.309V297.062H209.557V290.478H188.319V297.062H183.541V286.121H185.868L187.898 284.091L191.289 255.502ZM205.745 259.858H195.547L192.626 283.893L190.274 286.121H205.745V259.858ZM240.1 255.502H245.793V290.478H241.016V262.606H240.818L239.407 266.64L227.377 290.478H221.907V255.502H226.684V283.373H226.882L228.293 279.314L240.1 255.502ZM253.118 285.403L256.46 282.062L260.668 286.121H270.297L273.49 282.928V277.804L270.297 274.611H262.079V270.551H269.48L272.376 267.655V263.051L269.183 259.858H261.237L257.326 263.67L253.984 260.304L258.836 255.502H271.559L277.153 261.071V268.72L273.96 271.913L278.267 276.245V284.908L272.673 290.478H258.291L253.118 285.403ZM309.998 290.478H304.974L302.3 281.913H290.592L287.993 290.478H283.339L293.983 255.502H299.008L309.998 290.478ZM296.211 261.591L295.567 265.378L291.904 277.556H300.939L297.127 265.378L296.459 261.591H296.211ZM325.888 249.313H331.358L332.324 248.348V246.368H335.665V250.081L333.586 252.16H323.66L321.581 250.081V246.368H324.923V248.348L325.888 249.313ZM334.551 255.502H340.245V290.478H335.467V262.606H335.269L333.858 266.64L321.828 290.478H316.358V255.502H321.135V283.373H321.333L322.744 279.314L334.551 255.502ZM374.996 290.478H370.218V274.462H355.639V290.478H350.862V255.502H355.639V270.106H370.218V255.502H374.996V290.478ZM399.054 278.571H387.89L382.865 255.502H387.89L391.702 274.215H399.92L403.262 255.502H408.064L402.692 284.908L397.123 290.478H388.138V286.121H395.093L398.286 282.928L399.054 278.571ZM445.734 255.502H450.907L443.506 272.433L452.368 290.478H446.996L439.298 274.759H432.862V290.478H428.085V255.502H432.862V270.403H439.447L445.734 255.502ZM483.851 290.478H479.074V274.462H464.495V290.478H459.717V255.502H464.495V270.106H479.074V255.502H483.851V290.478ZM512.711 255.502H518.405V290.478H513.627V262.606H513.429L512.018 266.64L499.988 290.478H494.518V255.502H499.295V283.373H499.493L500.904 279.314L512.711 255.502ZM529.022 255.502H549.913V259.858H533.799V290.478H529.022V255.502Z" fill="#FFFAF1"/>
<g clip-path="url(#clip1_1209_18978)">
<path d="M594.978 440.119L691.321 836.077L71.8692 986.8L-24.4739 590.842L594.978 440.119Z" fill="#FFFAF1"/>
<path d="M563.932 423.855L660.275 819.813L12.343 977.466L-84.0001 581.508L563.932 423.855Z" fill="#3B3B3B"/>
<path d="M286.34 491.944C285.252 487.25 282.797 482.984 279.284 479.685C275.772 476.387 271.36 474.204 266.607 473.412C261.854 472.621 256.972 473.257 252.581 475.24C248.189 477.222 244.484 480.463 241.934 484.551C239.384 488.64 238.103 493.393 238.255 498.209C238.406 503.025 239.982 507.689 242.783 511.609C245.585 515.53 249.486 518.531 253.993 520.235C258.501 521.938 263.412 522.267 268.106 521.179" stroke="#FFFAF1" stroke-width="1.85307"/>
<path d="M172.242 519.247C171.154 514.553 168.698 510.287 165.186 506.988C161.673 503.689 157.262 501.506 152.509 500.715C147.755 499.924 142.874 500.56 138.483 502.542C134.091 504.525 130.386 507.766 127.836 511.854C125.286 515.943 124.005 520.696 124.156 525.512C124.308 530.328 125.884 534.991 128.685 538.912C131.486 542.832 135.388 545.834 139.895 547.538C144.403 549.241 149.314 549.57 154.008 548.482" stroke="#FFFAF1" stroke-width="1.85307"/>
<path d="M61.235 545.71C60.1471 541.016 57.6916 536.75 54.1791 533.451C50.6667 530.152 46.2549 527.969 41.5017 527.178C36.7485 526.387 31.8674 527.022 27.4757 529.005C23.0839 530.988 19.3788 534.229 16.8287 538.317C14.2787 542.406 12.9983 547.159 13.1495 551.975C13.3007 556.791 14.8767 561.454 17.6782 565.375C20.4796 569.295 24.3807 572.297 28.8882 574C33.3957 575.704 38.307 576.032 43.0012 574.945" stroke="#FFFAF1" stroke-width="1.85307"/>
<path d="M391.601 466.463C390.513 461.769 388.057 457.502 384.545 454.204C381.032 450.905 376.621 448.722 371.867 447.931C367.114 447.139 362.233 447.775 357.841 449.758C353.45 451.741 349.745 454.981 347.194 459.07C344.644 463.159 343.364 467.911 343.515 472.728C343.666 477.544 345.242 482.207 348.044 486.128C350.845 490.048 354.746 493.05 359.254 494.753C363.761 496.457 368.673 496.785 373.367 495.697" stroke="#FFFAF1" stroke-width="1.85307"/>
<path d="M496.863 440.98C495.775 436.286 493.32 432.02 489.807 428.721C486.295 425.423 481.883 423.24 477.13 422.448C472.376 421.657 467.495 422.293 463.104 424.276C458.712 426.259 455.007 429.499 452.457 433.588C449.907 437.676 448.626 442.429 448.777 447.245C448.929 452.061 450.505 456.725 453.306 460.645C456.108 464.566 460.009 467.568 464.516 469.271C469.024 470.974 473.935 471.303 478.629 470.215" stroke="#FFFAF1" stroke-width="1.85307"/>
</g>
</g>
<defs>
<clipPath id="clip0_1209_18978">
<rect width="1280" height="709" fill="white"/>
</clipPath>
<clipPath id="clip1_1209_18978">
<rect width="681" height="340" fill="white" transform="translate(0 369)"/>
</clipPath>
</defs>
</svg>
