<svg width="834" height="1234" viewBox="0 0 834 1234" fill="none" xmlns="http://www.w3.org/2000/svg">
<g clip-path="url(#clip0_1275_55895)">
<rect width="834" height="1234" fill="#1FAE62"/>
<path d="M-6.1543 137.471H839.846" stroke="#FFFAF1" stroke-width="2.43992"/>
<path d="M-6.1543 233.366H839.846" stroke="#FFFAF1" stroke-width="2.43992"/>
<path d="M-6.1543 329.261H839.846" stroke="#FFFAF1" stroke-width="2.43992"/>
<path d="M-6.1543 425.157H839.846" stroke="#FFFAF1" stroke-width="2.43992"/>
<path d="M292.573 194.073H277.957L271.379 163.869H277.957L282.948 188.369H293.708L298.083 163.869H304.37L297.337 202.369L290.046 209.661H278.282V203.957H287.388L291.569 199.777L292.573 194.073ZM334.539 194.527H320.96L313.636 187.235V163.869H319.891V184.642L324.071 188.823H337.196V163.869H343.451V209.661H337.196V192.55L334.539 194.527ZM382.759 189.147H363.606V203.957H384.898V209.661H357.352V163.869H384.898V169.573H363.606V183.443H382.759V189.147ZM406.058 181.11H420.641L427.933 188.434V202.369L420.641 209.661H397.146V163.869H424.822V169.573H403.4V183.119L406.058 181.11ZM403.4 186.814V203.957H417.53L421.711 199.777V191.027L417.53 186.814H403.4ZM471.843 209.661H465.588V188.693H446.5V209.661H440.246V163.869H446.5V182.989H465.588V163.869H471.843V209.661ZM509.628 163.869H517.082V209.661H510.827V173.17H510.568L508.721 178.452L492.971 209.661H485.808V163.869H492.063V200.36H492.322L494.17 195.045L509.628 163.869ZM554.089 163.869H560.862L551.172 186.036L562.774 209.661H555.742L545.663 189.082H537.237V209.661H530.982V163.869H537.237V183.378H545.858L554.089 163.869ZM244.129 302.661H237.874V262.573H219.175V302.661H212.92V256.869H244.129V302.661ZM290.437 264.161V295.369L283.113 302.661H264.997L257.705 295.369V264.161L264.997 256.869H283.113L290.437 264.161ZM268.108 262.573L263.927 266.753V292.777L268.108 296.957H280.002L284.182 292.777V266.753L280.002 262.573H268.108ZM324.493 256.869H349.673V296.957H354.632V311.282H348.41V302.661H320.604V311.282H314.349V296.957H317.395L320.053 294.3L324.493 256.869ZM343.419 262.573H330.067L326.243 294.041L323.164 296.957H343.419V262.573ZM388.398 256.869H395.852V302.661H389.597V266.17H389.338L387.491 271.452L371.741 302.661H364.578V256.869H370.833V293.36H371.092L372.94 288.045L388.398 256.869ZM405.442 296.018L409.817 291.642L415.327 296.957H427.933L432.114 292.777V286.068L427.933 281.888H417.174V276.573H426.864L430.655 272.781V266.753L426.475 262.573H416.072L410.951 267.563L406.576 263.156L412.928 256.869H429.586L436.91 264.161V274.175L432.73 278.355L438.369 284.027V295.369L431.044 302.661H412.215L405.442 296.018ZM479.913 302.661H473.334L469.834 291.448H454.505L451.102 302.661H445.01L458.945 256.869H465.524L479.913 302.661ZM461.862 264.841L461.019 269.8L456.223 285.744H468.051L463.061 269.8L462.186 264.841H461.862ZM500.716 248.767H507.878L509.142 247.503V244.91H513.517V249.772L510.795 252.494H497.799L495.077 249.772V244.91H499.452V247.503L500.716 248.767ZM512.059 256.869H519.513V302.661H513.258V266.17H512.999L511.151 271.452L495.401 302.661H488.239V256.869H494.494V293.36H494.753L496.6 288.045L512.059 256.869ZM565.011 302.661H558.756V281.693H539.668V302.661H533.413V256.869H539.668V275.989H558.756V256.869H565.011V302.661ZM596.508 287.073H581.892L575.314 256.869H581.892L586.883 281.369H597.643L602.018 256.869H608.305L601.272 295.369L593.981 302.661H582.217V296.957H591.323L595.504 292.777L596.508 287.073ZM362.603 349.869H369.376L359.686 372.036L371.288 395.661H364.256L354.177 375.082H345.751V395.661H339.496V349.869H345.751V369.378H354.371L362.603 349.869ZM412.508 395.661H406.254V374.693H387.165V395.661H380.911V349.869H387.165V368.989H406.254V349.869H412.508V395.661ZM450.293 349.869H457.747V395.661H451.492V359.17H451.233L449.386 364.452L433.636 395.661H426.474V349.869H432.728V386.36H432.988L434.835 381.045L450.293 349.869ZM471.647 349.869H499V355.573H477.902V395.661H471.647V349.869Z" fill="#FFFAF1"/>
<path d="M417 1180L417 425" stroke="#FFFAF1" stroke-width="2.65037" stroke-dasharray="9.09 11.36"/>
<path d="M62.752 1381.99L62.752 -0.00589089" stroke="#FFFAF1" stroke-width="2.65037" stroke-dasharray="9.09 11.36"/>
<path d="M770.752 1381.99L770.752 -0.00589089" stroke="#FFFAF1" stroke-width="2.65037" stroke-dasharray="9.09 11.36"/>
<rect x="273.293" y="493.331" width="279.996" height="99.0052" transform="rotate(-3 273.293 493.331)" fill="#FFFAF1"/>
<path d="M336.649 562.752H329.585L318.163 529.434L316.722 522.932H316.335V562.752H309.868V513.091H319.955L331.764 548.342L333.205 554.106H333.486L334.927 548.342L346.28 513.091H356.296V562.752H349.548V522.932H349.162L347.65 529.434L336.649 562.752ZM403.179 562.752H396.044L392.248 550.592H375.624L371.934 562.752H365.326L380.439 513.091H387.574L403.179 562.752ZM383.602 521.737L382.688 527.114L377.487 544.406H390.315L384.903 527.114L383.954 521.737H383.602ZM437.268 513.091H444.613L434.105 537.131L446.687 562.752H439.06L428.13 540.435H418.992V562.752H412.208V513.091H418.992V534.249H428.341L437.268 513.091ZM484.677 540.505H463.906V556.567H486.997V562.752H457.123V513.091H486.997V519.276H463.906V534.319H484.677V540.505ZM530.295 513.091V519.276H515.99V562.752H509.207V519.276H494.867V513.091H530.295Z" fill="#3B3B3B"/>
<path d="M258.152 474.926H254.943V472.171H261.173V491.537H264.633V494.292H254.661V491.537H258.152V474.926Z" fill="#FFFAF1"/>
<rect x="235.164" y="618.862" width="364.732" height="99.0052" transform="rotate(2 235.164 618.862)" fill="#3B3B3B"/>
<path d="M304.264 655.114V665.975L299.73 670.508L305.846 676.659V688.96L297.903 696.868H271.93V647.206H296.321L304.264 655.114ZM278.713 674.339V690.682H294.529L299.062 686.149V678.873L294.529 674.339H278.713ZM297.481 657.926L292.947 653.392H278.713V668.154H293.369L297.481 664.041V657.926ZM346.718 674.621H325.947V690.682H349.038V696.868H319.163V647.206H349.038V653.392H325.947V668.435H346.718V674.621ZM369.104 677.854V696.868H362.32V647.206H386.712L394.655 655.114V672.09L386.712 680.033H371.986L369.104 677.854ZM387.872 657.926L383.338 653.392H369.104V673.847H383.338L387.872 669.313V657.926ZM418.868 653.392L414.334 657.926V686.149L418.868 690.682H431.767L437.742 684.918L442.486 689.663L435.141 696.868H415.494L407.586 688.96V655.114L415.494 647.206H434.297L441.186 654.025L436.441 658.805L430.888 653.392H418.868ZM482.164 647.206V653.392H467.859V696.868H461.076V653.392H446.736V647.206H482.164ZM516.921 647.206H524.266L513.757 671.246L526.34 696.868H518.713L507.783 674.55H498.645V696.868H491.861V647.206H498.645V668.364H507.993L516.921 647.206ZM568.513 696.868H561.378L557.582 684.708H540.958L537.268 696.868H530.66L545.773 647.206H552.908L568.513 696.868ZM548.936 655.852L548.022 661.23L542.821 678.522H555.649L550.237 661.23L549.288 655.852H548.936Z" fill="#FFFAF1"/>
<path d="M225.428 595.122L228.966 598.644V604.264L218.634 614.393V614.487H229.311V617.243H214.72V614.487L225.945 603.2V599.897L223.925 597.877H219.542L217.068 600.288L214.955 598.159L218.023 595.122H225.428Z" fill="#FFFAF1"/>
<rect x="199.061" y="762.13" width="431.605" height="99.0052" transform="rotate(-1 199.061 762.13)" fill="#FFFAF1"/>
<path d="M276.113 832.508H269.33V789.032H249.05V832.508H242.267V782.847H276.113V832.508ZM297.971 813.494V832.508H291.188V782.847H315.58L323.523 790.754V807.73L315.58 815.673H300.853L297.971 813.494ZM316.739 793.566L312.206 789.032H297.971V809.487H312.206L316.739 804.954V793.566ZM364.36 810.261H343.588V826.323H366.68V832.508H336.805V782.847H366.68V789.032H343.588V804.075H364.36V810.261ZM413.808 832.508H407.025V789.032H386.745V832.508H379.962V782.847H413.808V832.508ZM435.666 813.494V832.508H428.883V782.847H453.275L461.218 790.754V807.73L453.275 815.673H438.548L435.666 813.494ZM454.434 793.566L449.901 789.032H435.666V809.487H449.901L454.434 804.954V793.566ZM502.055 810.261H481.283V826.323H504.375V832.508H474.5V782.847H504.375V789.032H481.283V804.075H502.055V810.261ZM528.588 789.032L524.054 793.566V821.789L528.588 826.323H541.486L547.461 820.559L552.206 825.303L544.86 832.508H525.214L517.306 824.6V790.754L525.214 782.847H544.017L550.906 789.665L546.161 794.445L540.608 789.032H528.588ZM572.799 789.032L568.265 793.566V821.789L572.799 826.323H585.698L591.672 820.559L596.417 825.303L589.072 832.508H569.425L561.517 824.6V790.754L569.425 782.847H588.228L595.117 789.665L590.372 794.445L584.819 789.032H572.799Z" fill="#FF711F"/>
<path d="M189.737 743.827L193.26 747.349V753.22L189.737 756.742H181.362L178.293 753.689L180.407 751.576L182.88 753.987H188.235L190.254 751.967V748.601L188.235 746.582H181.362V743.827L188.579 737.471V737.377H179.436V734.621H192.649V737.377L185.401 743.733V743.827H189.737Z" fill="#FFFAF1"/>
<path d="M486.963 957.11L571.669 1305.24L27.0405 1437.76L-57.6654 1089.63L486.963 957.11Z" fill="#FFFAF1"/>
<path d="M459.669 942.812L544.375 1290.94L-25.2942 1429.55L-110 1081.42L459.669 942.812Z" fill="#3B3B3B"/>
<path d="M215.605 1002.68C214.648 998.549 212.49 994.798 209.401 991.897C206.313 988.997 202.434 987.078 198.255 986.382C194.076 985.686 189.785 986.246 185.923 987.989C182.062 989.732 178.805 992.581 176.563 996.176C174.321 999.771 173.195 1003.95 173.328 1008.18C173.461 1012.42 174.846 1016.52 177.309 1019.97C179.772 1023.41 183.202 1026.05 187.165 1027.55C191.128 1029.05 195.446 1029.34 199.574 1028.38" stroke="#FFFAF1" stroke-width="1.69938"/>
<path d="M115.288 1026.68C114.331 1022.55 112.172 1018.8 109.084 1015.9C105.996 1013 102.117 1011.08 97.9379 1010.39C93.7588 1009.69 89.4673 1010.25 85.6061 1011.99C81.7448 1013.74 78.4872 1016.59 76.2452 1020.18C74.0031 1023.78 72.8774 1027.95 73.0103 1032.19C73.1433 1036.42 74.5289 1040.52 76.992 1043.97C79.455 1047.42 82.885 1050.06 86.848 1051.55C90.811 1053.05 95.1291 1053.34 99.2563 1052.38" stroke="#FFFAF1" stroke-width="1.69938"/>
<path d="M17.6909 1049.95C16.7344 1045.82 14.5756 1042.07 11.4874 1039.17C8.39913 1036.27 4.52024 1034.35 0.341201 1033.65C-3.83784 1032.96 -8.12934 1033.52 -11.9906 1035.26C-15.8519 1037 -19.1095 1039.85 -21.3515 1043.45C-23.5935 1047.04 -24.7193 1051.22 -24.5863 1055.46C-24.4534 1059.69 -23.0678 1063.79 -20.6047 1067.24C-18.1416 1070.68 -14.7117 1073.32 -10.7487 1074.82C-6.7857 1076.32 -2.46757 1076.61 1.6596 1075.65" stroke="#FFFAF1" stroke-width="1.69938"/>
<path d="M308.151 980.272C307.195 976.145 305.036 972.394 301.948 969.494C298.86 966.593 294.981 964.674 290.802 963.978C286.623 963.283 282.331 963.842 278.47 965.585C274.609 967.328 271.351 970.177 269.109 973.772C266.867 977.367 265.741 981.546 265.874 985.78C266.007 990.015 267.393 994.115 269.856 997.561C272.319 1001.01 275.749 1003.65 279.712 1005.15C283.675 1006.64 287.993 1006.93 292.12 1005.98" stroke="#FFFAF1" stroke-width="1.69938"/>
<path d="M400.701 957.867C399.744 953.74 397.585 949.989 394.497 947.089C391.409 944.189 387.53 942.269 383.351 941.574C379.172 940.878 374.88 941.437 371.019 943.18C367.158 944.924 363.9 947.773 361.658 951.367C359.416 954.962 358.291 959.141 358.423 963.375C358.556 967.61 359.942 971.71 362.405 975.157C364.868 978.604 368.298 981.243 372.261 982.741C376.224 984.238 380.542 984.527 384.669 983.571" stroke="#FFFAF1" stroke-width="1.69938"/>
</g>
<defs>
<clipPath id="clip0_1275_55895">
<rect width="834" height="1234" fill="white"/>
</clipPath>
</defs>
</svg>
