<svg width="1280" height="709" viewBox="0 0 1280 709" fill="none" xmlns="http://www.w3.org/2000/svg">
<g clip-path="url(#clip0_1209_19086)">
<rect width="1280" height="709" fill="#FF711F"/>
<path d="M257.789 1681.59C646.376 1522.31 832.268 1078.18 672.992 689.598C513.716 301.011 69.5863 115.119 -319 274.395" stroke="white" stroke-width="3.19583" stroke-dasharray="11.98 11.98"/>
<path d="M1083.48 -1020C763.995 -747.427 725.964 -267.467 998.537 52.02C1271.11 371.507 1751.07 409.538 2070.56 136.965" stroke="white" stroke-width="3.19583" stroke-dasharray="11.98 11.98"/>
<rect x="579.834" y="333.216" width="369.911" height="100.411" transform="rotate(-9.14205 579.834 333.216)" fill="#FFFAF1"/>
<path d="M707.415 374.886L719.962 348.9L709.59 324.519H716.968L725.88 345.977H733.116V324.519H739.96V345.977H747.196L756.107 324.519H763.486L753.113 348.9L765.66 374.886H757.854L747.053 352.251H739.96V374.886H733.116V352.251H726.022L715.222 374.886H707.415ZM781.198 324.519H808.895V368.612H814.349V384.367H807.505V374.886H776.921V384.367H770.041V368.612H773.392L776.315 365.689L781.198 324.519ZM802.015 330.792H787.329L783.123 365.404L779.737 368.612H802.015V330.792ZM853.235 352.322H832.168V368.612H855.587V374.886H825.289V324.519H855.587V330.792H832.168V346.049H853.235V352.322ZM899.5 324.519V330.792H884.992V374.886H878.112V330.792H863.569V324.519H899.5Z" fill="#3B3B3B"/>
<rect x="322.506" y="291.873" width="369.911" height="100.411" transform="rotate(2 322.506 291.873)" fill="#3B3B3B"/>
<path d="M370.586 358.256H355.651L347.595 350.236V324.536H354.475V347.385L359.073 351.983H373.509V324.536H380.389V374.903H373.509V356.082L370.586 358.256ZM426.119 324.536V330.809H411.611V374.903H404.732V330.809H390.188V324.536H426.119ZM470.103 332.556V366.883L462.047 374.903H442.121L434.101 366.883V332.556L442.121 324.536H462.047L470.103 332.556ZM445.543 330.809L440.945 335.408V364.031L445.543 368.629H458.625L463.223 364.031V335.408L458.625 330.809H445.543ZM530.124 324.536V330.809H515.616V374.903H508.736V330.809H494.193V324.536H530.124ZM567.905 352.339H546.839V368.629H570.258V374.903H539.959V324.536H570.258V330.809H546.839V346.066H567.905V352.339ZM593.531 343.499H609.572L617.592 351.555V366.883L609.572 374.903H583.729V324.536H614.17V330.809H590.608V345.709L593.531 343.499ZM590.608 349.773V368.629H606.15L610.748 364.031V354.407L606.15 349.773H590.608ZM655.373 356.296H645.891L635.875 374.903H628.211L638.513 356.011L630.172 348.026V332.556L638.228 324.536H662.253V374.903H655.373V356.296ZM655.373 350.022V330.809H641.65L637.051 335.408V345.424L641.65 350.022H655.373Z" fill="#FFFAF1"/>
</g>
<defs>
<clipPath id="clip0_1209_19086">
<rect width="1280" height="709" fill="white"/>
</clipPath>
</defs>
</svg>
