<svg width="375" height="726" viewBox="0 0 375 726" fill="none" xmlns="http://www.w3.org/2000/svg">
<g clip-path="url(#clip0_1212_19171)">
<rect width="375" height="726" fill="#1FAE62"/>
<path d="M0.115234 47.6641H375" stroke="#FFFAF1" stroke-width="1.50117"/>
<path d="M0.115234 106.664H375" stroke="#FFFAF1" stroke-width="1.50117"/>
<path d="M0.115234 165.664H375" stroke="#FFFAF1" stroke-width="1.50117"/>
<path d="M0.115234 224.664H375" stroke="#FFFAF1" stroke-width="1.50117"/>
<path d="M38 48H412.885" stroke="#FFFAF1" stroke-width="1.50117"/>
<path d="M38 107H412.885" stroke="#FFFAF1" stroke-width="1.50117"/>
<path d="M38 166H412.885" stroke="#FFFAF1" stroke-width="1.50117"/>
<path d="M38 225H412.885" stroke="#FFFAF1" stroke-width="1.50117"/>
<path d="M111.098 82.882H102.106L98.0582 64.2988H102.106L105.176 79.3727H111.796L114.488 64.2988H118.356L114.029 87.9864L109.543 92.4727H102.305V88.9634H107.908L110.48 86.3912L111.098 82.882ZM136.918 83.1611H128.563L124.057 78.6748V64.2988H127.905V77.0797L130.477 79.6518H138.553V64.2988H142.401V92.4727H138.553V81.9448L136.918 83.1611ZM166.586 79.8512H154.802V88.9634H167.901V92.4727H150.953V64.2988H167.901V67.808H154.802V76.342H166.586V79.8512ZM180.92 74.9063H189.893L194.379 79.4126V87.9864L189.893 92.4727H175.437V64.2988H192.465V67.808H179.285V76.1426L180.92 74.9063ZM179.285 78.4156V88.9634H187.979L190.551 86.3912V81.0077L187.979 78.4156H179.285ZM221.395 92.4727H217.547V79.5721H205.802V92.4727H201.954V64.2988H205.802V76.0628H217.547V64.2988H221.395V92.4727ZM244.642 64.2988H249.228V92.4727H245.38V70.0213H245.22L244.084 73.2713L234.393 92.4727H229.987V64.2988H233.835V86.7501H233.995L235.131 83.4801L244.642 64.2988ZM271.997 64.2988H276.164L270.202 77.9371L277.341 92.4727H273.014L266.813 79.8114H261.629V92.4727H257.78V64.2988H261.629V76.3021H266.932L271.997 64.2988ZM81.2926 149.473H77.4444V124.808H65.9395V149.473H62.0913V121.299H81.2926V149.473ZM109.784 125.785V144.986L105.278 149.473H94.1318L89.6455 144.986V125.785L94.1318 121.299H105.278L109.784 125.785ZM96.0459 124.808L93.4738 127.38V143.391L96.0459 145.963H103.364L105.936 143.391V127.38L103.364 124.808H96.0459ZM130.737 121.299H146.229V145.963H149.28V154.776H145.452V149.473H128.344V154.776H124.496V145.963H126.37L128.005 144.328L130.737 121.299ZM142.381 124.808H134.166L131.813 144.169L129.919 145.963H142.381V124.808ZM170.055 121.299H174.641V149.473H170.793V127.021H170.633L169.497 130.271L159.806 149.473H155.4V121.299H159.248V143.75H159.407L160.544 140.48L170.055 121.299ZM180.541 145.385L183.233 142.693L186.623 145.963H194.379L196.951 143.391V139.264L194.379 136.692H187.759V133.422H193.721L196.054 131.089V127.38L193.482 124.808H187.081L183.931 127.879L181.239 125.167L185.147 121.299H195.396L199.902 125.785V131.946L197.33 134.518L200.799 138.008V144.986L196.293 149.473H184.709L180.541 145.385ZM226.36 149.473H222.312L220.159 142.574H210.727L208.634 149.473H204.885L213.459 121.299H217.507L226.36 149.473ZM215.254 126.204L214.735 129.254L211.784 139.064H219.062L215.991 129.254L215.453 126.204H215.254ZM239.159 116.314H243.565L244.343 115.536V113.941H247.035V116.932L245.36 118.607H237.364L235.69 116.932V113.941H238.381V115.536L239.159 116.314ZM246.138 121.299H250.724V149.473H246.875V127.021H246.716L245.579 130.271L235.889 149.473H231.482V121.299H235.331V143.75H235.49L236.627 140.48L246.138 121.299ZM278.716 149.473H274.868V136.572H263.124V149.473H259.276V121.299H263.124V133.063H274.868V121.299H278.716V149.473ZM298.096 139.882H289.103L285.055 121.299H289.103L292.174 136.373H298.793L301.485 121.299H305.353L301.027 144.986L296.54 149.473H289.302V145.963H294.905L297.477 143.391L298.096 139.882ZM154.184 178.299H158.351L152.39 191.937L159.528 206.473H155.201L149 193.811H143.816V206.473H139.968V178.299H143.816V190.302H149.12L154.184 178.299ZM184.889 206.473H181.041V193.572H169.296V206.473H165.448V178.299H169.296V190.063H181.041V178.299H184.889V206.473ZM208.136 178.299H212.722V206.473H208.874V184.021H208.714L207.578 187.271L197.887 206.473H193.481V178.299H197.329V200.75H197.489L198.625 197.48L208.136 178.299ZM221.274 178.299H238.103V181.808H225.123V206.473H221.274V178.299Z" fill="#FFFAF1"/>
<path d="M17.543 726L17.543 -0.000129181" stroke="#FFFAF1" stroke-width="1.5" stroke-dasharray="6 7"/>
<path d="M179.277 726L179.277 224.664" stroke="#FFFAF1" stroke-width="1.5" stroke-dasharray="6 7"/>
<path d="M357.457 726L357.457 -0.000129181" stroke="#FFFAF1" stroke-width="1.5" stroke-dasharray="6 7"/>
<rect x="99.2368" y="291.219" width="172.269" height="60.9134" transform="rotate(-3 99.2368 291.219)" fill="#FFFAF1"/>
<path d="M138.077 333.479H133.731L126.703 312.979L125.816 308.979H125.578V333.479H121.599V302.924H127.806L135.071 324.613L135.958 328.159H136.131L137.017 324.613L144.002 302.924H150.165V333.479H146.013V308.979H145.775L144.845 312.979L138.077 333.479ZM179.009 333.479H174.62L172.284 325.997H162.056L159.786 333.479H155.72L165.019 302.924H169.408L179.009 333.479ZM166.965 308.243L166.403 311.552L163.202 322.191H171.095L167.765 311.552L167.181 308.243H166.965ZM199.983 302.924H204.502L198.037 317.715L205.778 333.479H201.086L194.361 319.747H188.738V333.479H184.565V302.924H188.738V315.942H194.49L199.983 302.924ZM229.152 319.791H216.372V329.673H230.579V333.479H212.199V302.924H230.579V306.73H216.372V315.985H229.152V319.791ZM257.218 302.924V306.73H248.417V333.479H244.244V306.73H235.421V302.924H257.218Z" fill="#3B3B3B"/>
<path d="M89.9215 279.823H87.947V278.127H91.7805V290.042H93.9092V291.737H87.7736V290.042H89.9215V279.823Z" fill="#FFFAF1"/>
<rect x="75.7769" y="368.453" width="224.403" height="60.9134" transform="rotate(2 75.7769 368.453)" fill="#3B3B3B"/>
<path d="M118.58 390.304V396.986L115.79 399.776L119.553 403.56V411.128L114.666 415.994H98.6857V385.439H113.693L118.58 390.304ZM102.859 402.133V412.188H112.59L115.379 409.398V404.922L112.59 402.133H102.859ZM114.406 392.034L111.617 389.245H102.859V398.327H111.876L114.406 395.797V392.034ZM144.7 402.306H131.92V412.188H146.127V415.994H127.747V385.439H146.127V389.245H131.92V398.5H144.7V402.306ZM158.472 404.295V415.994H154.299V385.439H169.306L174.193 390.304V400.749L169.306 405.636H160.246L158.472 404.295ZM170.02 392.034L167.23 389.245H158.472V401.83H167.23L170.02 399.04V392.034ZM189.09 389.245L186.301 392.034V409.398L189.09 412.188H197.026L200.702 408.642L203.621 411.561L199.102 415.994H187.014L182.149 411.128V390.304L187.014 385.439H198.583L202.821 389.634L199.902 392.575L196.486 389.245H189.09ZM228.033 385.439V389.245H219.232V415.994H215.059V389.245H206.236V385.439H228.033ZM249.418 385.439H253.937L247.471 400.23L255.213 415.994H250.52L243.795 402.262H238.173V415.994H234V385.439H238.173V398.457H243.925L249.418 385.439ZM281.16 415.994H276.77L274.435 408.512H264.207L261.936 415.994H257.871L267.169 385.439H271.559L281.16 415.994ZM269.115 390.759L268.553 394.067L265.353 404.706H273.245L269.915 394.067L269.331 390.759H269.115Z" fill="#FFFAF1"/>
<path d="M69.7862 353.773L71.963 355.941V359.398L65.6059 365.63V365.688H72.1749V367.383H63.1979V365.688L70.104 358.743V356.711L68.8615 355.469H66.1646L64.6427 356.952L63.3424 355.642L65.2303 353.773H69.7862Z" fill="#FFFAF1"/>
<rect x="53.5635" y="456.598" width="265.547" height="60.9134" transform="rotate(-1 53.5635 456.598)" fill="#FFFAF1"/>
<path d="M100.803 499.447H96.6296V472.698H84.1526V499.447H79.9792V468.892H100.803V499.447ZM114.251 487.748V499.447H110.078V468.892H125.085L129.972 473.758V484.202L125.085 489.089H116.025L114.251 487.748ZM125.799 475.487L123.009 472.698H114.251V485.283H123.009L125.799 482.494V475.487ZM155.097 485.759H142.318V495.641H156.524V499.447H138.144V468.892H156.524V472.698H142.318V481.953H155.097V485.759ZM185.52 499.447H181.347V472.698H168.87V499.447H164.697V468.892H185.52V499.447ZM198.969 487.748V499.447H194.795V468.892H209.802L214.689 473.758V484.202L209.802 489.089H200.742L198.969 487.748ZM210.516 475.487L207.727 472.698H198.969V485.283H207.727L210.516 482.494V475.487ZM239.815 485.759H227.035V495.641H241.242V499.447H222.862V468.892H241.242V472.698H227.035V481.953H239.815V485.759ZM256.139 472.698L253.35 475.487V492.851L256.139 495.641H264.075L267.751 492.095L270.67 495.014L266.151 499.447H254.063L249.198 494.581V473.758L254.063 468.892H265.632L269.87 473.087L266.951 476.028L263.534 472.698H256.139ZM283.34 472.698L280.551 475.487V492.851L283.34 495.641H291.276L294.952 492.095L297.872 495.014L293.352 499.447H281.264L276.399 494.581V473.758L281.264 468.892H292.833L297.071 473.087L294.152 476.028L290.736 472.698H283.34Z" fill="#FF711F"/>
<path d="M47.8287 445.265L49.9959 447.432V451.044L47.8287 453.211H42.6756L40.7877 451.333L42.0881 450.032L43.6099 451.516H46.9041L48.1466 450.273V448.202L46.9041 446.96H42.6756V445.265L47.116 441.354V441.296H41.4909V439.601H49.6203V441.296L45.1607 445.207V445.265H47.8287Z" fill="#FFFAF1"/>
<path d="M336.862 592.036L388.977 806.225L53.8923 887.757L1.77663 673.568L336.862 592.036Z" fill="#FFFAF1"/>
<path d="M320.068 583.239L372.184 797.428L21.6928 882.708L-30.4229 668.52L320.068 583.239Z" fill="#3B3B3B"/>
<path d="M169.909 620.072C169.32 617.532 167.992 615.225 166.092 613.44C164.192 611.656 161.805 610.475 159.234 610.047C156.663 609.619 154.023 609.963 151.647 611.035C149.271 612.108 147.267 613.861 145.888 616.072C144.508 618.284 143.816 620.855 143.897 623.46C143.979 626.066 144.832 628.588 146.347 630.709C147.863 632.83 149.973 634.454 152.411 635.375C154.849 636.296 157.506 636.474 160.045 635.886" stroke="#FFFAF1" stroke-width="1.04555"/>
<path d="M108.189 634.84C107.6 632.301 106.272 629.993 104.372 628.209C102.472 626.424 100.085 625.243 97.514 624.815C94.9429 624.387 92.3025 624.731 89.9268 625.804C87.5512 626.876 85.5469 628.629 84.1675 630.841C82.7881 633.053 82.0955 635.624 82.1773 638.229C82.2591 640.834 83.1116 643.357 84.627 645.478C86.1424 647.598 88.2527 649.222 90.6909 650.144C93.1292 651.065 95.7859 651.243 98.3252 650.654" stroke="#FFFAF1" stroke-width="1.04555"/>
<path d="M48.1416 649.156C47.5532 646.616 46.2249 644.309 44.3249 642.524C42.4248 640.74 40.0383 639.559 37.4672 639.131C34.896 638.703 32.2556 639.047 29.88 640.119C27.5043 641.192 25.5 642.945 24.1206 645.156C22.7412 647.368 22.0486 649.939 22.1304 652.544C22.2122 655.15 23.0647 657.672 24.5801 659.793C26.0955 661.914 28.2058 663.538 30.6441 664.459C33.0823 665.38 35.7391 665.558 38.2783 664.97" stroke="#FFFAF1" stroke-width="1.04555"/>
<path d="M226.848 606.287C226.26 603.748 224.931 601.44 223.031 599.656C221.131 597.872 218.745 596.691 216.174 596.263C213.603 595.835 210.962 596.179 208.587 597.251C206.211 598.324 204.207 600.077 202.827 602.288C201.448 604.5 200.755 607.071 200.837 609.676C200.919 612.282 201.771 614.804 203.287 616.925C204.802 619.046 206.912 620.669 209.351 621.591C211.789 622.512 214.446 622.69 216.985 622.101" stroke="#FFFAF1" stroke-width="1.04555"/>
<path d="M283.789 592.503C283.2 589.964 281.872 587.656 279.972 585.872C278.072 584.087 275.685 582.907 273.114 582.478C270.543 582.05 267.903 582.394 265.527 583.467C263.151 584.54 261.147 586.292 259.768 588.504C258.388 590.716 257.696 593.287 257.777 595.892C257.859 598.497 258.712 601.02 260.227 603.141C261.742 605.261 263.853 606.885 266.291 607.807C268.729 608.728 271.386 608.906 273.925 608.317" stroke="#FFFAF1" stroke-width="1.04555"/>
</g>
<defs>
<clipPath id="clip0_1212_19171">
<rect width="375" height="726" fill="white"/>
</clipPath>
</defs>
</svg>
