<?xml version="1.0" encoding="UTF-8"?>
<svg xmlns="http://www.w3.org/2000/svg" viewBox="0 0 110.3 117.04">
  <defs>
    <style>
      .cls-1 {
        fill: #231f20;
      }

      .cls-2 {
        fill: #dcddde;
      }
    </style>
  </defs>
  <rect class="cls-2" width="110.3" height="117.04"/>
  <g id="_иллюстрации" data-name="иллюстрации">
    <g>
      <g>
        <path class="cls-1" d="M11.19,13.59c-.23,0-.44.03-.64.08s-.37.12-.53.19l-.24-.49c.19-.09.41-.17.66-.22.24-.05.5-.08.76-.08.4,0,.75.06,1.04.18.3.12.54.3.74.52.19.22.34.49.44.79s.14.64.14,1c0,.54-.09,1.01-.27,1.41s-.45.7-.8.92c-.36.22-.81.33-1.34.33-.29,0-.54-.02-.74-.05-.2-.03-.4-.08-.59-.15v-.51c.19.05.39.1.6.14.2.04.42.06.65.06.31,0,.58-.04.81-.13.23-.08.43-.21.58-.37s.28-.37.36-.6c.08-.24.13-.51.14-.82h-2.48v-.51h2.47c-.02-.27-.08-.5-.16-.71-.09-.21-.21-.39-.36-.53s-.33-.26-.53-.33c-.21-.08-.43-.11-.69-.11Z"/>
        <path class="cls-1" d="M17.15,14.88h-1.24v3.27h-.56v-3.27h-1.22v-.48h3.02v.48Z"/>
        <path class="cls-1" d="M21.14,16.27c0,.31-.04.58-.12.83-.08.24-.2.45-.35.61s-.33.29-.55.38c-.21.09-.46.13-.73.13-.25,0-.48-.04-.69-.13-.21-.09-.39-.22-.54-.38-.15-.17-.27-.37-.35-.61-.08-.24-.13-.52-.13-.83,0-.41.07-.76.21-1.05.14-.29.34-.51.6-.66.26-.15.57-.23.93-.23s.64.08.9.23.46.37.6.66c.14.29.21.64.21,1.05ZM18.28,16.27c0,.3.04.56.12.79.08.22.2.39.37.51.17.12.38.18.64.18s.48-.06.64-.18.29-.29.37-.51c.08-.22.12-.48.12-.79s-.04-.56-.12-.78c-.08-.22-.2-.39-.37-.51-.17-.12-.38-.18-.65-.18-.39,0-.68.13-.86.39s-.27.62-.27,1.07Z"/>
        <path class="cls-1" d="M24.68,14.88h-1.24v3.27h-.56v-3.27h-1.22v-.48h3.02v.48Z"/>
        <path class="cls-1" d="M29.81,14.88h-1.24v3.27h-.56v-3.27h-1.22v-.48h3.02v.48Z"/>
        <path class="cls-1" d="M32,14.33c.32,0,.59.07.82.21.23.14.4.34.52.6.12.25.18.55.18.89v.35h-2.6c0,.44.12.78.33,1.01s.51.35.9.35c.24,0,.45-.02.63-.07.18-.04.37-.11.57-.19v.5c-.19.08-.38.15-.56.19-.19.04-.41.06-.66.06-.36,0-.68-.07-.94-.22-.27-.15-.48-.36-.63-.65-.15-.29-.22-.64-.22-1.05s.07-.76.2-1.05c.14-.3.33-.52.58-.68.25-.16.54-.24.88-.24ZM32,14.8c-.3,0-.55.1-.73.3-.18.2-.29.48-.32.83h1.99c0-.22-.04-.42-.1-.59-.07-.17-.17-.3-.31-.4-.14-.1-.31-.14-.53-.14Z"/>
        <path class="cls-1" d="M36.69,14.4h.63l-1.62,1.81,1.75,1.94h-.67l-1.71-1.91v1.91h-.57v-3.76h.57v1.82l1.62-1.82Z"/>
        <path class="cls-1" d="M39.63,18.23c-.34,0-.64-.07-.89-.21-.26-.14-.46-.35-.6-.64s-.22-.65-.22-1.08.08-.83.23-1.12c.15-.29.36-.5.63-.64s.57-.21.91-.21c.19,0,.37.02.54.06.17.04.32.09.43.14l-.17.48c-.11-.05-.25-.09-.4-.12-.15-.04-.29-.05-.42-.05-.26,0-.48.06-.65.17-.17.11-.3.28-.39.49s-.13.48-.13.8.04.56.13.78c.08.21.21.38.37.49.17.11.37.17.62.17.2,0,.38-.02.54-.06.16-.04.31-.09.44-.15v.51c-.13.06-.27.11-.42.15s-.34.05-.55.05Z"/>
        <path class="cls-1" d="M44.05,14.88h-1.24v3.27h-.56v-3.27h-1.22v-.48h3.02v.48Z"/>
        <path class="cls-1" d="M47.19,14.4v1.58h2.09v-1.58h.57v3.76h-.57v-1.7h-2.09v1.7h-.57v-3.76h.57Z"/>
        <path class="cls-1" d="M52.47,14.34c.45,0,.78.1,1,.3.22.2.33.52.33.96v2.55h-.41l-.11-.56h-.03c-.1.14-.21.25-.33.34-.11.09-.25.16-.4.21-.15.05-.33.07-.55.07-.23,0-.43-.04-.61-.12-.18-.08-.32-.2-.42-.36-.1-.16-.15-.37-.15-.62,0-.38.15-.66.45-.86.3-.2.75-.31,1.36-.33l.65-.03v-.23c0-.32-.07-.55-.21-.68-.14-.13-.34-.2-.59-.2-.2,0-.38.03-.56.09s-.35.12-.51.2l-.17-.43c.17-.09.36-.16.58-.22s.45-.09.69-.09ZM53.23,16.31l-.57.02c-.47.02-.8.09-.99.23s-.29.33-.29.57c0,.21.07.37.2.48s.3.15.52.15c.33,0,.61-.09.82-.28s.32-.46.32-.83v-.35Z"/>
        <path class="cls-1" d="M54.77,15.9c0-.53.05-.99.15-1.37.1-.38.26-.68.48-.91.22-.23.49-.39.83-.47.29-.08.59-.15.89-.21.3-.06.6-.11.88-.15l.1.5c-.14.02-.29.04-.45.07-.16.03-.32.05-.47.08-.16.03-.31.06-.45.09-.14.03-.26.06-.37.09-.19.05-.36.14-.5.27s-.25.31-.33.54c-.08.23-.13.52-.15.86h.04c.07-.1.16-.2.28-.3.12-.1.26-.18.43-.25.16-.06.35-.1.56-.1.33,0,.6.07.81.21.22.14.38.34.49.59s.16.55.16.89c0,.41-.07.75-.21,1.03s-.34.49-.59.63c-.25.14-.55.21-.89.21-.26,0-.5-.05-.71-.15s-.39-.25-.53-.45c-.15-.2-.26-.44-.33-.73-.08-.29-.12-.62-.12-.99ZM56.5,17.75c.22,0,.4-.05.56-.14.16-.09.28-.24.36-.43.09-.2.13-.46.13-.77,0-.4-.08-.71-.23-.93-.15-.23-.39-.34-.73-.34-.21,0-.4.04-.57.13-.17.09-.31.19-.43.31s-.2.23-.25.33c0,.23.02.46.05.68s.09.42.18.59c.09.18.2.32.35.42.15.1.34.15.57.15Z"/>
        <path class="cls-1" d="M60.91,14.33c.47,0,.84.16,1.12.48.28.32.42.81.42,1.45,0,.43-.06.79-.19,1.08-.13.29-.31.51-.54.66-.23.15-.51.22-.82.22-.2,0-.37-.03-.52-.08s-.28-.12-.39-.21c-.11-.09-.2-.19-.27-.29h-.04c0,.09.02.2.03.32s.02.24.02.33v1.54h-.57v-5.44h.47l.08.56h.03c.07-.11.16-.22.27-.31.11-.09.23-.17.39-.23.15-.06.33-.08.54-.08ZM60.81,14.81c-.26,0-.47.05-.63.15-.16.1-.27.25-.35.45-.07.2-.11.45-.12.75v.11c0,.32.03.59.1.81.07.22.19.39.35.5s.38.17.65.17c.23,0,.43-.06.58-.19.16-.13.27-.3.35-.53.08-.23.11-.48.11-.78,0-.44-.09-.8-.26-1.06-.17-.26-.44-.39-.79-.39Z"/>
        <path class="cls-1" d="M64.84,14.34c.45,0,.78.1,1,.3.22.2.33.52.33.96v2.55h-.41l-.11-.56h-.03c-.1.14-.21.25-.33.34-.11.09-.25.16-.4.21-.15.05-.33.07-.55.07-.23,0-.43-.04-.61-.12-.18-.08-.32-.2-.42-.36-.1-.16-.15-.37-.15-.62,0-.38.15-.66.45-.86.3-.2.75-.31,1.36-.33l.65-.03v-.23c0-.32-.07-.55-.21-.68-.14-.13-.34-.2-.59-.2-.2,0-.38.03-.56.09s-.35.12-.51.2l-.17-.43c.17-.09.36-.16.58-.22s.45-.09.69-.09ZM65.6,16.31l-.57.02c-.47.02-.8.09-.99.23s-.29.33-.29.57c0,.21.07.37.2.48s.3.15.52.15c.33,0,.61-.09.82-.28s.32-.46.32-.83v-.35Z"/>
        <path class="cls-1" d="M67.91,14.4v1.58h2.09v-1.58h.57v3.76h-.57v-1.7h-2.09v1.7h-.57v-3.76h.57Z"/>
        <path class="cls-1" d="M78.65,14.4v3.76h-5.04v-3.76h.57v3.27h1.66v-3.27h.57v3.27h1.67v-3.27h.57Z"/>
        <path class="cls-1" d="M81.62,14.33c.47,0,.84.16,1.12.48.28.32.42.81.42,1.45,0,.43-.06.79-.19,1.08-.13.29-.31.51-.54.66-.23.15-.51.22-.82.22-.2,0-.37-.03-.52-.08s-.28-.12-.39-.21c-.11-.09-.2-.19-.27-.29h-.04c0,.09.02.2.03.32s.02.24.02.33v1.54h-.57v-5.44h.47l.08.56h.03c.07-.11.16-.22.27-.31.11-.09.23-.17.39-.23.15-.06.33-.08.54-.08ZM81.52,14.81c-.26,0-.47.05-.63.15-.16.1-.27.25-.35.45-.07.2-.11.45-.12.75v.11c0,.32.03.59.1.81.07.22.19.39.35.5s.38.17.65.17c.23,0,.43-.06.58-.19.16-.13.27-.3.35-.53.08-.23.11-.48.11-.78,0-.44-.09-.8-.26-1.06-.17-.26-.44-.39-.79-.39Z"/>
        <path class="cls-1" d="M84.69,14.4v2.36s0,.1,0,.18c0,.07,0,.15-.01.23,0,.08,0,.16-.01.23,0,.07,0,.14-.01.18l2.05-3.19h.7v3.76h-.53v-2.3c0-.07,0-.17,0-.28,0-.11,0-.23.01-.34,0-.11,0-.2.01-.26l-2.04,3.18h-.7v-3.76h.54Z"/>
        <path class="cls-1" d="M90.8,12.82v1.52c.37.03.7.13.97.29.28.16.49.38.64.66.15.28.23.61.23.99s-.07.7-.22.98-.36.5-.63.66c-.28.16-.61.26-.99.29v1.63h-.56v-1.63c-.37-.03-.7-.12-.97-.28-.28-.16-.49-.38-.64-.66-.15-.28-.23-.61-.23-.99s.07-.71.22-.99c.15-.28.36-.5.64-.66.28-.16.61-.26,1-.29v-1.52h.54ZM90.26,14.82c-.29.03-.53.1-.72.22-.19.12-.33.29-.42.49-.09.21-.14.46-.14.75s.05.54.14.75c.09.21.23.37.42.5.19.12.43.2.71.22v-2.93ZM90.8,14.83v2.92c.29-.03.53-.11.71-.23.19-.12.32-.29.41-.5.09-.21.14-.45.14-.74,0-.43-.1-.77-.31-1.02-.21-.25-.52-.39-.95-.43Z"/>
        <path class="cls-1" d="M93.32,16.53v-.51h1.7v.51h-1.7Z"/>
      </g>
      <g>
        <path class="cls-1" d="M12.73,23.31h-1.24v3.27h-.56v-3.27h-1.22v-.48h3.02v.48Z"/>
        <path class="cls-1" d="M16.71,24.7c0,.31-.04.58-.12.83-.08.24-.2.45-.35.61s-.33.29-.55.38c-.21.09-.46.13-.73.13-.25,0-.48-.04-.69-.13-.21-.09-.39-.22-.54-.38-.15-.17-.27-.37-.35-.61-.08-.24-.13-.52-.13-.83,0-.41.07-.76.21-1.05.14-.29.34-.51.6-.66.26-.15.57-.23.93-.23s.64.08.9.23.46.37.6.66c.14.29.21.64.21,1.05ZM13.85,24.7c0,.3.04.56.12.79.08.22.2.39.37.51.17.12.38.18.64.18s.48-.06.64-.18.29-.29.37-.51c.08-.22.12-.48.12-.79s-.04-.56-.12-.78c-.08-.22-.2-.39-.37-.51-.17-.12-.38-.18-.65-.18-.39,0-.68.13-.86.39s-.27.62-.27,1.07Z"/>
        <path class="cls-1" d="M21.66,22.83v3.76h-.51v-2.45c0-.1,0-.2,0-.31,0-.1.01-.21.02-.31h-.02l-1.25,3.07h-.48l-1.22-3.07h-.02c0,.1.01.21.02.31,0,.1,0,.21,0,.33v2.43h-.52v-3.76h.76l1.21,3.07,1.23-3.07h.76Z"/>
        <path class="cls-1" d="M29.1,24.07c0,.39-.05.74-.15,1.05-.1.32-.24.59-.44.82-.19.23-.43.4-.72.53-.29.12-.62.19-.99.19s-.73-.06-1.02-.19c-.29-.12-.53-.3-.72-.53-.19-.23-.33-.5-.43-.82-.1-.32-.14-.67-.14-1.06,0-.51.09-.96.25-1.35.17-.39.43-.69.77-.9.34-.21.78-.32,1.29-.32s.91.11,1.25.32.6.51.77.9c.17.38.26.84.26,1.36ZM25.11,24.07c0,.43.06.79.18,1.1.12.31.31.55.56.72s.57.25.95.25.71-.08.96-.25c.25-.17.43-.41.55-.72.12-.31.18-.68.18-1.1,0-.65-.14-1.15-.41-1.52-.27-.36-.69-.55-1.27-.55-.39,0-.71.08-.96.25-.25.17-.44.4-.56.71-.12.31-.18.67-.18,1.1Z"/>
        <path class="cls-1" d="M31.9,22.76c.47,0,.84.16,1.12.48.28.32.42.81.42,1.45,0,.43-.06.79-.19,1.08-.13.29-.31.51-.54.66-.23.15-.51.22-.82.22-.2,0-.37-.03-.52-.08s-.28-.12-.39-.21c-.11-.09-.2-.19-.27-.29h-.04c0,.09.02.2.03.32s.02.24.02.33v1.54h-.57v-5.44h.47l.08.56h.03c.07-.11.16-.22.27-.31.11-.09.23-.17.39-.23.15-.06.33-.08.54-.08ZM31.8,23.24c-.26,0-.47.05-.63.15-.16.1-.27.25-.35.45-.07.2-.11.45-.12.75v.11c0,.32.03.59.1.81.07.22.19.39.35.5s.38.17.65.17c.23,0,.43-.06.58-.19.16-.13.27-.3.35-.53.08-.23.11-.48.11-.78,0-.44-.09-.8-.26-1.06-.17-.26-.44-.39-.79-.39Z"/>
        <path class="cls-1" d="M35.87,22.76c.32,0,.59.07.82.21.23.14.4.34.52.6.12.25.18.55.18.89v.35h-2.6c0,.44.12.78.33,1.01s.51.35.9.35c.24,0,.45-.02.63-.07.18-.04.37-.11.57-.19v.5c-.19.08-.38.15-.56.19-.19.04-.41.06-.66.06-.36,0-.68-.07-.94-.22-.27-.15-.48-.36-.63-.65-.15-.29-.22-.64-.22-1.05s.07-.76.2-1.05c.14-.3.33-.52.58-.68.25-.16.54-.24.88-.24ZM35.87,23.23c-.3,0-.55.1-.73.3-.18.2-.29.48-.32.83h1.99c0-.22-.04-.42-.1-.59-.07-.17-.17-.3-.31-.4-.14-.1-.31-.14-.53-.14Z"/>
        <path class="cls-1" d="M40.15,22.76c.45,0,.78.11,1.01.33.23.22.34.57.34,1.05v2.45h-.56v-2.41c0-.31-.07-.55-.21-.7-.14-.16-.36-.23-.66-.23-.42,0-.71.12-.88.35-.17.24-.25.58-.25,1.03v1.97h-.57v-3.76h.46l.09.54h.03c.08-.13.18-.24.31-.33.12-.09.26-.16.41-.21.15-.05.31-.07.48-.07Z"/>
        <path class="cls-1" d="M47.42,25.25c0,.3-.07.55-.22.76-.15.21-.35.37-.62.48-.26.11-.58.16-.94.16-.19,0-.37,0-.54-.03-.17-.02-.32-.04-.47-.08-.14-.03-.27-.08-.37-.13v-.56c.17.07.38.14.63.2.25.06.51.09.77.09.25,0,.46-.03.64-.1.17-.07.31-.16.4-.29.09-.13.14-.28.14-.46s-.04-.31-.11-.43c-.08-.12-.2-.22-.38-.32-.17-.1-.41-.2-.72-.3-.21-.08-.4-.16-.56-.25-.16-.09-.3-.19-.41-.31s-.19-.25-.25-.4c-.06-.15-.08-.32-.08-.52,0-.27.07-.5.2-.69.14-.19.32-.34.57-.44.24-.1.52-.15.83-.15.27,0,.51.03.74.08.23.05.44.12.63.2l-.18.5c-.18-.08-.37-.14-.57-.19s-.41-.08-.63-.08-.4.03-.54.09c-.15.06-.26.15-.34.27-.08.11-.12.25-.12.41,0,.18.04.32.11.44.07.12.19.22.36.31.16.09.38.18.65.28.29.11.55.22.75.34.21.12.36.27.47.44.11.17.16.39.16.66Z"/>
        <path class="cls-1" d="M49.76,22.77c.45,0,.78.1,1,.3.22.2.33.52.33.96v2.55h-.41l-.11-.56h-.03c-.1.14-.21.25-.33.34-.11.09-.25.16-.4.21-.15.05-.33.07-.55.07-.23,0-.43-.04-.61-.12-.18-.08-.32-.2-.42-.36-.1-.16-.15-.37-.15-.62,0-.38.15-.66.45-.86.3-.2.75-.31,1.36-.33l.65-.03v-.23c0-.32-.07-.55-.21-.68-.14-.13-.34-.2-.59-.2-.2,0-.38.03-.56.09s-.35.12-.51.2l-.17-.43c.17-.09.36-.16.58-.22s.45-.09.69-.09ZM50.52,24.73l-.57.02c-.47.02-.8.09-.99.23s-.29.33-.29.57c0,.21.07.37.2.48s.3.15.52.15c.33,0,.61-.09.82-.28s.32-.46.32-.83v-.35Z"/>
        <path class="cls-1" d="M54.03,22.76c.45,0,.78.11,1.01.33.23.22.34.57.34,1.05v2.45h-.56v-2.41c0-.31-.07-.55-.21-.7-.14-.16-.36-.23-.66-.23-.42,0-.71.12-.88.35-.17.24-.25.58-.25,1.03v1.97h-.57v-3.76h.46l.09.54h.03c.08-.13.18-.24.31-.33.12-.09.26-.16.41-.21.15-.05.31-.07.48-.07Z"/>
        <path class="cls-1" d="M58.99,25.56c0,.24-.06.44-.18.6-.12.16-.29.29-.51.37s-.49.12-.8.12c-.26,0-.49-.02-.68-.06s-.36-.1-.5-.17v-.52c.15.08.34.14.55.21s.43.09.65.09c.33,0,.56-.05.71-.16.15-.1.22-.25.22-.43,0-.1-.03-.19-.09-.27-.06-.08-.16-.15-.29-.23-.14-.07-.33-.16-.57-.25-.24-.09-.45-.18-.62-.27-.17-.09-.31-.2-.4-.33-.1-.13-.14-.3-.14-.51,0-.32.13-.56.39-.73.26-.17.59-.26,1.01-.26.23,0,.44.02.64.07.2.04.38.1.55.18l-.19.46c-.15-.07-.32-.12-.5-.17-.18-.05-.36-.07-.54-.07-.26,0-.46.04-.6.13s-.21.21-.21.36c0,.12.03.21.1.29s.17.15.31.21.33.14.57.23c.24.09.44.18.61.27.17.09.3.21.4.34.09.13.14.3.14.51Z"/>
        <path class="cls-1" d="M60.56,25.77l.04.08c-.04.17-.09.34-.16.53-.06.19-.13.38-.21.57-.07.19-.15.37-.22.54h-.43c.05-.18.1-.38.14-.58.05-.2.09-.4.13-.6.04-.2.07-.38.09-.54h.61Z"/>
        <path class="cls-1" d="M65.31,22.76c.47,0,.84.16,1.12.48.28.32.42.81.42,1.45,0,.43-.06.79-.19,1.08-.13.29-.31.51-.54.66-.23.15-.51.22-.82.22-.2,0-.37-.03-.52-.08s-.28-.12-.39-.21c-.11-.09-.2-.19-.27-.29h-.04c0,.09.02.2.03.32s.02.24.02.33v1.54h-.57v-5.44h.47l.08.56h.03c.07-.11.16-.22.27-.31.11-.09.23-.17.39-.23.15-.06.33-.08.54-.08ZM65.21,23.24c-.26,0-.47.05-.63.15-.16.1-.27.25-.35.45-.07.2-.11.45-.12.75v.11c0,.32.03.59.1.81.07.22.19.39.35.5s.38.17.65.17c.23,0,.43-.06.58-.19.16-.13.27-.3.35-.53.08-.23.11-.48.11-.78,0-.44-.09-.8-.26-1.06-.17-.26-.44-.39-.79-.39Z"/>
        <path class="cls-1" d="M69.25,22.77c.45,0,.78.1,1,.3.22.2.33.52.33.96v2.55h-.41l-.11-.56h-.03c-.1.14-.21.25-.33.34-.11.09-.25.16-.4.21-.15.05-.33.07-.55.07-.23,0-.43-.04-.61-.12-.18-.08-.32-.2-.42-.36-.1-.16-.15-.37-.15-.62,0-.38.15-.66.45-.86.3-.2.75-.31,1.36-.33l.65-.03v-.23c0-.32-.07-.55-.21-.68-.14-.13-.34-.2-.59-.2-.2,0-.38.03-.56.09s-.35.12-.51.2l-.17-.43c.17-.09.36-.16.58-.22s.45-.09.69-.09ZM70.01,24.73l-.57.02c-.47.02-.8.09-.99.23s-.29.33-.29.57c0,.21.07.37.2.48s.3.15.52.15c.33,0,.61-.09.82-.28s.32-.46.32-.83v-.35Z"/>
        <path class="cls-1" d="M72.71,22.76c.28,0,.52.04.73.12.21.08.36.19.48.33.11.15.17.32.17.53,0,.23-.06.41-.19.54s-.29.23-.51.29v.03c.15.04.29.1.42.18.12.08.22.18.3.3.07.12.11.28.11.46,0,.21-.06.4-.17.57-.11.17-.29.3-.52.4s-.53.14-.88.14c-.18,0-.34,0-.5-.03-.16-.02-.3-.05-.43-.08-.13-.04-.24-.08-.34-.13v-.52c.16.08.35.15.56.21.22.06.45.09.7.09.19,0,.36-.02.52-.07.15-.04.27-.12.37-.22.09-.1.14-.23.14-.39,0-.15-.04-.27-.12-.37-.08-.1-.2-.17-.36-.22-.16-.05-.36-.07-.6-.07h-.5v-.47h.41c.32,0,.58-.05.77-.14s.29-.25.29-.46c0-.19-.07-.33-.22-.42-.15-.09-.36-.14-.64-.14-.21,0-.39.02-.55.06-.16.04-.33.1-.51.18l-.2-.46c.2-.09.4-.15.62-.2.22-.04.44-.07.67-.07Z"/>
        <path class="cls-1" d="M79.11,22.83v3.76h-.51v-2.45c0-.1,0-.2,0-.31,0-.1.01-.21.02-.31h-.02l-1.25,3.07h-.48l-1.22-3.07h-.02c0,.1.01.21.02.31,0,.1,0,.21,0,.33v2.43h-.52v-3.76h.76l1.21,3.07,1.23-3.07h.76Z"/>
        <path class="cls-1" d="M81.74,22.76c.32,0,.59.07.82.21.23.14.4.34.52.6.12.25.18.55.18.89v.35h-2.6c0,.44.12.78.33,1.01s.51.35.9.35c.24,0,.45-.02.63-.07.18-.04.37-.11.57-.19v.5c-.19.08-.38.15-.56.19-.19.04-.41.06-.66.06-.36,0-.68-.07-.94-.22-.27-.15-.48-.36-.63-.65-.15-.29-.22-.64-.22-1.05s.07-.76.2-1.05c.14-.3.33-.52.58-.68.25-.16.54-.24.88-.24ZM81.73,23.23c-.3,0-.55.1-.73.3-.18.2-.29.48-.32.83h1.99c0-.22-.04-.42-.1-.59-.07-.17-.17-.3-.31-.4-.14-.1-.31-.14-.53-.14Z"/>
        <path class="cls-1" d="M86,22.76c.47,0,.84.16,1.12.48.28.32.42.81.42,1.45,0,.43-.06.79-.19,1.08-.13.29-.31.51-.54.66-.23.15-.51.22-.82.22-.2,0-.37-.03-.52-.08s-.28-.12-.39-.21c-.11-.09-.2-.19-.27-.29h-.04c0,.09.02.2.03.32s.02.24.02.33v1.54h-.57v-5.44h.47l.08.56h.03c.07-.11.16-.22.27-.31.11-.09.23-.17.39-.23.15-.06.33-.08.54-.08ZM85.9,23.24c-.26,0-.47.05-.63.15-.16.1-.27.25-.35.45-.07.2-.11.45-.12.75v.11c0,.32.03.59.1.81.07.22.19.39.35.5s.38.17.65.17c.23,0,.43-.06.58-.19.16-.13.27-.3.35-.53.08-.23.11-.48.11-.78,0-.44-.09-.8-.26-1.06-.17-.26-.44-.39-.79-.39Z"/>
      </g>
      <g>
        <path class="cls-1" d="M12.03,35.01h-.56v-3.55c0-.14,0-.25,0-.35,0-.1,0-.19,0-.27,0-.08,0-.16.02-.25-.07.07-.14.14-.2.19-.06.05-.14.12-.23.19l-.57.46-.3-.39,1.36-1.05h.47v5.01Z"/>
        <path class="cls-1" d="M17.24,32.5c0,.41-.03.77-.09,1.09s-.16.59-.29.81c-.13.22-.3.39-.51.51-.21.12-.46.17-.76.17-.37,0-.68-.1-.92-.31s-.43-.5-.55-.88c-.12-.39-.18-.85-.18-1.39s.05-1,.16-1.38c.11-.38.28-.68.53-.89.24-.21.56-.31.96-.31.38,0,.69.1.93.31.24.21.43.5.55.88.12.39.18.85.18,1.39ZM14.51,32.5c0,.47.04.86.11,1.17.07.31.19.54.34.7.16.15.37.23.63.23s.47-.08.63-.23c.16-.15.27-.39.35-.7s.11-.7.11-1.17-.03-.84-.11-1.15c-.07-.31-.19-.54-.34-.7-.16-.16-.37-.23-.63-.23s-.47.08-.63.23c-.16.16-.27.39-.34.7-.07.31-.1.69-.1,1.15Z"/>
        <path class="cls-1" d="M21.79,31.19c.47,0,.84.16,1.12.48.28.32.42.81.42,1.45,0,.43-.06.79-.19,1.08-.13.29-.31.51-.54.66-.23.15-.51.22-.82.22-.2,0-.37-.03-.52-.08s-.28-.12-.39-.21c-.11-.09-.2-.19-.27-.29h-.04c0,.09.02.2.03.32s.02.24.02.33v1.54h-.57v-5.44h.47l.08.56h.03c.07-.11.16-.22.27-.31.11-.09.23-.17.39-.23.15-.06.33-.08.54-.08ZM21.69,31.67c-.26,0-.47.05-.63.15-.16.1-.27.25-.35.45-.07.2-.11.45-.12.75v.11c0,.32.03.59.1.81.07.22.19.39.35.5s.38.17.65.17c.23,0,.43-.06.58-.19.16-.13.27-.3.35-.53.08-.23.11-.48.11-.78,0-.44-.09-.8-.26-1.06-.17-.26-.44-.39-.79-.39Z"/>
        <path class="cls-1" d="M25.53,34.61c.09,0,.19,0,.29-.02.1-.02.18-.04.24-.06v.44c-.07.03-.16.05-.28.08-.12.02-.23.03-.34.03-.2,0-.38-.03-.54-.1-.16-.07-.29-.19-.39-.36-.1-.17-.15-.4-.15-.69v-2.23h-.53v-.28l.54-.22.23-.82h.34v.87h1.1v.45h-1.1v2.21c0,.24.05.41.16.53.11.12.25.17.43.17Z"/>
        <path class="cls-1" d="M27.47,34.2l.04.08c-.04.17-.09.34-.16.53-.06.19-.13.38-.21.57-.07.19-.15.37-.22.54h-.43c.05-.18.1-.38.14-.58.05-.2.09-.4.13-.6.04-.2.07-.38.09-.54h.61Z"/>
        <path class="cls-1" d="M31,31.25v2.36s0,.1,0,.18c0,.07,0,.15-.01.23,0,.08,0,.16-.01.23,0,.07,0,.14-.01.18l2.05-3.19h.7v3.76h-.53v-2.3c0-.07,0-.17,0-.28,0-.11,0-.23.01-.34,0-.11,0-.2.01-.26l-2.04,3.18h-.7v-3.76h.54Z"/>
        <path class="cls-1" d="M35.5,31.25v1.58h2.09v-1.58h.57v3.76h-.57v-1.7h-2.09v1.7h-.57v-3.76h.57Z"/>
        <path class="cls-1" d="M41.93,31.74h-1.24v3.27h-.56v-3.27h-1.22v-.48h3.02v.48Z"/>
        <path class="cls-1" d="M44.12,31.19c.32,0,.59.07.82.21.23.14.4.34.52.6.12.25.18.55.18.89v.35h-2.6c0,.44.12.78.33,1.01s.51.35.9.35c.24,0,.45-.02.63-.07.18-.04.37-.11.57-.19v.5c-.19.08-.38.15-.56.19-.19.04-.41.06-.66.06-.36,0-.68-.07-.94-.22-.27-.15-.48-.36-.63-.65-.15-.29-.22-.64-.22-1.05s.07-.76.2-1.05c.14-.3.33-.52.58-.68.25-.16.54-.24.88-.24ZM44.11,31.65c-.3,0-.55.1-.73.3-.18.2-.29.48-.32.83h1.99c0-.22-.04-.42-.1-.59-.07-.17-.17-.3-.31-.4-.14-.1-.31-.14-.53-.14Z"/>
        <path class="cls-1" d="M48.38,31.19c.47,0,.84.16,1.12.48.28.32.42.81.42,1.45,0,.43-.06.79-.19,1.08-.13.29-.31.51-.54.66-.23.15-.51.22-.82.22-.2,0-.37-.03-.52-.08s-.28-.12-.39-.21c-.11-.09-.2-.19-.27-.29h-.04c0,.09.02.2.03.32s.02.24.02.33v1.54h-.57v-5.44h.47l.08.56h.03c.07-.11.16-.22.27-.31.11-.09.23-.17.39-.23.15-.06.33-.08.54-.08ZM48.28,31.67c-.26,0-.47.05-.63.15-.16.1-.27.25-.35.45-.07.2-.11.45-.12.75v.11c0,.32.03.59.1.81.07.22.19.39.35.5s.38.17.65.17c.23,0,.43-.06.58-.19.16-.13.27-.3.35-.53.08-.23.11-.48.11-.78,0-.44-.09-.8-.26-1.06-.17-.26-.44-.39-.79-.39Z"/>
        <path class="cls-1" d="M53.73,35.01h-.58v-3.28h-1.14c-.05.59-.1,1.1-.17,1.52-.07.42-.16.77-.26,1.03-.1.27-.23.46-.38.59-.15.12-.32.19-.53.19-.06,0-.12,0-.17-.01s-.1-.02-.14-.03v-.43s.06.02.09.02c.03,0,.07,0,.1,0,.1,0,.2-.04.28-.13.09-.09.16-.22.23-.39.07-.17.13-.39.19-.66.05-.27.1-.58.15-.94.04-.36.08-.77.11-1.23h2.21v3.76Z"/>
        <path class="cls-1" d="M55.47,31.25v2.36s0,.1,0,.18c0,.07,0,.15-.01.23,0,.08,0,.16-.01.23,0,.07,0,.14-.01.18l2.05-3.19h.7v3.76h-.53v-2.3c0-.07,0-.17,0-.28,0-.11,0-.23.01-.34,0-.11,0-.2.01-.26l-2.04,3.18h-.7v-3.76h.54Z"/>
        <path class="cls-1" d="M59.97,31.25v1.58h2.09v-1.58h.57v3.76h-.57v-1.7h-2.09v1.7h-.57v-3.76h.57Z"/>
        <path class="cls-1" d="M64.41,32.8h1.15c.32,0,.59.04.8.12s.37.2.48.36.16.35.16.59-.05.44-.16.61c-.1.17-.26.3-.48.4s-.49.14-.84.14h-1.69v-3.76h.57v1.55ZM66.43,33.89c0-.23-.08-.39-.24-.48-.16-.09-.39-.14-.68-.14h-1.09v1.27h1.09c.27,0,.5-.05.67-.15.17-.1.26-.27.26-.5Z"/>
        <path class="cls-1" d="M68.16,35.01h-.67l1.08-1.58c-.16-.03-.3-.09-.44-.18-.13-.08-.24-.2-.33-.34-.08-.15-.13-.33-.13-.55,0-.36.12-.64.36-.82.24-.19.56-.28.95-.28h1.66v3.76h-.57v-1.51h-.95l-.98,1.51ZM68.24,32.37c0,.22.08.39.24.5.16.11.39.16.69.16h.93v-1.3h-1.03c-.29,0-.5.06-.63.18-.13.12-.19.27-.19.46Z"/>
        <path class="cls-1" d="M76.27,31.25l-1.56,1.83,1.7,1.93h-.65l-1.65-1.91v1.91h-.53v-1.91l-1.64,1.91h-.65l1.7-1.93-1.57-1.83h.63l1.54,1.82v-1.82h.53v1.82l1.54-1.82h.62Z"/>
        <path class="cls-1" d="M80.72,35.01h-.56v-3.55c0-.14,0-.25,0-.35,0-.1,0-.19,0-.27,0-.08,0-.16.02-.25-.07.07-.14.14-.2.19-.06.05-.14.12-.23.19l-.57.46-.3-.39,1.36-1.05h.47v5.01Z"/>
        <path class="cls-1" d="M85.9,35.01h-3.28v-.48l1.34-1.36c.25-.25.46-.48.63-.67.17-.2.3-.39.39-.58.09-.19.13-.4.13-.63,0-.28-.08-.5-.25-.65-.17-.15-.39-.22-.66-.22-.24,0-.45.04-.64.12s-.37.2-.57.35l-.31-.38c.13-.11.28-.21.43-.3.16-.09.32-.16.5-.21.18-.05.37-.08.57-.08.31,0,.58.05.8.16.22.11.4.26.52.46.12.2.18.44.18.71s-.05.51-.16.74c-.1.23-.25.45-.44.68-.19.22-.41.46-.67.71l-1.09,1.09v.02h2.56v.52Z"/>
        <path class="cls-1" d="M90.47,31.19c.47,0,.84.16,1.12.48.28.32.42.81.42,1.45,0,.43-.06.79-.19,1.08-.13.29-.31.51-.54.66-.23.15-.51.22-.82.22-.2,0-.37-.03-.52-.08s-.28-.12-.39-.21c-.11-.09-.2-.19-.27-.29h-.04c0,.09.02.2.03.32s.02.24.02.33v1.54h-.57v-5.44h.47l.08.56h.03c.07-.11.16-.22.27-.31.11-.09.23-.17.39-.23.15-.06.33-.08.54-.08ZM90.37,31.67c-.26,0-.47.05-.63.15-.16.1-.27.25-.35.45-.07.2-.11.45-.12.75v.11c0,.32.03.59.1.81.07.22.19.39.35.5s.38.17.65.17c.23,0,.43-.06.58-.19.16-.13.27-.3.35-.53.08-.23.11-.48.11-.78,0-.44-.09-.8-.26-1.06-.17-.26-.44-.39-.79-.39Z"/>
        <path class="cls-1" d="M94.22,34.61c.09,0,.19,0,.29-.02.1-.02.18-.04.24-.06v.44c-.07.03-.16.05-.28.08-.12.02-.23.03-.34.03-.2,0-.38-.03-.54-.1-.16-.07-.29-.19-.39-.36-.1-.17-.15-.4-.15-.69v-2.23h-.53v-.28l.54-.22.23-.82h.34v.87h1.1v.45h-1.1v2.21c0,.24.05.41.16.53.11.12.25.17.43.17Z"/>
        <path class="cls-1" d="M95.42,34.66c0-.16.04-.27.12-.34.08-.07.17-.1.28-.1s.22.03.29.1c.08.07.12.18.12.34s-.04.27-.12.34c-.08.07-.18.11-.29.11s-.21-.04-.28-.11c-.08-.07-.12-.19-.12-.34Z"/>
      </g>
      <g>
        <path class="cls-1" d="M14.6,40.93c0,.39-.05.74-.15,1.05-.1.32-.24.59-.44.82-.19.23-.43.4-.72.53-.29.12-.62.19-.99.19s-.73-.06-1.02-.19c-.29-.12-.53-.3-.72-.53-.19-.23-.33-.5-.43-.82-.1-.32-.14-.67-.14-1.06,0-.51.09-.96.25-1.35.17-.39.43-.69.77-.9.34-.21.78-.32,1.29-.32s.91.11,1.25.32.6.51.77.9c.17.38.26.84.26,1.36ZM10.61,40.93c0,.43.06.79.18,1.1.12.31.31.55.56.72s.57.25.95.25.71-.08.96-.25c.25-.17.43-.41.55-.72.12-.31.18-.68.18-1.1,0-.65-.14-1.15-.41-1.52-.27-.36-.69-.55-1.27-.55-.39,0-.71.08-.96.25-.25.17-.44.4-.56.71-.12.31-.18.67-.18,1.1Z"/>
        <path class="cls-1" d="M16.2,39.68v1.58h2.09v-1.58h.57v3.76h-.57v-1.7h-2.09v1.7h-.57v-3.76h.57Z"/>
        <path class="cls-1" d="M24.09,39.68h.63l-1.62,1.81,1.75,1.94h-.67l-1.71-1.91v1.91h-.57v-3.76h.57v1.82l1.62-1.82Z"/>
        <path class="cls-1" d="M26.93,39.62c.45,0,.78.1,1,.3.22.2.33.52.33.96v2.55h-.41l-.11-.56h-.03c-.1.14-.21.25-.33.34-.11.09-.25.16-.4.21-.15.05-.33.07-.55.07-.23,0-.43-.04-.61-.12-.18-.08-.32-.2-.42-.36-.1-.16-.15-.37-.15-.62,0-.38.15-.66.45-.86.3-.2.75-.31,1.36-.33l.65-.03v-.23c0-.32-.07-.55-.21-.68-.14-.13-.34-.2-.59-.2-.2,0-.38.03-.56.09s-.35.12-.51.2l-.17-.43c.17-.09.36-.16.58-.22s.45-.09.69-.09ZM27.69,41.59l-.57.02c-.47.02-.8.09-.99.23s-.29.33-.29.57c0,.21.07.37.2.48s.3.15.52.15c.33,0,.61-.09.82-.28s.32-.46.32-.83v-.35Z"/>
        <path class="cls-1" d="M33.83,39.68l-1.56,1.83,1.7,1.93h-.65l-1.65-1.91v1.91h-.53v-1.91l-1.64,1.91h-.65l1.7-1.93-1.57-1.83h.63l1.54,1.82v-1.82h.53v1.82l1.54-1.82h.62Z"/>
        <path class="cls-1" d="M36.03,39.61c.32,0,.59.07.82.21.23.14.4.34.52.6.12.25.18.55.18.89v.35h-2.6c0,.44.12.78.33,1.01s.51.35.9.35c.24,0,.45-.02.63-.07.18-.04.37-.11.57-.19v.5c-.19.08-.38.15-.56.19-.19.04-.41.06-.66.06-.36,0-.68-.07-.94-.22-.27-.15-.48-.36-.63-.65-.15-.29-.22-.64-.22-1.05s.07-.76.2-1.05c.14-.3.33-.52.58-.68.25-.16.54-.24.88-.24ZM36.03,40.08c-.3,0-.55.1-.73.3-.18.2-.29.48-.32.83h1.99c0-.22-.04-.42-.1-.59-.07-.17-.17-.3-.31-.4-.14-.1-.31-.14-.53-.14Z"/>
        <path class="cls-1" d="M41.09,40.16h-1.24v3.27h-.56v-3.27h-1.22v-.48h3.02v.48Z"/>
        <path class="cls-1" d="M43.34,43.51c-.34,0-.64-.07-.89-.21-.26-.14-.46-.35-.6-.64s-.22-.65-.22-1.08.08-.83.23-1.12c.15-.29.36-.5.63-.64s.57-.21.91-.21c.19,0,.37.02.54.06.17.04.32.09.43.14l-.17.48c-.11-.05-.25-.09-.4-.12-.15-.04-.29-.05-.42-.05-.26,0-.48.06-.65.17-.17.11-.3.28-.39.49s-.13.48-.13.8.04.56.13.78c.08.21.21.38.37.49.17.11.37.17.62.17.2,0,.38-.02.54-.06.16-.04.31-.09.44-.15v.51c-.13.06-.27.11-.42.15s-.34.05-.55.05Z"/>
        <path class="cls-1" d="M45.38,43.44h-.67l1.08-1.58c-.16-.03-.3-.09-.44-.18-.13-.08-.24-.2-.33-.34-.08-.15-.13-.33-.13-.55,0-.36.12-.64.36-.82.24-.19.56-.28.95-.28h1.66v3.76h-.57v-1.51h-.95l-.98,1.51ZM45.46,40.79c0,.22.08.39.24.5.16.11.39.16.69.16h.93v-1.3h-1.03c-.29,0-.5.06-.63.18-.13.12-.19.27-.19.46Z"/>
        <path class="cls-1" d="M51.48,39.68v1.58h2.09v-1.58h.57v3.76h-.57v-1.7h-2.09v1.7h-.57v-3.76h.57Z"/>
        <path class="cls-1" d="M56.76,39.62c.45,0,.78.1,1,.3.22.2.33.52.33.96v2.55h-.41l-.11-.56h-.03c-.1.14-.21.25-.33.34-.11.09-.25.16-.4.21-.15.05-.33.07-.55.07-.23,0-.43-.04-.61-.12-.18-.08-.32-.2-.42-.36-.1-.16-.15-.37-.15-.62,0-.38.15-.66.45-.86.3-.2.75-.31,1.36-.33l.65-.03v-.23c0-.32-.07-.55-.21-.68-.14-.13-.34-.2-.59-.2-.2,0-.38.03-.56.09s-.35.12-.51.2l-.17-.43c.17-.09.36-.16.58-.22s.45-.09.69-.09ZM57.52,41.59l-.57.02c-.47.02-.8.09-.99.23s-.29.33-.29.57c0,.21.07.37.2.48s.3.15.52.15c.33,0,.61-.09.82-.28s.32-.46.32-.83v-.35Z"/>
        <path class="cls-1" d="M63.22,39.68v3.76h-.51v-2.45c0-.1,0-.2,0-.31,0-.1.01-.21.02-.31h-.02l-1.25,3.07h-.48l-1.22-3.07h-.02c0,.1.01.21.02.31,0,.1,0,.21,0,.33v2.43h-.52v-3.76h.76l1.21,3.07,1.23-3.07h.76Z"/>
        <path class="cls-1" d="M66.03,41.18c0-.53.05-.99.15-1.37.1-.38.26-.68.48-.91.22-.23.49-.39.83-.47.29-.08.59-.15.89-.21.3-.06.6-.11.88-.15l.1.5c-.14.02-.29.04-.45.07-.16.03-.32.05-.47.08-.16.03-.31.06-.45.09-.14.03-.26.06-.37.09-.19.05-.36.14-.5.27s-.25.31-.33.54c-.08.23-.13.52-.15.86h.04c.07-.1.16-.2.28-.3.12-.1.26-.18.43-.25.16-.06.35-.1.56-.1.33,0,.6.07.81.21.22.14.38.34.49.59s.16.55.16.89c0,.41-.07.75-.21,1.03s-.34.49-.59.63c-.25.14-.55.21-.89.21-.26,0-.5-.05-.71-.15s-.39-.25-.53-.45c-.15-.2-.26-.44-.33-.73-.08-.29-.12-.62-.12-.99ZM67.77,43.03c.22,0,.4-.05.56-.14.16-.09.28-.24.36-.43.09-.2.13-.46.13-.77,0-.4-.08-.71-.23-.93-.15-.23-.39-.34-.73-.34-.21,0-.4.04-.57.13-.17.09-.31.19-.43.31s-.2.23-.25.33c0,.23.02.46.05.68s.09.42.18.59c.09.18.2.32.35.42.15.1.34.15.57.15Z"/>
        <path class="cls-1" d="M73.65,41.55c0,.31-.04.58-.12.83-.08.24-.2.45-.35.61s-.33.29-.55.38c-.21.09-.46.13-.73.13-.25,0-.48-.04-.69-.13-.21-.09-.39-.22-.54-.38-.15-.17-.27-.37-.35-.61-.08-.24-.13-.52-.13-.83,0-.41.07-.76.21-1.05.14-.29.34-.51.6-.66.26-.15.57-.23.93-.23s.64.08.9.23.46.37.6.66c.14.29.21.64.21,1.05ZM70.79,41.55c0,.3.04.56.12.79.08.22.2.39.37.51.17.12.38.18.64.18s.48-.06.64-.18.29-.29.37-.51c.08-.22.12-.48.12-.79s-.04-.56-.12-.78c-.08-.22-.2-.39-.37-.51-.17-.12-.38-.18-.65-.18-.39,0-.68.13-.86.39s-.27.62-.27,1.07Z"/>
        <path class="cls-1" d="M77.45,43.44h-.58v-3.28h-1.14c-.05.59-.1,1.1-.17,1.52-.07.42-.16.77-.26,1.03-.1.27-.23.46-.38.59-.15.12-.32.19-.53.19-.06,0-.12,0-.17-.01s-.1-.02-.14-.03v-.43s.06.02.09.02c.03,0,.07,0,.1,0,.1,0,.2-.04.28-.13.09-.09.16-.22.23-.39.07-.17.13-.39.19-.66.05-.27.1-.58.15-.94.04-.36.08-.77.11-1.23h2.21v3.76Z"/>
        <path class="cls-1" d="M79.22,41.23h1.15c.32,0,.59.04.8.12s.37.2.48.36.16.35.16.59-.05.44-.16.61c-.1.17-.26.3-.48.4s-.49.14-.84.14h-1.69v-3.76h.57v1.55ZM81.24,42.32c0-.23-.08-.39-.24-.48-.16-.09-.39-.14-.68-.14h-1.09v1.27h1.09c.27,0,.5-.05.67-.15.17-.1.26-.27.26-.5Z"/>
        <path class="cls-1" d="M87.83,39.68v3.76h-5.04v-3.76h.57v3.27h1.66v-3.27h.57v3.27h1.67v-3.27h.57Z"/>
        <path class="cls-1" d="M90.48,39.61c.32,0,.59.07.82.21.23.14.4.34.52.6.12.25.18.55.18.89v.35h-2.6c0,.44.12.78.33,1.01s.51.35.9.35c.24,0,.45-.02.63-.07.18-.04.37-.11.57-.19v.5c-.19.08-.38.15-.56.19-.19.04-.41.06-.66.06-.36,0-.68-.07-.94-.22-.27-.15-.48-.36-.63-.65-.15-.29-.22-.64-.22-1.05s.07-.76.2-1.05c.14-.3.33-.52.58-.68.25-.16.54-.24.88-.24ZM90.48,40.08c-.3,0-.55.1-.73.3-.18.2-.29.48-.32.83h1.99c0-.22-.04-.42-.1-.59-.07-.17-.17-.3-.31-.4-.14-.1-.31-.14-.53-.14Z"/>
        <path class="cls-1" d="M93.63,42.62l.04.08c-.04.17-.09.34-.16.53-.06.19-.13.38-.21.57-.07.19-.15.37-.22.54h-.43c.05-.18.1-.38.14-.58.05-.2.09-.4.13-.6.04-.2.07-.38.09-.54h.61Z"/>
      </g>
      <g>
        <path class="cls-1" d="M10.66,48.11v1.35c0,.24.06.41.19.52.13.11.32.17.56.17s.45-.04.65-.11c.19-.07.39-.17.59-.3v-1.63h.57v3.76h-.57v-1.68c-.21.14-.42.24-.62.32-.2.08-.45.12-.73.12-.39,0-.69-.1-.9-.3-.21-.2-.32-.47-.32-.82v-1.39h.57Z"/>
        <path class="cls-1" d="M15.87,48.04c.32,0,.59.07.82.21.23.14.4.34.52.6.12.25.18.55.18.89v.35h-2.6c0,.44.12.78.33,1.01s.51.35.9.35c.24,0,.45-.02.63-.07.18-.04.37-.11.57-.19v.5c-.19.08-.38.15-.56.19-.19.04-.41.06-.66.06-.36,0-.68-.07-.94-.22-.27-.15-.48-.36-.63-.65-.15-.29-.22-.64-.22-1.05s.07-.76.2-1.05c.14-.3.33-.52.58-.68.25-.16.54-.24.88-.24ZM15.87,48.5c-.3,0-.55.1-.73.3-.18.2-.29.48-.32.83h1.99c0-.22-.04-.42-.1-.59-.07-.17-.17-.3-.31-.4-.14-.1-.31-.14-.53-.14Z"/>
        <path class="cls-1" d="M22.34,48.11v3.76h-.51v-2.45c0-.1,0-.2,0-.31,0-.1.01-.21.02-.31h-.02l-1.25,3.07h-.48l-1.22-3.07h-.02c0,.1.01.21.02.31,0,.1,0,.21,0,.33v2.43h-.52v-3.76h.76l1.21,3.07,1.23-3.07h.76Z"/>
        <path class="cls-1" d="M26.79,48.04c.32,0,.59.07.82.21.23.14.4.34.52.6.12.25.18.55.18.89v.35h-2.6c0,.44.12.78.33,1.01s.51.35.9.35c.24,0,.45-.02.63-.07.18-.04.37-.11.57-.19v.5c-.19.08-.38.15-.56.19-.19.04-.41.06-.66.06-.36,0-.68-.07-.94-.22-.27-.15-.48-.36-.63-.65-.15-.29-.22-.64-.22-1.05s.07-.76.2-1.05c.14-.3.33-.52.58-.68.25-.16.54-.24.88-.24ZM26.78,48.5c-.3,0-.55.1-.73.3-.18.2-.29.48-.32.83h1.99c0-.22-.04-.42-.1-.59-.07-.17-.17-.3-.31-.4-.14-.1-.31-.14-.53-.14Z"/>
        <path class="cls-1" d="M31.57,48.11v.48h-1.71v3.27h-.57v-3.76h2.28Z"/>
        <path class="cls-1" d="M35.56,49.98c0,.31-.04.58-.12.83-.08.24-.2.45-.35.61s-.33.29-.55.38c-.21.09-.46.13-.73.13-.25,0-.48-.04-.69-.13-.21-.09-.39-.22-.54-.38-.15-.17-.27-.37-.35-.61-.08-.24-.13-.52-.13-.83,0-.41.07-.76.21-1.05.14-.29.34-.51.6-.66.26-.15.57-.23.93-.23s.64.08.9.23.46.37.6.66c.14.29.21.64.21,1.05ZM32.7,49.98c0,.3.04.56.12.79.08.22.2.39.37.51.17.12.38.18.64.18s.48-.06.64-.18.29-.29.37-.51c.08-.22.12-.48.12-.79s-.04-.56-.12-.78c-.08-.22-.2-.39-.37-.51-.17-.12-.38-.18-.65-.18-.39,0-.68.13-.86.39s-.27.62-.27,1.07Z"/>
        <path class="cls-1" d="M39.87,51.93c-.34,0-.64-.07-.89-.21-.26-.14-.46-.35-.6-.64s-.22-.65-.22-1.08.08-.83.23-1.12c.15-.29.36-.5.63-.64s.57-.21.91-.21c.19,0,.37.02.54.06.17.04.32.09.43.14l-.17.48c-.11-.05-.25-.09-.4-.12-.15-.04-.29-.05-.42-.05-.26,0-.48.06-.65.17-.17.11-.3.28-.39.49s-.13.48-.13.8.04.56.13.78c.08.21.21.38.37.49.17.11.37.17.62.17.2,0,.38-.02.54-.06.16-.04.31-.09.44-.15v.51c-.13.06-.27.11-.42.15s-.34.05-.55.05Z"/>
        <path class="cls-1" d="M44.97,49.98c0,.31-.04.58-.12.83-.08.24-.2.45-.35.61s-.33.29-.55.38c-.21.09-.46.13-.73.13-.25,0-.48-.04-.69-.13-.21-.09-.39-.22-.54-.38-.15-.17-.27-.37-.35-.61-.08-.24-.13-.52-.13-.83,0-.41.07-.76.21-1.05.14-.29.34-.51.6-.66.26-.15.57-.23.93-.23s.64.08.9.23.46.37.6.66c.14.29.21.64.21,1.05ZM42.11,49.98c0,.3.04.56.12.79.08.22.2.39.37.51.17.12.38.18.64.18s.48-.06.64-.18.29-.29.37-.51c.08-.22.12-.48.12-.79s-.04-.56-.12-.78c-.08-.22-.2-.39-.37-.51-.17-.12-.38-.18-.65-.18-.39,0-.68.13-.86.39s-.27.62-.27,1.07Z"/>
        <path class="cls-1" d="M47.46,51.93c-.34,0-.64-.07-.89-.21-.26-.14-.46-.35-.6-.64s-.22-.65-.22-1.08.08-.83.23-1.12c.15-.29.36-.5.63-.64s.57-.21.91-.21c.19,0,.37.02.54.06.17.04.32.09.43.14l-.17.48c-.11-.05-.25-.09-.4-.12-.15-.04-.29-.05-.42-.05-.26,0-.48.06-.65.17-.17.11-.3.28-.39.49s-.13.48-.13.8.04.56.13.78c.08.21.21.38.37.49.17.11.37.17.62.17.2,0,.38-.02.54-.06.16-.04.31-.09.44-.15v.51c-.13.06-.27.11-.42.15s-.34.05-.55.05Z"/>
        <path class="cls-1" d="M50.76,48.04c.32,0,.59.07.82.21.23.14.4.34.52.6.12.25.18.55.18.89v.35h-2.6c0,.44.12.78.33,1.01s.51.35.9.35c.24,0,.45-.02.63-.07.18-.04.37-.11.57-.19v.5c-.19.08-.38.15-.56.19-.19.04-.41.06-.66.06-.36,0-.68-.07-.94-.22-.27-.15-.48-.36-.63-.65-.15-.29-.22-.64-.22-1.05s.07-.76.2-1.05c.14-.3.33-.52.58-.68.25-.16.54-.24.88-.24ZM50.76,48.5c-.3,0-.55.1-.73.3-.18.2-.29.48-.32.83h1.99c0-.22-.04-.42-.1-.59-.07-.17-.17-.3-.31-.4-.14-.1-.31-.14-.53-.14Z"/>
        <path class="cls-1" d="M56.01,48.11v3.27h.54v1.78h-.55v-1.3h-2.66v1.3h-.55v-1.78h.29c.22-.3.39-.62.53-.98.14-.35.25-.73.32-1.12.07-.39.11-.78.12-1.18h1.95ZM55.46,48.56h-.89c-.02.33-.07.67-.15,1.02-.08.34-.18.67-.3.99-.13.31-.27.58-.44.82h1.78v-2.82Z"/>
        <path class="cls-1" d="M60.62,51.93c-.34,0-.64-.07-.89-.21-.26-.14-.46-.35-.6-.64s-.22-.65-.22-1.08.08-.83.23-1.12c.15-.29.36-.5.63-.64s.57-.21.91-.21c.19,0,.37.02.54.06.17.04.32.09.43.14l-.17.48c-.11-.05-.25-.09-.4-.12-.15-.04-.29-.05-.42-.05-.26,0-.48.06-.65.17-.17.11-.3.28-.39.49s-.13.48-.13.8.04.56.13.78c.08.21.21.38.37.49.17.11.37.17.62.17.2,0,.38-.02.54-.06.16-.04.31-.09.44-.15v.51c-.13.06-.27.11-.42.15s-.34.05-.55.05Z"/>
        <path class="cls-1" d="M65.63,48.11v3.76h-.57v-3.27h-2v3.27h-.57v-3.76h3.15Z"/>
        <path class="cls-1" d="M68.6,48.04c.47,0,.84.16,1.12.48.28.32.42.81.42,1.45,0,.43-.06.79-.19,1.08-.13.29-.31.51-.54.66-.23.15-.51.22-.82.22-.2,0-.37-.03-.52-.08s-.28-.12-.39-.21c-.11-.09-.2-.19-.27-.29h-.04c0,.09.02.2.03.32s.02.24.02.33v1.54h-.57v-5.44h.47l.08.56h.03c.07-.11.16-.22.27-.31.11-.09.23-.17.39-.23.15-.06.33-.08.54-.08ZM68.5,48.52c-.26,0-.47.05-.63.15-.16.1-.27.25-.35.45-.07.2-.11.45-.12.75v.11c0,.32.03.59.1.81.07.22.19.39.35.5s.38.17.65.17c.23,0,.43-.06.58-.19.16-.13.27-.3.35-.53.08-.23.11-.48.11-.78,0-.44-.09-.8-.26-1.06-.17-.26-.44-.39-.79-.39Z"/>
        <path class="cls-1" d="M72.54,48.05c.45,0,.78.1,1,.3.22.2.33.52.33.96v2.55h-.41l-.11-.56h-.03c-.1.14-.21.25-.33.34-.11.09-.25.16-.4.21-.15.05-.33.07-.55.07-.23,0-.43-.04-.61-.12-.18-.08-.32-.2-.42-.36-.1-.16-.15-.37-.15-.62,0-.38.15-.66.45-.86.3-.2.75-.31,1.36-.33l.65-.03v-.23c0-.32-.07-.55-.21-.68-.14-.13-.34-.2-.59-.2-.2,0-.38.03-.56.09s-.35.12-.51.2l-.17-.43c.17-.09.36-.16.58-.22s.45-.09.69-.09ZM73.3,50.01l-.57.02c-.47.02-.8.09-.99.23s-.29.33-.29.57c0,.21.07.37.2.48s.3.15.52.15c.33,0,.61-.09.82-.28s.32-.46.32-.83v-.35Z"/>
        <path class="cls-1" d="M78.02,49.05c0,.24-.07.42-.21.55-.14.13-.31.22-.53.27v.03c.24.03.44.12.61.25.17.14.26.34.26.62,0,.21-.05.4-.15.57s-.26.29-.48.39-.5.14-.86.14h-1.62v-3.76h1.6c.27,0,.51.03.72.09.21.06.37.16.49.3.12.14.18.32.18.56ZM77.44,49.11c0-.18-.07-.31-.2-.4-.13-.09-.34-.13-.64-.13h-1v1.08h.9c.31,0,.54-.04.7-.13s.24-.23.24-.41ZM77.55,50.77c0-.22-.08-.38-.25-.48s-.41-.15-.73-.15h-.96v1.26h.98c.32,0,.56-.05.72-.15.17-.1.25-.26.25-.49Z"/>
        <path class="cls-1" d="M80.47,48.05c.45,0,.78.1,1,.3.22.2.33.52.33.96v2.55h-.41l-.11-.56h-.03c-.1.14-.21.25-.33.34-.11.09-.25.16-.4.21-.15.05-.33.07-.55.07-.23,0-.43-.04-.61-.12-.18-.08-.32-.2-.42-.36-.1-.16-.15-.37-.15-.62,0-.38.15-.66.45-.86.3-.2.75-.31,1.36-.33l.65-.03v-.23c0-.32-.07-.55-.21-.68-.14-.13-.34-.2-.59-.2-.2,0-.38.03-.56.09s-.35.12-.51.2l-.17-.43c.17-.09.36-.16.58-.22s.45-.09.69-.09ZM81.23,50.01l-.57.02c-.47.02-.8.09-.99.23s-.29.33-.29.57c0,.21.07.37.2.48s.3.15.52.15c.33,0,.61-.09.82-.28s.32-.46.32-.83v-.35Z"/>
        <path class="cls-1" d="M82.88,51.51c0-.16.04-.27.12-.34.08-.07.17-.1.28-.1s.22.03.29.1c.08.07.12.18.12.34s-.04.27-.12.34c-.08.07-.18.11-.29.11s-.21-.04-.28-.11c-.08-.07-.12-.19-.12-.34Z"/>
      </g>
    </g>
    <g>
      <g>
        <path class="cls-1" d="M11.37,65.03c-.13,0-.25.02-.37.06-.12.04-.23.09-.34.16l-.2-.46c.14-.09.29-.15.44-.19s.32-.06.5-.06c.26,0,.49.06.7.17s.38.29.53.52c.15.23.26.5.33.82.08.32.11.68.11,1.08,0,.49-.06.92-.18,1.31s-.3.7-.55.92c-.25.22-.56.34-.94.34-.16,0-.31-.02-.45-.05-.15-.03-.27-.08-.37-.14v-.5c.11.05.23.1.37.13.13.04.27.05.42.05.2,0,.37-.05.51-.15s.26-.24.35-.42c.09-.18.16-.39.21-.62.05-.23.07-.48.08-.74h-1.52v-.49h1.51c-.01-.22-.04-.44-.09-.65-.05-.21-.12-.39-.21-.56-.09-.16-.2-.29-.34-.39-.14-.1-.3-.14-.48-.14Z"/>
        <path class="cls-1" d="M15.48,66.32h-.72v3.31h-.52v-3.31h-.73v-.46h1.97v.46Z"/>
        <path class="cls-1" d="M18.34,67.74c0,.3-.03.57-.08.81-.05.24-.13.45-.23.62s-.23.3-.39.39-.34.14-.56.14-.39-.05-.54-.14c-.16-.09-.28-.22-.39-.39-.1-.17-.18-.38-.23-.62-.05-.24-.08-.51-.08-.81,0-.42.04-.77.13-1.06.09-.29.23-.51.41-.66.19-.15.42-.23.71-.23.27,0,.49.07.68.22.19.15.33.37.42.66.1.29.14.65.14,1.07ZM16.38,67.74c0,.33.02.6.08.82.05.22.13.39.23.5s.24.17.41.17.3-.05.4-.16c.1-.11.18-.27.23-.5.05-.22.08-.5.08-.83s-.03-.6-.08-.82c-.05-.22-.13-.39-.23-.5-.1-.11-.24-.17-.4-.17-.25,0-.43.12-.55.37-.11.25-.17.62-.17,1.11Z"/>
        <path class="cls-1" d="M20.67,66.32h-.72v3.31h-.52v-3.31h-.73v-.46h1.97v.46Z"/>
        <path class="cls-1" d="M24.08,66.32h-.72v3.31h-.52v-3.31h-.73v-.46h1.97v.46Z"/>
        <path class="cls-1" d="M25.65,65.8c.26,0,.47.07.63.22.17.15.29.35.37.6.08.25.12.53.12.84v.37h-1.79c0,.47.08.82.22,1.06s.35.35.64.35c.13,0,.27-.02.4-.06s.26-.11.4-.2v.47c-.13.08-.27.14-.41.18-.14.04-.29.06-.45.06-.31,0-.57-.08-.76-.25-.19-.17-.34-.4-.42-.69-.09-.29-.13-.62-.13-.99,0-.42.04-.78.13-1.07s.22-.51.4-.67c.18-.15.4-.23.66-.23ZM25.65,66.23c-.2,0-.35.1-.47.29-.11.19-.18.49-.2.89h1.29c0-.21-.02-.41-.07-.59-.04-.18-.11-.32-.21-.43-.09-.11-.21-.16-.36-.16Z"/>
        <path class="cls-1" d="M29.07,65.86h.58l-1.08,1.78,1.17,1.99h-.6l-1.09-1.95v1.95h-.53v-3.76h.53v1.78l1.03-1.78Z"/>
        <path class="cls-1" d="M31.3,69.69c-.28,0-.51-.07-.69-.22-.18-.14-.32-.36-.41-.64-.09-.29-.14-.64-.14-1.06s.05-.77.14-1.06.23-.52.42-.68c.19-.16.42-.24.7-.24.14,0,.27.02.38.04s.22.07.32.13l-.17.44c-.09-.05-.17-.08-.25-.1-.08-.02-.17-.03-.24-.03-.16,0-.3.06-.41.17-.11.11-.2.28-.26.5s-.09.5-.09.83.03.59.08.81c.06.22.14.38.25.49.11.11.25.17.42.17.1,0,.2-.01.31-.04.1-.03.21-.07.31-.12v.45c-.1.06-.21.1-.33.14s-.24.05-.34.05Z"/>
        <path class="cls-1" d="M34.2,66.32h-.72v3.31h-.52v-3.31h-.73v-.46h1.97v.46Z"/>
        <path class="cls-1" d="M36.56,65.86v1.58h1.22v-1.58h.53v3.76h-.53v-1.73h-1.22v1.73h-.53v-3.76h.53Z"/>
        <path class="cls-1" d="M40.23,65.79c.35,0,.6.11.74.33.15.22.22.54.22.96v2.54h-.4l-.08-.53h-.01c-.06.13-.13.24-.21.33-.08.09-.18.16-.28.21-.11.05-.23.07-.36.07-.19,0-.35-.05-.48-.15s-.22-.24-.27-.41c-.06-.17-.09-.35-.09-.54,0-.37.11-.66.32-.87.21-.21.52-.32.92-.34l.43-.03v-.26c0-.3-.04-.52-.12-.66s-.22-.21-.4-.21c-.11,0-.22.02-.33.05-.12.04-.24.09-.38.17l-.17-.4c.14-.09.29-.16.45-.2.16-.05.33-.07.5-.07ZM40.68,67.74l-.35.02c-.27.02-.46.09-.59.22-.13.13-.19.33-.19.58,0,.24.04.41.13.52.08.11.2.17.35.17.21,0,.37-.1.48-.3.12-.2.17-.48.17-.83v-.38Z"/>
        <path class="cls-1" d="M41.98,67.22c0-.41.03-.79.08-1.13.06-.34.16-.64.3-.89.15-.25.36-.45.63-.59.14-.08.33-.16.56-.22.23-.06.5-.11.82-.14l.06.48c-.11,0-.22.02-.34.04-.12.02-.24.04-.35.06-.11.02-.22.05-.32.08-.1.03-.18.07-.25.11-.17.1-.3.22-.4.38-.09.16-.16.35-.2.57-.04.22-.07.46-.08.74h.03c.05-.12.12-.22.21-.3.08-.08.18-.15.29-.2s.22-.07.33-.07c.24,0,.44.07.6.2s.29.33.38.58c.09.26.13.57.13.94s-.05.72-.15.99c-.1.27-.24.48-.43.62-.19.14-.43.21-.7.21-.2,0-.38-.05-.53-.15-.15-.1-.28-.25-.38-.45-.1-.2-.18-.46-.23-.77-.05-.31-.08-.68-.08-1.11ZM43.2,69.23c.16,0,.3-.05.41-.15.11-.1.19-.25.25-.45s.08-.45.08-.74c0-.43-.06-.76-.17-.98-.12-.22-.29-.33-.53-.33-.11,0-.21.03-.31.1-.1.07-.18.16-.25.26-.07.11-.12.22-.16.34,0,.32.02.6.04.84s.07.45.12.61c.06.16.13.29.21.37.08.08.19.12.31.12Z"/>
        <path class="cls-1" d="M46.59,65.79c.36,0,.63.16.82.49.19.32.28.81.28,1.46,0,.42-.04.77-.13,1.06-.08.29-.21.51-.36.67-.16.15-.35.23-.58.23-.13,0-.25-.02-.36-.07-.11-.05-.21-.12-.29-.21-.09-.09-.16-.2-.21-.32h-.02c0,.09,0,.18.02.26,0,.08,0,.16,0,.24v1.71h-.53v-5.44h.43l.07.55h.03c.06-.14.14-.26.22-.35.08-.09.18-.16.28-.21s.21-.07.34-.07ZM46.48,66.24c-.16,0-.29.05-.4.15s-.19.25-.24.45c-.05.2-.08.46-.08.76v.18c0,.32.03.59.08.81.05.21.14.37.24.47.11.1.24.15.4.15.15,0,.27-.05.37-.16s.17-.27.22-.49c.05-.22.08-.5.08-.84,0-.5-.05-.87-.16-1.12-.1-.25-.28-.38-.52-.38Z"/>
        <path class="cls-1" d="M49.45,65.79c.35,0,.6.11.74.33.15.22.22.54.22.96v2.54h-.4l-.08-.53h-.01c-.06.13-.13.24-.21.33-.08.09-.18.16-.28.21-.11.05-.23.07-.36.07-.19,0-.35-.05-.48-.15s-.22-.24-.27-.41c-.06-.17-.09-.35-.09-.54,0-.37.11-.66.32-.87.21-.21.52-.32.92-.34l.43-.03v-.26c0-.3-.04-.52-.12-.66s-.22-.21-.4-.21c-.11,0-.22.02-.33.05-.12.04-.24.09-.38.17l-.17-.4c.14-.09.29-.16.45-.2.16-.05.33-.07.5-.07ZM49.9,67.74l-.35.02c-.27.02-.46.09-.59.22-.13.13-.19.33-.19.58,0,.24.04.41.13.52.08.11.2.17.35.17.21,0,.37-.1.48-.3.12-.2.17-.48.17-.83v-.38Z"/>
        <path class="cls-1" d="M51.86,65.86v1.58h1.22v-1.58h.53v3.76h-.53v-1.73h-1.22v1.73h-.53v-3.76h.53Z"/>
        <path class="cls-1" d="M59.34,65.86v3.76h-3.51v-3.76h.53v3.3h.96v-3.3h.52v3.3h.97v-3.3h.52Z"/>
        <path class="cls-1" d="M61.62,65.79c.36,0,.63.16.82.49.19.32.28.81.28,1.46,0,.42-.04.77-.13,1.06-.08.29-.21.51-.36.67-.16.15-.35.23-.58.23-.13,0-.25-.02-.36-.07-.11-.05-.21-.12-.29-.21-.09-.09-.16-.2-.21-.32h-.02c0,.09,0,.18.02.26,0,.08,0,.16,0,.24v1.71h-.53v-5.44h.43l.07.55h.03c.06-.14.14-.26.22-.35.08-.09.18-.16.28-.21s.21-.07.34-.07ZM61.51,66.24c-.16,0-.29.05-.4.15s-.19.25-.24.45c-.05.2-.08.46-.08.76v.18c0,.32.03.59.08.81.05.21.14.37.24.47.11.1.24.15.4.15.15,0,.27-.05.37-.16s.17-.27.22-.49c.05-.22.08-.5.08-.84,0-.5-.05-.87-.16-1.12-.1-.25-.28-.38-.52-.38Z"/>
        <path class="cls-1" d="M63.99,65.86v2.19c0,.07,0,.14,0,.2,0,.07,0,.13,0,.2s0,.13-.01.2c0,.07,0,.14-.01.22l1.26-3.01h.6v3.76h-.51v-2.12c0-.1,0-.2,0-.29,0-.1,0-.2,0-.29,0-.1,0-.2.01-.29l-1.27,3.01h-.6v-3.76h.52Z"/>
        <path class="cls-1" d="M68.45,64.29v1.52c.31.03.57.13.76.31.2.18.34.41.44.69s.14.59.14.93-.05.66-.14.94c-.09.28-.24.51-.44.68-.2.17-.45.28-.76.31v1.64h-.51v-1.64c-.28-.03-.53-.12-.73-.28-.2-.16-.36-.38-.46-.66-.11-.28-.16-.61-.16-1,0-.36.05-.67.14-.95.1-.28.24-.5.44-.67.2-.17.45-.27.76-.3v-1.52h.52ZM67.93,66.26c-.17.02-.31.09-.43.21s-.21.29-.28.5c-.06.21-.1.46-.1.75,0,.26.03.49.09.71.06.22.14.4.26.53.12.14.27.22.46.24v-2.96ZM68.45,66.26v2.96c.19-.02.35-.1.47-.25.12-.14.21-.32.26-.54.06-.22.08-.45.08-.7,0-.43-.07-.78-.22-1.04-.14-.26-.34-.41-.59-.44Z"/>
        <path class="cls-1" d="M72.12,66.32h-.72v3.31h-.52v-3.31h-.73v-.46h1.97v.46Z"/>
        <path class="cls-1" d="M74.99,67.74c0,.3-.03.57-.08.81-.05.24-.13.45-.23.62s-.23.3-.39.39-.34.14-.56.14-.39-.05-.54-.14c-.16-.09-.28-.22-.39-.39-.1-.17-.18-.38-.23-.62-.05-.24-.08-.51-.08-.81,0-.42.04-.77.13-1.06.09-.29.23-.51.41-.66.19-.15.42-.23.71-.23.27,0,.49.07.68.22.19.15.33.37.42.66.1.29.14.65.14,1.07ZM73.03,67.74c0,.33.02.6.08.82.05.22.13.39.23.5s.24.17.41.17.3-.05.4-.16c.1-.11.18-.27.23-.5.05-.22.08-.5.08-.83s-.03-.6-.08-.82c-.05-.22-.13-.39-.23-.5-.1-.11-.24-.17-.4-.17-.25,0-.43.12-.55.37-.11.25-.17.62-.17,1.11Z"/>
        <path class="cls-1" d="M78.75,65.86v3.76h-.51v-2.08c0-.11,0-.25.01-.41,0-.17.02-.36.03-.58h-.03l-.79,3.07h-.47l-.77-3.07h-.03c.01.19.02.38.03.55,0,.18.01.32.01.43v2.09h-.5v-3.76h.75l.75,3.02.76-3.02h.74Z"/>
      </g>
      <g>
        <path class="cls-1" d="M13.79,75.53c0,.36-.03.69-.09,1.01-.06.31-.15.59-.27.82-.12.24-.28.42-.48.55s-.44.2-.72.2-.53-.07-.73-.2c-.2-.14-.36-.32-.49-.56-.12-.24-.21-.51-.27-.83-.06-.31-.08-.65-.08-1,0-.57.06-1.05.18-1.43.12-.38.29-.66.53-.85s.52-.28.87-.28c.37,0,.68.11.91.34.23.23.39.54.5.92.1.39.16.82.16,1.31ZM11.22,75.53c0,.45.04.84.11,1.15.08.31.19.54.34.7.15.16.33.24.55.24s.4-.08.55-.23c.15-.15.26-.39.33-.7.07-.31.11-.7.11-1.16,0-.69-.08-1.21-.25-1.55s-.41-.52-.74-.52c-.22,0-.41.08-.56.23-.15.16-.26.39-.33.7-.07.31-.11.69-.11,1.14Z"/>
        <path class="cls-1" d="M15.95,74.21c.36,0,.63.16.82.49.19.32.28.81.28,1.46,0,.42-.04.77-.13,1.06-.08.29-.21.51-.36.67-.16.15-.35.23-.58.23-.13,0-.25-.02-.36-.07-.11-.05-.21-.12-.29-.21-.09-.09-.16-.2-.21-.32h-.02c0,.09,0,.18.02.26,0,.08,0,.16,0,.24v1.71h-.53v-5.44h.43l.07.55h.03c.06-.14.14-.26.22-.35.08-.09.18-.16.28-.21s.21-.07.34-.07ZM15.84,74.67c-.16,0-.29.05-.4.15s-.19.25-.24.45c-.05.2-.08.46-.08.76v.18c0,.32.03.59.08.81.05.21.14.37.24.47.11.1.24.15.4.15.15,0,.27-.05.37-.16s.17-.27.22-.49c.05-.22.08-.5.08-.84,0-.5-.05-.87-.16-1.12-.1-.25-.28-.38-.52-.38Z"/>
        <path class="cls-1" d="M18.84,74.22c.26,0,.47.07.63.22.17.15.29.35.37.6.08.25.12.53.12.84v.37h-1.79c0,.47.08.82.22,1.06s.35.35.64.35c.13,0,.27-.02.4-.06s.26-.11.4-.2v.47c-.13.08-.27.14-.41.18-.14.04-.29.06-.45.06-.31,0-.57-.08-.76-.25-.19-.17-.34-.4-.42-.69-.09-.29-.13-.62-.13-.99,0-.42.04-.78.13-1.07s.22-.51.4-.67c.18-.15.4-.23.66-.23ZM18.84,74.65c-.2,0-.35.1-.47.29-.11.19-.18.49-.2.89h1.29c0-.21-.02-.41-.07-.59-.04-.18-.11-.32-.21-.43-.09-.11-.21-.16-.36-.16Z"/>
        <path class="cls-1" d="M22.06,74.21c.3,0,.52.1.68.31.15.21.23.53.23.96v2.56h-.53v-2.46c0-.3-.04-.53-.12-.68s-.2-.23-.37-.23c-.25,0-.43.11-.54.33-.11.22-.17.57-.17,1.06v1.98h-.53v-3.76h.42l.06.55h.03c.05-.13.12-.23.2-.33s.18-.16.28-.21c.11-.05.22-.08.35-.08Z"/>
        <path class="cls-1" d="M27.33,76.68c0,.28-.05.53-.16.75-.11.22-.26.38-.46.51s-.43.18-.69.18c-.13,0-.26,0-.38-.02-.12-.02-.24-.04-.34-.07-.11-.03-.21-.07-.31-.12v-.57c.15.09.32.15.51.2s.35.07.51.07c.17,0,.31-.04.42-.12.11-.08.2-.18.26-.32.06-.13.09-.28.09-.44,0-.17-.03-.31-.08-.43-.05-.12-.13-.22-.25-.31-.11-.09-.27-.19-.46-.29-.15-.08-.28-.16-.4-.25-.12-.08-.22-.18-.31-.29-.09-.11-.15-.23-.2-.38-.05-.14-.07-.32-.07-.51,0-.26.05-.49.16-.69.11-.2.26-.35.45-.46.19-.11.41-.16.66-.16.19,0,.37.02.54.07.17.05.32.1.45.17l-.18.5c-.14-.08-.28-.13-.41-.17-.14-.04-.27-.06-.39-.06-.15,0-.28.03-.39.1-.11.07-.19.16-.25.27-.06.12-.09.25-.09.4,0,.18.03.32.08.44s.14.22.25.31c.12.09.27.19.46.29.22.11.4.24.54.37.14.13.25.28.32.45.07.17.11.36.11.58Z"/>
        <path class="cls-1" d="M29.07,74.21c.35,0,.6.11.74.33.15.22.22.54.22.96v2.54h-.4l-.08-.53h-.01c-.06.13-.13.24-.21.33-.08.09-.18.16-.28.21-.11.05-.23.07-.36.07-.19,0-.35-.05-.48-.15s-.22-.24-.27-.41c-.06-.17-.09-.35-.09-.54,0-.37.11-.66.32-.87.21-.21.52-.32.92-.34l.43-.03v-.26c0-.3-.04-.52-.12-.66s-.22-.21-.4-.21c-.11,0-.22.02-.33.05-.12.04-.24.09-.38.17l-.17-.4c.14-.09.29-.16.45-.2.16-.05.33-.07.5-.07ZM29.52,76.17l-.35.02c-.27.02-.46.09-.59.22-.13.13-.19.33-.19.58,0,.24.04.41.13.52.08.11.2.17.35.17.21,0,.37-.1.48-.3.12-.2.17-.48.17-.83v-.38Z"/>
        <path class="cls-1" d="M32.3,74.21c.3,0,.52.1.68.31.15.21.23.53.23.96v2.56h-.53v-2.46c0-.3-.04-.53-.12-.68s-.2-.23-.37-.23c-.25,0-.43.11-.54.33-.11.22-.17.57-.17,1.06v1.98h-.53v-3.76h.42l.06.55h.03c.05-.13.12-.23.2-.33s.18-.16.28-.21c.11-.05.22-.08.35-.08Z"/>
        <path class="cls-1" d="M35.78,77.05c0,.23-.04.42-.12.58-.08.16-.2.28-.36.36-.16.08-.35.12-.57.12-.17,0-.33-.02-.48-.06s-.27-.09-.37-.15v-.55c.1.08.22.15.37.2.15.05.3.08.45.08.18,0,.31-.05.41-.15.1-.1.14-.24.14-.42,0-.11-.02-.2-.06-.28-.04-.08-.1-.15-.19-.23-.09-.07-.2-.15-.34-.23-.16-.1-.29-.2-.41-.3s-.21-.22-.28-.36c-.07-.13-.1-.3-.1-.49,0-.29.1-.53.29-.71.19-.18.44-.27.76-.27.16,0,.31.02.45.06.14.04.27.1.4.18l-.2.43c-.1-.07-.2-.12-.31-.16-.11-.04-.22-.06-.33-.06-.17,0-.3.05-.4.14-.1.09-.15.22-.15.38,0,.1.02.2.06.27.04.08.1.15.19.22s.21.15.35.24c.15.1.29.2.41.3.12.1.21.22.28.35.07.13.1.3.1.49Z"/>
        <path class="cls-1" d="M39.35,73.45c-.2,0-.37.06-.51.17-.14.11-.26.27-.35.46-.09.19-.16.42-.2.67-.04.25-.06.51-.06.79,0,.43.05.8.14,1.11.1.31.23.55.4.72.17.17.38.25.61.25.14,0,.27-.02.4-.05.13-.04.24-.08.35-.13v.49c-.11.06-.23.11-.37.14-.14.03-.28.05-.44.05-.34,0-.64-.1-.88-.31-.25-.21-.44-.5-.58-.89-.14-.39-.2-.85-.2-1.39,0-.35.03-.69.1-1,.07-.31.17-.58.31-.82.14-.24.31-.42.52-.56.21-.13.46-.2.74-.2.16,0,.32.02.47.06.15.04.3.1.44.18l-.2.46c-.11-.07-.22-.12-.33-.16-.12-.04-.24-.06-.37-.06Z"/>
        <path class="cls-1" d="M43.21,76.16c0,.3-.03.57-.08.81-.05.24-.13.45-.23.62s-.23.3-.39.39-.34.14-.56.14-.39-.05-.54-.14c-.16-.09-.28-.22-.39-.39-.1-.17-.18-.38-.23-.62-.05-.24-.08-.51-.08-.81,0-.42.04-.77.13-1.06.09-.29.23-.51.41-.66.19-.15.42-.23.71-.23.27,0,.49.07.68.22.19.15.33.37.42.66.1.29.14.65.14,1.07ZM41.25,76.16c0,.33.02.6.08.82.05.22.13.39.23.5s.24.17.41.17.3-.05.4-.16c.1-.11.18-.27.23-.5.05-.22.08-.5.08-.83s-.03-.6-.08-.82c-.05-.22-.13-.39-.23-.5-.1-.11-.24-.17-.4-.17-.25,0-.43.12-.55.37-.11.25-.17.62-.17,1.11Z"/>
        <path class="cls-1" d="M45.32,74.21c.3,0,.52.1.68.31.15.21.23.53.23.96v2.56h-.53v-2.46c0-.3-.04-.53-.12-.68s-.2-.23-.37-.23c-.25,0-.43.11-.54.33-.11.22-.17.57-.17,1.06v1.98h-.53v-3.76h.42l.06.55h.03c.05-.13.12-.23.2-.33s.18-.16.28-.21c.11-.05.22-.08.35-.08Z"/>
        <path class="cls-1" d="M48.07,78.12c-.36,0-.63-.17-.82-.5-.19-.33-.28-.81-.28-1.45s.09-1.11.28-1.45c.19-.34.45-.51.8-.51.12,0,.24.02.34.07.11.05.2.11.29.2.09.09.16.19.22.31h.02c0-.1,0-.2-.01-.28,0-.08,0-.16,0-.23v-1.56h.52v5.34h-.42l-.07-.51h-.03c-.06.12-.14.22-.22.31-.08.09-.17.15-.27.2-.1.05-.22.07-.35.07ZM48.19,77.67c.24,0,.42-.11.54-.33.12-.22.18-.55.18-.98v-.26c0-.48-.06-.83-.18-1.06-.12-.23-.3-.35-.55-.35-.23,0-.4.13-.51.38-.11.26-.16.62-.16,1.11s.05.86.16,1.11c.11.25.28.38.51.38Z"/>
        <path class="cls-1" d="M51.38,74.22c.26,0,.47.07.63.22.17.15.29.35.37.6.08.25.12.53.12.84v.37h-1.79c0,.47.08.82.22,1.06s.35.35.64.35c.13,0,.27-.02.4-.06s.26-.11.4-.2v.47c-.13.08-.27.14-.41.18-.14.04-.29.06-.45.06-.31,0-.57-.08-.76-.25-.19-.17-.34-.4-.42-.69-.09-.29-.13-.62-.13-.99,0-.42.04-.78.13-1.07s.22-.51.4-.67c.18-.15.4-.23.66-.23ZM51.38,74.65c-.2,0-.35.1-.47.29-.11.19-.18.49-.2.89h1.29c0-.21-.02-.41-.07-.59-.04-.18-.11-.32-.21-.43-.09-.11-.21-.16-.36-.16Z"/>
        <path class="cls-1" d="M54.6,74.21c.3,0,.52.1.68.31.15.21.23.53.23.96v2.56h-.53v-2.46c0-.3-.04-.53-.12-.68s-.2-.23-.37-.23c-.25,0-.43.11-.54.33-.11.22-.17.57-.17,1.06v1.98h-.53v-3.76h.42l.06.55h.03c.05-.13.12-.23.2-.33s.18-.16.28-.21c.11-.05.22-.08.35-.08Z"/>
        <path class="cls-1" d="M58.09,77.05c0,.23-.04.42-.12.58-.08.16-.2.28-.36.36-.16.08-.35.12-.57.12-.17,0-.33-.02-.48-.06s-.27-.09-.37-.15v-.55c.1.08.22.15.37.2.15.05.3.08.45.08.18,0,.31-.05.41-.15.1-.1.14-.24.14-.42,0-.11-.02-.2-.06-.28-.04-.08-.1-.15-.19-.23-.09-.07-.2-.15-.34-.23-.16-.1-.29-.2-.41-.3s-.21-.22-.28-.36c-.07-.13-.1-.3-.1-.49,0-.29.1-.53.29-.71.19-.18.44-.27.76-.27.16,0,.31.02.45.06.14.04.27.1.4.18l-.2.43c-.1-.07-.2-.12-.31-.16-.11-.04-.22-.06-.33-.06-.17,0-.3.05-.4.14-.1.09-.15.22-.15.38,0,.1.02.2.06.27.04.08.1.15.19.22s.21.15.35.24c.15.1.29.2.41.3.12.1.21.22.28.35.07.13.1.3.1.49Z"/>
        <path class="cls-1" d="M59.81,74.22c.26,0,.47.07.63.22.17.15.29.35.37.6.08.25.12.53.12.84v.37h-1.79c0,.47.08.82.22,1.06s.35.35.64.35c.13,0,.27-.02.4-.06s.26-.11.4-.2v.47c-.13.08-.27.14-.41.18-.14.04-.29.06-.45.06-.31,0-.57-.08-.76-.25-.19-.17-.34-.4-.42-.69-.09-.29-.13-.62-.13-.99,0-.42.04-.78.13-1.07s.22-.51.4-.67c.18-.15.4-.23.66-.23ZM59.81,74.65c-.2,0-.35.1-.47.29-.11.19-.18.49-.2.89h1.29c0-.21-.02-.41-.07-.59-.04-.18-.11-.32-.21-.43-.09-.11-.21-.16-.36-.16Z"/>
        <path class="cls-1" d="M62.61,78.12c-.36,0-.63-.17-.82-.5-.19-.33-.28-.81-.28-1.45s.09-1.11.28-1.45c.19-.34.45-.51.8-.51.12,0,.24.02.34.07.11.05.2.11.29.2.09.09.16.19.22.31h.02c0-.1,0-.2-.01-.28,0-.08,0-.16,0-.23v-1.56h.52v5.34h-.42l-.07-.51h-.03c-.06.12-.14.22-.22.31-.08.09-.17.15-.27.2-.1.05-.22.07-.35.07ZM62.73,77.67c.24,0,.42-.11.54-.33.12-.22.18-.55.18-.98v-.26c0-.48-.06-.83-.18-1.06-.12-.23-.3-.35-.55-.35-.23,0-.4.13-.51.38-.11.26-.16.62-.16,1.11s.05.86.16,1.11c.11.25.28.38.51.38Z"/>
        <path class="cls-1" d="M65.57,77.26l.04.08c-.04.19-.09.38-.14.57-.05.19-.11.37-.17.55-.06.18-.13.35-.21.52h-.4c.05-.19.1-.39.14-.59.04-.2.08-.39.11-.59s.05-.37.07-.54h.56Z"/>
        <path class="cls-1" d="M69.1,74.21c.36,0,.63.16.82.49.19.32.28.81.28,1.46,0,.42-.04.77-.13,1.06-.08.29-.21.51-.36.67-.16.15-.35.23-.58.23-.13,0-.25-.02-.36-.07-.11-.05-.21-.12-.29-.21-.09-.09-.16-.2-.21-.32h-.02c0,.09,0,.18.02.26,0,.08,0,.16,0,.24v1.71h-.53v-5.44h.43l.07.55h.03c.06-.14.14-.26.22-.35.08-.09.18-.16.28-.21s.21-.07.34-.07ZM68.99,74.67c-.16,0-.29.05-.4.15s-.19.25-.24.45c-.05.2-.08.46-.08.76v.18c0,.32.03.59.08.81.05.21.14.37.24.47.11.1.24.15.4.15.15,0,.27-.05.37-.16s.17-.27.22-.49c.05-.22.08-.5.08-.84,0-.5-.05-.87-.16-1.12-.1-.25-.28-.38-.52-.38Z"/>
        <path class="cls-1" d="M71.96,74.21c.35,0,.6.11.74.33.15.22.22.54.22.96v2.54h-.4l-.08-.53h-.01c-.06.13-.13.24-.21.33-.08.09-.18.16-.28.21-.11.05-.23.07-.36.07-.19,0-.35-.05-.48-.15s-.22-.24-.27-.41c-.06-.17-.09-.35-.09-.54,0-.37.11-.66.32-.87.21-.21.52-.32.92-.34l.43-.03v-.26c0-.3-.04-.52-.12-.66s-.22-.21-.4-.21c-.11,0-.22.02-.33.05-.12.04-.24.09-.38.17l-.17-.4c.14-.09.29-.16.45-.2.16-.05.33-.07.5-.07ZM72.41,76.17l-.35.02c-.27.02-.46.09-.59.22-.13.13-.19.33-.19.58,0,.24.04.41.13.52.08.11.2.17.35.17.21,0,.37-.1.48-.3.12-.2.17-.48.17-.83v-.38Z"/>
        <path class="cls-1" d="M74.44,74.21c.2,0,.38.04.52.12.15.08.26.19.33.33.08.14.12.31.12.52s-.05.38-.15.53c-.1.16-.22.26-.37.32v.03c.13.04.25.1.34.19.1.09.17.19.22.32.05.13.08.27.08.44,0,.22-.04.42-.13.58-.09.17-.21.3-.38.39-.16.1-.36.14-.59.14-.12,0-.23,0-.33-.03-.1-.02-.2-.05-.28-.08-.09-.04-.17-.08-.25-.14v-.5c.11.08.23.15.37.21.14.06.28.08.44.08.13,0,.24-.03.33-.08.09-.05.16-.13.21-.24s.07-.23.07-.38c0-.14-.03-.26-.08-.36-.05-.1-.13-.18-.22-.24s-.23-.09-.38-.09h-.22v-.43h.21c.18,0,.32-.06.43-.17.1-.11.16-.27.16-.48,0-.18-.04-.32-.13-.41-.09-.09-.21-.14-.37-.14-.09,0-.19.02-.28.04-.1.03-.19.08-.29.14l-.21-.4c.14-.08.27-.14.41-.17.14-.04.28-.05.42-.05Z"/>
        <path class="cls-1" d="M79.27,74.28v3.76h-.51v-2.08c0-.11,0-.25.01-.41,0-.17.02-.36.03-.58h-.03l-.79,3.07h-.47l-.77-3.07h-.03c.01.19.02.38.03.55,0,.18.01.32.01.43v2.09h-.5v-3.76h.75l.75,3.02.76-3.02h.74Z"/>
        <path class="cls-1" d="M81.22,74.22c.26,0,.47.07.63.22.17.15.29.35.37.6.08.25.12.53.12.84v.37h-1.79c0,.47.08.82.22,1.06s.35.35.64.35c.13,0,.27-.02.4-.06s.26-.11.4-.2v.47c-.13.08-.27.14-.41.18-.14.04-.29.06-.45.06-.31,0-.57-.08-.76-.25-.19-.17-.34-.4-.42-.69-.09-.29-.13-.62-.13-.99,0-.42.04-.78.13-1.07s.22-.51.4-.67c.18-.15.4-.23.66-.23ZM81.22,74.65c-.2,0-.35.1-.47.29-.11.19-.18.49-.2.89h1.29c0-.21-.02-.41-.07-.59-.04-.18-.11-.32-.21-.43-.09-.11-.21-.16-.36-.16Z"/>
        <path class="cls-1" d="M84.45,74.21c.36,0,.63.16.82.49.19.32.28.81.28,1.46,0,.42-.04.77-.13,1.06-.08.29-.21.51-.36.67-.16.15-.35.23-.58.23-.13,0-.25-.02-.36-.07-.11-.05-.21-.12-.29-.21-.09-.09-.16-.2-.21-.32h-.02c0,.09,0,.18.02.26,0,.08,0,.16,0,.24v1.71h-.53v-5.44h.43l.07.55h.03c.06-.14.14-.26.22-.35.08-.09.18-.16.28-.21s.21-.07.34-.07ZM84.34,74.67c-.16,0-.29.05-.4.15s-.19.25-.24.45c-.05.2-.08.46-.08.76v.18c0,.32.03.59.08.81.05.21.14.37.24.47.11.1.24.15.4.15.15,0,.27-.05.37-.16s.17-.27.22-.49c.05-.22.08-.5.08-.84,0-.5-.05-.87-.16-1.12-.1-.25-.28-.38-.52-.38Z"/>
        <path class="cls-1" d="M89.17,78.05h-.54v-3.44c0-.1,0-.2,0-.3,0-.1,0-.21.01-.31,0-.1,0-.21.01-.32-.03.04-.07.09-.12.15-.05.05-.11.12-.19.19l-.45.43-.31-.34,1.11-1.08h.47v5.01Z"/>
        <path class="cls-1" d="M92.82,75.54c0,.4-.02.76-.07,1.08s-.11.59-.21.81-.22.39-.37.51c-.15.12-.33.17-.55.17-.25,0-.47-.08-.65-.24-.18-.16-.31-.42-.41-.8-.09-.37-.14-.89-.14-1.54,0-.57.04-1.05.13-1.43.09-.38.22-.67.4-.86.18-.19.4-.29.67-.29s.5.1.68.29c.18.19.31.48.39.86s.13.86.13,1.43ZM90.98,75.54c0,.46.02.84.07,1.15.04.31.11.54.21.69s.22.23.37.23.28-.08.37-.24c.1-.16.17-.39.21-.7s.07-.69.07-1.15-.02-.84-.07-1.15c-.05-.31-.12-.54-.21-.7-.09-.16-.22-.24-.37-.24s-.28.08-.37.23-.17.39-.21.69c-.04.31-.07.69-.07,1.15Z"/>
        <path class="cls-1" d="M96.24,74.21c.36,0,.63.16.82.49.19.32.28.81.28,1.46,0,.42-.04.77-.13,1.06-.08.29-.21.51-.36.67-.16.15-.35.23-.58.23-.13,0-.25-.02-.36-.07-.11-.05-.21-.12-.29-.21-.09-.09-.16-.2-.21-.32h-.02c0,.09,0,.18.02.26,0,.08,0,.16,0,.24v1.71h-.53v-5.44h.43l.07.55h.03c.06-.14.14-.26.22-.35.08-.09.18-.16.28-.21s.21-.07.34-.07ZM96.13,74.67c-.16,0-.29.05-.4.15s-.19.25-.24.45c-.05.2-.08.46-.08.76v.18c0,.32.03.59.08.81.05.21.14.37.24.47.11.1.24.15.4.15.15,0,.27-.05.37-.16s.17-.27.22-.49c.05-.22.08-.5.08-.84,0-.5-.05-.87-.16-1.12-.1-.25-.28-.38-.52-.38Z"/>
        <path class="cls-1" d="M98.98,77.65c.06,0,.11,0,.17-.02.06-.01.11-.03.16-.05v.43c-.07.03-.15.06-.23.08-.08.02-.17.03-.27.03-.16,0-.3-.04-.4-.11-.1-.07-.18-.18-.23-.33-.05-.14-.07-.33-.07-.55v-2.41h-.35v-.29l.37-.14.14-.87h.36v.85h.64v.44h-.64v2.35c0,.19.02.34.07.44.05.1.14.14.27.14Z"/>
        <path class="cls-1" d="M100.55,77.26l.04.08c-.04.19-.09.38-.14.57-.05.19-.11.37-.17.55-.06.18-.13.35-.21.52h-.4c.05-.19.1-.39.14-.59.04-.2.08-.39.11-.59s.05-.37.07-.54h.56Z"/>
      </g>
      <g>
        <path class="cls-1" d="M11.28,82.71v2.19c0,.07,0,.14,0,.2,0,.07,0,.13,0,.2s0,.13-.01.2c0,.07,0,.14-.01.22l1.26-3.01h.6v3.76h-.51v-2.12c0-.1,0-.2,0-.29,0-.1,0-.2,0-.29,0-.1,0-.2.01-.29l-1.27,3.01h-.6v-3.76h.52Z"/>
        <path class="cls-1" d="M14.56,82.71v1.58h1.22v-1.58h.53v3.76h-.53v-1.73h-1.22v1.73h-.53v-3.76h.53Z"/>
        <path class="cls-1" d="M18.8,83.17h-.72v3.31h-.52v-3.31h-.73v-.46h1.97v.46Z"/>
        <path class="cls-1" d="M20.37,82.65c.26,0,.47.07.63.22.17.15.29.35.37.6.08.25.12.53.12.84v.37h-1.79c0,.47.08.82.22,1.06s.35.35.64.35c.13,0,.27-.02.4-.06s.26-.11.4-.2v.47c-.13.08-.27.14-.41.18-.14.04-.29.06-.45.06-.31,0-.57-.08-.76-.25-.19-.17-.34-.4-.42-.69-.09-.29-.13-.62-.13-.99,0-.42.04-.78.13-1.07s.22-.51.4-.67c.18-.15.4-.23.66-.23ZM20.37,83.08c-.2,0-.35.1-.47.29-.11.19-.18.49-.2.89h1.29c0-.21-.02-.41-.07-.59-.04-.18-.11-.32-.21-.43-.09-.11-.21-.16-.36-.16Z"/>
        <path class="cls-1" d="M23.6,82.64c.36,0,.63.16.82.49.19.32.28.81.28,1.46,0,.42-.04.77-.13,1.06-.08.29-.21.51-.36.67-.16.15-.35.23-.58.23-.13,0-.25-.02-.36-.07-.11-.05-.21-.12-.29-.21-.09-.09-.16-.2-.21-.32h-.02c0,.09,0,.18.02.26,0,.08,0,.16,0,.24v1.71h-.53v-5.44h.43l.07.55h.03c.06-.14.14-.26.22-.35.08-.09.18-.16.28-.21s.21-.07.34-.07ZM23.49,83.1c-.16,0-.29.05-.4.15s-.19.25-.24.45c-.05.2-.08.46-.08.76v.18c0,.32.03.59.08.81.05.21.14.37.24.47.11.1.24.15.4.15.15,0,.27-.05.37-.16s.17-.27.22-.49c.05-.22.08-.5.08-.84,0-.5-.05-.87-.16-1.12-.1-.25-.28-.38-.52-.38Z"/>
        <path class="cls-1" d="M27.48,86.47h-.52v-3.29h-.72c-.03.56-.06,1.06-.1,1.47s-.1.76-.17,1.04-.17.48-.28.61-.26.2-.44.2c-.05,0-.09,0-.13-.01s-.08-.02-.12-.03v-.46s.04.02.07.02c.03,0,.05,0,.08,0,.08,0,.15-.04.2-.13.06-.09.11-.22.15-.4s.08-.4.12-.67c.03-.27.06-.58.08-.93.02-.36.04-.76.06-1.2h1.73v3.76Z"/>
        <path class="cls-1" d="M28.92,82.71v2.19c0,.07,0,.14,0,.2,0,.07,0,.13,0,.2s0,.13-.01.2c0,.07,0,.14-.01.22l1.26-3.01h.6v3.76h-.51v-2.12c0-.1,0-.2,0-.29,0-.1,0-.2,0-.29,0-.1,0-.2.01-.29l-1.27,3.01h-.6v-3.76h.52Z"/>
        <path class="cls-1" d="M32.2,82.71v1.58h1.22v-1.58h.53v3.76h-.53v-1.73h-1.22v1.73h-.53v-3.76h.53Z"/>
        <path class="cls-1" d="M35.4,84.28h.4c.27,0,.49.04.67.12.18.08.32.2.41.36s.14.36.14.6-.05.44-.14.61-.23.29-.41.37-.4.13-.65.13h-.95v-3.76h.53v1.57ZM36.49,85.39c0-.22-.06-.39-.17-.51-.11-.12-.28-.17-.51-.17h-.41v1.34h.4c.23,0,.4-.06.51-.17.11-.11.17-.28.17-.49Z"/>
        <path class="cls-1" d="M37.96,86.47h-.58l.94-1.63c-.17-.04-.31-.1-.42-.2-.11-.09-.2-.21-.26-.35s-.09-.31-.09-.49c0-.35.11-.62.32-.81.21-.19.51-.29.88-.29h.94v3.76h-.52v-1.57h-.37l-.84,1.57ZM38.08,83.81c0,.22.06.39.18.5.12.11.3.17.54.17h.37v-1.34h-.36c-.24,0-.42.06-.54.17-.12.12-.18.28-.18.5Z"/>
        <path class="cls-1" d="M43.89,82.71l-1.03,1.78,1.12,1.99h-.6l-1.04-1.95v1.95h-.52v-1.95l-1.04,1.95h-.6l1.12-1.99-1.03-1.78h.57l.97,1.79v-1.79h.52v1.79l.98-1.79h.57Z"/>
        <path class="cls-1" d="M47.32,86.47h-.54v-3.44c0-.1,0-.2,0-.3,0-.1,0-.21.01-.31,0-.1,0-.21.01-.32-.03.04-.07.09-.12.15-.05.05-.11.12-.19.19l-.45.43-.31-.34,1.11-1.08h.47v5.01Z"/>
        <path class="cls-1" d="M50.94,86.47h-2.41v-.4l.99-1.46c.19-.29.35-.53.46-.74s.19-.41.24-.59c.05-.19.07-.39.07-.61,0-.24-.06-.44-.18-.58-.12-.14-.29-.21-.51-.21-.15,0-.28.03-.4.08s-.24.14-.37.26l-.28-.38c.11-.11.23-.19.34-.26.11-.07.23-.11.35-.15.12-.03.26-.05.4-.05.25,0,.46.05.64.16.18.1.31.25.41.44.09.19.14.41.14.66,0,.27-.03.51-.09.74s-.15.45-.28.67c-.12.22-.28.46-.47.72l-.83,1.18v.02h1.78v.49Z"/>
        <path class="cls-1" d="M54.39,82.64c.36,0,.63.16.82.49.19.32.28.81.28,1.46,0,.42-.04.77-.13,1.06-.08.29-.21.51-.36.67-.16.15-.35.23-.58.23-.13,0-.25-.02-.36-.07-.11-.05-.21-.12-.29-.21-.09-.09-.16-.2-.21-.32h-.02c0,.09,0,.18.02.26,0,.08,0,.16,0,.24v1.71h-.53v-5.44h.43l.07.55h.03c.06-.14.14-.26.22-.35.08-.09.18-.16.28-.21s.21-.07.34-.07ZM54.28,83.1c-.16,0-.29.05-.4.15s-.19.25-.24.45c-.05.2-.08.46-.08.76v.18c0,.32.03.59.08.81.05.21.14.37.24.47.11.1.24.15.4.15.15,0,.27-.05.37-.16s.17-.27.22-.49c.05-.22.08-.5.08-.84,0-.5-.05-.87-.16-1.12-.1-.25-.28-.38-.52-.38Z"/>
        <path class="cls-1" d="M57.13,86.08c.06,0,.11,0,.17-.02.06-.01.11-.03.16-.05v.43c-.07.03-.15.06-.23.08-.08.02-.17.03-.27.03-.16,0-.3-.04-.4-.11-.1-.07-.18-.18-.23-.33-.05-.14-.07-.33-.07-.55v-2.41h-.35v-.29l.37-.14.14-.87h.36v.85h.64v.44h-.64v2.35c0,.19.02.34.07.44.05.1.14.14.27.14Z"/>
        <path class="cls-1" d="M57.98,86.11c0-.14.03-.25.09-.32.06-.07.15-.11.27-.11s.2.03.26.1c.06.07.1.18.1.33s-.03.25-.1.32c-.07.07-.15.1-.26.1-.11,0-.2-.04-.26-.11-.06-.07-.09-.18-.09-.32Z"/>
        <path class="cls-1" d="M63.91,83.96c0,.36-.03.69-.09,1.01-.06.31-.15.59-.27.82-.12.24-.28.42-.48.55s-.44.2-.72.2-.53-.07-.73-.2c-.2-.14-.36-.32-.49-.56-.12-.24-.21-.51-.27-.83-.06-.31-.08-.65-.08-1,0-.57.06-1.05.18-1.43.12-.38.29-.66.53-.85s.52-.28.87-.28c.37,0,.68.11.91.34.23.23.39.54.5.92.1.39.16.82.16,1.31ZM61.34,83.96c0,.45.04.84.11,1.15.08.31.19.54.34.7.15.16.33.24.55.24s.4-.08.55-.23c.15-.15.26-.39.33-.7.07-.31.11-.7.11-1.16,0-.69-.08-1.21-.25-1.55s-.41-.52-.74-.52c-.22,0-.41.08-.56.23-.15.16-.26.39-.33.7-.07.31-.11.69-.11,1.14Z"/>
        <path class="cls-1" d="M65.24,82.71v1.58h1.22v-1.58h.53v3.76h-.53v-1.73h-1.22v1.73h-.53v-3.76h.53Z"/>
        <path class="cls-1" d="M70.76,82.71h.58l-1.08,1.78,1.17,1.99h-.6l-1.09-1.95v1.95h-.53v-3.76h.53v1.78l1.03-1.78Z"/>
        <path class="cls-1" d="M72.92,82.64c.35,0,.6.11.74.33.15.22.22.54.22.96v2.54h-.4l-.08-.53h-.01c-.06.13-.13.24-.21.33-.08.09-.18.16-.28.21-.11.05-.23.07-.36.07-.19,0-.35-.05-.48-.15s-.22-.24-.27-.41c-.06-.17-.09-.35-.09-.54,0-.37.11-.66.32-.87.21-.21.52-.32.92-.34l.43-.03v-.26c0-.3-.04-.52-.12-.66s-.22-.21-.4-.21c-.11,0-.22.02-.33.05-.12.04-.24.09-.38.17l-.17-.4c.14-.09.29-.16.45-.2.16-.05.33-.07.5-.07ZM73.37,84.6l-.35.02c-.27.02-.46.09-.59.22-.13.13-.19.33-.19.58,0,.24.04.41.13.52.08.11.2.17.35.17.21,0,.37-.1.48-.3.12-.2.17-.48.17-.83v-.38Z"/>
        <path class="cls-1" d="M78.07,82.71l-1.03,1.78,1.12,1.99h-.6l-1.04-1.95v1.95h-.52v-1.95l-1.04,1.95h-.6l1.12-1.99-1.03-1.78h.57l.97,1.79v-1.79h.52v1.79l.98-1.79h.57Z"/>
        <path class="cls-1" d="M79.67,82.65c.26,0,.47.07.63.22.17.15.29.35.37.6.08.25.12.53.12.84v.37h-1.79c0,.47.08.82.22,1.06s.35.35.64.35c.13,0,.27-.02.4-.06s.26-.11.4-.2v.47c-.13.08-.27.14-.41.18-.14.04-.29.06-.45.06-.31,0-.57-.08-.76-.25-.19-.17-.34-.4-.42-.69-.09-.29-.13-.62-.13-.99,0-.42.04-.78.13-1.07s.22-.51.4-.67c.18-.15.4-.23.66-.23ZM79.67,83.08c-.2,0-.35.1-.47.29-.11.19-.18.49-.2.89h1.29c0-.21-.02-.41-.07-.59-.04-.18-.11-.32-.21-.43-.09-.11-.21-.16-.36-.16Z"/>
        <path class="cls-1" d="M83.12,83.17h-.72v3.31h-.52v-3.31h-.73v-.46h1.97v.46Z"/>
        <path class="cls-1" d="M84.73,86.54c-.28,0-.51-.07-.69-.22-.18-.14-.32-.36-.41-.64-.09-.29-.14-.64-.14-1.06s.05-.77.14-1.06.23-.52.42-.68c.19-.16.42-.24.7-.24.14,0,.27.02.38.04s.22.07.32.13l-.17.44c-.09-.05-.17-.08-.25-.1-.08-.02-.17-.03-.24-.03-.16,0-.3.06-.41.17-.11.11-.2.28-.26.5s-.09.5-.09.83.03.59.08.81c.06.22.14.38.25.49.11.11.25.17.42.17.1,0,.2-.01.31-.04.1-.03.21-.07.31-.12v.45c-.1.06-.21.1-.33.14s-.24.05-.34.05Z"/>
        <path class="cls-1" d="M86.3,86.47h-.58l.94-1.63c-.17-.04-.31-.1-.42-.2-.11-.09-.2-.21-.26-.35s-.09-.31-.09-.49c0-.35.11-.62.32-.81.21-.19.51-.29.88-.29h.94v3.76h-.52v-1.57h-.37l-.84,1.57ZM86.42,83.81c0,.22.06.39.18.5.12.11.3.17.54.17h.37v-1.34h-.36c-.24,0-.42.06-.54.17-.12.12-.18.28-.18.5Z"/>
        <path class="cls-1" d="M90.78,82.71v1.58h1.22v-1.58h.53v3.76h-.53v-1.73h-1.22v1.73h-.53v-3.76h.53Z"/>
        <path class="cls-1" d="M94.46,82.64c.35,0,.6.11.74.33.15.22.22.54.22.96v2.54h-.4l-.08-.53h-.01c-.06.13-.13.24-.21.33-.08.09-.18.16-.28.21-.11.05-.23.07-.36.07-.19,0-.35-.05-.48-.15s-.22-.24-.27-.41c-.06-.17-.09-.35-.09-.54,0-.37.11-.66.32-.87.21-.21.52-.32.92-.34l.43-.03v-.26c0-.3-.04-.52-.12-.66s-.22-.21-.4-.21c-.11,0-.22.02-.33.05-.12.04-.24.09-.38.17l-.17-.4c.14-.09.29-.16.45-.2.16-.05.33-.07.5-.07ZM94.91,84.6l-.35.02c-.27.02-.46.09-.59.22-.13.13-.19.33-.19.58,0,.24.04.41.13.52.08.11.2.17.35.17.21,0,.37-.1.48-.3.12-.2.17-.48.17-.83v-.38Z"/>
        <path class="cls-1" d="M99.34,82.71v3.76h-.51v-2.08c0-.11,0-.25.01-.41,0-.17.02-.36.03-.58h-.03l-.79,3.07h-.47l-.77-3.07h-.03c.01.19.02.38.03.55,0,.18.01.32.01.43v2.09h-.5v-3.76h.75l.75,3.02.76-3.02h.74Z"/>
      </g>
      <g>
        <path class="cls-1" d="M13.77,91.14v3.76h-.51v-2.08c0-.11,0-.25.01-.41,0-.17.02-.36.03-.58h-.03l-.79,3.07h-.47l-.77-3.07h-.03c.01.19.02.38.03.55,0,.18.01.32.01.43v2.09h-.5v-3.76h.75l.75,3.02.76-3.02h.74Z"/>
        <path class="cls-1" d="M15.72,91.07c.26,0,.47.07.63.22.17.15.29.35.37.6.08.25.12.53.12.84v.37h-1.79c0,.47.08.82.22,1.06s.35.35.64.35c.13,0,.27-.02.4-.06s.26-.11.4-.2v.47c-.13.08-.27.14-.41.18-.14.04-.29.06-.45.06-.31,0-.57-.08-.76-.25-.19-.17-.34-.4-.42-.69-.09-.29-.13-.62-.13-.99,0-.42.04-.78.13-1.07s.22-.51.4-.67c.18-.15.4-.23.66-.23ZM15.72,91.51c-.2,0-.35.1-.47.29-.11.19-.18.49-.2.89h1.29c0-.21-.02-.41-.07-.59-.04-.18-.11-.32-.21-.43-.09-.11-.21-.16-.36-.16Z"/>
        <path class="cls-1" d="M18.12,91.14v1.58h1.22v-1.58h.53v3.76h-.53v-1.73h-1.22v1.73h-.53v-3.76h.53Z"/>
        <path class="cls-1" d="M21.31,92.71h.4c.27,0,.49.04.67.12.18.08.32.2.41.36s.14.36.14.6-.05.44-.14.61-.23.29-.41.37-.4.13-.65.13h-.95v-3.76h.53v1.57ZM22.4,93.82c0-.22-.06-.39-.17-.51-.11-.12-.28-.17-.51-.17h-.41v1.34h.4c.23,0,.4-.06.51-.17.11-.11.17-.28.17-.49Z"/>
        <path class="cls-1" d="M27.14,91.14v3.76h-3.51v-3.76h.53v3.3h.96v-3.3h.52v3.3h.97v-3.3h.52Z"/>
        <path class="cls-1" d="M29.1,91.07c.26,0,.47.07.63.22.17.15.29.35.37.6.08.25.12.53.12.84v.37h-1.79c0,.47.08.82.22,1.06s.35.35.64.35c.13,0,.27-.02.4-.06s.26-.11.4-.2v.47c-.13.08-.27.14-.41.18-.14.04-.29.06-.45.06-.31,0-.57-.08-.76-.25-.19-.17-.34-.4-.42-.69-.09-.29-.13-.62-.13-.99,0-.42.04-.78.13-1.07s.22-.51.4-.67c.18-.15.4-.23.66-.23ZM29.1,91.51c-.2,0-.35.1-.47.29-.11.19-.18.49-.2.89h1.29c0-.21-.02-.41-.07-.59-.04-.18-.11-.32-.21-.43-.09-.11-.21-.16-.36-.16Z"/>
        <path class="cls-1" d="M31.64,94.11l.04.08c-.04.19-.09.38-.14.57-.05.19-.11.37-.17.55-.06.18-.13.35-.21.52h-.4c.05-.19.1-.39.14-.59.04-.2.08-.39.11-.59s.05-.37.07-.54h.56Z"/>
        <path class="cls-1" d="M34.26,91.14v1.49c0,.2.04.35.12.44.08.09.19.14.32.14.15,0,.29-.04.43-.11.14-.07.27-.17.38-.28v-1.67h.52v3.76h-.52v-1.63c-.13.13-.28.22-.44.29s-.33.1-.5.1c-.29,0-.5-.09-.64-.26-.14-.18-.21-.44-.21-.8v-1.46h.52Z"/>
        <path class="cls-1" d="M37.99,91.07c.26,0,.47.07.63.22.17.15.29.35.37.6.08.25.12.53.12.84v.37h-1.79c0,.47.08.82.22,1.06s.35.35.64.35c.13,0,.27-.02.4-.06s.26-.11.4-.2v.47c-.13.08-.27.14-.41.18-.14.04-.29.06-.45.06-.31,0-.57-.08-.76-.25-.19-.17-.34-.4-.42-.69-.09-.29-.13-.62-.13-.99,0-.42.04-.78.13-1.07s.22-.51.4-.67c.18-.15.4-.23.66-.23ZM37.99,91.51c-.2,0-.35.1-.47.29-.11.19-.18.49-.2.89h1.29c0-.21-.02-.41-.07-.59-.04-.18-.11-.32-.21-.43-.09-.11-.21-.16-.36-.16Z"/>
        <path class="cls-1" d="M42.87,91.14v3.76h-.51v-2.08c0-.11,0-.25.01-.41,0-.17.02-.36.03-.58h-.03l-.79,3.07h-.47l-.77-3.07h-.03c.01.19.02.38.03.55,0,.18.01.32.01.43v2.09h-.5v-3.76h.75l.75,3.02.76-3.02h.74Z"/>
        <path class="cls-1" d="M46.12,91.07c.26,0,.47.07.63.22.17.15.29.35.37.6.08.25.12.53.12.84v.37h-1.79c0,.47.08.82.22,1.06s.35.35.64.35c.13,0,.27-.02.4-.06s.26-.11.4-.2v.47c-.13.08-.27.14-.41.18-.14.04-.29.06-.45.06-.31,0-.57-.08-.76-.25-.19-.17-.34-.4-.42-.69-.09-.29-.13-.62-.13-.99,0-.42.04-.78.13-1.07s.22-.51.4-.67c.18-.15.4-.23.66-.23ZM46.12,91.51c-.2,0-.35.1-.47.29-.11.19-.18.49-.2.89h1.29c0-.21-.02-.41-.07-.59-.04-.18-.11-.32-.21-.43-.09-.11-.21-.16-.36-.16Z"/>
        <path class="cls-1" d="M49.67,91.14v.47h-1.15v3.3h-.53v-3.76h1.68Z"/>
        <path class="cls-1" d="M52.53,93.02c0,.3-.03.57-.08.81-.05.24-.13.45-.23.62s-.23.3-.39.39-.34.14-.56.14-.39-.05-.54-.14c-.16-.09-.28-.22-.39-.39-.1-.17-.18-.38-.23-.62-.05-.24-.08-.51-.08-.81,0-.42.04-.77.13-1.06.09-.29.23-.51.41-.66.19-.15.42-.23.71-.23.27,0,.49.07.68.22.19.15.33.37.42.66.1.29.14.65.14,1.07ZM50.57,93.02c0,.33.02.6.08.82.05.22.13.39.23.5s.24.17.41.17.3-.05.4-.16c.1-.11.18-.27.23-.5.05-.22.08-.5.08-.83s-.03-.6-.08-.82c-.05-.22-.13-.39-.23-.5-.1-.11-.24-.17-.4-.17-.25,0-.43.12-.55.37-.11.25-.17.62-.17,1.11Z"/>
        <path class="cls-1" d="M55.67,94.97c-.28,0-.51-.07-.69-.22-.18-.14-.32-.36-.41-.64-.09-.29-.14-.64-.14-1.06s.05-.77.14-1.06.23-.52.42-.68c.19-.16.42-.24.7-.24.14,0,.27.02.38.04s.22.07.32.13l-.17.44c-.09-.05-.17-.08-.25-.1-.08-.02-.17-.03-.24-.03-.16,0-.3.06-.41.17-.11.11-.2.28-.26.5s-.09.5-.09.83.03.59.08.81c.06.22.14.38.25.49.11.11.25.17.42.17.1,0,.2-.01.31-.04.1-.03.21-.07.31-.12v.45c-.1.06-.21.1-.33.14s-.24.05-.34.05Z"/>
        <path class="cls-1" d="M59.33,93.02c0,.3-.03.57-.08.81-.05.24-.13.45-.23.62s-.23.3-.39.39-.34.14-.56.14-.39-.05-.54-.14c-.16-.09-.28-.22-.39-.39-.1-.17-.18-.38-.23-.62-.05-.24-.08-.51-.08-.81,0-.42.04-.77.13-1.06.09-.29.23-.51.41-.66.19-.15.42-.23.71-.23.27,0,.49.07.68.22.19.15.33.37.42.66.1.29.14.65.14,1.07ZM57.37,93.02c0,.33.02.6.08.82.05.22.13.39.23.5s.24.17.41.17.3-.05.4-.16c.1-.11.18-.27.23-.5.05-.22.08-.5.08-.83s-.03-.6-.08-.82c-.05-.22-.13-.39-.23-.5-.1-.11-.24-.17-.4-.17-.25,0-.43.12-.55.37-.11.25-.17.62-.17,1.11Z"/>
        <path class="cls-1" d="M61.18,94.97c-.28,0-.51-.07-.69-.22-.18-.14-.32-.36-.41-.64-.09-.29-.14-.64-.14-1.06s.05-.77.14-1.06.23-.52.42-.68c.19-.16.42-.24.7-.24.14,0,.27.02.38.04s.22.07.32.13l-.17.44c-.09-.05-.17-.08-.25-.1-.08-.02-.17-.03-.24-.03-.16,0-.3.06-.41.17-.11.11-.2.28-.26.5s-.09.5-.09.83.03.59.08.81c.06.22.14.38.25.49.11.11.25.17.42.17.1,0,.2-.01.31-.04.1-.03.21-.07.31-.12v.45c-.1.06-.21.1-.33.14s-.24.05-.34.05Z"/>
        <path class="cls-1" d="M63.54,91.07c.26,0,.47.07.63.22.17.15.29.35.37.6.08.25.12.53.12.84v.37h-1.79c0,.47.08.82.22,1.06s.35.35.64.35c.13,0,.27-.02.4-.06s.26-.11.4-.2v.47c-.13.08-.27.14-.41.18-.14.04-.29.06-.45.06-.31,0-.57-.08-.76-.25-.19-.17-.34-.4-.42-.69-.09-.29-.13-.62-.13-.99,0-.42.04-.78.13-1.07s.22-.51.4-.67c.18-.15.4-.23.66-.23ZM63.54,91.51c-.2,0-.35.1-.47.29-.11.19-.18.49-.2.89h1.29c0-.21-.02-.41-.07-.59-.04-.18-.11-.32-.21-.43-.09-.11-.21-.16-.36-.16Z"/>
        <path class="cls-1" d="M67.47,91.14v3.3h.38v1.77h-.51v-1.3h-1.83v1.3h-.51v-1.77h.3c.13-.31.24-.65.32-1.02.08-.36.15-.74.19-1.13.04-.39.07-.77.08-1.16h1.59ZM66.94,91.6h-.6c0,.3-.03.61-.07.94-.04.33-.09.65-.16.98s-.17.63-.29.93h1.12v-2.84Z"/>
        <path class="cls-1" d="M70.84,94.97c-.28,0-.51-.07-.69-.22-.18-.14-.32-.36-.41-.64-.09-.29-.14-.64-.14-1.06s.05-.77.14-1.06.23-.52.42-.68c.19-.16.42-.24.7-.24.14,0,.27.02.38.04s.22.07.32.13l-.17.44c-.09-.05-.17-.08-.25-.1-.08-.02-.17-.03-.24-.03-.16,0-.3.06-.41.17-.11.11-.2.28-.26.5s-.09.5-.09.83.03.59.08.81c.06.22.14.38.25.49.11.11.25.17.42.17.1,0,.2-.01.31-.04.1-.03.21-.07.31-.12v.45c-.1.06-.21.1-.33.14s-.24.05-.34.05Z"/>
        <path class="cls-1" d="M74.44,91.14v3.76h-.53v-3.31h-1.22v3.31h-.53v-3.76h2.28Z"/>
        <path class="cls-1" d="M76.72,91.07c.36,0,.63.16.82.49.19.32.28.81.28,1.46,0,.42-.04.77-.13,1.06-.08.29-.21.51-.36.67-.16.15-.35.23-.58.23-.13,0-.25-.02-.36-.07-.11-.05-.21-.12-.29-.21-.09-.09-.16-.2-.21-.32h-.02c0,.09,0,.18.02.26,0,.08,0,.16,0,.24v1.71h-.53v-5.44h.43l.07.55h.03c.06-.14.14-.26.22-.35.08-.09.18-.16.28-.21s.21-.07.34-.07ZM76.6,91.52c-.16,0-.29.05-.4.15s-.19.25-.24.45c-.05.2-.08.46-.08.76v.18c0,.32.03.59.08.81.05.21.14.37.24.47.11.1.24.15.4.15.15,0,.27-.05.37-.16s.17-.27.22-.49c.05-.22.08-.5.08-.84,0-.5-.05-.87-.16-1.12-.1-.25-.28-.38-.52-.38Z"/>
        <path class="cls-1" d="M79.58,91.07c.35,0,.6.11.74.33.15.22.22.54.22.96v2.54h-.4l-.08-.53h-.01c-.06.13-.13.24-.21.33-.08.09-.18.16-.28.21-.11.05-.23.07-.36.07-.19,0-.35-.05-.48-.15s-.22-.24-.27-.41c-.06-.17-.09-.35-.09-.54,0-.37.11-.66.32-.87.21-.21.52-.32.92-.34l.43-.03v-.26c0-.3-.04-.52-.12-.66s-.22-.21-.4-.21c-.11,0-.22.02-.33.05-.12.04-.24.09-.38.17l-.17-.4c.14-.09.29-.16.45-.2.16-.05.33-.07.5-.07ZM80.02,93.02l-.35.02c-.27.02-.46.09-.59.22-.13.13-.19.33-.19.58,0,.24.04.41.13.52.08.11.2.17.35.17.21,0,.37-.1.48-.3.12-.2.17-.48.17-.83v-.38Z"/>
        <path class="cls-1" d="M83.54,92.06c0,.22-.04.4-.13.55s-.23.24-.41.29v.03c.21.04.37.13.48.28.11.15.17.35.17.59s-.04.43-.13.6c-.09.17-.21.29-.38.38-.17.09-.38.13-.62.13h-1.06v-3.76h1c.24,0,.44.04.6.11s.28.17.36.31c.08.14.12.31.12.51ZM83.01,92.11c0-.18-.05-.31-.14-.4s-.24-.14-.44-.14h-.45v1.16h.51c.18,0,.32-.05.4-.15.08-.1.12-.25.12-.46ZM83.11,93.75c0-.22-.05-.38-.15-.48-.1-.1-.25-.14-.45-.14h-.52v1.34h.5c.21,0,.37-.06.47-.17.1-.12.15-.3.15-.55Z"/>
        <path class="cls-1" d="M85.38,91.07c.35,0,.6.11.74.33.15.22.22.54.22.96v2.54h-.4l-.08-.53h-.01c-.06.13-.13.24-.21.33-.08.09-.18.16-.28.21-.11.05-.23.07-.36.07-.19,0-.35-.05-.48-.15s-.22-.24-.27-.41c-.06-.17-.09-.35-.09-.54,0-.37.11-.66.32-.87.21-.21.52-.32.92-.34l.43-.03v-.26c0-.3-.04-.52-.12-.66s-.22-.21-.4-.21c-.11,0-.22.02-.33.05-.12.04-.24.09-.38.17l-.17-.4c.14-.09.29-.16.45-.2.16-.05.33-.07.5-.07ZM85.83,93.02l-.35.02c-.27.02-.46.09-.59.22-.13.13-.19.33-.19.58,0,.24.04.41.13.52.08.11.2.17.35.17.21,0,.37-.1.48-.3.12-.2.17-.48.17-.83v-.38Z"/>
        <path class="cls-1" d="M87.21,94.53c0-.14.03-.25.09-.32.06-.07.15-.11.27-.11s.2.03.26.1c.06.07.1.18.1.33s-.03.25-.1.32c-.07.07-.15.1-.26.1-.11,0-.2-.04-.26-.11-.06-.07-.09-.18-.09-.32Z"/>
      </g>
      <g>
        <path class="cls-1" d="M12.79,103.33h-1.97v-5.01h1.97v.49h-1.43v1.66h1.34v.49h-1.34v1.88h1.43v.5Z"/>
        <path class="cls-1" d="M17.07,99.56v3.3h.39v1.77h-.51v-1.3h-3.39v-3.76h.53v3.3h.96v-3.3h.52v3.3h.97v-3.3h.52Z"/>
        <path class="cls-1" d="M19.1,99.5c.26,0,.47.07.63.22.17.15.29.35.37.6.08.25.12.53.12.84v.37h-1.79c0,.47.08.82.22,1.06s.35.35.64.35c.13,0,.27-.02.4-.06s.26-.11.4-.2v.47c-.13.08-.27.14-.41.18-.14.04-.29.06-.45.06-.31,0-.57-.08-.76-.25-.19-.17-.34-.4-.42-.69-.09-.29-.13-.62-.13-.99,0-.42.04-.78.13-1.07s.22-.51.4-.67c.18-.15.4-.23.66-.23ZM19.1,99.93c-.2,0-.35.1-.47.29-.11.19-.18.49-.2.89h1.29c0-.21-.02-.41-.07-.59-.04-.18-.11-.32-.21-.43-.09-.11-.21-.16-.36-.16Z"/>
        <path class="cls-1" d="M23.85,100.02h-.72v3.31h-.52v-3.31h-.73v-.46h1.97v.46Z"/>
        <path class="cls-1" d="M23.96,99.56h.55l.53,2.2c.02.1.04.19.06.28.02.09.04.18.05.27.02.09.03.18.04.27h.03c.02-.13.04-.27.07-.4.03-.14.06-.28.1-.43l.52-2.2h.54l-1.12,4.37c-.07.25-.14.46-.23.62s-.19.28-.31.35-.26.11-.43.11c-.05,0-.11,0-.16-.02s-.11-.03-.17-.04v-.47s.09.03.14.04c.05,0,.09.01.14.01.09,0,.16-.02.22-.07.06-.05.12-.12.16-.22s.09-.24.14-.42l.13-.53-.99-3.74Z"/>
        <path class="cls-1" d="M28.52,100.02h-.72v3.31h-.52v-3.31h-.73v-.46h1.97v.46Z"/>
        <path class="cls-1" d="M29.93,99.56h.55l.53,2.2c.02.1.04.19.06.28.02.09.04.18.05.27.02.09.03.18.04.27h.03c.02-.13.04-.27.07-.4.03-.14.06-.28.1-.43l.52-2.2h.54l-1.12,4.37c-.07.25-.14.46-.23.62s-.19.28-.31.35-.26.11-.43.11c-.05,0-.11,0-.16-.02s-.11-.03-.17-.04v-.47s.09.03.14.04c.05,0,.09.01.14.01.09,0,.16-.02.22-.07.06-.05.12-.12.16-.22s.09-.24.14-.42l.13-.53-.99-3.74Z"/>
        <path class="cls-1" d="M35.91,99.56v3.76h-.51v-2.08c0-.11,0-.25.01-.41,0-.17.02-.36.03-.58h-.03l-.79,3.07h-.47l-.77-3.07h-.03c.01.19.02.38.03.55,0,.18.01.32.01.43v2.09h-.5v-3.76h.75l.75,3.02.76-3.02h.74Z"/>
        <path class="cls-1" d="M37.86,99.5c.26,0,.47.07.63.22.17.15.29.35.37.6.08.25.12.53.12.84v.37h-1.79c0,.47.08.82.22,1.06s.35.35.64.35c.13,0,.27-.02.4-.06s.26-.11.4-.2v.47c-.13.08-.27.14-.41.18-.14.04-.29.06-.45.06-.31,0-.57-.08-.76-.25-.19-.17-.34-.4-.42-.69-.09-.29-.13-.62-.13-.99,0-.42.04-.78.13-1.07s.22-.51.4-.67c.18-.15.4-.23.66-.23ZM37.86,99.93c-.2,0-.35.1-.47.29-.11.19-.18.49-.2.89h1.29c0-.21-.02-.41-.07-.59-.04-.18-.11-.32-.21-.43-.09-.11-.21-.16-.36-.16Z"/>
        <path class="cls-1" d="M40.82,103.4c-.28,0-.51-.07-.69-.22-.18-.14-.32-.36-.41-.64-.09-.29-.14-.64-.14-1.06s.05-.77.14-1.06.23-.52.42-.68c.19-.16.42-.24.7-.24.14,0,.27.02.38.04s.22.07.32.13l-.17.44c-.09-.05-.17-.08-.25-.1-.08-.02-.17-.03-.24-.03-.16,0-.3.06-.41.17-.11.11-.2.28-.26.5s-.09.5-.09.83.03.59.08.81c.06.22.14.38.25.49.11.11.25.17.42.17.1,0,.2-.01.31-.04.1-.03.21-.07.31-.12v.45c-.1.06-.21.1-.33.14s-.24.05-.34.05Z"/>
        <path class="cls-1" d="M43.72,100.02h-.72v3.31h-.52v-3.31h-.73v-.46h1.97v.46Z"/>
        <path class="cls-1" d="M44.76,99.56v2.19c0,.07,0,.14,0,.2,0,.07,0,.13,0,.2s0,.13-.01.2c0,.07,0,.14-.01.22l1.26-3.01h.6v3.76h-.51v-2.12c0-.1,0-.2,0-.29,0-.1,0-.2,0-.29,0-.1,0-.2.01-.29l-1.27,3.01h-.6v-3.76h.52Z"/>
        <path class="cls-1" d="M49.55,103.33h-.52v-3.29h-.72c-.03.56-.06,1.06-.1,1.47s-.1.76-.17,1.04-.17.48-.28.61-.26.2-.44.2c-.05,0-.09,0-.13-.01s-.08-.02-.12-.03v-.46s.04.02.07.02c.03,0,.05,0,.08,0,.08,0,.15-.04.2-.13.06-.09.11-.22.15-.4s.08-.4.12-.67c.03-.27.06-.58.08-.93.02-.36.04-.76.06-1.2h1.73v3.76Z"/>
        <path class="cls-1" d="M52.8,101.44c0,.3-.03.57-.08.81-.05.24-.13.45-.23.62s-.23.3-.39.39-.34.14-.56.14-.39-.05-.54-.14c-.16-.09-.28-.22-.39-.39-.1-.17-.18-.38-.23-.62-.05-.24-.08-.51-.08-.81,0-.42.04-.77.13-1.06.09-.29.23-.51.41-.66.19-.15.42-.23.71-.23.27,0,.49.07.68.22.19.15.33.37.42.66.1.29.14.65.14,1.07ZM50.85,101.44c0,.33.02.6.08.82.05.22.13.39.23.5s.24.17.41.17.3-.05.4-.16c.1-.11.18-.27.23-.5.05-.22.08-.5.08-.83s-.03-.6-.08-.82c-.05-.22-.13-.39-.23-.5-.1-.11-.24-.17-.4-.17-.25,0-.43.12-.55.37-.11.25-.17.62-.17,1.11Z"/>
        <path class="cls-1" d="M54.65,103.4c-.28,0-.51-.07-.69-.22-.18-.14-.32-.36-.41-.64-.09-.29-.14-.64-.14-1.06s.05-.77.14-1.06.23-.52.42-.68c.19-.16.42-.24.7-.24.14,0,.27.02.38.04s.22.07.32.13l-.17.44c-.09-.05-.17-.08-.25-.1-.08-.02-.17-.03-.24-.03-.16,0-.3.06-.41.17-.11.11-.2.28-.26.5s-.09.5-.09.83.03.59.08.81c.06.22.14.38.25.49.11.11.25.17.42.17.1,0,.2-.01.31-.04.1-.03.21-.07.31-.12v.45c-.1.06-.21.1-.33.14s-.24.05-.34.05Z"/>
        <path class="cls-1" d="M56.5,101.14h.4c.27,0,.49.04.67.12.18.08.32.2.41.36s.14.36.14.6-.05.44-.14.61-.23.29-.41.37-.4.13-.65.13h-.95v-3.76h.53v1.57ZM57.59,102.24c0-.22-.06-.39-.17-.51-.11-.12-.28-.17-.51-.17h-.41v1.34h.4c.23,0,.4-.06.51-.17.11-.11.17-.28.17-.49Z"/>
        <path class="cls-1" d="M59.99,100.93c0-.41.03-.79.08-1.13.06-.34.16-.64.3-.89.15-.25.36-.45.63-.59.14-.08.33-.16.56-.22.23-.06.5-.11.82-.14l.06.48c-.11,0-.22.02-.34.04-.12.02-.24.04-.35.06-.11.02-.22.05-.32.08-.1.03-.18.07-.25.11-.17.1-.3.22-.4.38-.09.16-.16.35-.2.57-.04.22-.07.46-.08.74h.03c.05-.12.12-.22.21-.3.08-.08.18-.15.29-.2s.22-.07.33-.07c.24,0,.44.07.6.2s.29.33.38.58c.09.26.13.57.13.94s-.05.72-.15.99c-.1.27-.24.48-.43.62-.19.14-.43.21-.7.21-.2,0-.38-.05-.53-.15-.15-.1-.28-.25-.38-.45-.1-.2-.18-.46-.23-.77-.05-.31-.08-.68-.08-1.11ZM61.22,102.94c.16,0,.3-.05.41-.15.11-.1.19-.25.25-.45s.08-.45.08-.74c0-.43-.06-.76-.17-.98-.12-.22-.29-.33-.53-.33-.11,0-.21.03-.31.1-.1.07-.18.16-.25.26-.07.11-.12.22-.16.34,0,.32.02.6.04.84s.07.45.12.61c.06.16.13.29.21.37.08.08.19.12.31.12Z"/>
        <path class="cls-1" d="M65.58,101.44c0,.3-.03.57-.08.81-.05.24-.13.45-.23.62s-.23.3-.39.39-.34.14-.56.14-.39-.05-.54-.14c-.16-.09-.28-.22-.39-.39-.1-.17-.18-.38-.23-.62-.05-.24-.08-.51-.08-.81,0-.42.04-.77.13-1.06.09-.29.23-.51.41-.66.19-.15.42-.23.71-.23.27,0,.49.07.68.22.19.15.33.37.42.66.1.29.14.65.14,1.07ZM63.63,101.44c0,.33.02.6.08.82.05.22.13.39.23.5s.24.17.41.17.3-.05.4-.16c.1-.11.18-.27.23-.5.05-.22.08-.5.08-.83s-.03-.6-.08-.82c-.05-.22-.13-.39-.23-.5-.1-.11-.24-.17-.4-.17-.25,0-.43.12-.55.37-.11.25-.17.62-.17,1.11Z"/>
        <path class="cls-1" d="M68.37,103.33h-.52v-3.29h-.72c-.03.56-.06,1.06-.1,1.47s-.1.76-.17,1.04-.17.48-.28.61-.26.2-.44.2c-.05,0-.09,0-.13-.01s-.08-.02-.12-.03v-.46s.04.02.07.02c.03,0,.05,0,.08,0,.08,0,.15-.04.2-.13.06-.09.11-.22.15-.4s.08-.4.12-.67c.03-.27.06-.58.08-.93.02-.36.04-.76.06-1.2h1.73v3.76Z"/>
        <path class="cls-1" d="M69.82,101.14h.4c.27,0,.49.04.67.12.18.08.32.2.41.36s.14.36.14.6-.05.44-.14.61-.23.29-.41.37-.4.13-.65.13h-.95v-3.76h.53v1.57ZM70.91,102.24c0-.22-.06-.39-.17-.51-.11-.12-.28-.17-.51-.17h-.41v1.34h.4c.23,0,.4-.06.51-.17.11-.11.17-.28.17-.49Z"/>
        <path class="cls-1" d="M75.65,99.56v3.76h-3.51v-3.76h.53v3.3h.96v-3.3h.52v3.3h.97v-3.3h.52Z"/>
        <path class="cls-1" d="M77.61,99.5c.26,0,.47.07.63.22.17.15.29.35.37.6.08.25.12.53.12.84v.37h-1.79c0,.47.08.82.22,1.06s.35.35.64.35c.13,0,.27-.02.4-.06s.26-.11.4-.2v.47c-.13.08-.27.14-.41.18-.14.04-.29.06-.45.06-.31,0-.57-.08-.76-.25-.19-.17-.34-.4-.42-.69-.09-.29-.13-.62-.13-.99,0-.42.04-.78.13-1.07s.22-.51.4-.67c.18-.15.4-.23.66-.23ZM77.61,99.93c-.2,0-.35.1-.47.29-.11.19-.18.49-.2.89h1.29c0-.21-.02-.41-.07-.59-.04-.18-.11-.32-.21-.43-.09-.11-.21-.16-.36-.16Z"/>
        <path class="cls-1" d="M81.87,103.4c-.28,0-.51-.07-.69-.22-.18-.14-.32-.36-.41-.64-.09-.29-.14-.64-.14-1.06s.05-.77.14-1.06.23-.52.42-.68c.19-.16.42-.24.7-.24.14,0,.27.02.38.04s.22.07.32.13l-.17.44c-.09-.05-.17-.08-.25-.1-.08-.02-.17-.03-.24-.03-.16,0-.3.06-.41.17-.11.11-.2.28-.26.5s-.09.5-.09.83.03.59.08.81c.06.22.14.38.25.49.11.11.25.17.42.17.1,0,.2-.01.31-.04.1-.03.21-.07.31-.12v.45c-.1.06-.21.1-.33.14s-.24.05-.34.05Z"/>
        <path class="cls-1" d="M84.77,100.02h-.72v3.31h-.52v-3.31h-.73v-.46h1.97v.46Z"/>
        <path class="cls-1" d="M86.66,99.49c.36,0,.63.16.82.49.19.32.28.81.28,1.46,0,.42-.04.77-.13,1.06-.08.29-.21.51-.36.67-.16.15-.35.23-.58.23-.13,0-.25-.02-.36-.07-.11-.05-.21-.12-.29-.21-.09-.09-.16-.2-.21-.32h-.02c0,.09,0,.18.02.26,0,.08,0,.16,0,.24v1.71h-.53v-5.44h.43l.07.55h.03c.06-.14.14-.26.22-.35.08-.09.18-.16.28-.21s.21-.07.34-.07ZM86.54,99.95c-.16,0-.29.05-.4.15s-.19.25-.24.45c-.05.2-.08.46-.08.76v.18c0,.32.03.59.08.81.05.21.14.37.24.47.11.1.24.15.4.15.15,0,.27-.05.37-.16s.17-.27.22-.49c.05-.22.08-.5.08-.84,0-.5-.05-.87-.16-1.12-.1-.25-.28-.38-.52-.38Z"/>
        <path class="cls-1" d="M90.84,101.44c0,.3-.03.57-.08.81-.05.24-.13.45-.23.62s-.23.3-.39.39-.34.14-.56.14-.39-.05-.54-.14c-.16-.09-.28-.22-.39-.39-.1-.17-.18-.38-.23-.62-.05-.24-.08-.51-.08-.81,0-.42.04-.77.13-1.06.09-.29.23-.51.41-.66.19-.15.42-.23.71-.23.27,0,.49.07.68.22.19.15.33.37.42.66.1.29.14.65.14,1.07ZM88.88,101.44c0,.33.02.6.08.82.05.22.13.39.23.5s.24.17.41.17.3-.05.4-.16c.1-.11.18-.27.23-.5.05-.22.08-.5.08-.83s-.03-.6-.08-.82c-.05-.22-.13-.39-.23-.5-.1-.11-.24-.17-.4-.17-.25,0-.43.12-.55.37-.11.25-.17.62-.17,1.11Z"/>
        <path class="cls-1" d="M93.15,99.56h.58l-1.08,1.78,1.17,1.99h-.6l-1.09-1.95v1.95h-.53v-3.76h.53v1.78l1.03-1.78Z"/>
        <path class="cls-1" d="M94.26,102.96c0-.14.03-.25.09-.32.06-.07.15-.11.27-.11s.2.03.26.1c.06.07.1.18.1.33s-.03.25-.1.32c-.07.07-.15.1-.26.1-.11,0-.2-.04-.26-.11-.06-.07-.09-.18-.09-.32Z"/>
      </g>
    </g>
  </g>
</svg>