<svg width="504" height="296" viewBox="0 0 504 296" fill="none" xmlns="http://www.w3.org/2000/svg">
<g clip-path="url(#clip0_918_15412)">
<path d="M0 30C0 13.4315 13.4315 0 30 0H474C490.569 0 504 13.4315 504 30V266C504 282.569 490.569 296 474 296H30C13.4315 296 0 282.569 0 266V30Z" fill="#F5F2EC"/>
<path opacity="0.1" d="M-4.07471 279.459H507.639" stroke="#3B3B3B" stroke-width="1.78194"/>
<path opacity="0.1" d="M-4.07471 226.002L507.639 226.002" stroke="#3B3B3B" stroke-width="1.78194"/>
<path opacity="0.1" d="M-4.07471 172.541L507.639 172.541" stroke="#3B3B3B" stroke-width="1.78194"/>
<path opacity="0.1" d="M-4.07471 119.082L507.639 119.082" stroke="#3B3B3B" stroke-width="1.78194"/>
<path opacity="0.1" d="M-4.07471 65.627L507.639 65.627" stroke="#3B3B3B" stroke-width="1.78194"/>
<path opacity="0.1" d="M-4.07483 12.1699L507.639 12.1699" stroke="#3B3B3B" stroke-width="1.78194"/>
<path opacity="0.1" d="M37.9492 -27.0332V314.357" stroke="#3B3B3B" stroke-width="1.78194"/>
<path opacity="0.1" d="M89.1803 -27.0332V314.357" stroke="#3B3B3B" stroke-width="1.78194"/>
<path opacity="0.1" d="M140.56 -27.0332V314.357" stroke="#3B3B3B" stroke-width="1.78194"/>
<path opacity="0.1" d="M243.32 -22.2812V319.109" stroke="#3B3B3B" stroke-width="1.78194"/>
<path opacity="0.1" d="M294.395 -22.2812V319.109" stroke="#3B3B3B" stroke-width="1.78194"/>
<path opacity="0.1" d="M345.471 -22.2812V319.109" stroke="#3B3B3B" stroke-width="1.78194"/>
<path opacity="0.1" d="M396.546 -22.2812V319.109" stroke="#3B3B3B" stroke-width="1.78194"/>
<path opacity="0.1" d="M447.621 -22.2812V319.109" stroke="#3B3B3B" stroke-width="1.78194"/>
<path opacity="0.1" d="M498.692 -22.2812V319.109" stroke="#3B3B3B" stroke-width="1.78194"/>
<path opacity="0.1" d="M191.94 -29.7051V311.685" stroke="#3B3B3B" stroke-width="1.78194"/>
<path d="M304.69 173.244L247.079 221.493H407.67V185.486L368.062 150.199L337.096 187.647L304.69 173.244Z" fill="#FF711F"/>
<path d="M100.012 69.1753L96.5245 72.0675L91.9877 93.5039H86.8838L91.534 71.4437L89.776 69.1753H84.9557L80.9009 72.5495L76.4775 93.5039H71.3736L77.4699 64.7519H81.2411L81.8366 67.1337H82.0634L84.9557 64.7519H92.0444L94.965 68.4664L99.4167 64.7519H108.547L112.488 69.7991L107.498 93.5039H102.394L107.044 71.4437L105.286 69.1753H100.012ZM138.83 89.2507L133.726 93.5039H120.314L116.373 88.4567L120.314 69.7991L126.467 64.7519H138.32L142.261 69.7991L139.823 81.368H122.98L121.817 86.8121L123.575 89.0805H131.77L135.995 85.5929L138.83 89.2507ZM128.452 69.1753L124.965 72.0108L123.915 76.9446H135.654L136.817 71.4437L135.059 69.1753H128.452ZM166.93 64.7519H172.176L162.705 78.5324L167.696 93.5039H162.478L158.338 80.7158H152.724L150.03 93.5039H144.927L151.023 64.7519H156.127L153.632 76.3208H159.047L166.93 64.7519ZM195.257 89.2507L190.153 93.5039H177.024L173.083 88.4567L177.024 69.7991L183.177 64.7519H195.654L198.858 68.835L194.803 72.2376L192.421 69.1753H185.162L181.675 72.0108L178.527 86.8121L180.285 89.0805H188.168L192.421 85.5929L195.257 89.2507ZM228.517 69.1753L225.03 72.0675L220.493 93.5039H215.389L220.039 71.4437L218.281 69.1753H213.461L209.406 72.5495L204.983 93.5039H199.879L205.975 64.7519H209.746L210.342 67.1337H210.568L213.461 64.7519H220.549L223.47 68.4664L227.922 64.7519H237.052L240.993 69.7991L236.003 93.5039H230.899L235.549 71.4437L233.791 69.1753H228.517Z" fill="#3B3B3B"/>
<rect width="27.1473" height="28.1611" transform="translate(45.8716 33.6699)" fill="#3B3B3B"/>
<path d="M58.1072 42.8278H55.8729V40.4628H60.8754V53.5412H63.1969V55.9062H55.7857V53.5412H58.1072V42.8278Z" fill="#FFFAF1"/>
<rect width="27.1473" height="28.1611" transform="translate(77.9376 121.852)" fill="#3B3B3B"/>
<path d="M93.8597 128.535L96.2901 130.966V135.118L89.5983 141.657V141.723H96.5843V144.088H85.9581V141.723L93.5218 134.246V132.077L92.3447 130.9H89.5983L87.9416 132.481L86.0235 130.584L88.1051 128.535H93.8597Z" fill="#FFFAF1"/>
<rect x="245.167" y="107.956" width="162.263" height="104.651" stroke="#3B3B3B" stroke-width="4.81"/>
<path d="M303.971 163.882L246.359 212.132H406.951V176.125L367.343 140.838L336.377 178.285L303.971 163.882Z" stroke="#3B3B3B" stroke-width="4.81" stroke-linejoin="bevel"/>
<path d="M313.331 167.482C313.331 156.346 322.053 147.318 332.811 147.318C340.897 147.318 347.831 152.417 350.779 159.677" stroke="#3B3B3B" stroke-width="4.81"/>
<path d="M110.254 148.762L199.552 148.762" stroke="#3B3B3B" stroke-width="4.81"/>
<path d="M95.8469 164.604H199.547" stroke="#3B3B3B" stroke-width="4.81"/>
<path d="M95.8469 180.449H199.547" stroke="#3B3B3B" stroke-width="4.81"/>
<path d="M95.8469 196.291H199.547" stroke="#3B3B3B" stroke-width="4.81"/>
<path d="M95.8469 212.133H199.547" stroke="#3B3B3B" stroke-width="4.81"/>
<path d="M95.8469 227.973H199.547" stroke="#3B3B3B" stroke-width="4.81"/>
<path d="M95.8469 243.822H136.175" stroke="#3B3B3B" stroke-width="4.81"/>
<rect width="27.1473" height="28.1611" transform="translate(382.575 105.818)" fill="#3B3B3B"/>
<path d="M398.618 119.041L401.06 121.472V125.733L398.618 128.164H392.166L390.096 126.115L392.014 124.218L393.67 125.799H397.082L398.291 124.6V122.409L397.103 121.221H392.461V119.041L397.147 115.063V114.976H390.946V112.611H400.613V114.976L395.916 118.943V119.041H398.618Z" fill="#FFFAF1"/>
</g>
<defs>
<clipPath id="clip0_918_15412">
<path d="M0 30C0 13.4315 13.4315 0 30 0H474C490.569 0 504 13.4315 504 30V266C504 282.569 490.569 296 474 296H30C13.4315 296 0 282.569 0 266V30Z" fill="white"/>
</clipPath>
</defs>
</svg>
