<svg width="623" height="246" viewBox="0 0 623 246" fill="none" xmlns="http://www.w3.org/2000/svg">
<path d="M25.4842 18.5674H53.9558V59.583H59.0144V75.8867H50.3328V67H23.8435V75.8867H15.1619V59.583H18.409L21.075 56.9854L25.4842 18.5674ZM45.2742 25.9844H33.0379L29.3806 56.7803L26.1678 59.583H45.2742V25.9844ZM87.3494 31.7949L93.2967 37.7422V67H87.4861L85.6746 62.1807H85.367L79.864 67.3418H70.533L64.5857 61.3945V51.8242L70.533 45.877H85.367V40.5449L82.6668 37.8105H74.6004L70.7381 41.4336L65.4402 36.6826L70.3279 31.7949H87.3494ZM75.2156 51.8926L72.5154 54.627V58.5234L75.3181 61.3262H79.0779L85.367 55.8574V51.8926H75.2156ZM125.323 31.7949L131.27 37.7422V61.3945L125.323 67.3418H115.787L110.284 62.1807V80.501H102.354V32.1367H108.165L109.976 36.9561H110.284L115.787 31.7949H125.323ZM120.64 60.9844L123.375 58.25V40.8867L120.64 38.1523H116.573L110.284 43.3477V55.7891L116.573 60.9844H120.64ZM169.346 67H161.451V44.0996H161.178L148.497 67H140.02V32.1367H147.95V55.0371H148.223L160.87 32.1367H169.346V67ZM200.484 67H192.999L185.719 43.0059H185.445V67H178.438V32.1367H190.47L197.066 56.0967H197.34L203.629 32.1367H215.626V67H207.696V43.0059H207.423L200.484 67ZM259.239 67H250.968V59.3096H259.239V67ZM409.151 62.1123L403.887 67.3418H386.319L380.372 61.3945V37.7422L386.319 31.7949H403.341L408.365 36.8193L402.691 41.9463L398.795 38.1523H391.002L388.267 40.8867V58.25L391.002 60.9844H399.342L403.546 56.8486L409.151 62.1123ZM437.93 31.7949L443.878 37.7422V61.3945L437.93 67.3418H420.362L414.415 61.3945V37.7422L420.362 31.7949H437.93ZM425.045 38.1523L422.31 40.8867V58.25L425.045 60.9844H433.248L435.982 58.25V40.8867L433.248 38.1523H425.045ZM489.747 67H466.983V32.1367H489.029L494.84 37.9473V44.168L490.43 48.5771L495.557 53.7041V61.1895L489.747 67ZM487.628 54.627L484.893 51.8926H474.913V60.9844H485.064L487.628 58.3867V54.627ZM486.944 40.75L484.346 38.1523H474.913V46.2871H484.278L486.944 43.6211V40.75ZM532.403 62.1123L527.139 67.3418H509.571L503.624 61.3945V37.7422L509.571 31.7949H526.593L531.617 36.8193L525.943 41.9463L522.047 38.1523H514.254L511.519 40.8867V58.25L514.254 60.9844H522.594L526.798 56.8486L532.403 62.1123ZM566.583 62.1123L561.319 67.3418H543.614L537.667 61.3945V37.7422L543.614 31.7949H559.781L565.728 37.7422V52.5762H545.562V58.5234L548.365 61.3262H557.32L561.456 57.3955L566.583 62.1123ZM548.365 37.8105L545.562 40.6133V46.834H557.901V40.6133L555.098 37.8105H548.365ZM586.612 23.3867H592.012L593.209 22.1904V20.1738H598.028V24.583L595.02 27.5908H583.604L580.596 24.583V20.1738H585.45V22.1904L586.612 23.3867ZM603.975 67H596.08V44.0996H595.806L583.126 67H574.649V32.1367H582.579V55.0371H582.852L595.499 32.1367H603.975V67ZM15.1277 115.494H4.77127V109.137H33.3455V115.494H23.0574V144H15.1277V115.494ZM66.8074 139.112L61.5437 144.342H43.8387L37.8914 138.395V114.742L43.8387 108.795H60.0056L65.9529 114.742V129.576H45.7869V135.523L48.5896 138.326H57.5447L61.6805 134.396L66.8074 139.112ZM48.5896 114.811L45.7869 117.613V123.834H58.1258V117.613L55.323 114.811H48.5896ZM98.0476 108.795L103.995 114.742V138.395L98.0476 144.342H80.4793L74.532 138.395V114.742L80.4793 108.795H98.0476ZM85.1619 115.152L82.4275 117.887V135.25L85.1619 137.984H93.365L96.0994 135.25V117.887L93.365 115.152H85.1619ZM135.714 108.795L141.661 114.742V138.395L135.714 144.342H126.178L120.675 139.181V157.501H112.745V109.137H118.555L120.367 113.956H120.675L126.178 108.795H135.714ZM131.031 137.984L133.765 135.25V117.887L131.031 115.152H126.964L120.675 120.348V132.789L126.964 137.984H131.031ZM179.737 144H171.842V121.1H171.568L158.887 144H150.411V109.137H158.341V132.037H158.614L171.261 109.137H179.737V144ZM217.403 139.112L212.139 144.342H194.434L188.487 138.395V114.742L194.434 108.795H210.601L216.549 114.742V129.576H196.383V135.523L199.185 138.326H208.14L212.276 134.396L217.403 139.112ZM199.185 114.811L196.383 117.613V123.834H208.721V117.613L205.919 114.811H199.185ZM237.432 100.387H242.833L244.029 99.1904V97.1738H248.848V101.583L245.841 104.591H234.425L231.417 101.583V97.1738H236.27V99.1904L237.432 100.387ZM254.796 144H246.9V121.1H246.627L233.946 144H225.47V109.137H233.399V132.037H233.673L246.319 109.137H254.796V144ZM306.373 144H298.477V115.494H286.173V144H278.243V109.137H306.373V144ZM338.673 108.795L344.62 114.742V138.395L338.673 144.342H321.104L315.157 138.395V114.742L321.104 108.795H338.673ZM325.787 115.152L323.053 117.887V135.25L325.787 137.984H333.99L336.724 135.25V117.887L333.99 115.152H325.787ZM398.453 151.28H390.557V144H371.793V151.28H363.863V137.643H366.392L368.136 135.66L371.519 109.137H394.967V137.643H398.453V151.28ZM378.15 115.494L375.928 135.045L373.604 137.643H387.037V115.494H378.15ZM434.444 144H426.549V121.1H426.275L413.595 144H405.118V109.137H413.048V132.037H413.321L425.968 109.137H434.444V144ZM439.332 139.112L444.39 134.396L448.424 138.326H457.174L459.908 135.592V131.969L457.174 129.234H449.278V123.355H456.558L459.224 120.689V117.545L456.49 114.811H449.278L445.484 118.365L440.391 113.751L445.347 108.795H461.173L467.12 114.742V121.612L462.916 125.816L467.838 130.704V138.395L461.89 144.342H444.595L439.332 139.112ZM497.574 108.795L503.521 114.742V144H497.711L495.899 139.181H495.592L490.089 144.342H480.758L474.81 138.395V128.824L480.758 122.877H495.592V117.545L492.891 114.811H484.825L480.963 118.434L475.665 113.683L480.553 108.795H497.574ZM485.44 128.893L482.74 131.627V135.523L485.543 138.326H489.303L495.592 132.857V128.893H485.44ZM524.542 100.387H529.942L531.138 99.1904V97.1738H535.958V101.583L532.95 104.591H521.534L518.526 101.583V97.1738H523.38V99.1904L524.542 100.387ZM541.905 144H534.01V121.1H533.736L521.055 144H512.579V109.137H520.509V132.037H520.782L533.428 109.137H541.905V144ZM579.366 144H571.436V128.824H558.927V144H550.997V109.137H558.927V122.433H571.436V109.137H579.366V144ZM600.421 144H594.473L585.313 109.137H593.277L600.421 137.643H602.266L610.025 109.137H617.169L603.668 157.501H596.524L600.421 144ZM247.447 186.137H255.206L247.242 202.577L257.086 221H248.336L240.509 205.961H235.484V221H227.554V186.137H235.484V199.877H241.055L247.447 186.137ZM290.377 221H282.447V205.824H269.937V221H262.008V186.137H269.937V199.433H282.447V186.137H290.377V221ZM328.795 221H320.899V198.1H320.626L307.945 221H299.469V186.137H307.398V209.037H307.672L320.318 186.137H328.795V221ZM337.887 221V186.137H361.197V192.494H345.816V221H337.887ZM395.445 221H387.55V198.1H387.276L374.595 221H366.119V186.137H374.049V209.037H374.322L386.969 186.137H395.445V221Z" fill="#FFFAF1"/>
<rect x="230.469" y="18.5381" width="130.14" height="66.0567" transform="rotate(-5 230.469 18.5381)" fill="#3B3B3B"/>
<path d="M261.943 52.4082L263.036 64.8948L256.96 65.4263L253.995 31.5307L272.031 29.9527L277.832 34.8204L278.899 47.0199L274.031 52.8209L264.033 53.6957L261.943 52.4082ZM271.944 37.5048L269.111 35.1495L260.499 35.9029L261.642 48.9636L270.254 48.2102L272.635 45.3986L271.944 37.5048ZM310.125 31.9951L312.157 55.2221L307.289 61.0231L287.435 62.7601L284.469 28.8645L304.324 27.1275L310.125 31.9951ZM301.429 32.6112L290.999 33.5237L293.057 57.0378L303.486 56.1253L305.865 53.2898L304.262 34.9666L301.429 32.6112ZM338.675 44.8031L325.352 45.9688L326.521 59.3405L320.446 59.8721L317.48 25.9764L338.506 24.1369L338.961 29.3277L324.01 30.6357L324.897 40.778L338.221 39.6123L338.675 44.8031Z" fill="#FFFAF1"/>
</svg>
