<svg width="1280" height="580" viewBox="0 0 1280 580" fill="none" xmlns="http://www.w3.org/2000/svg">
<g clip-path="url(#clip0_928_15617)">
<rect width="1280" height="580" fill="#1FAE62"/>
<path d="M35.2031 586.8L35.2031 -55.4015" stroke="#FFFAF1" stroke-width="1.63065" stroke-dasharray="5.59 6.99"/>
<path d="M619.109 586.799L619.109 -55.4025" stroke="#FFFAF1" stroke-width="1.63065" stroke-dasharray="5.59 6.99"/>
<path d="M659.891 586.799L659.891 -55.4025" stroke="#FFFAF1" stroke-width="1.63065" stroke-dasharray="5.59 6.99"/>
<path d="M937.49 586.8L937.49 -55.4015" stroke="#FFFAF1" stroke-width="1.63065" stroke-dasharray="5.59 6.99"/>
<path d="M1243 586.8L1243 -55.4015" stroke="#FFFAF1" stroke-width="1.63065" stroke-dasharray="5.59 6.99"/>
<path d="M1324.62 556.038L-49.6105 556.038" stroke="#FFFAF1" stroke-width="1.63065" stroke-dasharray="5.59 6.99"/>
<path d="M1324.62 118.416L-49.6105 118.416" stroke="#FFFAF1" stroke-width="1.63065" stroke-dasharray="5.59 6.99"/>
<rect x="833.383" y="204.214" width="217.764" height="77.0005" transform="rotate(-3 833.383 204.214)" fill="#FFFAF1"/>
<path d="M882.492 257.541H876.998L868.114 231.628L866.993 226.571H866.693V257.541H861.663V218.917H869.508L878.693 246.334L879.813 250.817H880.032L881.153 246.334L889.982 218.917H897.772V257.541H892.524V226.571H892.223L891.048 231.628L882.492 257.541ZM934.235 257.541H928.686L925.734 248.083H912.804L909.934 257.541H904.795L916.549 218.917H922.098L934.235 257.541ZM919.009 225.641L918.299 229.824L914.253 243.272H924.23L920.021 229.824L919.283 225.641H919.009ZM960.747 218.917H966.46L958.287 237.614L968.073 257.541H962.141L953.64 240.183H946.533V257.541H941.258V218.917H946.533V235.373H953.804L960.747 218.917ZM997.62 240.238H981.465V252.73H999.424V257.541H976.189V218.917H999.424V223.728H981.465V235.427H997.62V240.238ZM1033.1 218.917V223.728H1021.97V257.541H1016.7V223.728H1005.54V218.917H1033.1Z" fill="#3B3B3B"/>
<path d="M821.606 188.79H819.11V186.647H823.956V201.709H826.647V203.852H818.891V201.709H821.606V188.79Z" fill="#FFFAF1"/>
<rect x="803.728" y="301.846" width="283.667" height="77.0005" transform="rotate(2 803.728 301.846)" fill="#3B3B3B"/>
<path d="M857.641 329.376V337.822L854.115 341.349L858.871 346.132V355.699L852.693 361.85H832.493V323.226H851.463L857.641 329.376ZM837.769 344.328V357.039H850.069L853.595 353.513V347.854L850.069 344.328H837.769ZM852.365 331.563L848.839 328.036H837.769V339.517H849.167L852.365 336.319V331.563ZM890.659 344.547H874.504V357.039H892.463V361.85H869.229V323.226H892.463V328.036H874.504V339.736H890.659V344.547ZM908.069 347.061V361.85H902.794V323.226H921.764L927.942 329.376V342.579L921.764 348.756H910.311L908.069 347.061ZM922.666 331.563L919.14 328.036H908.069V343.945H919.14L922.666 340.419V331.563ZM946.773 328.036L943.247 331.563V353.513L946.773 357.039H956.805L961.452 352.556L965.142 356.246L959.429 361.85H944.149L937.999 355.699V329.376L944.149 323.226H958.773L964.131 328.529L960.44 332.246L956.121 328.036H946.773ZM996.001 323.226V328.036H984.875V361.85H979.6V328.036H968.447V323.226H996.001ZM1023.03 323.226H1028.75L1020.57 341.923L1030.36 361.85H1024.43L1015.93 344.492H1008.82V361.85H1003.54V323.226H1008.82V339.681H1016.09L1023.03 323.226ZM1063.16 361.85H1057.61L1054.66 352.392H1041.73L1038.86 361.85H1033.72L1045.47 323.226H1051.02L1063.16 361.85ZM1047.93 329.95L1047.22 334.132L1043.18 347.581H1053.15L1048.94 334.132L1048.21 329.95H1047.93Z" fill="#FFFAF1"/>
<path d="M796.153 282.271L798.905 285.011V289.382L790.869 297.26V297.333H799.173V299.476H787.825V297.333L796.555 288.554V285.985L794.984 284.414H791.575L789.651 286.289L788.007 284.633L790.394 282.271H796.153Z" fill="#FFFAF1"/>
<rect x="775.646" y="413.271" width="335.677" height="77.0005" transform="rotate(-1 775.646 413.271)" fill="#FFFAF1"/>
<path d="M835.415 467.343H830.139V433.53H814.367V467.343H809.091V428.719H835.415V467.343ZM852.415 452.555V467.343H847.139V428.719H866.11L872.287 434.869V448.072L866.11 454.249H854.656L852.415 452.555ZM867.012 437.056L863.485 433.53H852.415V449.438H863.485L867.012 445.912V437.056ZM904.048 450.04H887.893V462.532H905.852V467.343H882.618V428.719H905.852V433.53H887.893V445.229H904.048V450.04ZM942.506 467.343H937.23V433.53H921.458V467.343H916.183V428.719H942.506V467.343ZM959.506 452.555V467.343H954.23V428.719H973.201L979.378 434.869V448.072L973.201 454.249H961.747L959.506 452.555ZM974.103 437.056L970.577 433.53H959.506V449.438H970.577L974.103 445.912V437.056ZM1011.14 450.04H994.984V462.532H1012.94V467.343H989.709V428.719H1012.94V433.53H994.984V445.229H1011.14V450.04ZM1031.77 433.53L1028.25 437.056V459.006L1031.77 462.532H1041.81L1046.45 458.049L1050.14 461.739L1044.43 467.343H1029.15L1023 461.192V434.869L1029.15 428.719H1043.77L1049.13 434.022L1045.44 437.739L1041.12 433.53H1031.77ZM1066.16 433.53L1062.63 437.056V459.006L1066.16 462.532H1076.19L1080.84 458.049L1084.53 461.739L1078.82 467.343H1063.54L1057.39 461.192V434.869L1063.54 428.719H1078.16L1083.52 434.022L1079.83 437.739L1075.51 433.53H1066.16Z" fill="#FF711F"/>
<path d="M768.397 397.925L771.137 400.664V405.23L768.397 407.97H761.883L759.497 405.595L761.141 403.952L763.064 405.827H767.228L768.799 404.256V401.638L767.228 400.068H761.883V397.925L767.496 392.981V392.908H760.386V390.765H770.662V392.908L765.025 397.852V397.925H768.397Z" fill="#FFFAF1"/>
<path d="M589.01 373.978L681.376 753.592L87.4917 898.095L-4.87497 518.48L589.01 373.978Z" fill="#FFFAF1"/>
<path d="M559.245 358.386L651.612 738.001L30.4222 889.146L-61.9445 509.532L559.245 358.386Z" fill="#3B3B3B"/>
<path d="M293.11 423.664C292.067 419.163 289.713 415.073 286.346 411.911C282.978 408.748 278.748 406.655 274.191 405.897C269.634 405.138 264.955 405.748 260.744 407.649C256.534 409.55 252.982 412.656 250.537 416.576C248.092 420.496 246.865 425.053 247.009 429.67C247.154 434.288 248.665 438.758 251.351 442.517C254.037 446.276 257.777 449.154 262.099 450.787C266.42 452.42 271.129 452.735 275.629 451.692" stroke="#FFFAF1" stroke-width="1.85307"/>
<path d="M183.722 449.84C182.679 445.339 180.325 441.249 176.957 438.087C173.589 434.924 169.36 432.831 164.803 432.072C160.246 431.314 155.566 431.923 151.356 433.824C147.145 435.725 143.593 438.832 141.148 442.752C138.703 446.672 137.476 451.228 137.621 455.846C137.766 460.463 139.277 464.934 141.963 468.693C144.648 472.452 148.388 475.329 152.71 476.963C157.031 478.596 161.74 478.911 166.24 477.868" stroke="#FFFAF1" stroke-width="1.85307"/>
<path d="M77.2963 475.211C76.2533 470.71 73.8992 466.62 70.5317 463.458C67.1642 460.295 62.9345 458.202 58.3775 457.444C53.8205 456.685 49.1409 457.295 44.9304 459.196C40.7199 461.096 37.1677 464.203 34.7229 468.123C32.2781 472.043 31.0506 476.6 31.1955 481.217C31.3405 485.834 32.8514 490.305 35.5372 494.064C38.2231 497.823 41.9632 500.701 46.2846 502.334C50.606 503.967 55.3147 504.282 59.8151 503.239" stroke="#FFFAF1" stroke-width="1.85307"/>
<path d="M394.026 399.234C392.983 394.734 390.629 390.644 387.262 387.481C383.894 384.319 379.664 382.226 375.107 381.467C370.55 380.708 365.871 381.318 361.66 383.219C357.45 385.12 353.898 388.227 351.453 392.146C349.008 396.066 347.781 400.623 347.926 405.24C348.07 409.858 349.581 414.329 352.267 418.087C354.953 421.846 358.693 424.724 363.015 426.357C367.336 427.99 372.045 428.305 376.545 427.262" stroke="#FFFAF1" stroke-width="1.85307"/>
<path d="M494.944 374.803C493.901 370.303 491.547 366.213 488.18 363.05C484.812 359.888 480.582 357.795 476.025 357.036C471.468 356.278 466.789 356.887 462.578 358.788C458.368 360.689 454.816 363.796 452.371 367.716C449.926 371.636 448.699 376.192 448.843 380.81C448.988 385.427 450.499 389.898 453.185 393.657C455.871 397.415 459.611 400.293 463.933 401.926C468.254 403.559 472.963 403.874 477.463 402.831" stroke="#FFFAF1" stroke-width="1.85307"/>
<path d="M35.2031 227.235H619.11" stroke="#FFFAF1" stroke-width="1.8636"/>
<path d="M35.2031 300.381H619.11" stroke="#FFFAF1" stroke-width="1.8636"/>
<path d="M231.238 196.571H220.075L215.05 173.502H220.075L223.887 192.215H232.105L235.446 173.502H240.249L234.877 202.908L229.308 208.478H220.322V204.121H227.278L230.471 200.928L231.238 196.571ZM263.292 196.918H252.92L247.326 191.348V173.502H252.103V189.368L255.296 192.561H265.321V173.502H270.099V208.478H265.321V195.408L263.292 196.918ZM300.122 192.809H285.493V204.121H301.756V208.478H280.716V173.502H301.756V177.858H285.493V188.452H300.122V192.809ZM317.917 186.67H329.056L334.626 192.264V202.908L329.056 208.478H311.11V173.502H332.249V177.858H315.888V188.205L317.917 186.67ZM315.888 191.027V204.121H326.68L329.873 200.928V194.245L326.68 191.027H315.888ZM368.164 208.478H363.387V192.462H348.807V208.478H344.03V173.502H348.807V188.106H363.387V173.502H368.164V208.478ZM397.024 173.502H402.717V208.478H397.94V180.606H397.742L396.331 184.64L384.301 208.478H378.83V173.502H383.608V201.373H383.806L385.217 197.314L397.024 173.502ZM430.983 173.502H436.156L428.755 190.433L437.617 208.478H432.245L424.547 192.759H418.111V208.478H413.334V173.502H418.111V188.403H424.696L430.983 173.502ZM129.908 279.478H125.13V248.858H110.848V279.478H106.071V244.502H129.908V279.478ZM165.278 250.071V273.908L159.684 279.478H145.847L140.277 273.908V250.071L145.847 244.502H159.684L165.278 250.071ZM148.223 248.858L145.03 252.051V271.928L148.223 275.121H157.307L160.5 271.928V252.051L157.307 248.858H148.223ZM191.289 244.502H210.522V275.121H214.309V286.062H209.557V279.478H188.319V286.062H183.541V275.121H185.868L187.898 273.091L191.289 244.502ZM205.745 248.858H195.547L192.626 272.893L190.274 275.121H205.745V248.858ZM240.1 244.502H245.793V279.478H241.016V251.606H240.818L239.407 255.64L227.377 279.478H221.907V244.502H226.684V272.373H226.882L228.293 268.314L240.1 244.502ZM253.118 274.403L256.46 271.062L260.668 275.121H270.297L273.49 271.928V266.804L270.297 263.611H262.079V259.551H269.48L272.376 256.655V252.051L269.183 248.858H261.237L257.326 252.67L253.984 249.304L258.836 244.502H271.559L277.153 250.071V257.72L273.96 260.913L278.267 265.245V273.908L272.673 279.478H258.291L253.118 274.403ZM309.998 279.478H304.974L302.3 270.913H290.592L287.993 279.478H283.339L293.983 244.502H299.008L309.998 279.478ZM296.211 250.591L295.567 254.378L291.904 266.556H300.939L297.127 254.378L296.459 250.591H296.211ZM325.888 238.313H331.358L332.324 237.348V235.368H335.665V239.081L333.586 241.16H323.66L321.581 239.081V235.368H324.923V237.348L325.888 238.313ZM334.551 244.502H340.245V279.478H335.467V251.606H335.269L333.858 255.64L321.828 279.478H316.358V244.502H321.135V272.373H321.333L322.744 268.314L334.551 244.502ZM374.996 279.478H370.218V263.462H355.639V279.478H350.862V244.502H355.639V259.106H370.218V244.502H374.996V279.478ZM399.054 267.571H387.89L382.865 244.502H387.89L391.702 263.215H399.92L403.262 244.502H408.064L402.692 273.908L397.123 279.478H388.138V275.121H395.093L398.286 271.928L399.054 267.571ZM445.734 244.502H450.907L443.506 261.433L452.368 279.478H446.996L439.298 263.759H432.862V279.478H428.085V244.502H432.862V259.403H439.447L445.734 244.502ZM483.851 279.478H479.074V263.462H464.495V279.478H459.717V244.502H464.495V259.106H479.074V244.502H483.851V279.478ZM512.711 244.502H518.405V279.478H513.627V251.606H513.429L512.018 255.64L499.988 279.478H494.518V244.502H499.295V272.373H499.493L500.904 268.314L512.711 244.502ZM529.022 244.502H549.913V248.858H533.799V279.478H529.022V244.502Z" fill="#FFFAF1"/>
</g>
<defs>
<clipPath id="clip0_928_15617">
<rect width="1280" height="580" fill="white"/>
</clipPath>
</defs>
</svg>
