<svg width="375" height="471" viewBox="0 0 375 471" fill="none" xmlns="http://www.w3.org/2000/svg">
<g clip-path="url(#clip0_1232_3215)">
<rect width="375" height="471" fill="#FF711F"/>
<path d="M13.6895 -270C-52.6484 -141.176 -1.99314 17.0348 126.831 83.3728C255.656 149.711 413.866 99.0554 480.204 -29.769" stroke="white" stroke-width="1.5" stroke-dasharray="6 8"/>
<rect x="79.001" y="261.155" width="225.066" height="61.0934" transform="rotate(-9.14205 79.001 261.155)" fill="#FFFAF1"/>
<path d="M126.292 286.525L133.926 270.715L127.615 255.88H132.104L137.526 268.937H141.929V255.88H146.093V268.937H150.496L155.918 255.88H160.407L154.096 270.715L161.73 286.525H156.98L150.409 272.754H146.093V286.525H141.929V272.754H137.613L131.042 286.525H126.292ZM171.184 255.88H188.035V282.708H191.354V292.294H187.19V286.525H168.582V292.294H164.396V282.708H166.434L168.213 280.93L171.184 255.88ZM183.85 259.698H174.914L172.355 280.756L170.295 282.708H183.85V259.698ZM215.013 272.797H202.196V282.708H216.445V286.525H198.01V255.88H216.445V259.698H202.196V268.98H215.013V272.797ZM243.163 255.88V259.698H234.336V286.525H230.15V259.698H221.301V255.88H243.163Z" fill="#3B3B3B"/>
<rect x="67.1323" y="175" width="225.066" height="61.0934" transform="rotate(2 67.1323 175)" fill="#3B3B3B"/>
<path d="M96.7113 215.408H87.6241L82.7226 210.529V194.892H86.9084V208.794L89.7061 211.591H98.4897V194.892H102.675V225.537H98.4897V214.085L96.7113 215.408ZM130.499 194.892V198.709H121.672V225.537H117.486V198.709H108.638V194.892H130.499ZM157.26 199.771V220.657L152.359 225.537H140.235L135.356 220.657V199.771L140.235 194.892H152.359L157.26 199.771ZM142.317 198.709L139.52 201.506V218.922L142.317 221.72H150.277L153.074 218.922V201.506L150.277 198.709H142.317ZM193.779 194.892V198.709H184.952V225.537H180.766V198.709H171.918V194.892H193.779ZM216.766 211.808H203.949V221.72H218.198V225.537H199.763V194.892H218.198V198.709H203.949V207.991H216.766V211.808ZM232.358 206.43H242.118L246.998 211.331V220.657L242.118 225.537H226.394V194.892H244.916V198.709H230.58V207.774L232.358 206.43ZM230.58 210.247V221.72H240.036L242.834 218.922V213.066L240.036 210.247H230.58ZM269.985 214.216H264.216L258.122 225.537H253.459L259.727 214.042L254.652 209.184V199.771L259.553 194.892H274.171V225.537H269.985V214.216ZM269.985 210.399V198.709H261.635L258.837 201.506V207.601L261.635 210.399H269.985Z" fill="#FFFAF1"/>
<path d="M35.0124 843.038C169.088 788.082 233.228 634.842 178.272 500.766C123.316 366.69 -29.9242 302.551 -164 357.506" stroke="white" stroke-width="1.5" stroke-dasharray="6 8"/>
</g>
<defs>
<clipPath id="clip0_1232_3215">
<rect width="375" height="471" fill="white"/>
</clipPath>
</defs>
</svg>
