<svg width="504" height="296" viewBox="0 0 504 296" fill="none" xmlns="http://www.w3.org/2000/svg">
<g clip-path="url(#clip0_1477_9346)">
<path d="M0 30C0 13.4315 13.4315 0 30 0H474C490.569 0 504 13.4315 504 30V266C504 282.569 490.569 296 474 296H30C13.4315 296 0 282.569 0 266V30Z" fill="#FF711F"/>
<path opacity="0.1" d="M-4.0752 279.459H507.639" stroke="#3B3B3B" stroke-width="1.78194"/>
<path opacity="0.1" d="M-4.0752 226.002L507.639 226.002" stroke="#3B3B3B" stroke-width="1.78194"/>
<path opacity="0.1" d="M-4.0752 172.541L507.639 172.541" stroke="#3B3B3B" stroke-width="1.78194"/>
<path opacity="0.1" d="M-4.0752 119.082L507.639 119.082" stroke="#3B3B3B" stroke-width="1.78194"/>
<path opacity="0.1" d="M-4.0752 65.627L507.639 65.627" stroke="#3B3B3B" stroke-width="1.78194"/>
<path opacity="0.1" d="M-4.0752 12.1699L507.639 12.1699" stroke="#3B3B3B" stroke-width="1.78194"/>
<path opacity="0.1" d="M37.9492 -27.0332V314.357" stroke="#3B3B3B" stroke-width="1.78194"/>
<path opacity="0.1" d="M89.1797 -27.0332V314.357" stroke="#3B3B3B" stroke-width="1.78194"/>
<path opacity="0.1" d="M140.56 -27.0332V314.357" stroke="#3B3B3B" stroke-width="1.78194"/>
<path opacity="0.1" d="M243.319 -22.2812V319.109" stroke="#3B3B3B" stroke-width="1.78194"/>
<path opacity="0.1" d="M294.395 -22.2812V319.109" stroke="#3B3B3B" stroke-width="1.78194"/>
<path opacity="0.1" d="M345.47 -22.2812V319.109" stroke="#3B3B3B" stroke-width="1.78194"/>
<path opacity="0.1" d="M396.546 -22.2812V319.109" stroke="#3B3B3B" stroke-width="1.78194"/>
<path opacity="0.1" d="M447.621 -22.2812V319.109" stroke="#3B3B3B" stroke-width="1.78194"/>
<path opacity="0.1" d="M498.691 -22.2812V319.109" stroke="#3B3B3B" stroke-width="1.78194"/>
<path opacity="0.1" d="M191.94 -29.7051V311.685" stroke="#3B3B3B" stroke-width="1.78194"/>
<rect x="303.61" y="88.6758" width="195.621" height="247.498" transform="rotate(21.2912 303.61 88.6758)" fill="#FFFAF1"/>
<g filter="url(#filter0_d_1477_9346)">
<rect x="176.281" y="12.1699" width="195.621" height="247.498" transform="rotate(8.2986 176.281 12.1699)" fill="#FFFAF1"/>
</g>
<g clip-path="url(#clip1_1477_9346)">
<path d="M192.366 33.9688L396.055 63.6837" stroke="#E2DCD1" stroke-width="3"/>
<path d="M190.778 44.8535L394.467 74.5685" stroke="#E2DCD1" stroke-width="3"/>
<path d="M189.189 55.7383L392.878 85.4532" stroke="#E2DCD1" stroke-width="3"/>
<path d="M187.602 66.623L391.29 96.338" stroke="#E2DCD1" stroke-width="3"/>
<path d="M186.014 77.5078L389.702 107.223" stroke="#E2DCD1" stroke-width="3"/>
<path d="M184.426 88.3926L388.114 118.108" stroke="#E2DCD1" stroke-width="3"/>
<path d="M182.838 99.2773L386.527 128.992" stroke="#E2DCD1" stroke-width="3"/>
<path d="M181.25 110.162L384.939 139.877" stroke="#E2DCD1" stroke-width="3"/>
<path d="M179.662 121.047L383.351 150.762" stroke="#E2DCD1" stroke-width="3"/>
<path d="M178.074 131.932L381.763 161.647" stroke="#E2DCD1" stroke-width="3"/>
<path d="M176.486 142.816L380.175 172.531" stroke="#E2DCD1" stroke-width="3"/>
<path d="M174.898 153.701L378.587 183.416" stroke="#E2DCD1" stroke-width="3"/>
<path d="M173.311 164.586L376.999 194.301" stroke="#E2DCD1" stroke-width="3"/>
<path d="M171.723 175.471L375.411 205.186" stroke="#E2DCD1" stroke-width="3"/>
<path d="M170.135 186.355L373.823 216.07" stroke="#E2DCD1" stroke-width="3"/>
<path d="M168.547 197.24L372.236 226.955" stroke="#E2DCD1" stroke-width="3"/>
<path d="M166.959 208.125L370.648 237.84" stroke="#E2DCD1" stroke-width="3"/>
<path d="M165.371 219.01L369.06 248.725" stroke="#E2DCD1" stroke-width="3"/>
</g>
<g filter="url(#filter1_d_1477_9346)">
<rect x="58.1484" y="-13.6621" width="195.621" height="247.498" transform="rotate(-4.02031 58.1484 -13.6621)" fill="#3B3B3B"/>
</g>
<circle cx="126.726" cy="120.053" r="41.9398" fill="#FF711F"/>
<circle cx="126.726" cy="120.053" r="40.2452" fill="#FF711F" stroke="#3B3B3B" stroke-width="3.38923"/>
<path d="M108.197 102.645L146.373 140.82" stroke="#FFFAF1" stroke-width="3.15447"/>
<path d="M146.374 102.645L108.199 140.82" stroke="#FFFAF1" stroke-width="3.15447"/>
<path d="M106.781 100.256L144.957 138.431" stroke="#3B3B3B" stroke-width="3.38923"/>
<path d="M144.96 100.256L106.784 138.431" stroke="#3B3B3B" stroke-width="3.38923"/>
<circle cx="413.681" cy="167.305" r="41.9398" fill="#1FAE62"/>
<circle cx="413.681" cy="167.305" r="40.2452" fill="#1FAE62" stroke="#3B3B3B" stroke-width="3.38923"/>
<path d="M392.077 163.451L409.37 180.44L437.832 152.479" stroke="#FFFAF1" stroke-width="3.38923"/>
<path d="M390.771 159.908L408.064 176.897L436.525 148.936" stroke="#3B3B3B" stroke-width="3.38923"/>
<path d="M169.194 132.766L363.439 162.496" stroke="#FFFAF1" stroke-width="4" stroke-dasharray="8 8"/>
<path d="M363.439 162.496L345.417 148.056L341.923 170.884L363.439 162.496ZM266.316 147.631L266.014 149.608L270.061 150.227L270.363 148.25L270.666 146.273L266.619 145.654L266.316 147.631ZM278.457 149.489L278.154 151.466L286.248 152.705L286.55 150.728L286.853 148.751L278.759 147.512L278.457 149.489ZM294.644 151.967L294.341 153.944L302.435 155.182L302.738 153.205L303.04 151.228L294.947 149.99L294.644 151.967ZM310.831 154.444L310.529 156.421L318.622 157.66L318.925 155.683L319.227 153.706L311.134 152.467L310.831 154.444ZM327.018 156.922L326.716 158.899L334.809 160.137L335.112 158.16L335.414 156.183L327.321 154.945L327.018 156.922ZM343.205 159.399L342.903 161.376L350.996 162.615L351.299 160.638L351.602 158.661L343.508 157.422L343.205 159.399Z" fill="#3B3B3B"/>
</g>
<defs>
<filter id="filter0_d_1477_9346" x="126.56" y="2.16992" width="257.295" height="301.141" filterUnits="userSpaceOnUse" color-interpolation-filters="sRGB">
<feFlood flood-opacity="0" result="BackgroundImageFix"/>
<feColorMatrix in="SourceAlpha" type="matrix" values="0 0 0 0 0 0 0 0 0 0 0 0 0 0 0 0 0 0 127 0" result="hardAlpha"/>
<feOffset dy="4"/>
<feGaussianBlur stdDeviation="7"/>
<feComposite in2="hardAlpha" operator="out"/>
<feColorMatrix type="matrix" values="0 0 0 0 0 0 0 0 0 0 0 0 0 0 0 0 0 0 0.25 0"/>
<feBlend mode="normal" in2="BackgroundImageFix" result="effect1_dropShadow_1477_9346"/>
<feBlend mode="normal" in="SourceGraphic" in2="effect1_dropShadow_1477_9346" result="shape"/>
</filter>
<filter id="filter1_d_1477_9346" x="44.1484" y="-37.377" width="240.492" height="288.604" filterUnits="userSpaceOnUse" color-interpolation-filters="sRGB">
<feFlood flood-opacity="0" result="BackgroundImageFix"/>
<feColorMatrix in="SourceAlpha" type="matrix" values="0 0 0 0 0 0 0 0 0 0 0 0 0 0 0 0 0 0 127 0" result="hardAlpha"/>
<feOffset dy="4"/>
<feGaussianBlur stdDeviation="7"/>
<feComposite in2="hardAlpha" operator="out"/>
<feColorMatrix type="matrix" values="0 0 0 0 0 0 0 0 0 0 0 0 0 0 0 0 0 0 0.25 0"/>
<feBlend mode="normal" in2="BackgroundImageFix" result="effect1_dropShadow_1477_9346"/>
<feBlend mode="normal" in="SourceGraphic" in2="effect1_dropShadow_1477_9346" result="shape"/>
</filter>
<clipPath id="clip0_1477_9346">
<path d="M0 30C0 13.4315 13.4315 0 30 0H474C490.569 0 504 13.4315 504 30V266C504 282.569 490.569 296 474 296H30C13.4315 296 0 282.569 0 266V30Z" fill="white"/>
</clipPath>
<clipPath id="clip1_1477_9346">
<rect width="164.606" height="222.595" fill="white" transform="translate(192.799 31) rotate(8.3)"/>
</clipPath>
</defs>
</svg>
