<svg width="599" height="465" viewBox="0 0 599 465" fill="none" xmlns="http://www.w3.org/2000/svg">
<g clip-path="url(#clip0_1053_40888)">
<path d="M421.46 89.75L406.68 98.28V308.86L421.46 300.33V89.75Z" fill="#00A958" stroke="#231F20" stroke-width="0.5" stroke-linecap="round" stroke-linejoin="round"/>
<path d="M460.89 328.78V118.21L416.54 92.6V303.17L460.89 328.78Z" fill="#E1CBAB" stroke="#231F20" stroke-width="0.5" stroke-linecap="round" stroke-linejoin="round"/>
<path d="M416.54 92.6V109.67L460.89 135.28V118.21L416.54 92.6Z" fill="#00A958" stroke="#231F20" stroke-width="0.5" stroke-linecap="round" stroke-linejoin="round"/>
<path d="M416.54 286.1V303.17L460.89 328.78V311.71L416.54 286.1Z" fill="#00A958" stroke="#231F20" stroke-width="0.5" stroke-linecap="round" stroke-linejoin="round"/>
<path d="M465.82 115.36L455.96 121.05V331.63L465.82 325.94V115.36Z" fill="#00A958" stroke="#231F20" stroke-width="0.5" stroke-linecap="round" stroke-linejoin="round"/>
<path d="M569.32 192.19V402.77L451.04 334.47V123.9L569.32 192.19Z" fill="#E1CBAB" stroke="#231F20" stroke-width="0.5" stroke-linecap="round" stroke-linejoin="round"/>
<path d="M569.32 192.19L574.24 189.35L455.96 121.05L451.04 123.9L569.32 192.19Z" fill="#00A958" stroke="#231F20" stroke-width="0.5" stroke-linecap="round" stroke-linejoin="round"/>
<path d="M574.24 189.35L569.32 192.19V402.77L574.24 399.92V189.35Z" fill="#00A958" stroke="#231F20" stroke-width="0.5" stroke-linecap="round" stroke-linejoin="round"/>
<path d="M569.32 209.27L451.04 140.97V123.9L569.32 192.19V209.27Z" fill="#00A958"/>
<path d="M406.68 308.86L288.4 240.57V223.49L406.68 291.79V308.86Z" fill="#00A958" stroke="#231F20" stroke-width="0.5" stroke-linecap="round" stroke-linejoin="round"/>
<path d="M406.68 98.28V308.86L288.4 240.56V29.98L406.68 98.28Z" fill="#E1CBAB" stroke="#231F20" stroke-width="0.5" stroke-linecap="round" stroke-linejoin="round"/>
<path d="M288.4 29.98V240.56L303.18 220.65V61.29L288.4 29.98Z" fill="#00A958"/>
<path d="M406.68 98.28L411.61 95.43L293.33 27.14L288.4 29.98L406.68 98.28Z" fill="#00A958"/>
<path d="M460.89 118.21L465.82 115.36L421.46 89.75L416.54 92.59L460.89 118.21Z" fill="#00A958" stroke="#231F20" stroke-width="0.5" stroke-linecap="round" stroke-linejoin="round"/>
<path d="M406.68 98.28V115.35L299.48 53.46L288.4 29.98L406.68 98.28Z" fill="#00A958"/>
<path d="M406.68 308.86L288.4 240.57V223.49L406.68 291.79V308.86Z" fill="#00A958"/>
<path d="M569.32 192.19L554.53 206.42V382.85L569.32 402.77V192.19Z" fill="#00A958"/>
<path d="M569.31 402.77L451.03 334.47V317.4L554.53 377.17V382.85L569.31 402.77Z" fill="#00A958"/>
<path d="M301.15 223.39L297.91 227.75L288.4 207.16V195.78L301.15 223.39Z" fill="#219E4C"/>
<path d="M316.61 256.86L309.44 252.72L309.43 252.71L298.68 229.43L305.85 233.57L316.6 256.84L316.61 256.86Z" fill="#219E4C"/>
<path d="M303.18 205.01V216.4L288.4 184.4V173.01L303.18 205.01Z" fill="#219E4C"/>
<path d="M330.94 265.13L323.78 260.99L323.77 260.98L313.02 237.71L320.19 241.85L330.94 265.13Z" fill="#219E4C"/>
<path d="M303.18 182.25V193.63L288.4 161.63V150.25L303.18 182.25Z" fill="#219E4C"/>
<path d="M345.28 273.4V273.41L338.11 269.27V269.26L327.36 245.99L334.53 250.12L345.28 273.4Z" fill="#219E4C"/>
<path d="M303.18 159.48V170.87L288.4 138.87V127.48L303.18 159.48Z" fill="#219E4C"/>
<path d="M359.62 281.68V281.69L352.45 277.55V277.54L341.7 254.27L348.87 258.41L359.62 281.68Z" fill="#219E4C"/>
<path d="M303.18 136.72V148.1L288.4 116.1V104.72L303.18 136.72Z" fill="#219E4C"/>
<path d="M373.95 289.96L366.79 285.83L366.78 285.82L356.03 262.54L363.2 266.68L373.95 289.96Z" fill="#219E4C"/>
<path d="M303.18 113.95V125.34L288.4 93.34V81.95L303.18 113.95Z" fill="#219E4C"/>
<path d="M388.29 298.24L381.12 294.1L370.37 270.82L377.54 274.96L388.29 298.24Z" fill="#219E4C"/>
<path d="M303.18 91.19V102.57L288.4 70.57V59.19L303.18 91.19Z" fill="#219E4C"/>
<path d="M402.62 306.52L395.46 302.38L384.71 279.1L391.87 283.24L402.62 306.52Z" fill="#219E4C"/>
<path d="M303.18 68.42V79.81L288.4 47.81V36.42L295.1 50.93L303.18 68.42Z" fill="#219E4C"/>
<path d="M406.68 292.53V303.91L399.05 287.38L406.21 291.52L406.68 292.53Z" fill="#219E4C"/>
<path d="M309.43 59.2L302.27 55.07L291.52 31.79L291.51 31.78L298.68 35.91V35.93H298.69V35.94L309.43 59.2Z" fill="#219E4C"/>
<path d="M323.77 67.48L316.6 63.34L305.85 40.07V40.06L313.02 44.2V44.21H313.03V44.22H313.04L323.77 67.48Z" fill="#219E4C"/>
<path d="M338.11 75.76L330.94 71.62L320.19 48.35V48.34L327.35 52.47L327.36 52.49L338.11 75.76Z" fill="#219E4C"/>
<path d="M352.45 84.04L345.28 79.9L334.53 56.63V56.62L341.69 60.75L341.7 60.77L352.45 84.04Z" fill="#219E4C"/>
<path d="M366.77 92.31L359.61 88.18L359.6 88.17L348.87 64.91L348.86 64.89L356.03 69.03L356.04 69.05L366.77 92.31Z" fill="#219E4C"/>
<path d="M381.12 100.59L373.95 96.45L363.21 73.19L363.2 73.17L370.35 77.3L370.36 77.31L370.37 77.32L381.12 100.59Z" fill="#219E4C"/>
<path d="M395.46 108.87L388.28 104.73L377.54 81.46L384.69 85.58L384.71 85.6L395.46 108.87Z" fill="#219E4C"/>
<path d="M406.68 110.41V115.35L402.62 113.01L402.61 113L391.88 89.74L399.04 93.87L399.05 93.88L406.68 110.41Z" fill="#219E4C"/>
<path d="M479.24 350.76L472.06 346.62L463.21 327.45L461.31 323.34L465.82 325.94L468.49 327.48L479.24 350.76Z" fill="#219E4C"/>
<path d="M493.57 359.04L486.41 354.9L475.65 331.62L482.82 335.76L493.57 359.04Z" fill="#219E4C"/>
<path d="M507.91 367.32L500.74 363.18L489.99 339.9L497.16 344.04L507.91 367.32Z" fill="#219E4C"/>
<path d="M522.25 375.59L515.08 371.45L504.33 348.18L511.5 352.32L522.25 375.59Z" fill="#219E4C"/>
<path d="M536.59 383.87L529.42 379.73L518.67 356.46L525.84 360.6L536.59 383.87Z" fill="#219E4C"/>
<path d="M550.92 392.15L543.75 388.01L533 364.73L540.17 368.87L550.92 392.15Z" fill="#219E4C"/>
<path d="M565.26 400.43L558.09 396.29L547.34 373.01L554.51 377.15L554.53 377.2L561.43 392.15L561.44 392.17L565.26 400.43Z" fill="#219E4C"/>
<path d="M457.73 144.84L455.96 143.82L451.03 140.97V130.33L455.96 141L457.73 144.84Z" fill="#219E4C"/>
<path d="M569.31 386.44V397.82L561.68 381.29H561.67L554.53 365.82V354.44L568.84 385.43L569.31 386.44Z" fill="#219E4C"/>
<path d="M472.07 153.12L465.82 149.51L464.9 148.98L460.89 140.3L457.73 133.46V133.45L455.96 129.62L454.15 125.7L455.96 126.75L460.89 129.59L461.32 129.84L465.82 139.58L472.07 153.12Z" fill="#219E4C"/>
<path d="M569.31 363.67V375.05L554.53 343.05V331.67L569.31 363.67Z" fill="#219E4C"/>
<path d="M486.41 161.4L479.24 157.26L468.49 133.98L475.65 138.11V138.12H475.66V138.13L486.41 161.4Z" fill="#219E4C"/>
<path d="M569.31 340.91V352.29L554.53 320.29V308.91L569.31 340.91Z" fill="#219E4C"/>
<path d="M493.57 165.54V165.53L482.84 142.27L489.99 146.39V146.4H490V146.41L500.75 169.68L493.57 165.54Z" fill="#219E4C"/>
<path d="M569.31 318.14V329.52L554.53 297.52V286.14L569.31 318.14Z" fill="#219E4C"/>
<path d="M507.91 173.82V173.81L497.16 150.53L504.32 154.66V154.67H504.33L515.08 177.95L507.91 173.82Z" fill="#219E4C"/>
<path d="M569.31 295.38V306.76L554.53 274.76V263.38L569.31 295.38Z" fill="#219E4C"/>
<path d="M522.25 182.1V182.09L511.5 158.81L518.66 162.94V162.95H518.67L529.42 186.23L522.25 182.1Z" fill="#219E4C"/>
<path d="M569.31 272.61V283.99L554.53 251.99V240.61L569.31 272.61Z" fill="#219E4C"/>
<path d="M543.75 194.51L536.6 190.38L536.59 190.37L525.83 167.09L532.99 171.22L533 171.23L543.75 194.51Z" fill="#219E4C"/>
<path d="M569.31 249.85V261.23L554.53 229.23V217.85L569.31 249.85Z" fill="#219E4C"/>
<path d="M558.09 202.79L550.94 198.66L550.93 198.65L540.17 175.37L547.32 179.49H547.33V179.5H547.34L547.35 179.51L558.09 202.79Z" fill="#219E4C"/>
<path d="M569.31 227.08V238.46L554.53 206.46V206.42L558.16 202.93L569.31 227.08Z" fill="#219E4C"/>
<path d="M569.31 204.32V215.7L565.26 206.93L561.79 199.43L554.5 183.64L561.67 187.78L565.43 195.92L569.31 204.32Z" fill="#219E4C"/>
<path d="M460.89 322.42L461.31 323.34L465.82 325.94L460.89 322.42Z" fill="#219E4C"/>
<path d="M305.85 233.57L298.68 229.43L297.91 227.75L301.15 223.39L305.85 233.57Z" fill="#FFE06A"/>
<path d="M320.19 241.85L313.02 237.71L303.18 216.4V205.01L320.19 241.85Z" fill="#FFE06A"/>
<path d="M334.53 250.12L327.36 245.99L303.18 193.63V182.25L334.53 250.12Z" fill="#FFE06A"/>
<path d="M348.87 258.41L341.7 254.27L303.18 170.87V159.48L348.87 258.41Z" fill="#FFE06A"/>
<path d="M363.2 266.68L356.03 262.54L303.18 148.1V136.72L363.2 266.68Z" fill="#FFE06A"/>
<path d="M377.54 274.96L370.37 270.82L303.18 125.34V113.95L377.54 274.96Z" fill="#FFE06A"/>
<path d="M391.87 283.24L384.71 279.1L303.18 102.57V91.19L391.87 283.24Z" fill="#FFE06A"/>
<path d="M406.68 269.77V281.15L302.27 55.07L309.43 59.2L406.68 269.77Z" fill="#FFE06A"/>
<path d="M406.68 247V258.38L316.6 63.34L323.77 67.48L406.68 247Z" fill="#FFE06A"/>
<path d="M327.35 52.47L327.36 52.49L320.19 48.35V48.33L327.35 52.47Z" fill="#FFE06A"/>
<path d="M406.68 224.24V235.62L330.94 71.62L338.11 75.76L406.68 224.24Z" fill="#FFE06A"/>
<path d="M341.69 60.75L341.7 60.77L334.53 56.63V56.61L341.69 60.75Z" fill="#FFE06A"/>
<path d="M406.68 201.47V212.85L345.28 79.9L352.45 84.04L406.68 201.47Z" fill="#FFE06A"/>
<path d="M356.03 69.03L356.04 69.05L348.87 64.91L348.86 64.89L356.03 69.03Z" fill="#FFE06A"/>
<path d="M406.68 178.7V190.09L359.61 88.18L366.78 92.31V92.32L406.68 178.7Z" fill="#FFE06A"/>
<path d="M406.68 155.94V167.32L373.95 96.45L381.12 100.59L406.68 155.94Z" fill="#FFE06A"/>
<path d="M406.68 133.17V144.56L388.28 104.73L395.46 108.87L406.68 133.17Z" fill="#FFE06A"/>
<path d="M406.68 115.35V121.79L402.62 113.01L406.68 115.35Z" fill="#FFE06A"/>
<path d="M482.82 335.76L475.65 331.62L465.82 310.32L460.89 299.65L455.96 288.97L451.03 278.3V266.92L455.96 277.59L460.89 288.27L465.82 298.94L482.82 335.76Z" fill="#FFE06A"/>
<path d="M497.16 344.04L489.99 339.9L465.82 287.56L460.89 276.89L455.96 266.21L451.03 255.54V244.15L455.96 254.82L460.89 265.5L465.82 276.17L497.16 344.04Z" fill="#FFE06A"/>
<path d="M511.5 352.32L504.33 348.18L465.82 264.79L460.89 254.12L455.96 243.44L451.03 232.77V221.39L455.96 232.06L460.89 242.74L465.82 253.41L511.5 352.32Z" fill="#FFE06A"/>
<path d="M525.84 360.6L518.67 356.46L465.82 242.03L460.89 231.36L455.96 220.68L451.03 210.01V198.62L455.96 209.29L460.89 219.97L465.82 230.64L525.84 360.6Z" fill="#FFE06A"/>
<path d="M540.17 368.87L533 364.73L465.82 219.26L460.89 208.59L455.96 197.91L451.03 187.24V175.86L455.96 186.53L460.89 197.21L465.82 207.88L540.17 368.87Z" fill="#FFE06A"/>
<path d="M465.82 185.11L554.51 377.15L547.34 373.01L465.82 196.5L460.89 185.83L455.96 175.15L451.03 164.48V153.09L455.96 163.76L460.89 174.44L465.82 185.11Z" fill="#FFE06A"/>
<path d="M554.53 354.44V365.82L465.82 173.73L460.89 163.06L455.96 152.38L451.03 141.71V140.97L455.96 143.82L457.73 144.84L460.89 151.68L465.82 162.35L554.53 354.44Z" fill="#FFE06A"/>
<path d="M554.53 331.67V343.05L465.82 150.97L464.9 148.98L465.82 149.51L472.07 153.12L554.53 331.67Z" fill="#FFE06A"/>
<path d="M554.53 308.91V320.29L479.24 157.26L486.41 161.4L554.53 308.91Z" fill="#FFE06A"/>
<path d="M554.53 286.14V297.52L493.57 165.54L500.75 169.68L554.53 286.14Z" fill="#FFE06A"/>
<path d="M554.53 263.38V274.76L507.91 173.82L515.08 177.95L515.09 177.96L554.53 263.38Z" fill="#FFE06A"/>
<path d="M518.65 162.94H518.66V162.95L518.65 162.94Z" fill="#FFE06A"/>
<path d="M554.53 240.61V251.99L522.25 182.1L529.41 186.23L529.42 186.24L554.53 240.61Z" fill="#FFE06A"/>
<path d="M554.53 217.85V229.23L536.6 190.38L543.75 194.51L554.53 217.85Z" fill="#FFE06A"/>
<path d="M547.32 179.49H547.33V179.5L547.32 179.49Z" fill="#FFE06A"/>
<path d="M558.16 202.93L554.53 206.42V206.46L550.94 198.66L558.09 202.79L558.16 202.93Z" fill="#FFE06A"/>
<path d="M406.21 291.52L399.05 287.38H399.04L303.18 79.81V68.42L406.21 291.52Z" fill="#FFE06A"/>
<path d="M465.82 325.94L468.49 327.48L465.82 321.7L460.89 311.03L455.96 300.35L451.03 289.68V301.07L454.15 307.82L455.96 311.74L460.89 322.42L461.31 323.34L465.82 325.94Z" fill="#FFE06A"/>
<path d="M303.18 61.29V220.65L288.4 240.56V47.06L299.48 53.46L303.18 61.29Z" stroke="#231F20" stroke-width="0.5" stroke-linecap="round" stroke-linejoin="round"/>
<path d="M406.68 115.35L288.4 47.06V29.98L406.68 98.28V115.35Z" stroke="#231F20" stroke-width="0.5" stroke-linecap="round" stroke-linejoin="round"/>
<path d="M406.68 98.28L411.61 95.43L293.33 27.14L288.4 29.98L406.68 98.28Z" stroke="#231F20" stroke-width="0.5" stroke-linecap="round" stroke-linejoin="round"/>
<path d="M234.19 55.6L342.61 118.21V323.09L234.19 260.49V55.6Z" fill="white" stroke="#231F20" stroke-width="0.5" stroke-linecap="round" stroke-linejoin="round"/>
<path d="M199.69 115.36L342.61 118.21V323.09L199.69 320.25V115.36Z" fill="white" stroke="#231F20" stroke-width="0.5" stroke-linecap="round" stroke-linejoin="round"/>
<path d="M336.44 323.01L342.38 323.09V118.42L336.44 118.33V323.01Z" fill="#FFE06A"/>
<path d="M406.68 308.86L288.4 240.57V223.49L406.68 291.79V308.86Z" stroke="#231F20" stroke-width="0.5" stroke-linecap="round" stroke-linejoin="round"/>
<path d="M241.58 202.14V412.72L354.93 347.28V136.7L241.58 202.14Z" fill="white" stroke="#231F20" stroke-width="0.5" stroke-linecap="round" stroke-linejoin="round"/>
<path d="M248.97 206.42C248.97 206.42 357.39 143.82 362.32 140.97C367.25 138.12 359.86 133.86 354.93 136.7C350 139.54 241.58 202.15 241.58 202.15L248.97 206.42Z" fill="white"/>
<path d="M248.97 206.42C248.97 206.42 357.39 143.82 362.32 140.97C367.25 138.12 359.86 133.86 354.93 136.7C350 139.54 241.58 202.15 241.58 202.15" stroke="#231F20" stroke-width="0.5" stroke-linecap="round" stroke-linejoin="round"/>
<path d="M248.97 206.42V417L364.26 350.43V139.86L248.97 206.42Z" fill="white" stroke="#231F20" stroke-width="0.5" stroke-linecap="round" stroke-linejoin="round"/>
<path d="M248.97 206.41V416.98L364.26 350.42V139.84L248.97 206.41Z" fill="white" stroke="#231F20" stroke-width="0.5" stroke-linecap="round" stroke-linejoin="round"/>
<path d="M256.36 210.69C256.36 210.69 364.78 148.09 369.71 145.24C374.64 142.39 367.25 138.13 362.32 140.97C357.39 143.82 248.97 206.42 248.97 206.42L256.36 210.69Z" fill="white"/>
<path d="M256.36 210.69C256.36 210.69 364.78 148.09 369.71 145.24C374.64 142.39 367.25 138.13 362.32 140.97C357.39 143.82 248.97 206.42 248.97 206.42" stroke="#231F20" stroke-width="0.5" stroke-linecap="round" stroke-linejoin="round"/>
<path d="M256.36 210.69V421.27L371.65 354.7V144.12L256.36 210.69Z" fill="white" stroke="#231F20" stroke-width="0.5" stroke-linecap="round" stroke-linejoin="round"/>
<path d="M256.36 210.67V421.25L371.65 354.68V144.11L256.36 210.67Z" fill="white" stroke="#231F20" stroke-width="0.5" stroke-linecap="round" stroke-linejoin="round"/>
<path d="M263.76 214.96C263.76 214.96 372.18 152.36 377.11 149.51C382.04 146.66 374.65 142.4 369.72 145.24C364.79 148.09 256.37 210.69 256.37 210.69L263.76 214.96Z" fill="white"/>
<path d="M263.76 214.96C263.76 214.96 372.18 152.36 377.11 149.51C382.04 146.66 374.65 142.4 369.72 145.24C364.79 148.09 256.37 210.69 256.37 210.69" stroke="#231F20" stroke-width="0.5" stroke-linecap="round" stroke-linejoin="round"/>
<path d="M263.76 214.96V425.54L379.05 358.97V148.39L263.76 214.96Z" fill="white" stroke="#231F20" stroke-width="0.5" stroke-linecap="round" stroke-linejoin="round"/>
<path d="M263.76 214.94V425.52L379.05 358.95V148.37L263.76 214.94Z" fill="white" stroke="#231F20" stroke-width="0.5" stroke-linecap="round" stroke-linejoin="round"/>
<path d="M271.15 219.23C271.15 219.23 379.57 156.63 384.5 153.78C389.43 150.93 382.04 146.67 377.11 149.51C372.18 152.36 263.76 214.96 263.76 214.96L271.15 219.23Z" fill="white"/>
<path d="M271.15 219.23C271.15 219.23 379.57 156.63 384.5 153.78C389.43 150.93 382.04 146.67 377.11 149.51C372.18 152.36 263.76 214.96 263.76 214.96" stroke="#231F20" stroke-width="0.5" stroke-linecap="round" stroke-linejoin="round"/>
<path d="M271.15 219.23V429.8L386.44 363.24V152.66L271.15 219.23Z" fill="white" stroke="#231F20" stroke-width="0.5" stroke-linecap="round" stroke-linejoin="round"/>
<path d="M271.15 219.21V429.79L386.44 363.22V152.64L271.15 219.21Z" fill="white" stroke="#231F20" stroke-width="0.5" stroke-linecap="round" stroke-linejoin="round"/>
<path d="M278.54 223.49C278.54 223.49 386.96 160.89 391.89 158.04C396.82 155.19 389.43 150.93 384.5 153.77C379.57 156.62 271.15 219.22 271.15 219.22L278.54 223.49Z" fill="white"/>
<path d="M278.54 223.49C278.54 223.49 386.96 160.89 391.89 158.04C396.82 155.19 389.43 150.93 384.5 153.77C379.57 156.62 271.15 219.22 271.15 219.22" stroke="#231F20" stroke-width="0.5" stroke-linecap="round" stroke-linejoin="round"/>
<path d="M278.54 223.49V434.07L393.83 367.5V156.93L278.54 223.49Z" fill="white" stroke="#231F20" stroke-width="0.5" stroke-linecap="round" stroke-linejoin="round"/>
<path d="M393.58 157.35L387.01 161.15V371.18L393.58 367.39V157.35Z" fill="#FFE06A"/>
<path d="M569.31 192.19L558.22 202.87L451.03 140.97V123.9L569.31 192.19Z" stroke="#231F20" stroke-width="0.5" stroke-linecap="round" stroke-linejoin="round"/>
<path d="M569.32 192.19L554.53 206.42V382.85L569.32 402.77V192.19Z" stroke="#231F20" stroke-width="0.5" stroke-linecap="round" stroke-linejoin="round"/>
<path d="M569.31 402.77L451.03 334.47V317.4L554.53 377.17V382.85L569.31 402.77Z" stroke="#231F20" stroke-width="0.5" stroke-linecap="round" stroke-linejoin="round"/>
<path d="M431.32 169.43L539.75 232.03V436.92L431.32 374.31V169.43Z" fill="white" stroke="#231F20" stroke-width="0.5" stroke-linecap="round" stroke-linejoin="round"/>
<path d="M431.32 169.43L485.53 246.26V451.15L431.32 374.31V169.43Z" fill="white" stroke="#231F20" stroke-width="0.5" stroke-linecap="round" stroke-linejoin="round"/>
<path d="M431.58 170.21L436.1 176.64V380.68L431.58 374.23V170.21Z" fill="#FFE06A"/>
</g>
<path d="M57.7454 40.8079V49.5352H56.6886V41.7454H52.2908V49.5352H51.234V40.8079H57.7454ZM62.4851 49.6715C61.8544 49.6715 61.3104 49.5323 60.853 49.2539C60.3984 48.9727 60.0476 48.5806 59.8004 48.0778C59.5561 47.5721 59.4339 46.984 59.4339 46.3136C59.4339 45.6431 59.5561 45.0522 59.8004 44.5408C60.0476 44.0266 60.3913 43.6261 60.8317 43.3391C61.2749 43.0494 61.7919 42.9045 62.3828 42.9045C62.7237 42.9045 63.0604 42.9613 63.3928 43.0749C63.7251 43.1886 64.0277 43.3732 64.3004 43.6289C64.5732 43.8817 64.7905 44.217 64.9524 44.6346C65.1143 45.0522 65.1953 45.5664 65.1953 46.1772V46.6033H60.1499V45.734H64.1726C64.1726 45.3647 64.0987 45.0352 63.951 44.7454C63.8061 44.4556 63.5987 44.2269 63.3288 44.0593C63.0618 43.8917 62.7464 43.8079 62.3828 43.8079C61.9822 43.8079 61.6357 43.9073 61.343 44.1062C61.0533 44.3022 60.8303 44.5579 60.674 44.8732C60.5178 45.1886 60.4396 45.5266 60.4396 45.8874V46.467C60.4396 46.9613 60.5249 47.3803 60.6953 47.7241C60.8686 48.065 61.1087 48.3249 61.4155 48.5039C61.7223 48.68 62.0788 48.7681 62.4851 48.7681C62.7493 48.7681 62.9879 48.7312 63.201 48.6573C63.4169 48.5806 63.603 48.467 63.7592 48.3164C63.9155 48.163 64.0362 47.9727 64.1214 47.7454L65.093 48.0181C64.9908 48.3477 64.8189 48.6374 64.5774 48.8874C64.3359 49.1346 64.0376 49.3278 63.6825 49.467C63.3274 49.6033 62.9283 49.6715 62.4851 49.6715ZM66.7251 51.9897V42.9897H67.6967V44.0295H67.8161C67.8899 43.9158 67.9922 43.771 68.1229 43.5948C68.2564 43.4158 68.4467 43.2567 68.6939 43.1175C68.9439 42.9755 69.282 42.9045 69.7081 42.9045C70.2592 42.9045 70.745 43.0423 71.1655 43.3178C71.5859 43.5934 71.9141 43.984 72.1499 44.4897C72.3857 44.9954 72.5036 45.592 72.5036 46.2795C72.5036 46.9727 72.3857 47.5735 72.1499 48.082C71.9141 48.5877 71.5874 48.9798 71.1697 49.2582C70.7521 49.5337 70.2706 49.6715 69.7251 49.6715C69.3047 49.6715 68.968 49.6019 68.7152 49.4627C68.4624 49.3207 68.2678 49.1602 68.1314 48.9812C67.995 48.7994 67.8899 48.6488 67.8161 48.5295H67.7308V51.9897H66.7251ZM67.7138 46.2624C67.7138 46.7567 67.7862 47.1928 67.9311 47.5707C68.076 47.9457 68.2876 48.2397 68.5661 48.4528C68.8445 48.663 69.1854 48.7681 69.5888 48.7681C70.0092 48.7681 70.3601 48.6573 70.6413 48.4357C70.9254 48.2113 71.1385 47.9102 71.2805 47.5323C71.4254 47.1516 71.4979 46.7283 71.4979 46.2624C71.4979 45.8022 71.4268 45.3874 71.2848 45.0181C71.1456 44.646 70.9339 44.3519 70.6499 44.136C70.3686 43.9173 70.0149 43.8079 69.5888 43.8079C69.1797 43.8079 68.8359 43.9116 68.5575 44.119C68.2791 44.3235 68.0689 44.6104 67.9268 44.9798C67.7848 45.3462 67.7138 45.7738 67.7138 46.2624ZM76.782 49.6715C76.1513 49.6715 75.6072 49.5323 75.1499 49.2539C74.6953 48.9727 74.3445 48.5806 74.0973 48.0778C73.853 47.5721 73.7308 46.984 73.7308 46.3136C73.7308 45.6431 73.853 45.0522 74.0973 44.5408C74.3445 44.0266 74.6882 43.6261 75.1286 43.3391C75.5717 43.0494 76.0888 42.9045 76.6797 42.9045C77.0206 42.9045 77.3572 42.9613 77.6896 43.0749C78.022 43.1886 78.3246 43.3732 78.5973 43.6289C78.87 43.8817 79.0874 44.217 79.2493 44.6346C79.4112 45.0522 79.4922 45.5664 79.4922 46.1772V46.6033H74.4467V45.734H78.4695C78.4695 45.3647 78.3956 45.0352 78.2479 44.7454C78.103 44.4556 77.8956 44.2269 77.6257 44.0593C77.3587 43.8917 77.0433 43.8079 76.6797 43.8079C76.2791 43.8079 75.9325 43.9073 75.6399 44.1062C75.3501 44.3022 75.1271 44.5579 74.9709 44.8732C74.8146 45.1886 74.7365 45.5266 74.7365 45.8874V46.467C74.7365 46.9613 74.8217 47.3803 74.9922 47.7241C75.1655 48.065 75.4055 48.3249 75.7124 48.5039C76.0192 48.68 76.3757 48.7681 76.782 48.7681C77.0462 48.7681 77.2848 48.7312 77.4979 48.6573C77.7138 48.5806 77.8999 48.467 78.0561 48.3164C78.2124 48.163 78.3331 47.9727 78.4183 47.7454L79.3899 48.0181C79.2876 48.3477 79.1158 48.6374 78.8743 48.8874C78.6328 49.1346 78.3345 49.3278 77.9794 49.467C77.6243 49.6033 77.2251 49.6715 76.782 49.6715ZM81.022 49.5352V42.9897H86.1697V49.5352H85.1641V43.9272H82.0277V49.5352H81.022ZM87.4268 49.5352V48.5977H87.6655C87.8615 48.5977 88.0249 48.5593 88.1555 48.4826C88.2862 48.4031 88.3913 48.2653 88.4709 48.0692C88.5533 47.8704 88.6158 47.5948 88.6584 47.2425C88.7038 46.8874 88.7365 46.4357 88.7564 45.8874L88.8757 42.9897H93.2393V49.5352H92.2337V43.9272H89.8303L89.728 46.2624C89.7053 46.7994 89.657 47.2724 89.5831 47.6815C89.5121 48.0877 89.4027 48.4286 89.255 48.7042C89.1101 48.9798 88.9169 49.1871 88.6754 49.3263C88.4339 49.4656 88.1314 49.5352 87.7678 49.5352H87.4268ZM97.8288 49.6715C97.1982 49.6715 96.6541 49.5323 96.1967 49.2539C95.7422 48.9727 95.3913 48.5806 95.1442 48.0778C94.8999 47.5721 94.7777 46.984 94.7777 46.3136C94.7777 45.6431 94.8999 45.0522 95.1442 44.5408C95.3913 44.0266 95.7351 43.6261 96.1754 43.3391C96.6186 43.0494 97.1357 42.9045 97.7266 42.9045C98.0675 42.9045 98.4041 42.9613 98.7365 43.0749C99.0689 43.1886 99.3714 43.3732 99.6442 43.6289C99.9169 43.8817 100.134 44.217 100.296 44.6346C100.458 45.0522 100.539 45.5664 100.539 46.1772V46.6033H95.4936V45.734H99.5163C99.5163 45.3647 99.4425 45.0352 99.2947 44.7454C99.1499 44.4556 98.9425 44.2269 98.6726 44.0593C98.4055 43.8917 98.0902 43.8079 97.7266 43.8079C97.326 43.8079 96.9794 43.9073 96.6868 44.1062C96.397 44.3022 96.174 44.5579 96.0178 44.8732C95.8615 45.1886 95.7834 45.5266 95.7834 45.8874V46.467C95.7834 46.9613 95.8686 47.3803 96.0391 47.7241C96.2124 48.065 96.4524 48.3249 96.7592 48.5039C97.0661 48.68 97.4226 48.7681 97.8288 48.7681C98.093 48.7681 98.3317 48.7312 98.5447 48.6573C98.7607 48.5806 98.9467 48.467 99.103 48.3164C99.2592 48.163 99.38 47.9727 99.4652 47.7454L100.437 48.0181C100.335 48.3477 100.163 48.6374 99.9212 48.8874C99.6797 49.1346 99.3814 49.3278 99.0263 49.467C98.6712 49.6033 98.272 49.6715 97.8288 49.6715ZM96.4482 41.8988C96.2692 41.8988 96.1101 41.8306 95.9709 41.6942C95.8345 41.555 95.7663 41.396 95.7663 41.217C95.7663 41.021 95.8345 40.859 95.9709 40.7312C96.1101 40.6005 96.2692 40.5352 96.4482 40.5352C96.6442 40.5352 96.8061 40.6005 96.9339 40.7312C97.0646 40.859 97.13 41.021 97.13 41.217C97.13 41.396 97.0646 41.555 96.9339 41.6942C96.8061 41.8306 96.6442 41.8988 96.4482 41.8988ZM98.9027 41.8988C98.7237 41.8988 98.5646 41.8306 98.4254 41.6942C98.2891 41.555 98.2209 41.396 98.2209 41.217C98.2209 41.021 98.2891 40.859 98.4254 40.7312C98.5646 40.6005 98.7237 40.5352 98.9027 40.5352C99.0987 40.5352 99.2607 40.6005 99.3885 40.7312C99.5192 40.859 99.5845 41.021 99.5845 41.217C99.5845 41.396 99.5192 41.555 99.3885 41.6942C99.2607 41.8306 99.0987 41.8988 98.9027 41.8988ZM101.46 43.9272V42.9897H106.778V43.9272H104.63V49.5352H103.624V43.9272H101.46Z" fill="#3B3B3B"/>
<path d="M46.761 68.9622V77.6895H45.7042V69.8997H41.3065V77.6895H40.2496V68.9622H46.761ZM51.5007 77.8258C50.87 77.8258 50.326 77.6866 49.8686 77.4082C49.4141 77.127 49.0632 76.7349 48.8161 76.2321C48.5717 75.7264 48.4496 75.1383 48.4496 74.4679C48.4496 73.7974 48.5717 73.2065 48.8161 72.6951C49.0632 72.1809 49.407 71.7804 49.8473 71.4934C50.2905 71.2037 50.8075 71.0588 51.3984 71.0588C51.7393 71.0588 52.076 71.1156 52.4084 71.2292C52.7408 71.3429 53.0433 71.5275 53.3161 71.7832C53.5888 72.036 53.8061 72.3713 53.968 72.7889C54.13 73.2065 54.2109 73.7207 54.2109 74.3315V74.7576H49.1655V73.8883H53.1882C53.1882 73.519 53.1143 73.1895 52.9666 72.8997C52.8217 72.6099 52.6143 72.3812 52.3445 72.2136C52.0774 72.046 51.7621 71.9622 51.3984 71.9622C50.9979 71.9622 50.6513 72.0616 50.3587 72.2605C50.0689 72.4565 49.8459 72.7122 49.6896 73.0275C49.5334 73.3429 49.4553 73.6809 49.4553 74.0417V74.6213C49.4553 75.1156 49.5405 75.5346 49.7109 75.8784C49.8842 76.2193 50.1243 76.4792 50.4311 76.6582C50.7379 76.8343 51.0945 76.9224 51.5007 76.9224C51.7649 76.9224 52.0036 76.8855 52.2166 76.8116C52.4325 76.7349 52.6186 76.6213 52.7749 76.4707C52.9311 76.3173 53.0518 76.127 53.1371 75.8997L54.1087 76.1724C54.0064 76.502 53.8345 76.7917 53.593 77.0417C53.3516 77.2889 53.0533 77.4821 52.6982 77.6213C52.343 77.7576 51.9439 77.8258 51.5007 77.8258ZM55.7408 80.144V71.144H56.7124V72.1838H56.8317C56.9055 72.0701 57.0078 71.9252 57.1385 71.7491C57.272 71.5701 57.4624 71.411 57.7095 71.2718C57.9595 71.1298 58.2976 71.0588 58.7237 71.0588C59.2749 71.0588 59.7607 71.1966 60.1811 71.4721C60.6016 71.7477 60.9297 72.1383 61.1655 72.644C61.4013 73.1497 61.5192 73.7463 61.5192 74.4338C61.5192 75.127 61.4013 75.7278 61.1655 76.2363C60.9297 76.742 60.603 77.1341 60.1854 77.4125C59.7678 77.688 59.2862 77.8258 58.7408 77.8258C58.3203 77.8258 57.9837 77.7562 57.7308 77.617C57.478 77.475 57.2834 77.3145 57.147 77.1355C57.0107 76.9537 56.9055 76.8031 56.8317 76.6838H56.7464V80.144H55.7408ZM56.7294 74.4167C56.7294 74.911 56.8018 75.3471 56.9467 75.725C57.0916 76.1 57.3033 76.394 57.5817 76.6071C57.8601 76.8173 58.201 76.9224 58.6044 76.9224C59.0249 76.9224 59.3757 76.8116 59.657 76.59C59.9411 76.3656 60.1541 76.0645 60.2962 75.6866C60.4411 75.3059 60.5135 74.8826 60.5135 74.4167C60.5135 73.9565 60.4425 73.5417 60.3004 73.1724C60.1612 72.8002 59.9496 72.5062 59.6655 72.2903C59.3842 72.0716 59.0305 71.9622 58.6044 71.9622C58.1953 71.9622 57.8516 72.0659 57.5732 72.2733C57.2947 72.4778 57.0845 72.7647 56.9425 73.1341C56.8004 73.5005 56.7294 73.9281 56.7294 74.4167ZM65.7976 77.8258C65.1669 77.8258 64.6229 77.6866 64.1655 77.4082C63.7109 77.127 63.3601 76.7349 63.1129 76.2321C62.8686 75.7264 62.7464 75.1383 62.7464 74.4679C62.7464 73.7974 62.8686 73.2065 63.1129 72.6951C63.3601 72.1809 63.7038 71.7804 64.1442 71.4934C64.5874 71.2037 65.1044 71.0588 65.6953 71.0588C66.0362 71.0588 66.3729 71.1156 66.7053 71.2292C67.0376 71.3429 67.3402 71.5275 67.6129 71.7832C67.8857 72.036 68.103 72.3713 68.2649 72.7889C68.4268 73.2065 68.5078 73.7207 68.5078 74.3315V74.7576H63.4624V73.8883H67.4851C67.4851 73.519 67.4112 73.1895 67.2635 72.8997C67.1186 72.6099 66.9112 72.3812 66.6413 72.2136C66.3743 72.046 66.0589 71.9622 65.6953 71.9622C65.2947 71.9622 64.9482 72.0616 64.6555 72.2605C64.3658 72.4565 64.1428 72.7122 63.9865 73.0275C63.8303 73.3429 63.7521 73.6809 63.7521 74.0417V74.6213C63.7521 75.1156 63.8374 75.5346 64.0078 75.8784C64.1811 76.2193 64.4212 76.4792 64.728 76.6582C65.0348 76.8343 65.3913 76.9224 65.7976 76.9224C66.0618 76.9224 66.3004 76.8855 66.5135 76.8116C66.7294 76.7349 66.9155 76.6213 67.0717 76.4707C67.228 76.3173 67.3487 76.127 67.4339 75.8997L68.4055 76.1724C68.3033 76.502 68.1314 76.7917 67.8899 77.0417C67.6484 77.2889 67.3501 77.4821 66.995 77.6213C66.6399 77.7576 66.2408 77.8258 65.7976 77.8258ZM70.0376 77.6895V71.144H75.1854V77.6895H74.1797V72.0815H71.0433V77.6895H70.0376ZM76.4425 77.6895V76.752H76.6811C76.8771 76.752 77.0405 76.7136 77.1712 76.6369C77.3018 76.5574 77.407 76.4196 77.4865 76.2235C77.5689 76.0247 77.6314 75.7491 77.674 75.3968C77.7195 75.0417 77.7521 74.59 77.772 74.0417L77.8913 71.144H82.255V77.6895H81.2493V72.0815H78.8459L78.7436 74.4167C78.7209 74.9537 78.6726 75.4267 78.5987 75.8358C78.5277 76.242 78.4183 76.5829 78.2706 76.8585C78.1257 77.1341 77.9325 77.3414 77.6911 77.4806C77.4496 77.6199 77.147 77.6895 76.7834 77.6895H76.4425ZM86.8445 77.8258C86.2138 77.8258 85.6697 77.6866 85.2124 77.4082C84.7578 77.127 84.407 76.7349 84.1598 76.2321C83.9155 75.7264 83.7933 75.1383 83.7933 74.4679C83.7933 73.7974 83.9155 73.2065 84.1598 72.6951C84.407 72.1809 84.7507 71.7804 85.1911 71.4934C85.6342 71.2037 86.1513 71.0588 86.7422 71.0588C87.0831 71.0588 87.4197 71.1156 87.7521 71.2292C88.0845 71.3429 88.3871 71.5275 88.6598 71.7832C88.9325 72.036 89.1499 72.3713 89.3118 72.7889C89.4737 73.2065 89.5547 73.7207 89.5547 74.3315V74.7576H84.5092V73.8883H88.532C88.532 73.519 88.4581 73.1895 88.3104 72.8997C88.1655 72.6099 87.9581 72.3812 87.6882 72.2136C87.4212 72.046 87.1058 71.9622 86.7422 71.9622C86.3416 71.9622 85.995 72.0616 85.7024 72.2605C85.4126 72.4565 85.1896 72.7122 85.0334 73.0275C84.8771 73.3429 84.799 73.6809 84.799 74.0417V74.6213C84.799 75.1156 84.8842 75.5346 85.0547 75.8784C85.228 76.2193 85.468 76.4792 85.7749 76.6582C86.0817 76.8343 86.4382 76.9224 86.8445 76.9224C87.1087 76.9224 87.3473 76.8855 87.5604 76.8116C87.7763 76.7349 87.9624 76.6213 88.1186 76.4707C88.2749 76.3173 88.3956 76.127 88.4808 75.8997L89.4524 76.1724C89.3501 76.502 89.1783 76.7917 88.9368 77.0417C88.6953 77.2889 88.397 77.4821 88.0419 77.6213C87.6868 77.7576 87.2876 77.8258 86.8445 77.8258ZM85.4638 70.0531C85.2848 70.0531 85.1257 69.9849 84.9865 69.8485C84.8501 69.7093 84.782 69.5502 84.782 69.3713C84.782 69.1752 84.8501 69.0133 84.9865 68.8855C85.1257 68.7548 85.2848 68.6895 85.4638 68.6895C85.6598 68.6895 85.8217 68.7548 85.9496 68.8855C86.0803 69.0133 86.1456 69.1752 86.1456 69.3713C86.1456 69.5502 86.0803 69.7093 85.9496 69.8485C85.8217 69.9849 85.6598 70.0531 85.4638 70.0531ZM87.9183 70.0531C87.7393 70.0531 87.5803 69.9849 87.4411 69.8485C87.3047 69.7093 87.2365 69.5502 87.2365 69.3713C87.2365 69.1752 87.3047 69.0133 87.4411 68.8855C87.5803 68.7548 87.7393 68.6895 87.9183 68.6895C88.1143 68.6895 88.2763 68.7548 88.4041 68.8855C88.5348 69.0133 88.6001 69.1752 88.6001 69.3713C88.6001 69.5502 88.5348 69.7093 88.4041 69.8485C88.2763 69.9849 88.1143 70.0531 87.9183 70.0531ZM90.4751 72.0815V71.144H95.7933V72.0815H93.6456V77.6895H92.6399V72.0815H90.4751ZM101.641 73.9565V74.894H98.0273V73.9565H101.641ZM98.266 71.144V77.6895H97.2603V71.144H98.266ZM102.408 71.144V77.6895H101.402V71.144H102.408ZM105.114 73.5133H106.989C107.756 73.5133 108.343 73.7079 108.749 74.0971C109.155 74.4863 109.358 74.9792 109.358 75.5758C109.358 75.9679 109.267 76.3244 109.086 76.6454C108.904 76.9636 108.637 77.2179 108.284 77.4082C107.932 77.5957 107.5 77.6895 106.989 77.6895H104.245V71.144H105.25V76.752H106.989C107.387 76.752 107.713 76.6468 107.969 76.4366C108.225 76.2264 108.353 75.9565 108.353 75.627C108.353 75.2804 108.225 74.9977 107.969 74.7789C107.713 74.5602 107.387 74.4508 106.989 74.4508H105.114V73.5133ZM110.398 77.6895V71.144H111.404V77.6895H110.398ZM115.989 77.8258C115.358 77.8258 114.814 77.6866 114.357 77.4082C113.902 77.127 113.551 76.7349 113.304 76.2321C113.06 75.7264 112.938 75.1383 112.938 74.4679C112.938 73.7974 113.06 73.2065 113.304 72.6951C113.551 72.1809 113.895 71.7804 114.336 71.4934C114.779 71.2037 115.296 71.0588 115.887 71.0588C116.228 71.0588 116.564 71.1156 116.897 71.2292C117.229 71.3429 117.532 71.5275 117.804 71.7832C118.077 72.036 118.294 72.3713 118.456 72.7889C118.618 73.2065 118.699 73.7207 118.699 74.3315V74.7576H113.654V73.8883H117.676C117.676 73.519 117.603 73.1895 117.455 72.8997C117.31 72.6099 117.103 72.3812 116.833 72.2136C116.566 72.046 116.25 71.9622 115.887 71.9622C115.486 71.9622 115.14 72.0616 114.847 72.2605C114.557 72.4565 114.334 72.7122 114.178 73.0275C114.022 73.3429 113.944 73.6809 113.944 74.0417V74.6213C113.944 75.1156 114.029 75.5346 114.199 75.8784C114.373 76.2193 114.613 76.4792 114.919 76.6582C115.226 76.8343 115.583 76.9224 115.989 76.9224C116.253 76.9224 116.492 76.8855 116.705 76.8116C116.921 76.7349 117.107 76.6213 117.263 76.4707C117.419 76.3173 117.54 76.127 117.625 75.8997L118.597 76.1724C118.495 76.502 118.323 76.7917 118.081 77.0417C117.84 77.2889 117.542 77.4821 117.186 77.6213C116.831 77.7576 116.432 77.8258 115.989 77.8258ZM57.0826 92.6895V86.144H58.0882V88.9906H58.753L61.1053 86.144H62.4007L59.7587 89.2974L62.4348 92.6895H61.1394L58.9917 89.9281H58.0882V92.6895H57.0826ZM63.5279 95.144V86.144H64.4995V87.1838H64.6188C64.6926 87.0701 64.7949 86.9252 64.9256 86.7491C65.0591 86.5701 65.2495 86.411 65.4966 86.2718C65.7466 86.1298 66.0847 86.0588 66.5108 86.0588C67.062 86.0588 67.5478 86.1966 67.9682 86.4721C68.3887 86.7477 68.7168 87.1383 68.9526 87.644C69.1884 88.1497 69.3063 88.7463 69.3063 89.4338C69.3063 90.127 69.1884 90.7278 68.9526 91.2363C68.7168 91.742 68.3901 92.1341 67.9725 92.4125C67.5549 92.688 67.0733 92.8258 66.5279 92.8258C66.1074 92.8258 65.7708 92.7562 65.5179 92.617C65.2651 92.475 65.0705 92.3145 64.9341 92.1355C64.7978 91.9537 64.6926 91.8031 64.6188 91.6838H64.5336V95.144H63.5279ZM64.5165 89.4167C64.5165 89.911 64.589 90.3471 64.7338 90.725C64.8787 91.1 65.0904 91.394 65.3688 91.6071C65.6472 91.8173 65.9881 91.9224 66.3915 91.9224C66.812 91.9224 67.1628 91.8116 67.4441 91.59C67.7282 91.3656 67.9412 91.0645 68.0833 90.6866C68.2282 90.3059 68.3006 89.8826 68.3006 89.4167C68.3006 88.9565 68.2296 88.5417 68.0875 88.1724C67.9483 87.8002 67.7367 87.5062 67.4526 87.2903C67.1713 87.0716 66.8176 86.9622 66.3915 86.9622C65.9824 86.9622 65.6387 87.0659 65.3603 87.2733C65.0819 87.4778 64.8716 87.7647 64.7296 88.1341C64.5875 88.5005 64.5165 88.9281 64.5165 89.4167ZM71.7097 88.5133H73.5847C74.3517 88.5133 74.9384 88.7079 75.3446 89.0971C75.7509 89.4863 75.954 89.9792 75.954 90.5758C75.954 90.9679 75.8631 91.3244 75.6813 91.6454C75.4995 91.9636 75.2324 92.2179 74.8801 92.4082C74.5279 92.5957 74.0961 92.6895 73.5847 92.6895H70.8404V86.144H71.8461V91.752H73.5847C73.9824 91.752 74.3091 91.6468 74.5648 91.4366C74.8205 91.2264 74.9483 90.9565 74.9483 90.627C74.9483 90.2804 74.8205 89.9977 74.5648 89.7789C74.3091 89.5602 73.9824 89.4508 73.5847 89.4508H71.7097V88.5133ZM76.9938 92.6895V86.144H77.9995V92.6895H76.9938ZM79.8404 86.144H80.8461V91.752H83.3176V86.144H84.3233V91.752H86.7949V86.144H87.8006V92.6895H79.8404V86.144ZM89.6373 92.6895V86.144H90.6429V88.9906H91.3077L93.66 86.144H94.9554L92.3134 89.2974L94.9895 92.6895H93.6941L91.5463 89.9281H90.6429V92.6895H89.6373ZM97.0882 91.2065L100.242 86.144H101.401V92.6895H100.395V87.627L97.2587 92.6895H96.0826V86.144H97.0882V91.2065Z" fill="#3B3B3B"/>
<path d="M57.9434 248.015L54.9434 244.009H53.8695V248.015H52.8127V239.288H53.8695V243.072H54.3297L57.824 239.288H59.0854L55.557 243.123L59.2047 248.015H57.9434ZM64.8148 244.282V245.22H61.2012V244.282H64.8148ZM61.4398 241.47V248.015H60.4341V241.47H61.4398ZM65.5819 241.47V248.015H64.5762V241.47H65.5819ZM68.4242 246.532L71.5776 241.47H72.7367V248.015H71.731V242.952L68.5946 248.015H67.4185V241.47H68.4242V246.532ZM74.1696 248.015L76.8287 244.691L74.2037 241.47H75.3968L77.5787 244.265H78.1241V241.47H79.1298V244.265H79.6582L81.84 241.47H83.0332L80.4252 244.691L83.0673 248.015H81.8571L79.6412 245.202H79.1298V248.015H78.1241V245.202H77.6127L75.3798 248.015H74.1696ZM88.8851 244.282V245.22H85.2715V244.282H88.8851ZM85.5101 241.47V248.015H84.5044V241.47H85.5101ZM89.6522 241.47V248.015H88.6465V241.47H89.6522ZM92.3581 243.839H94.2331C95.0002 243.839 95.5868 244.033 95.9931 244.423C96.3993 244.812 96.6025 245.305 96.6025 245.901C96.6025 246.293 96.5115 246.65 96.3297 246.971C96.1479 247.289 95.8809 247.543 95.5286 247.734C95.1763 247.921 94.7445 248.015 94.2331 248.015H91.4888V241.47H92.4945V247.077H94.2331C94.6309 247.077 94.9576 246.972 95.2132 246.762C95.4689 246.552 95.5968 246.282 95.5968 245.952C95.5968 245.606 95.4689 245.323 95.2132 245.104C94.9576 244.886 94.6309 244.776 94.2331 244.776H92.3581V243.839ZM97.6422 248.015V241.47H98.6479V248.015H97.6422ZM101.494 246.532L104.648 241.47H105.807V248.015H104.801V242.952L101.665 248.015H100.489V241.47H101.494V246.532ZM103.983 239.288H104.921C104.921 239.748 104.762 240.124 104.443 240.417C104.125 240.71 103.693 240.856 103.148 240.856C102.611 240.856 102.183 240.71 101.865 240.417C101.55 240.124 101.392 239.748 101.392 239.288H102.33C102.33 239.509 102.391 239.704 102.513 239.872C102.638 240.039 102.85 240.123 103.148 240.123C103.446 240.123 103.659 240.039 103.787 239.872C103.918 239.704 103.983 239.509 103.983 239.288ZM71.1397 254.015L71.6511 254.629C71.4522 254.822 71.2221 254.957 70.9608 255.033C70.6994 255.11 70.4039 255.157 70.0744 255.174C69.7449 255.191 69.3784 255.208 68.975 255.225C68.5204 255.242 68.144 255.353 67.8457 255.558C67.5474 255.762 67.3173 256.058 67.1554 256.444C66.9934 256.83 66.8897 257.305 66.8443 257.867H66.9295C67.1511 257.458 67.4579 257.157 67.85 256.964C68.242 256.771 68.6625 256.674 69.1113 256.674C69.6227 256.674 70.0829 256.793 70.492 257.032C70.9011 257.271 71.225 257.624 71.4636 258.093C71.7022 258.562 71.8216 259.14 71.8216 259.827C71.8216 260.512 71.6994 261.103 71.4551 261.6C71.2136 262.097 70.8741 262.481 70.4366 262.751C70.002 263.018 69.492 263.151 68.9068 263.151C68.3216 263.151 67.8088 263.014 67.3684 262.738C66.9281 262.46 66.5858 262.048 66.3414 261.502C66.0971 260.954 65.975 260.276 65.975 259.47V258.771C65.975 257.313 66.2221 256.208 66.7164 255.455C67.2136 254.702 67.9608 254.313 68.9579 254.288C69.3102 254.276 69.6241 254.274 69.8997 254.279C70.1752 254.285 70.4153 254.272 70.6199 254.241C70.8244 254.21 70.9977 254.134 71.1397 254.015ZM68.9068 262.248C69.3017 262.248 69.6412 262.149 69.9252 261.95C70.2122 261.751 70.4324 261.471 70.5858 261.11C70.7392 260.747 70.8159 260.319 70.8159 259.827C70.8159 259.35 70.7377 258.944 70.5815 258.609C70.4281 258.274 70.2079 258.018 69.921 257.842C69.6341 257.666 69.2903 257.577 68.8897 257.577C68.5971 257.577 68.3343 257.627 68.1014 257.727C67.8684 257.826 67.6696 257.972 67.5048 258.166C67.34 258.359 67.2122 258.595 67.1213 258.873C67.0332 259.151 66.9863 259.47 66.9806 259.827C66.9806 260.56 67.1525 261.147 67.4963 261.587C67.84 262.028 68.3102 262.248 68.9068 262.248ZM72.7804 263.015V262.077H73.019C73.215 262.077 73.3784 262.039 73.5091 261.962C73.6397 261.883 73.7449 261.745 73.8244 261.549C73.9068 261.35 73.9693 261.075 74.0119 260.722C74.0574 260.367 74.09 259.916 74.1099 259.367L74.2292 256.47H78.5929V263.015H77.5872V257.407H75.1838L75.0815 259.742C75.0588 260.279 75.0105 260.752 74.9366 261.161C74.8656 261.568 74.7562 261.908 74.6085 262.184C74.4636 262.46 74.2704 262.667 74.0289 262.806C73.7875 262.945 73.4849 263.015 73.1213 263.015H72.7804ZM83.0971 263.151C82.5062 263.151 81.9877 263.011 81.5417 262.729C81.0985 262.448 80.752 262.055 80.502 261.549C80.2548 261.043 80.1312 260.452 80.1312 259.776C80.1312 259.095 80.2548 258.499 80.502 257.991C80.752 257.482 81.0985 257.087 81.5417 256.806C81.9877 256.525 82.5062 256.384 83.0971 256.384C83.688 256.384 84.2051 256.525 84.6483 256.806C85.0943 257.087 85.4409 257.482 85.688 257.991C85.938 258.499 86.063 259.095 86.063 259.776C86.063 260.452 85.938 261.043 85.688 261.549C85.4409 262.055 85.0943 262.448 84.6483 262.729C84.2051 263.011 83.688 263.151 83.0971 263.151ZM83.0971 262.248C83.546 262.248 83.9153 262.133 84.2051 261.903C84.4949 261.673 84.7093 261.37 84.8485 260.995C84.9877 260.62 85.0574 260.214 85.0574 259.776C85.0574 259.339 84.9877 258.931 84.8485 258.553C84.7093 258.176 84.4949 257.87 84.2051 257.637C83.9153 257.404 83.546 257.288 83.0971 257.288C82.6483 257.288 82.2789 257.404 81.9892 257.637C81.6994 257.87 81.4849 258.176 81.3457 258.553C81.2065 258.931 81.1369 259.339 81.1369 259.776C81.1369 260.214 81.2065 260.62 81.3457 260.995C81.4849 261.37 81.6994 261.673 81.9892 261.903C82.2789 262.133 82.6483 262.248 83.0971 262.248ZM87.5982 263.015V256.47H88.6039V259.316H89.2686L91.6209 256.47H92.9164L90.2743 259.623L92.9505 263.015H91.655L89.5073 260.254H88.6039V263.015H87.5982Z" fill="#3B3B3B"/>
<path d="M61.1623 125.303H62.543C63.1907 125.303 63.766 125.448 64.2688 125.737C64.7717 126.027 65.1665 126.431 65.4535 126.948C65.7404 127.465 65.8839 128.064 65.8839 128.746C65.8839 129.428 65.7404 130.029 65.4535 130.548C65.1665 131.068 64.7717 131.475 64.2688 131.767C63.766 132.06 63.1907 132.206 62.543 132.206H61.1623C60.5146 132.206 59.9393 132.061 59.4364 131.771C58.9336 131.482 58.5387 131.078 58.2518 130.561C57.9648 130.044 57.8214 129.445 57.8214 128.763C57.8214 128.081 57.9648 127.48 58.2518 126.96C58.5387 126.441 58.9336 126.034 59.4364 125.742C59.9393 125.449 60.5146 125.303 61.1623 125.303ZM61.1623 126.24C60.668 126.24 60.2504 126.344 59.9094 126.551C59.5714 126.759 59.3143 127.051 59.1381 127.429C58.9648 127.807 58.8782 128.252 58.8782 128.763C58.8782 129.269 58.9648 129.709 59.1381 130.084C59.3143 130.459 59.5714 130.75 59.9094 130.958C60.2504 131.165 60.668 131.269 61.1623 131.269H62.543C63.0373 131.269 63.4535 131.165 63.7915 130.958C64.1325 130.75 64.3896 130.458 64.5629 130.08C64.739 129.702 64.8271 129.257 64.8271 128.746C64.8271 128.24 64.739 127.8 64.5629 127.425C64.3896 127.05 64.1325 126.759 63.7915 126.551C63.4535 126.344 63.0373 126.24 62.543 126.24H61.1623ZM62.3896 124.11V133.348H61.3327V124.11H62.3896ZM70.1772 133.127C69.5863 133.127 69.0678 132.986 68.6218 132.705C68.1786 132.423 67.832 132.03 67.582 131.524C67.3349 131.019 67.2113 130.428 67.2113 129.752C67.2113 129.07 67.3349 128.475 67.582 127.966C67.832 127.458 68.1786 127.063 68.6218 126.781C69.0678 126.5 69.5863 126.36 70.1772 126.36C70.7681 126.36 71.2852 126.5 71.7283 126.781C72.1744 127.063 72.521 127.458 72.7681 127.966C73.0181 128.475 73.1431 129.07 73.1431 129.752C73.1431 130.428 73.0181 131.019 72.7681 131.524C72.521 132.03 72.1744 132.423 71.7283 132.705C71.2852 132.986 70.7681 133.127 70.1772 133.127ZM70.1772 132.223C70.6261 132.223 70.9954 132.108 71.2852 131.878C71.5749 131.648 71.7894 131.345 71.9286 130.97C72.0678 130.595 72.1374 130.189 72.1374 129.752C72.1374 129.314 72.0678 128.906 71.9286 128.529C71.7894 128.151 71.5749 127.845 71.2852 127.612C70.9954 127.379 70.6261 127.263 70.1772 127.263C69.7283 127.263 69.359 127.379 69.0692 127.612C68.7795 127.845 68.565 128.151 68.4258 128.529C68.2866 128.906 68.217 129.314 68.217 129.752C68.217 130.189 68.2866 130.595 68.4258 130.97C68.565 131.345 68.7795 131.648 69.0692 131.878C69.359 132.108 69.7283 132.223 70.1772 132.223ZM74.6783 135.445V126.445H75.6499V127.485H75.7692C75.843 127.371 75.9453 127.226 76.076 127.05C76.2095 126.871 76.3999 126.712 76.647 126.573C76.897 126.431 77.2351 126.36 77.6612 126.36C78.2124 126.36 78.6982 126.497 79.1186 126.773C79.5391 127.048 79.8672 127.439 80.103 127.945C80.3388 128.45 80.4567 129.047 80.4567 129.735C80.4567 130.428 80.3388 131.029 80.103 131.537C79.8672 132.043 79.5405 132.435 79.1229 132.713C78.7053 132.989 78.2237 133.127 77.6783 133.127C77.2578 133.127 76.9212 133.057 76.6683 132.918C76.4155 132.776 76.2209 132.615 76.0845 132.436C75.9482 132.254 75.843 132.104 75.7692 131.985H75.6839V135.445H74.6783ZM75.6669 129.718C75.6669 130.212 75.7393 130.648 75.8842 131.026C76.0291 131.401 76.2408 131.695 76.5192 131.908C76.7976 132.118 77.1385 132.223 77.5419 132.223C77.9624 132.223 78.3132 132.112 78.5945 131.891C78.8786 131.666 79.0916 131.365 79.2337 130.987C79.3786 130.607 79.451 130.183 79.451 129.718C79.451 129.257 79.38 128.843 79.2379 128.473C79.0987 128.101 78.8871 127.807 78.603 127.591C78.3217 127.372 77.968 127.263 77.5419 127.263C77.1328 127.263 76.7891 127.367 76.5107 127.574C76.2322 127.779 76.022 128.066 75.88 128.435C75.7379 128.801 75.6669 129.229 75.6669 129.718ZM81.5817 131.32H82.6555C82.6783 131.615 82.8118 131.84 83.0561 131.993C83.3033 132.146 83.6243 132.223 84.0192 132.223C84.4226 132.223 84.7678 132.141 85.0547 131.976C85.3416 131.808 85.4851 131.539 85.4851 131.166C85.4851 130.948 85.4311 130.757 85.3232 130.595C85.2152 130.431 85.0632 130.303 84.8672 130.212C84.6712 130.121 84.4396 130.075 84.1726 130.075H83.0476V129.172H84.1726C84.5732 129.172 84.8686 129.081 85.0589 128.899C85.2521 128.718 85.3487 128.49 85.3487 128.218C85.3487 127.925 85.245 127.691 85.0376 127.514C84.8303 127.335 84.5362 127.246 84.1555 127.246C83.772 127.246 83.4524 127.333 83.1967 127.506C82.9411 127.676 82.8061 127.896 82.7919 128.166H81.7351C81.7464 127.814 81.8544 127.503 82.0589 127.233C82.2635 126.96 82.5419 126.747 82.8942 126.594C83.2464 126.438 83.6499 126.36 84.1044 126.36C84.5646 126.36 84.9638 126.441 85.3018 126.602C85.6428 126.762 85.9055 126.979 86.0902 127.254C86.2777 127.527 86.3714 127.837 86.3714 128.183C86.3714 128.553 86.2678 128.851 86.0604 129.078C85.853 129.306 85.593 129.468 85.2805 129.564V129.632C85.5277 129.649 85.7422 129.729 85.924 129.871C86.1087 130.01 86.2521 130.193 86.3544 130.421C86.4567 130.645 86.5078 130.894 86.5078 131.166C86.5078 131.564 86.4013 131.911 86.1882 132.206C85.9751 132.499 85.6825 132.726 85.3104 132.888C84.9382 133.047 84.5135 133.127 84.0362 133.127C83.5732 133.127 83.1584 133.051 82.7919 132.901C82.4254 132.747 82.1342 132.536 81.9183 132.266C81.7053 131.993 81.593 131.678 81.5817 131.32ZM89.8466 133.144C89.4318 133.144 89.0554 133.066 88.7173 132.909C88.3793 132.75 88.1108 132.521 87.9119 132.223C87.7131 131.922 87.6136 131.558 87.6136 131.132C87.6136 130.757 87.6875 130.453 87.8352 130.22C87.983 129.985 88.1804 129.8 88.4276 129.666C88.6747 129.533 88.9474 129.433 89.2457 129.368C89.5469 129.3 89.8494 129.246 90.1534 129.206C90.5511 129.155 90.8736 129.117 91.1207 129.091C91.3707 129.063 91.5526 129.016 91.6662 128.95C91.7827 128.885 91.8409 128.771 91.8409 128.61V128.575C91.8409 128.155 91.7259 127.828 91.4957 127.595C91.2685 127.362 90.9233 127.246 90.4602 127.246C89.9801 127.246 89.6037 127.351 89.331 127.561C89.0582 127.771 88.8665 127.996 88.7557 128.235L87.8011 127.894C87.9716 127.496 88.1989 127.186 88.483 126.965C88.7699 126.74 89.0824 126.584 89.4205 126.496C89.7614 126.405 90.0966 126.36 90.4261 126.36C90.6364 126.36 90.8778 126.385 91.1506 126.436C91.4261 126.485 91.6918 126.585 91.9474 126.739C92.206 126.892 92.4205 127.124 92.5909 127.433C92.7614 127.743 92.8466 128.158 92.8466 128.678V132.99H91.8409V132.104H91.7898C91.7216 132.246 91.608 132.398 91.4489 132.56C91.2898 132.722 91.0781 132.86 90.8139 132.973C90.5497 133.087 90.2273 133.144 89.8466 133.144ZM90 132.24C90.3977 132.24 90.733 132.162 91.0057 132.006C91.2813 131.85 91.4886 131.648 91.6278 131.401C91.7699 131.154 91.8409 130.894 91.8409 130.621V129.7C91.7983 129.752 91.7045 129.798 91.5597 129.841C91.4176 129.881 91.2528 129.916 91.0653 129.948C90.8807 129.976 90.7003 130.002 90.5241 130.024C90.3509 130.044 90.2102 130.061 90.1023 130.075C89.8409 130.11 89.5966 130.165 89.3693 130.242C89.1449 130.316 88.9631 130.428 88.8239 130.578C88.6875 130.726 88.6193 130.928 88.6193 131.183C88.6193 131.533 88.7486 131.797 89.0071 131.976C89.2685 132.152 89.5994 132.24 90 132.24ZM99.8299 126.445V132.053H100.75V135.104H99.7447V132.99H94.6822V126.445H95.6879V132.053H98.8242V126.445H99.8299Z" fill="#3B3B3B"/>
<path d="M70.9395 303.316L67.9395 299.31H66.8656V303.316H65.8088V294.589H66.8656V298.373H67.3258L70.8201 294.589H72.0815L68.5531 298.424L72.2008 303.316H70.9395ZM72.8507 303.316V302.378H73.0893C73.2853 302.378 73.4487 302.34 73.5794 302.263C73.71 302.184 73.8152 302.046 73.8947 301.85C73.9771 301.651 74.0396 301.375 74.0822 301.023C74.1277 300.668 74.1603 300.216 74.1802 299.668L74.2995 296.77H78.6632V303.316H77.6575V297.708H75.2541L75.1518 300.043C75.1291 300.58 75.0808 301.053 75.0069 301.462C74.9359 301.868 74.8265 302.209 74.6788 302.485C74.5339 302.76 74.3407 302.968 74.0993 303.107C73.8578 303.246 73.5552 303.316 73.1916 303.316H72.8507ZM83.2527 303.452C82.622 303.452 82.0779 303.313 81.6206 303.035C81.166 302.753 80.8152 302.361 80.568 301.858C80.3237 301.353 80.2015 300.765 80.2015 300.094C80.2015 299.424 80.3237 298.833 80.568 298.321C80.8152 297.807 81.1589 297.407 81.5993 297.12C82.0424 296.83 82.5595 296.685 83.1504 296.685C83.4913 296.685 83.8279 296.742 84.1603 296.856C84.4927 296.969 84.7953 297.154 85.068 297.41C85.3407 297.662 85.5581 297.998 85.72 298.415C85.8819 298.833 85.9629 299.347 85.9629 299.958V300.384H80.9174V299.515H84.9402C84.9402 299.145 84.8663 298.816 84.7186 298.526C84.5737 298.236 84.3663 298.008 84.0964 297.84C83.8294 297.672 83.514 297.589 83.1504 297.589C82.7498 297.589 82.4032 297.688 82.1106 297.887C81.8208 298.083 81.5978 298.339 81.4416 298.654C81.2853 298.969 81.2072 299.307 81.2072 299.668V300.248C81.2072 300.742 81.2924 301.161 81.4629 301.505C81.6362 301.846 81.8762 302.106 82.1831 302.285C82.4899 302.461 82.8464 302.549 83.2527 302.549C83.5169 302.549 83.7555 302.512 83.9686 302.438C84.1845 302.361 84.3706 302.248 84.5268 302.097C84.6831 301.944 84.8038 301.753 84.889 301.526L85.8606 301.799C85.7583 302.128 85.5865 302.418 85.345 302.668C85.1035 302.915 84.8052 303.108 84.4501 303.248C84.095 303.384 83.6958 303.452 83.2527 303.452ZM88.4984 301.833L91.6518 296.77H92.8109V303.316H91.8052V298.253L88.6689 303.316H87.4927V296.77H88.4984V301.833ZM90.987 294.589H91.9245C91.9245 295.049 91.7654 295.425 91.4473 295.718C91.1291 296.01 90.6973 296.157 90.1518 296.157C89.6149 296.157 89.1873 296.01 88.8691 295.718C88.5538 295.425 88.3961 295.049 88.3961 294.589H89.3336C89.3336 294.81 89.3947 295.005 89.5169 295.172C89.6419 295.34 89.8535 295.424 90.1518 295.424C90.4501 295.424 90.6632 295.34 90.791 295.172C90.9217 295.005 90.987 294.81 90.987 294.589Z" fill="#3B3B3B"/>
<path d="M116.143 46.4297H294.404" stroke="black" stroke-linecap="round" stroke-dasharray="1 4"/>
<path d="M126.457 74.584L317.354 74.584" stroke="black" stroke-linecap="round" stroke-dasharray="1 4"/>
<path d="M116.164 244.91L317.354 244.91" stroke="black" stroke-linecap="round" stroke-dasharray="1 4"/>
<path d="M111.668 128.99H216.178" stroke="black" stroke-linecap="round" stroke-dasharray="1 4"/>
<path d="M101.912 299.316L388.928 299.316" stroke="black" stroke-linecap="round" stroke-dasharray="1 4"/>
<defs>
<clipPath id="clip0_1053_40888">
<rect width="379.84" height="428.03" fill="white" transform="translate(197.2 26.06)"/>
</clipPath>
</defs>
</svg>
