<?xml version="1.0" encoding="UTF-8"?>
<svg id="_иллюстрации" data-name="иллюстрации" xmlns="http://www.w3.org/2000/svg" viewBox="0 0 320 173.16">
  <defs>
    <style>
      .cls-1 {
        font-family: GolosText-Regular, 'Golos Text';
        font-size: 5.59px;
      }

      .cls-1, .cls-2, .cls-3, .cls-4, .cls-5, .cls-6, .cls-7, .cls-8, .cls-9 {
        fill: #231f20;
      }

      .cls-2 {
        font-size: 27.5px;
      }

      .cls-2, .cls-5, .cls-6 {
        font-family: IBMPlexSans-SemiBold, 'IBM Plex Sans';
        font-weight: 600;
      }

      .cls-3 {
        font-size: 16.78px;
      }

      .cls-3, .cls-4, .cls-9 {
        font-family: IBMPlexSans-Medium, 'IBM Plex Sans';
        font-weight: 500;
      }

      .cls-10 {
        fill: #dcddde;
      }

      .cls-4 {
        font-size: 21.87px;
      }

      .cls-11 {
        letter-spacing: 0em;
      }

      .cls-5, .cls-7 {
        font-size: 4.47px;
      }

      .cls-12 {
        letter-spacing: 0em;
      }

      .cls-13 {
        letter-spacing: 0em;
      }

      .cls-6, .cls-8, .cls-9 {
        font-size: 5.16px;
      }

      .cls-14 {
        letter-spacing: -.08em;
      }

      .cls-7, .cls-8 {
        font-family: IBMPlexSans-Regular, 'IBM Plex Sans';
      }

      .cls-15 {
        letter-spacing: -.11em;
      }

      .cls-16 {
        letter-spacing: -.02em;
      }

      .cls-17 {
        letter-spacing: -.01em;
      }

      .cls-18 {
        letter-spacing: -.01em;
      }

      .cls-19 {
        letter-spacing: -.02em;
      }

      .cls-20 {
        letter-spacing: -.04em;
      }

      .cls-21 {
        letter-spacing: -.04em;
      }

      .cls-22 {
        letter-spacing: 0em;
      }

      .cls-23 {
        letter-spacing: 0em;
      }

      .cls-24 {
        letter-spacing: 0em;
      }

      .cls-25 {
        letter-spacing: 0em;
      }

      .cls-26 {
        letter-spacing: -.01em;
      }

      .cls-27 {
        letter-spacing: 0em;
      }

      .cls-28 {
        letter-spacing: 0em;
      }

      .cls-29 {
        letter-spacing: 0em;
      }

      .cls-30 {
        letter-spacing: 0em;
      }

      .cls-31 {
        letter-spacing: 0em;
      }

      .cls-32 {
        letter-spacing: .02em;
      }

      .cls-33 {
        letter-spacing: .02em;
      }

      .cls-34 {
        letter-spacing: 0em;
      }

      .cls-35 {
        letter-spacing: 0em;
      }
    </style>
  </defs>
  <rect class="cls-10" x="164.63" width="118.55" height="72.27"/>
  <rect class="cls-10" x="164.63" y="85.6" width="118.55" height="72.29"/>
  <text class="cls-3" transform="translate(217.15 15.31)"><tspan class="cls-14" x="0" y="0">Г</tspan><tspan x="7.2" y="0">ла</tspan><tspan class="cls-30" x="26.23" y="0">в</tspan><tspan x="35.68" y="0">а 1</tspan></text>
  <text class="cls-5" transform="translate(206.12 144.53)"><tspan x="0" y="0">О</tspan><tspan class="cls-35" x="3.18" y="0">с</tspan><tspan class="cls-27" x="5.5" y="0">т</tspan><tspan x="7.64" y="0">ав</tspan><tspan class="cls-20" x="12.69" y="0">ь</tspan><tspan class="cls-28" x="14.94" y="0">т</tspan><tspan class="cls-11" x="17.08" y="0">е свой </tspan><tspan class="cls-23" x="31.74" y="0">о</tspan><tspan class="cls-29" x="34.22" y="0">тзыв! </tspan></text>
  <text class="cls-5" transform="translate(252.26 144.53)"><tspan x="0" y="0"> </tspan></text>
  <text class="cls-7" transform="translate(197.76 149.89)"><tspan x="0" y="0">мы </tspan><tspan class="cls-25" x="7.4" y="0">б</tspan><tspan class="cls-19" x="9.89" y="0">у</tspan><tspan x="12.05" y="0">дем ему очень р</tspan><tspan class="cls-32" x="46.12" y="0">а</tspan><tspan x="48.61" y="0">ды</tspan></text>
  <text class="cls-2" transform="translate(256.71 146.13)"><tspan x="0" y="0">:)</tspan></text>
  <rect class="cls-10" x="36.81" y="85.6" width="118.55" height="72.29"/>
  <text class="cls-6" transform="translate(42.24 137.5)"><tspan class="cls-15" x="0" y="0">Г</tspan><tspan x="2.09" y="0">омбрих, </tspan><tspan class="cls-21" x="23.41" y="0">Э</tspan><tspan x="26.62" y="0">. </tspan><tspan class="cls-34" x="29.38" y="0">Х</tspan><tspan x="32.81" y="0">. </tspan></text>
  <text class="cls-9" transform="translate(77.81 137.5)"><tspan x="0" y="0"> </tspan></text>
  <text class="cls-8" transform="translate(42.24 143.7)"><tspan x="0" y="0">Иск</tspan><tspan class="cls-18" x="9.09" y="0">у</tspan><tspan class="cls-24" x="11.59" y="0">с</tspan><tspan class="cls-12" x="14.16" y="0">с</tspan><tspan x="16.78" y="0">тво и илл</tspan><tspan class="cls-22" x="39.33" y="0">ю</tspan><tspan class="cls-13" x="43.33" y="0">зия: </tspan></text>
  <text class="cls-8" transform="translate(96.67 143.7)"><tspan x="0" y="0"> </tspan></text>
  <text class="cls-8" transform="translate(42.24 149.89)"><tspan x="0" y="0">Пси</tspan><tspan class="cls-26" x="9.21" y="0">х</tspan><tspan class="cls-31" x="11.77" y="0">о</tspan><tspan x="14.65" y="0">логия восприятия (1960).</tspan></text>
  <rect class="cls-10" x="37.24" width="118.55" height="72.27"/>
  <text class="cls-8" transform="translate(71.42 44.85)"><tspan class="cls-33" x="0" y="0">Р</tspan><tspan class="cls-13" x="3.21" y="0">у</tspan><tspan class="cls-16" x="5.79" y="0">к</tspan><tspan x="8.55" y="0">опи</tspan><tspan class="cls-24" x="17.44" y="0">с</tspan><tspan x="20.01" y="0">ей храни</tspan><tspan class="cls-17" x="41.54" y="0">т</tspan><tspan x="43.91" y="0">ся </tspan></text>
  <text class="cls-8" transform="translate(121.89 44.85)"><tspan x="0" y="0"> </tspan></text>
  <text class="cls-8" transform="translate(79.42 51.04)"><tspan x="0" y="0">в нашем музе</tspan></text>
  <text class="cls-4" transform="translate(82.93 35.82)"><tspan x="0" y="0">67</tspan></text>
  <text class="cls-1" transform="translate(36.81 79.74)"><tspan x="0" y="0">а</tspan></text>
  <text class="cls-1" transform="translate(36.81 165.09)"><tspan x="0" y="0">в</tspan></text>
  <text class="cls-1" transform="translate(164.64 79.74)"><tspan x="0" y="0">б</tspan></text>
  <text class="cls-1" transform="translate(164.64 165.09)"><tspan x="0" y="0">г</tspan></text>
</svg>