<svg width="504" height="296" viewBox="0 0 504 296" fill="none" xmlns="http://www.w3.org/2000/svg">
<g clip-path="url(#clip0_966_17276)">
<path d="M0 30C0 13.4315 13.4315 0 30 0H474C490.569 0 504 13.4315 504 30V266C504 282.569 490.569 296 474 296H30C13.4315 296 0 282.569 0 266V30Z" fill="#CECECE"/>
<path opacity="0.1" d="M-5.85742 279.164H505.856" stroke="#3B3B3B" stroke-width="1.78194"/>
<path opacity="0.1" d="M-5.85742 225.707L505.856 225.707" stroke="#3B3B3B" stroke-width="1.78194"/>
<path opacity="0.1" d="M-5.85742 172.246L505.856 172.246" stroke="#3B3B3B" stroke-width="1.78194"/>
<path opacity="0.1" d="M-5.85742 118.787L505.856 118.787" stroke="#3B3B3B" stroke-width="1.78194"/>
<path opacity="0.1" d="M-5.85742 65.332L505.856 65.332" stroke="#3B3B3B" stroke-width="1.78194"/>
<path opacity="0.1" d="M-5.85742 11.875L505.856 11.875" stroke="#3B3B3B" stroke-width="1.78194"/>
<path opacity="0.1" d="M36.167 -27.3281V314.062" stroke="#3B3B3B" stroke-width="1.78194"/>
<path opacity="0.1" d="M87.3975 -27.3281V314.062" stroke="#3B3B3B" stroke-width="1.78194"/>
<path opacity="0.1" d="M138.777 -27.3281V314.062" stroke="#3B3B3B" stroke-width="1.78194"/>
<path opacity="0.1" d="M241.537 -22.5762V318.814" stroke="#3B3B3B" stroke-width="1.78194"/>
<path opacity="0.1" d="M292.612 -22.5762V318.814" stroke="#3B3B3B" stroke-width="1.78194"/>
<path opacity="0.1" d="M343.688 -22.5762V318.814" stroke="#3B3B3B" stroke-width="1.78194"/>
<path opacity="0.1" d="M394.764 -22.5762V318.814" stroke="#3B3B3B" stroke-width="1.78194"/>
<path opacity="0.1" d="M445.839 -22.5762V318.814" stroke="#3B3B3B" stroke-width="1.78194"/>
<path opacity="0.1" d="M496.909 -22.5762V318.814" stroke="#3B3B3B" stroke-width="1.78194"/>
<path opacity="0.1" d="M190.158 -30V311.39" stroke="#3B3B3B" stroke-width="1.78194"/>
<path d="M103.842 132.109L102.097 140.404L97.8554 143.867L101.533 148.565L99.5734 157.96L92.245 164H72.4073L80.4336 126.069H99.0634L103.842 132.109ZM81.2121 146.793L78.5546 159.275H90.5001L94.9562 155.598L96.1642 149.773L93.8019 146.793H81.2121ZM98.4728 133.317L96.4326 130.794H84.6213L82.1785 142.068H92.9161L97.3722 138.391L98.4728 133.317ZM125.209 164L122.122 160.054L119.035 174.442H114.203L122.23 136.78H125.8L125.988 140.753H126.203L130.981 136.78H138.9L142.631 141.558L138.9 159.222L133.075 164H125.209ZM131.196 159.812L134.497 157.128L137.477 143.115L135.813 140.968H131.518L125.048 146.364L123.223 154.927L126.901 159.812H131.196ZM168.428 136.78H171.998L166.227 164H162.657L162.442 160.054H162.227L157.449 164H149.798L146.067 159.222L149.798 141.558L155.624 136.78H163.22L166.281 140.753H166.522L168.428 136.78ZM157.503 140.968L154.201 143.652L151.221 157.665L152.886 159.812H156.885L163.435 154.444L165.207 145.853L161.502 140.968H157.503ZM172.052 159.92L175.944 156.752L178.307 159.812H185.743L189.018 157.128L189.474 155.034L187.273 152.189H180.776L181.662 148.001H187.702L191.004 145.317L191.46 143.115L189.796 140.968H183.434L179.568 144.109L176.884 140.646L181.555 136.78H192.883L196.614 141.558L195.567 146.578L191.729 149.773L194.628 153.504L193.42 159.222L187.595 164H175.22L172.052 159.92ZM208.05 164L204.963 160.054L201.876 174.442H197.044L205.07 136.78H208.64L208.828 140.753H209.043L213.821 136.78H221.74L225.472 141.558L221.74 159.222L215.915 164H208.05ZM214.036 159.812L217.338 157.128L220.318 143.115L218.653 140.968H214.358L207.889 146.364L206.063 154.927L209.741 159.812H214.036ZM251.269 136.78H254.839L249.067 164H245.497L245.282 160.054H245.068L240.29 164H232.639L228.908 159.222L232.639 141.558L238.464 136.78H246.061L249.121 140.753H249.363L251.269 136.78ZM240.343 140.968L237.041 143.652L234.062 157.665L235.726 159.812H239.726L246.276 154.444L248.047 145.853L244.343 140.968H240.343ZM271.267 131.116L267.966 133.827L266.704 139.814L268.851 138.096H279.401L283.132 142.901L279.67 159.222L273.844 164H261.469L257.738 159.222L263.563 131.734L269.388 126.955H279.509L283.24 124.029L285.844 127.224L281.092 131.116H271.267ZM268.905 142.283L265.603 144.968L262.919 157.665L264.556 159.812H271.965L275.267 157.128L277.978 144.431L276.314 142.283H268.905ZM308.768 136.78L312.5 141.558L308.768 159.222L302.943 164H290.568L286.837 159.222L290.568 141.558L296.393 136.78H308.768ZM298.272 140.968L294.971 143.652L291.991 157.665L293.655 159.812H301.064L304.366 157.128L307.346 143.115L305.681 140.968H298.272ZM342.323 140.968L339.022 143.706L334.727 164H329.895L334.297 143.115L332.633 140.968H328.069L324.231 144.162L320.043 164H315.211L320.982 136.78H324.553L325.116 139.035H325.331L328.069 136.78H334.78L337.545 140.297L341.76 136.78H350.403L354.135 141.558L349.41 164H344.578L348.981 143.115L347.316 140.968H342.323ZM377.919 136.78H382.885L373.919 149.826L378.643 164H373.704L369.785 151.893H364.47L361.92 164H357.088L362.859 136.78H367.691L365.329 147.733H370.456L377.919 136.78ZM405.004 159.973L400.172 164H387.475L383.744 159.222L387.475 141.558L393.3 136.78H404.521L408.252 141.558L405.944 152.511H389.998L388.898 157.665L390.562 159.812H398.32L402.32 156.511L405.004 159.973ZM395.179 140.968L391.877 143.652L390.884 148.323H401.998L403.098 143.115L401.434 140.968H395.179ZM413.755 164H408.574L409.621 158.953H414.802L413.755 164ZM424.734 164H419.58L420.627 158.953H425.781L424.734 164ZM435.687 164H430.506L431.553 158.953H436.734L435.687 164Z" fill="#3B3B3B"/>
</g>
<defs>
<clipPath id="clip0_966_17276">
<path d="M0 30C0 13.4315 13.4315 0 30 0H474C490.569 0 504 13.4315 504 30V266C504 282.569 490.569 296 474 296H30C13.4315 296 0 282.569 0 266V30Z" fill="white"/>
</clipPath>
</defs>
</svg>
