<svg width="504" height="296" viewBox="0 0 504 296" fill="none" xmlns="http://www.w3.org/2000/svg">
<g clip-path="url(#clip0_918_15259)">
<path d="M0 30C0 13.4315 13.4315 0 30 0H474C490.569 0 504 13.4315 504 30V266C504 282.569 490.569 296 474 296H30C13.4315 296 0 282.569 0 266V30Z" fill="#FFBD1E"/>
<path opacity="0.1" d="M-4.07471 279.459H507.639" stroke="#3B3B3B" stroke-width="1.78194"/>
<path opacity="0.1" d="M-4.07471 226.002L507.639 226.002" stroke="#3B3B3B" stroke-width="1.78194"/>
<path opacity="0.1" d="M-4.07471 172.541L507.639 172.541" stroke="#3B3B3B" stroke-width="1.78194"/>
<path opacity="0.1" d="M-4.07471 119.082L507.639 119.082" stroke="#3B3B3B" stroke-width="1.78194"/>
<path opacity="0.1" d="M-4.07471 65.627L507.639 65.627" stroke="#3B3B3B" stroke-width="1.78194"/>
<path opacity="0.1" d="M-4.07483 12.1699L507.639 12.1699" stroke="#3B3B3B" stroke-width="1.78194"/>
<path opacity="0.1" d="M37.9492 -27.0332V314.357" stroke="#3B3B3B" stroke-width="1.78194"/>
<path opacity="0.1" d="M89.1803 -27.0332V314.357" stroke="#3B3B3B" stroke-width="1.78194"/>
<path opacity="0.1" d="M140.56 -27.0332V314.357" stroke="#3B3B3B" stroke-width="1.78194"/>
<path opacity="0.1" d="M243.32 -22.2812V319.109" stroke="#3B3B3B" stroke-width="1.78194"/>
<path opacity="0.1" d="M294.395 -22.2812V319.109" stroke="#3B3B3B" stroke-width="1.78194"/>
<path opacity="0.1" d="M345.471 -22.2812V319.109" stroke="#3B3B3B" stroke-width="1.78194"/>
<path opacity="0.1" d="M396.546 -22.2812V319.109" stroke="#3B3B3B" stroke-width="1.78194"/>
<path opacity="0.1" d="M447.621 -22.2812V319.109" stroke="#3B3B3B" stroke-width="1.78194"/>
<path opacity="0.1" d="M498.692 -22.2812V319.109" stroke="#3B3B3B" stroke-width="1.78194"/>
<path opacity="0.1" d="M191.94 -29.7051V311.685" stroke="#3B3B3B" stroke-width="1.78194"/>
<path d="M140.953 123.425L138.524 134.971L132.62 139.791L137.739 146.33L135.012 159.407L124.811 167.814H97.1987L108.371 115.018H134.302L140.953 123.425ZM109.454 143.864L105.755 161.238H122.382L128.585 156.119L130.266 148.011L126.978 143.864H109.454ZM133.48 125.107L130.64 121.594H114.2L110.799 137.288H125.745L131.948 132.169L133.48 125.107ZM166.323 167.814H143.195L151.228 129.927H173.647L178.541 136.204L177.084 143.004L171.367 147.75L175.739 153.28L173.946 161.537L166.323 167.814ZM168.752 154.288L166.473 151.299H153.395L151.153 161.986H163.708L167.855 158.623L168.752 154.288ZM171.367 138.371L169.387 135.756H156.758L154.665 145.47H166.099L170.658 141.734L171.367 138.371ZM212.805 162.21L206.079 167.814H188.406L183.212 161.164L188.406 136.578L196.514 129.927H212.132L217.326 136.578L214.113 151.822H191.918L190.386 158.996L192.703 161.986H203.501L209.068 157.39L212.805 162.21ZM199.129 135.756L194.533 139.492L193.151 145.994H208.62L210.152 138.745L207.835 135.756H199.129ZM253.121 129.927H258.128L248.301 176.072L240.193 182.723H222.893L218.484 177.081L223.902 172.634L227.19 176.931H237.615L242.211 173.158L244.49 162.322L237.839 167.814H227.115L221.922 161.164L227.115 136.578L235.224 129.927H245.872L250.169 135.457H250.468L253.121 129.927ZM237.839 135.756L233.243 139.492L229.096 158.996L231.412 161.986H237.054L246.171 154.438L248.637 142.556L243.481 135.756H237.839ZM291.42 162.21L284.694 167.814H267.021L261.827 161.164L267.021 136.578L275.129 129.927H290.747L295.941 136.578L292.728 151.822H270.533L269.001 158.996L271.318 161.986H282.116L287.683 157.39L291.42 162.21ZM277.744 135.756L273.149 139.492L271.766 145.994H287.235L288.767 138.745L286.45 135.756H277.744ZM328.934 167.814H322.283L325.87 150.814H309.803L306.179 167.814H299.453L307.487 129.927H314.212L310.999 145.022H327.103L330.317 129.927H336.967L328.934 167.814ZM347.691 129.927H354.417L348.326 158.996L350.606 161.986H356.21L365.215 154.513L370.409 129.927H377.172L369.138 167.814H364.169L363.907 162.322H363.608L356.957 167.814H346.309L341.115 161.164L347.691 129.927ZM410.464 162.21L403.738 167.814H386.065L380.871 161.164L386.065 136.578L394.173 129.927H409.791L414.985 136.578L411.771 151.822H389.577L388.045 158.996L390.361 161.986H401.16L406.727 157.39L410.464 162.21ZM396.788 135.756L392.192 139.492L390.81 145.994H406.279L407.811 138.745L405.494 135.756H396.788Z" fill="#3B3B3B"/>
<path d="M-0.53418 512.52L113.196 -10.3103" stroke="#3B3B3B" stroke-width="3.5459" stroke-dasharray="7.09 7.09"/>
<path d="M2.7738 213.551L537.819 210.094" stroke="#3B3B3B" stroke-width="3.5459" stroke-dasharray="7.09 7.09"/>
<path d="M2.7738 73.582L537.819 70.125" stroke="#3B3B3B" stroke-width="3.5459" stroke-dasharray="7.09 7.09"/>
<path d="M366.074 456.533L479.804 -66.2967" stroke="#3B3B3B" stroke-width="3.5459" stroke-dasharray="7.09 7.09"/>
</g>
<defs>
<clipPath id="clip0_918_15259">
<path d="M0 30C0 13.4315 13.4315 0 30 0H474C490.569 0 504 13.4315 504 30V266C504 282.569 490.569 296 474 296H30C13.4315 296 0 282.569 0 266V30Z" fill="white"/>
</clipPath>
</defs>
</svg>
