<svg width="504" height="296" viewBox="0 0 504 296" fill="none" xmlns="http://www.w3.org/2000/svg">
<g clip-path="url(#clip0_918_15349)">
<path d="M0 30C0 13.4315 13.4315 0 30 0H474C490.569 0 504 13.4315 504 30V266C504 282.569 490.569 296 474 296H30C13.4315 296 0 282.569 0 266V30Z" fill="#FF711F"/>
<path opacity="0.1" d="M-4.07471 279.459H507.639" stroke="#3B3B3B" stroke-width="1.78194"/>
<path opacity="0.1" d="M-4.07471 226.002L507.639 226.002" stroke="#3B3B3B" stroke-width="1.78194"/>
<path opacity="0.1" d="M-4.07471 172.541L507.639 172.541" stroke="#3B3B3B" stroke-width="1.78194"/>
<path opacity="0.1" d="M-4.07471 119.082L507.639 119.082" stroke="#3B3B3B" stroke-width="1.78194"/>
<path opacity="0.1" d="M-4.07471 65.627L507.639 65.627" stroke="#3B3B3B" stroke-width="1.78194"/>
<path opacity="0.1" d="M-4.07483 12.1699L507.639 12.1699" stroke="#3B3B3B" stroke-width="1.78194"/>
<path opacity="0.1" d="M37.9492 -27.0332V314.357" stroke="#3B3B3B" stroke-width="1.78194"/>
<path opacity="0.1" d="M89.1803 -27.0332V314.357" stroke="#3B3B3B" stroke-width="1.78194"/>
<path opacity="0.1" d="M140.56 -27.0332V314.357" stroke="#3B3B3B" stroke-width="1.78194"/>
<path opacity="0.1" d="M243.32 -22.2812V319.109" stroke="#3B3B3B" stroke-width="1.78194"/>
<path opacity="0.1" d="M294.395 -22.2812V319.109" stroke="#3B3B3B" stroke-width="1.78194"/>
<path opacity="0.1" d="M345.471 -22.2812V319.109" stroke="#3B3B3B" stroke-width="1.78194"/>
<path opacity="0.1" d="M396.546 -22.2812V319.109" stroke="#3B3B3B" stroke-width="1.78194"/>
<path opacity="0.1" d="M447.621 -22.2812V319.109" stroke="#3B3B3B" stroke-width="1.78194"/>
<path opacity="0.1" d="M498.692 -22.2812V319.109" stroke="#3B3B3B" stroke-width="1.78194"/>
<path opacity="0.1" d="M191.94 -29.7051V311.685" stroke="#3B3B3B" stroke-width="1.78194"/>
<path d="M335.153 37.082L374.374 198.273L144.245 254.267L105.025 93.0761L335.153 37.082Z" fill="#FFFAF1"/>
<path d="M322.511 30.4629L361.732 191.654L131.604 247.648L92.3833 86.4569L322.511 30.4629Z" fill="#3B3B3B"/>
<path d="M77.0919 78.6895L141.292 292.909" stroke="white" stroke-width="3.20667" stroke-dasharray="6.41 6.41"/>
<path d="M76.7273 79.2871L402.208 -5.46905" stroke="white" stroke-width="3.20667" stroke-dasharray="6.41 6.41"/>
<path d="M79.5555 78.916L484.725 343.427" stroke="white" stroke-width="3.20667" stroke-dasharray="6.41 6.41"/>
<path d="M127.134 65.703C134.318 92.0949 118.747 119.314 92.3553 126.498" stroke="white" stroke-width="3.20667" stroke-dasharray="6.41 6.41"/>
<path d="M316.844 203.351C309.764 176.931 325.443 149.775 351.864 142.695" stroke="white" stroke-width="3.20667" stroke-dasharray="6.41 6.41"/>
</g>
<defs>
<clipPath id="clip0_918_15349">
<path d="M0 30C0 13.4315 13.4315 0 30 0H474C490.569 0 504 13.4315 504 30V266C504 282.569 490.569 296 474 296H30C13.4315 296 0 282.569 0 266V30Z" fill="white"/>
</clipPath>
</defs>
</svg>
