<svg width="504" height="296" viewBox="0 0 504 296" fill="none" xmlns="http://www.w3.org/2000/svg">
<g clip-path="url(#clip0_918_15377)">
<path d="M0 30C0 13.4315 13.4315 0 30 0H474C490.569 0 504 13.4315 504 30V266C504 282.569 490.569 296 474 296H30C13.4315 296 0 282.569 0 266V30Z" fill="#FFBD1E"/>
<path opacity="0.1" d="M-4.07471 279.459H507.639" stroke="#3B3B3B" stroke-width="1.78194"/>
<path opacity="0.1" d="M-4.07471 226.002L507.639 226.002" stroke="#3B3B3B" stroke-width="1.78194"/>
<path opacity="0.1" d="M-4.07471 172.541L507.639 172.541" stroke="#3B3B3B" stroke-width="1.78194"/>
<path opacity="0.1" d="M-4.07471 119.082L507.639 119.082" stroke="#3B3B3B" stroke-width="1.78194"/>
<path opacity="0.1" d="M-4.07471 65.627L507.639 65.627" stroke="#3B3B3B" stroke-width="1.78194"/>
<path opacity="0.1" d="M-4.07483 12.1699L507.639 12.1699" stroke="#3B3B3B" stroke-width="1.78194"/>
<path opacity="0.1" d="M37.9492 -27.0332V314.357" stroke="#3B3B3B" stroke-width="1.78194"/>
<path opacity="0.1" d="M89.1803 -27.0332V314.357" stroke="#3B3B3B" stroke-width="1.78194"/>
<path opacity="0.1" d="M140.56 -27.0332V314.357" stroke="#3B3B3B" stroke-width="1.78194"/>
<path opacity="0.1" d="M243.32 -22.2812V319.109" stroke="#3B3B3B" stroke-width="1.78194"/>
<path opacity="0.1" d="M294.395 -22.2812V319.109" stroke="#3B3B3B" stroke-width="1.78194"/>
<path opacity="0.1" d="M345.471 -22.2812V319.109" stroke="#3B3B3B" stroke-width="1.78194"/>
<path opacity="0.1" d="M396.546 -22.2812V319.109" stroke="#3B3B3B" stroke-width="1.78194"/>
<path opacity="0.1" d="M447.621 -22.2812V319.109" stroke="#3B3B3B" stroke-width="1.78194"/>
<path opacity="0.1" d="M498.692 -22.2812V319.109" stroke="#3B3B3B" stroke-width="1.78194"/>
<path opacity="0.1" d="M191.94 -29.7051V311.685" stroke="#3B3B3B" stroke-width="1.78194"/>
<rect x="77.8905" y="40.9892" width="66.4849" height="92.8864" fill="white" stroke="#FFBD1E" stroke-width="1.60333"/>
<rect x="144.592" y="40.9892" width="66.4849" height="92.8864" fill="white" stroke="#FFBD1E" stroke-width="1.60333"/>
<rect x="145.971" y="156.323" width="66.4849" height="92.8864" fill="white" stroke="#FFBD1E" stroke-width="1.60333"/>
<rect x="212.672" y="156.323" width="66.4849" height="92.8864" fill="white" stroke="#FFBD1E" stroke-width="1.60333"/>
<rect x="229.345" y="40.9892" width="66.4849" height="92.8864" fill="white" stroke="#FFBD1E" stroke-width="1.60333"/>
<rect x="296.046" y="40.9892" width="66.4849" height="92.8864" fill="white" stroke="#FFBD1E" stroke-width="1.60333"/>
<rect x="297.435" y="156.323" width="66.4849" height="92.8864" fill="white" stroke="#FFBD1E" stroke-width="1.60333"/>
<rect x="364.136" y="156.323" width="66.4849" height="92.8864" fill="white" stroke="#FFBD1E" stroke-width="1.60333"/>
<path d="M255.054 82.7807L252.862 64.3971L238.037 75.4868L255.054 82.7807ZM166.87 94.5944L168.319 95.2821C168.734 94.4082 169.225 93.5246 169.79 92.6357L168.436 91.7759L167.083 90.9161C166.454 91.9056 165.898 92.9039 165.422 93.9067L166.87 94.5944ZM172.412 86.6618L173.592 87.7475C174.943 86.2791 176.466 84.8305 178.139 83.4231L177.106 82.1964L176.074 80.9696C174.307 82.4563 172.684 83.9984 171.232 85.5762L172.412 86.6618ZM182.273 78.2937L183.174 79.6195C184.883 78.4577 186.687 77.3466 188.569 76.3006L187.791 74.8991L187.012 73.4976C185.047 74.5891 183.161 75.7506 181.371 76.9679L182.273 78.2937ZM193.584 71.9967L194.24 73.4593C196.156 72.5989 198.125 71.8109 200.131 71.1074L199.6 69.5944L199.07 68.0814C196.976 68.8155 194.923 69.6373 192.927 70.5342L193.584 71.9967ZM205.801 67.7215L206.195 69.2756C208.245 68.7555 210.315 68.3309 212.391 68.0131L212.148 66.4283L211.905 64.8434C209.723 65.1775 207.552 65.6231 205.406 66.1674L205.801 67.7215ZM218.594 65.7878L218.664 67.3896C220.774 67.2969 222.872 67.327 224.942 67.4914L225.069 65.8931L225.196 64.2947C222.986 64.1193 220.756 64.0879 218.523 64.186L218.594 65.7878ZM231.471 66.8486L231.121 68.4132C233.151 68.8676 235.137 69.4723 237.063 70.239L237.656 68.7494L238.249 67.2597C236.158 66.427 234.009 65.7735 231.821 65.2839L231.471 66.8486ZM243.44 71.6438L242.602 73.0102C244.33 74.071 245.992 75.2954 247.573 76.6956L248.636 75.4953L249.699 74.295C247.977 72.7699 246.165 71.4346 244.279 70.2773L243.44 71.6438Z" fill="black"/>
<path d="M267.743 172.43L283.807 181.633L283.745 163.12L267.743 172.43ZM310.845 94.5967L309.43 95.3493C309.884 96.2034 310.3 97.1248 310.677 98.1082L312.174 97.5346L313.671 96.9609C313.252 95.8663 312.782 94.8243 312.261 93.8441L310.845 94.5967ZM313.908 103.776L312.333 104.075C312.706 106.036 312.961 108.122 313.093 110.304L314.694 110.207L316.294 110.11C316.154 107.805 315.884 105.582 315.483 103.476L313.908 103.776ZM314.746 116.681L313.144 116.615C313.058 118.679 312.874 120.79 312.591 122.925L314.18 123.135L315.77 123.346C316.065 121.118 316.257 118.911 316.348 116.748L314.746 116.681ZM313.056 129.516L311.49 129.171C311.038 131.222 310.497 133.272 309.865 135.302L311.396 135.779L312.927 136.255C313.586 134.137 314.151 131.999 314.621 129.861L313.056 129.516ZM309.202 141.873L307.719 141.263C306.914 143.218 306.021 145.133 305.038 146.989L306.455 147.739L307.872 148.49C308.905 146.539 309.842 144.53 310.685 142.483L309.202 141.873ZM303.126 153.295L301.798 152.397C300.614 154.146 299.339 155.812 297.973 157.375L299.18 158.43L300.387 159.485C301.846 157.816 303.2 156.045 304.453 154.194L303.126 153.295ZM294.595 163L293.548 161.786C291.972 163.145 290.302 164.379 288.539 165.467L289.381 166.832L290.223 168.196C292.139 167.013 293.945 165.678 295.642 164.214L294.595 163ZM283.608 169.749L283.011 168.261C281.129 169.016 279.155 169.62 277.088 170.054L277.418 171.623L277.748 173.192C279.999 172.719 282.151 172.061 284.205 171.237L283.608 169.749Z" fill="black"/>
<path d="M340.001 206.037L335.017 188.207L322.067 201.439L340.001 206.037ZM254.671 231.232L256.208 231.689C256.484 230.762 256.834 229.813 257.256 228.849L255.787 228.206L254.318 227.564C253.848 228.638 253.452 229.71 253.135 230.774L254.671 231.232ZM258.931 222.543L260.264 223.435C261.374 221.777 262.657 220.112 264.094 218.465L262.886 217.411L261.678 216.357C260.16 218.097 258.792 219.87 257.599 221.651L258.931 222.543ZM267.393 212.762L268.487 213.934C269.997 212.524 271.609 211.149 273.309 209.827L272.325 208.562L271.34 207.296C269.567 208.676 267.881 210.113 266.298 211.59L267.393 212.762ZM277.604 204.805L278.478 206.15C280.239 205.006 282.063 203.926 283.938 202.923L283.182 201.509L282.425 200.095C280.469 201.142 278.566 202.269 276.731 203.461L277.604 204.805ZM289.021 198.708L289.649 200.183C291.595 199.355 293.576 198.618 295.578 197.985L295.096 196.457L294.613 194.928C292.508 195.592 290.43 196.366 288.394 197.232L289.021 198.708ZM301.367 194.835L301.682 196.407C303.753 195.992 305.83 195.701 307.901 195.546L307.781 193.947L307.662 192.348C305.451 192.513 303.243 192.824 301.052 193.263L301.367 194.835ZM314.255 193.909L314.148 195.509C316.225 195.647 318.28 195.94 320.3 196.402L320.658 194.839L321.016 193.276C318.821 192.774 316.597 192.458 314.361 192.309L314.255 193.909ZM326.818 196.813L326.198 198.291C328.069 199.075 329.899 200.03 331.676 201.171L332.542 199.822L333.409 198.473C331.473 197.23 329.478 196.188 327.437 195.334L326.818 196.813Z" fill="black"/>
</g>
<defs>
<clipPath id="clip0_918_15377">
<path d="M0 30C0 13.4315 13.4315 0 30 0H474C490.569 0 504 13.4315 504 30V266C504 282.569 490.569 296 474 296H30C13.4315 296 0 282.569 0 266V30Z" fill="white"/>
</clipPath>
</defs>
</svg>
