<svg width="1920" height="874" viewBox="0 0 1920 874" fill="none" xmlns="http://www.w3.org/2000/svg">
<g clip-path="url(#clip0_888_11541)">
<rect width="1920" height="874" fill="#1FAE62"/>
<path d="M50 883.651L50 -83.4282" stroke="#FFFAF1" stroke-width="2.45557" stroke-dasharray="8.42 10.52"/>
<path d="M929.295 883.65L929.295 -83.4292" stroke="#FFFAF1" stroke-width="2.45557" stroke-dasharray="8.42 10.52"/>
<path d="M990.705 883.65L990.705 -83.4292" stroke="#FFFAF1" stroke-width="2.45557" stroke-dasharray="8.42 10.52"/>
<path d="M1408.74 883.651L1408.74 -83.4282" stroke="#FFFAF1" stroke-width="2.45557" stroke-dasharray="8.42 10.52"/>
<path d="M1868.8 883.651L1868.8 -83.4282" stroke="#FFFAF1" stroke-width="2.45557" stroke-dasharray="8.42 10.52"/>
<path d="M1991.72 837.329L-77.7188 837.329" stroke="#FFFAF1" stroke-width="2.45557" stroke-dasharray="8.42 10.52"/>
<path d="M1991.72 178.32L-77.7188 178.32" stroke="#FFFAF1" stroke-width="2.45557" stroke-dasharray="8.42 10.52"/>
<rect x="1251.96" y="307.521" width="327.927" height="115.954" transform="rotate(-3 1251.96 307.521)" fill="#FFFAF1"/>
<path d="M1326.14 388.015H1317.87L1304.49 348.992L1302.81 341.377H1302.35V388.015H1294.78V329.851H1306.59L1320.42 371.138L1322.11 377.889H1322.44L1324.13 371.138L1337.42 329.851H1349.15V388.015H1341.25V341.377H1340.8L1339.03 348.992L1326.14 388.015ZM1404.06 388.015H1395.71L1391.26 373.772H1371.79L1367.47 388.015H1359.73L1377.43 329.851H1385.79L1404.06 388.015ZM1381.14 339.977L1380.06 346.275L1373.97 366.528H1389L1382.66 346.275L1381.55 339.977H1381.14ZM1443.99 329.851H1452.59L1440.28 358.007L1455.02 388.015H1446.09L1433.29 361.876H1422.58V388.015H1414.64V329.851H1422.58V354.631H1433.53L1443.99 329.851ZM1499.51 361.959H1475.19V380.77H1502.23V388.015H1467.24V329.851H1502.23V337.096H1475.19V354.714H1499.51V361.959ZM1552.94 329.851V337.096H1536.19V388.015H1528.24V337.096H1511.45V329.851H1552.94Z" fill="#3B3B3B"/>
<path d="M1234.23 285.661H1230.47V282.434H1237.77V305.115H1241.82V308.342H1230.14V305.115H1234.23V285.661Z" fill="#FFFAF1"/>
<rect x="1207.31" y="454.543" width="427.17" height="115.954" transform="rotate(2 1207.31 454.543)" fill="#3B3B3B"/>
<path d="M1288.3 496.19V508.91L1282.99 514.22L1290.15 521.423V535.83L1280.85 545.092H1250.43V486.929H1279L1288.3 496.19ZM1258.37 518.706V537.847H1276.9L1282.21 532.537V524.016L1276.9 518.706H1258.37ZM1280.36 499.483L1275.05 494.173H1258.37V511.462H1275.54L1280.36 506.646V499.483ZM1338.02 519.036H1313.69V537.847H1340.74V545.092H1305.75V486.929H1340.74V494.173H1313.69V511.791H1338.02V519.036ZM1364.24 522.823V545.092H1356.29V486.929H1384.86L1394.16 496.19V516.072L1384.86 525.375H1367.61L1364.24 522.823ZM1386.22 499.483L1380.91 494.173H1364.24V518.13H1380.91L1386.22 512.82V499.483ZM1422.52 494.173L1417.21 499.483V532.537L1422.52 537.847H1437.63L1444.63 531.096L1450.18 536.653L1441.58 545.092H1418.57L1409.31 535.83V496.19L1418.57 486.929H1440.59L1448.66 494.914L1443.1 500.512L1436.6 494.173H1422.52ZM1496.65 486.929V494.173H1479.9V545.092H1471.96V494.173H1455.16V486.929H1496.65ZM1537.36 486.929H1545.96L1533.66 515.084L1548.39 545.092H1539.46L1526.66 518.953H1515.96V545.092H1508.01V486.929H1515.96V511.709H1526.91L1537.36 486.929ZM1597.78 545.092H1589.43L1584.98 530.849H1565.51L1561.19 545.092H1553.45L1571.15 486.929H1579.51L1597.78 545.092ZM1574.86 497.055L1573.79 503.353L1567.69 523.605H1582.72L1576.38 503.353L1575.27 497.055H1574.86Z" fill="#FFFAF1"/>
<path d="M1195.9 426.431L1200.05 430.557V437.139L1187.94 449.002V449.112H1200.45V452.339H1183.36V449.112L1196.51 435.892V432.023L1194.14 429.658H1189.01L1186.11 432.482L1183.64 429.988L1187.23 426.431H1195.9Z" fill="#FFFAF1"/>
<rect x="1165.02" y="622.338" width="505.49" height="115.954" transform="rotate(-1 1165.02 622.338)" fill="#FFFAF1"/>
<path d="M1255.19 703.953H1247.25V653.035H1223.5V703.953H1215.55V645.79H1255.19V703.953ZM1280.79 681.684V703.953H1272.85V645.79H1301.42L1310.72 655.052V674.933L1301.42 684.236H1284.17L1280.79 681.684ZM1302.78 658.345L1297.47 653.035H1280.79V676.991H1297.47L1302.78 671.681V658.345ZM1358.55 677.897H1334.22V696.708H1361.27V703.953H1326.28V645.79H1361.27V653.035H1334.22V670.652H1358.55V677.897ZM1416.46 703.953H1408.52V653.035H1384.77V703.953H1376.82V645.79H1416.46V703.953ZM1442.06 681.684V703.953H1434.12V645.79H1462.68L1471.99 655.052V674.933L1462.68 684.236H1445.44L1442.06 681.684ZM1464.04 658.345L1458.73 653.035H1442.06V676.991H1458.73L1464.04 671.681V658.345ZM1519.81 677.897H1495.49V696.708H1522.53V703.953H1487.54V645.79H1522.53V653.035H1495.49V670.652H1519.81V677.897ZM1550.89 653.035L1545.58 658.345V691.398L1550.89 696.708H1566L1572.99 689.958L1578.55 695.515L1569.95 703.953H1546.94L1537.68 694.691V655.052L1546.94 645.79H1568.96L1577.03 653.775L1571.47 659.374L1564.97 653.035H1550.89ZM1602.67 653.035L1597.36 658.345V691.398L1602.67 696.708H1617.78L1624.77 689.958L1630.33 695.515L1621.73 703.953H1598.72L1589.46 694.691V655.052L1598.72 645.79H1620.74L1628.81 653.775L1623.25 659.374L1616.75 653.035H1602.67Z" fill="#FF711F"/>
<path d="M1154.1 600.593L1158.23 604.719V611.594L1154.1 615.72H1144.29L1140.7 612.144L1143.17 609.669L1146.07 612.493H1152.34L1154.71 610.127V606.185L1152.34 603.82H1144.29V600.593L1152.75 593.149V593.039H1142.04V589.812H1157.51V593.039L1149.02 600.483V600.593H1154.1Z" fill="#FFFAF1"/>
<path d="M883.966 563.165L1023.06 1134.82L128.739 1352.42L-10.3542 780.768L883.966 563.165Z" fill="#FFFAF1"/>
<path d="M839.145 539.687L978.238 1111.34L42.7999 1338.95L-96.2934 767.294L839.145 539.687Z" fill="#3B3B3B"/>
<path d="M438.377 637.989C436.807 631.212 433.262 625.053 428.191 620.29C423.12 615.528 416.75 612.376 409.888 611.234C403.026 610.091 395.979 611.009 389.638 613.872C383.298 616.735 377.948 621.413 374.267 627.316C370.585 633.219 368.737 640.08 368.955 647.034C369.173 653.987 371.449 660.719 375.493 666.38C379.538 672.04 385.17 676.374 391.678 678.833C398.185 681.292 405.276 681.766 412.053 680.196" stroke="#FFFAF1" stroke-width="2.79051"/>
<path d="M273.65 677.405C272.08 670.628 268.535 664.469 263.464 659.706C258.393 654.944 252.023 651.792 245.161 650.65C238.299 649.507 231.252 650.425 224.911 653.288C218.571 656.151 213.221 660.829 209.54 666.732C205.858 672.635 204.01 679.496 204.228 686.45C204.446 693.403 206.722 700.135 210.766 705.796C214.811 711.456 220.443 715.79 226.95 718.249C233.458 720.708 240.549 721.182 247.326 719.612" stroke="#FFFAF1" stroke-width="2.79051"/>
<path d="M113.387 715.611C111.817 708.834 108.272 702.675 103.201 697.912C98.1294 693.15 91.76 689.998 84.8977 688.856C78.0354 687.713 70.9885 688.631 64.648 691.494C58.3075 694.357 52.9582 699.035 49.2767 704.938C45.5951 710.841 43.7466 717.702 43.9649 724.656C44.1832 731.609 46.4584 738.342 50.503 744.002C54.5475 749.662 60.1797 753.996 66.6873 756.455C73.1948 758.914 80.2855 759.388 87.0626 757.818" stroke="#FFFAF1" stroke-width="2.79051"/>
<path d="M590.346 601.199C588.776 594.422 585.231 588.263 580.159 583.5C575.088 578.738 568.719 575.586 561.857 574.444C554.994 573.301 547.947 574.219 541.607 577.082C535.266 579.945 529.917 584.623 526.236 590.526C522.554 596.428 520.706 603.29 520.924 610.244C521.142 617.197 523.417 623.929 527.462 629.59C531.507 635.25 537.139 639.584 543.646 642.043C550.154 644.502 557.244 644.976 564.022 643.406" stroke="#FFFAF1" stroke-width="2.79051"/>
<path d="M742.315 564.41C740.744 557.633 737.199 551.473 732.128 546.711C727.057 541.949 720.688 538.797 713.825 537.655C706.963 536.512 699.916 537.43 693.576 540.293C687.235 543.155 681.886 547.834 678.204 553.737C674.523 559.639 672.674 566.501 672.893 573.455C673.111 580.408 675.386 587.14 679.431 592.801C683.475 598.461 689.107 602.794 695.615 605.254C702.123 607.713 709.213 608.187 715.99 606.617" stroke="#FFFAF1" stroke-width="2.79051"/>
<path d="M50 342.188H929.295" stroke="#FFFAF1" stroke-width="2.80637"/>
<path d="M50 452.339H929.295" stroke="#FFFAF1" stroke-width="2.80637"/>
<path d="M348.217 295.214H331.406L323.839 260.474H331.406L337.146 288.654H349.522L354.554 260.474H361.785L353.696 304.757L345.31 313.144H331.779V306.583H342.253L347.061 301.775L348.217 295.214ZM396.485 295.736H380.867L372.443 287.349V260.474H379.637V284.367L384.445 289.176H399.542V260.474H406.736V313.144H399.542V293.462L396.485 295.736ZM451.947 289.548H429.918V306.583H454.408V313.144H422.724V260.474H454.408V267.034H429.918V282.988H451.947V289.548ZM478.745 280.304H495.519L503.906 288.728V304.757L495.519 313.144H468.495V260.474H500.328V267.034H475.689V282.615L478.745 280.304ZM475.689 286.865V306.583H491.941L496.749 301.775V291.71L491.941 286.865H475.689ZM554.411 313.144H547.217V289.027H525.262V313.144H518.067V260.474H525.262V282.466H547.217V260.474H554.411V313.144ZM597.87 260.474H606.444V313.144H599.25V271.172H598.951L596.827 277.248L578.711 313.144H570.473V260.474H577.667V302.446H577.966L580.09 296.333L597.87 260.474ZM649.009 260.474H656.799L645.654 285.97L658.998 313.144H650.91L639.317 289.474H629.626V313.144H622.432V260.474H629.626V282.913H639.541L649.009 260.474ZM195.625 420.144H188.431V374.034H166.923V420.144H159.729V367.474H195.625V420.144ZM248.888 375.861V411.757L240.464 420.144H219.627L211.24 411.757V375.861L219.627 367.474H240.464L248.888 375.861ZM223.205 374.034L218.397 378.843V408.775L223.205 413.583H236.885L241.694 408.775V378.843L236.885 374.034H223.205ZM288.058 367.474H317.021V413.583H322.724V430.059H315.567V420.144H283.585V430.059H276.391V413.583H279.895L282.951 410.527L288.058 367.474ZM309.827 374.034H294.469L290.071 410.228L286.53 413.583H309.827V374.034ZM361.561 367.474H370.135V420.144H362.941V378.172H362.642L360.518 384.248L342.402 420.144H334.164V367.474H341.358V409.446H341.657L343.781 403.333L361.561 367.474ZM381.165 412.502L386.197 407.47L392.534 413.583H407.034L411.843 408.775V401.059L407.034 396.25H394.659V390.137H405.804L410.165 385.776V378.843L405.357 374.034H393.391L387.502 379.775L382.47 374.705L389.776 367.474H408.935L417.359 375.861V387.379L412.551 392.187L419.037 398.71V411.757L410.612 420.144H388.956L381.165 412.502ZM466.82 420.144H459.253L455.228 407.246H437.597L433.683 420.144H426.675L442.703 367.474H450.27L466.82 420.144ZM446.058 376.644L445.089 382.347L439.572 400.686H453.178L447.437 382.347L446.431 376.644H446.058ZM490.748 358.155H498.986L500.439 356.701V353.719H505.472V359.311L502.34 362.442H487.393L484.262 359.311V353.719H489.294V356.701L490.748 358.155ZM503.794 367.474H512.367V420.144H505.173V378.172H504.875L502.75 384.248L484.635 420.144H476.397V367.474H483.591V409.446H483.889L486.014 403.333L503.794 367.474ZM564.699 420.144H557.505V396.027H535.55V420.144H528.355V367.474H535.55V389.466H557.505V367.474H564.699V420.144ZM600.927 402.214H584.116L576.549 367.474H584.116L589.856 395.654H602.232L607.264 367.474H614.495L606.406 411.757L598.019 420.144H584.489V413.583H594.963L599.771 408.775L600.927 402.214ZM671.222 367.474H679.012L667.867 392.97L681.212 420.144H673.123L661.53 396.474H651.839V420.144H644.645V367.474H651.839V389.913H661.754L671.222 367.474ZM728.622 420.144H721.428V396.027H699.473V420.144H692.279V367.474H699.473V389.466H721.428V367.474H728.622V420.144ZM772.082 367.474H780.655V420.144H773.461V378.172H773.163L771.038 384.248L752.923 420.144H744.685V367.474H751.879V409.446H752.177L754.302 403.333L772.082 367.474ZM796.643 367.474H828.103V374.034H803.837V420.144H796.643V367.474Z" fill="#FFFAF1"/>
</g>
<defs>
<clipPath id="clip0_888_11541">
<rect width="1920" height="874" fill="white"/>
</clipPath>
</defs>
</svg>
