<svg width="1280" height="503" viewBox="0 0 1280 503" fill="none" xmlns="http://www.w3.org/2000/svg">
<g clip-path="url(#clip0_928_15655)">
<rect width="1280" height="503" fill="#FF711F"/>
<path d="M313.698 1511.89C702.284 1352.62 888.177 908.486 728.901 519.899C569.625 131.313 125.494 -54.5797 -263.092 104.696" stroke="white" stroke-width="3.19583" stroke-dasharray="11.98 11.98"/>
<path d="M1157.89 -1067.12C838.4 -794.543 800.369 -314.583 1072.94 4.90375C1345.52 324.391 1825.47 362.422 2144.96 89.8486" stroke="white" stroke-width="3.19583" stroke-dasharray="11.98 11.98"/>
<rect x="570.909" y="223.105" width="424.783" height="115.306" transform="rotate(-9.14205 570.909 223.105)" fill="#FFFAF1"/>
<path d="M717.452 271.721L731.861 241.881L719.949 213.882H728.422L738.656 238.524H746.965V213.882H754.824V238.524H763.134L773.367 213.882H781.84L769.928 241.881L784.337 271.721H775.373L762.97 245.728H754.824V271.721H746.965V245.728H738.819L726.417 271.721H717.452ZM802.18 213.882H833.985V264.517H840.248V282.609H832.389V271.721H797.268V282.609H789.368V264.517H793.216L796.573 261.16L802.18 213.882ZM826.085 221.087H809.221L804.391 260.833L800.502 264.517H826.085V221.087ZM884.903 245.81H860.711V264.517H887.604V271.721H852.811V213.882H887.604V221.087H860.711V238.606H884.903V245.81ZM938.03 213.882V221.087H921.37V271.721H913.47V221.087H896.77V213.882H938.03Z" fill="#3B3B3B"/>
<rect x="275.409" y="175.629" width="424.783" height="115.306" transform="rotate(2 275.409 175.629)" fill="#3B3B3B"/>
<path d="M330.943 252.625H313.792L304.541 243.415V213.902H312.441V240.14L317.721 245.42H334.299V213.902H342.199V271.74H334.299V250.128L330.943 252.625ZM394.713 213.902V221.106H378.053V271.74H370.153V221.106H353.452V213.902H394.713ZM445.221 223.112V262.53L435.97 271.74H413.088L403.878 262.53V223.112L413.088 213.902H435.97L445.221 223.112ZM417.018 221.106L411.738 226.387V259.256L417.018 264.536H432.04L437.321 259.256V226.387L432.04 221.106H417.018ZM514.145 213.902V221.106H497.486V271.74H489.585V221.106H472.885V213.902H514.145ZM557.531 245.83H533.34V264.536H560.232V271.74H525.439V213.902H560.232V221.106H533.34V238.625H557.531V245.83ZM586.958 235.678H605.378L614.588 244.929V262.53L605.378 271.74H575.702V213.902H610.659V221.106H583.602V238.216L586.958 235.678ZM583.602 242.883V264.536H601.449L606.729 259.256V248.204L601.449 242.883H583.602ZM657.974 250.373H647.086L635.583 271.74H626.783L638.612 250.046L629.034 240.877V223.112L638.285 213.902H665.874V271.74H657.974V250.373ZM657.974 243.169V221.106H642.215L636.934 226.387V237.889L642.215 243.169H657.974Z" fill="#FFFAF1"/>
</g>
<defs>
<clipPath id="clip0_928_15655">
<rect width="1280" height="503" fill="white"/>
</clipPath>
</defs>
</svg>
