<?xml version="1.0" encoding="UTF-8"?>
<svg id="_иллюстрации" data-name="иллюстрации" xmlns="http://www.w3.org/2000/svg" viewBox="0 0 320 147">
  <defs>
    <style>
      .cls-1 {
        font-family: GothicA1-Medium, 'Gothic A1';
        font-size: 8px;
        font-weight: 500;
      }

      .cls-2 {
        fill: #d1d3d4;
      }

      .cls-3, .cls-4, .cls-5, .cls-6 {
        stroke: #231f20;
      }

      .cls-3, .cls-4, .cls-5, .cls-6, .cls-7 {
        fill: none;
      }

      .cls-3, .cls-4, .cls-6, .cls-7 {
        stroke-width: .5px;
      }

      .cls-3, .cls-6 {
        stroke-linecap: round;
      }

      .cls-5 {
        stroke-width: .79px;
      }

      .cls-8 {
        fill: #ffe06a;
      }

      .cls-6 {
        stroke-dasharray: .99 1.99;
      }

      .cls-7 {
        stroke: #d1d3d4;
      }

      .cls-9 {
        font-family: Inter-Bold, Inter;
        font-size: 7px;
        font-variation-settings: 'opsz' 14, 'wght' 700;
        font-weight: 700;
      }
    </style>
  </defs>
  <g>
    <g>
      <line class="cls-3" x1="28.29" y1="128.72" x2="28.79" y2="128.72"/>
      <line class="cls-6" x1="30.78" y1="128.72" x2="104.4" y2="128.72"/>
      <line class="cls-3" x1="105.39" y1="128.72" x2="105.89" y2="128.72"/>
    </g>
    <g>
      <line class="cls-3" x1="111.32" y1="128.72" x2="111.82" y2="128.72"/>
      <line class="cls-6" x1="113.81" y1="128.72" x2="187.43" y2="128.72"/>
      <line class="cls-3" x1="188.42" y1="128.72" x2="188.92" y2="128.72"/>
    </g>
    <g>
      <line class="cls-3" x1="193.74" y1="128.72" x2="194.24" y2="128.72"/>
      <line class="cls-6" x1="196.23" y1="128.72" x2="269.85" y2="128.72"/>
      <line class="cls-3" x1="270.84" y1="128.72" x2="271.34" y2="128.72"/>
    </g>
  </g>
  <g>
    <path class="cls-8" d="M215.38,111.53v3.12h-45.05v-3.12c4.87,0,8.83-3.95,8.83-8.83v-3.14h4.86v3.14c0,4.88,3.95,8.82,8.83,8.83h.01c4.87,0,8.83-3.95,8.83-8.83v-3.14h4.85v3.14c0,4.88,3.96,8.83,8.84,8.83Z"/>
    <g>
      <path class="cls-4" d="M34.38,11.63v91.07c0,4.88-3.96,8.83-8.83,8.83s-8.84-3.95-8.84-8.83V11.63"/>
      <path class="cls-4" d="M29.48,5.63v97.07c0,2.17-1.77,3.93-3.93,3.93s-3.94-1.76-3.94-3.93V5.63"/>
      <path class="cls-4" d="M31.93,8.63v94.07c0,3.52-2.86,6.38-6.38,6.38s-6.39-2.86-6.39-6.38V8.63"/>
    </g>
    <g>
      <path class="cls-4" d="M94.63,11.63v91.07c0,4.88-3.96,8.83-8.83,8.83s-8.84-3.95-8.84-8.83V11.63"/>
      <path class="cls-4" d="M89.73,5.63v97.07c0,2.17-1.77,3.93-3.93,3.93s-3.94-1.76-3.94-3.93V5.63"/>
      <path class="cls-4" d="M92.18,8.63v94.07c0,3.52-2.86,6.38-6.38,6.38s-6.39-2.86-6.39-6.38V8.63"/>
    </g>
    <g>
      <path class="cls-4" d="M117.16,11.63v91.07c0,4.88-3.96,8.83-8.83,8.83s-8.84-3.95-8.84-8.83V11.63"/>
      <path class="cls-4" d="M112.26,5.63v97.07c0,2.17-1.77,3.93-3.93,3.93s-3.94-1.76-3.94-3.93V5.63"/>
      <path class="cls-4" d="M114.71,8.63v94.07c0,3.52-2.86,6.38-6.38,6.38s-6.39-2.86-6.39-6.38V8.63"/>
    </g>
    <g>
      <path class="cls-4" d="M139.68,11.63v91.07c0,4.88-3.96,8.83-8.83,8.83s-8.84-3.95-8.84-8.83V11.63"/>
      <path class="cls-4" d="M134.78,5.63v97.07c0,2.17-1.77,3.93-3.93,3.93s-3.94-1.76-3.94-3.93V5.63"/>
      <path class="cls-4" d="M137.23,8.63v94.07c0,3.52-2.86,6.38-6.38,6.38s-6.39-2.86-6.39-6.38V8.63"/>
    </g>
    <g>
      <polyline class="cls-5" points="85.8 105.65 85.8 112.2 130.85 112.2 130.85 105.65"/>
      <line class="cls-5" x1="108.32" y1="105.65" x2="108.32" y2="112.2"/>
    </g>
    <g>
      <path class="cls-4" d="M161.49,11.63v91.07c0,4.88,3.97,8.83,8.84,8.83s8.83-3.95,8.83-8.83V11.63"/>
      <path class="cls-4" d="M174.26,5.63v97.07c0,2.17-1.77,3.93-3.93,3.93s-3.94-1.76-3.94-3.93V5.63"/>
      <path class="cls-4" d="M176.71,8.63v94.07c0,3.52-2.86,6.38-6.38,6.38s-6.39-2.86-6.39-6.38V8.63"/>
    </g>
    <g>
      <path class="cls-4" d="M201.69,11.63v91.07c0,4.88-3.96,8.83-8.83,8.83h-.01c-4.88-.01-8.83-3.95-8.83-8.83V11.63"/>
      <path class="cls-4" d="M188.92,5.63v97.07c0,2.17,1.75,3.92,3.93,3.93h.01c2.16,0,3.93-1.76,3.93-3.93V5.63"/>
      <path class="cls-4" d="M199.24,8.63v94.07c0,3.52-2.86,6.38-6.38,6.38h-.01c-3.53,0-6.38-2.86-6.38-6.38V8.63"/>
    </g>
    <g>
      <path class="cls-4" d="M206.54,11.63v91.07c0,4.88,3.96,8.83,8.84,8.83s8.83-3.95,8.83-8.83V11.63"/>
      <path class="cls-4" d="M219.31,5.63v97.07c0,2.17-1.77,3.93-3.93,3.93s-3.94-1.76-3.94-3.93V5.63"/>
      <path class="cls-4" d="M221.76,8.63v94.07c0,3.52-2.86,6.38-6.38,6.38s-6.39-2.86-6.39-6.38V8.63"/>
    </g>
    <g>
      <polyline class="cls-5" points="170.33 105.65 170.33 106.63 170.33 109.08 170.33 111.53 170.33 112.2 192.85 112.2 215.38 112.2 215.38 111.53 215.38 109.08 215.38 106.63 215.38 105.65"/>
      <polyline class="cls-5" points="192.85 105.65 192.85 106.63 192.85 109.08 192.85 111.53 192.85 112.2"/>
    </g>
    <path class="cls-2" d="M297.8,111.53v3.12h-45.05v-3.12c4.87,0,8.83-3.95,8.83-8.83v-3.14h4.86v3.14c0,4.88,3.95,8.82,8.83,8.83h.01c4.87,0,8.83-3.95,8.83-8.83v-3.14h4.85v3.14c0,4.88,3.96,8.83,8.84,8.83Z"/>
    <g>
      <path class="cls-4" d="M243.91,11.63v91.07c0,4.88,3.97,8.83,8.84,8.83s8.83-3.95,8.83-8.83V11.63"/>
      <path class="cls-4" d="M256.68,5.63v97.07c0,2.17-1.77,3.93-3.93,3.93s-3.94-1.76-3.94-3.93V5.63"/>
      <path class="cls-4" d="M259.13,8.63v94.07c0,3.52-2.86,6.38-6.38,6.38s-6.39-2.86-6.39-6.38V8.63"/>
    </g>
    <g>
      <path class="cls-4" d="M284.11,11.63v91.07c0,4.88-3.96,8.83-8.83,8.83h-.01c-4.88-.01-8.83-3.95-8.83-8.83V11.63"/>
      <path class="cls-4" d="M271.34,5.63v97.07c0,2.17,1.75,3.92,3.93,3.93h.01c2.16,0,3.93-1.76,3.93-3.93V5.63"/>
      <path class="cls-4" d="M281.66,8.63v94.07c0,3.52-2.86,6.38-6.38,6.38h-.01c-3.53,0-6.38-2.86-6.38-6.38V8.63"/>
    </g>
    <g>
      <path class="cls-4" d="M288.96,11.63v91.07c0,4.88,3.96,8.83,8.84,8.83s8.83-3.95,8.83-8.83V11.63"/>
      <path class="cls-4" d="M301.73,5.63v97.07c0,2.17-1.77,3.93-3.93,3.93s-3.94-1.76-3.94-3.93V5.63"/>
      <path class="cls-4" d="M304.18,8.63v94.07c0,3.52-2.86,6.38-6.38,6.38s-6.39-2.86-6.39-6.38V8.63"/>
    </g>
    <g>
      <polyline class="cls-5" points="252.75 105.65 252.75 106.63 252.75 109.08 252.75 111.53 252.75 112.2 275.27 112.2 297.8 112.2 297.8 111.53 297.8 109.08 297.8 106.63 297.8 105.65"/>
      <polyline class="cls-5" points="275.27 105.65 275.27 106.63 275.27 109.08 275.27 111.53 275.27 112.2"/>
    </g>
    <g>
      <g>
        <line class="cls-7" x1="248.81" y1="11.63" x2="248.81" y2="5.63"/>
        <line class="cls-7" x1="256.68" y1="11.63" x2="256.68" y2="5.63"/>
        <line class="cls-7" x1="246.36" y1="11.63" x2="246.36" y2="8.63"/>
        <line class="cls-7" x1="259.13" y1="11.63" x2="259.13" y2="8.63"/>
      </g>
      <g>
        <line class="cls-7" x1="279.21" y1="11.63" x2="279.21" y2="5.63"/>
        <line class="cls-7" x1="271.34" y1="11.63" x2="271.34" y2="5.63"/>
        <line class="cls-7" x1="268.89" y1="11.63" x2="268.89" y2="8.63"/>
        <line class="cls-7" x1="281.66" y1="11.63" x2="281.66" y2="8.63"/>
      </g>
      <g>
        <line class="cls-7" x1="293.86" y1="11.63" x2="293.86" y2="5.63"/>
        <line class="cls-7" x1="301.73" y1="11.63" x2="301.73" y2="5.63"/>
        <line class="cls-7" x1="291.41" y1="11.63" x2="291.41" y2="8.63"/>
        <line class="cls-7" x1="304.18" y1="11.63" x2="304.18" y2="8.63"/>
      </g>
    </g>
  </g>
  <text class="cls-9" transform="translate(10.84 142.05)"><tspan x="0" y="0">Тетрадь</tspan></text>
  <text class="cls-1" transform="translate(21.42 131.78)"><tspan x="0" y="0">❶</tspan></text>
  <text class="cls-1" transform="translate(104.42 131.78)"><tspan x="0" y="0">❷</tspan></text>
  <text class="cls-1" transform="translate(187.42 131.78)"><tspan x="0" y="0">❸</tspan></text>
  <text class="cls-1" transform="translate(270.42 131.78)"><tspan x="0" y="0">❹</tspan></text>
  <text class="cls-9" transform="translate(82.11 142.05)"><tspan x="0" y="0">Книжный блок</tspan></text>
  <text class="cls-9" transform="translate(160.06 142.05)"><tspan x="0" y="0">Склейка корешка</tspan></text>
  <text class="cls-9" transform="translate(263.51 142.05)"><tspan x="0" y="0">Обрез</tspan></text>
</svg>