<svg width="24" height="24" viewBox="0 0 24 24" fill="none" xmlns="http://www.w3.org/2000/svg">
<path fill-rule="evenodd" clip-rule="evenodd" d="M16.3804 15.1094C17.5018 13.6631 18.0303 11.8438 17.8584 10.0216C17.6865 8.19933 16.8271 6.51104 15.455 5.30018C14.083 4.08931 12.3014 3.44684 10.4727 3.50345C8.64392 3.56006 6.90542 4.31151 5.61085 5.60492C4.31515 6.89923 3.56155 8.63909 3.50361 10.4699C3.44566 12.3008 4.08775 14.0849 5.29901 15.4586C6.51028 16.8323 8.19956 17.6923 10.0226 17.8632C11.8457 18.0342 13.6653 17.5033 15.1107 16.3788L15.1493 16.4193L18.964 20.2364C19.0476 20.3199 19.1467 20.3862 19.2559 20.4315C19.3651 20.4767 19.4821 20.5 19.6002 20.5C19.7184 20.5 19.8354 20.4767 19.9446 20.4315C20.0537 20.3862 20.1529 20.3199 20.2365 20.2364C20.32 20.1528 20.3863 20.0535 20.4315 19.9443C20.4767 19.8351 20.5 19.7181 20.5 19.5999C20.5 19.4817 20.4767 19.3646 20.4315 19.2554C20.3863 19.1462 20.32 19.047 20.2365 18.9634L16.4209 15.1472L16.3804 15.1094ZM14.5136 6.87788C15.0213 7.3776 15.4251 7.97295 15.7017 8.62957C15.9782 9.28619 16.1221 9.9911 16.125 10.7036C16.1279 11.4162 15.9898 12.1222 15.7186 12.7811C15.4473 13.4399 15.0484 14.0385 14.5448 14.5424C14.0411 15.0462 13.4427 15.4453 12.7841 15.7167C12.1256 15.988 11.4198 16.1262 10.7075 16.1233C9.99528 16.1204 9.29066 15.9764 8.6343 15.6997C7.97793 15.4231 7.38283 15.0191 6.88331 14.5112C5.88505 13.4961 5.32817 12.1276 5.33397 10.7036C5.33976 9.27969 5.90777 7.91573 6.91425 6.90884C7.92074 5.90195 9.28416 5.33372 10.7075 5.32793C12.1309 5.32213 13.4989 5.87923 14.5136 6.87788Z" fill="#7C7C7C"/>
</svg>
