<svg width="376" height="530" viewBox="0 0 376 530" fill="none" xmlns="http://www.w3.org/2000/svg">
<g clip-path="url(#clip0_1232_3233)">
<rect width="376" height="530" fill="#1FAE62"/>
<path d="M-0.235743 1071.18C190.938 992.823 282.392 774.324 204.033 583.15C125.673 391.977 -92.8264 300.523 -284 378.882" stroke="#FFFAF1" stroke-width="1.5" stroke-dasharray="6 8"/>
<path d="M218.528 -222C134.289 -150.131 124.262 -23.5799 196.131 60.6592C268 144.898 394.551 154.926 478.791 83.0566" stroke="#FFFAF1" stroke-width="1.5" stroke-dasharray="6 8"/>
<rect x="66.2954" y="198.67" width="118.8" height="38.9134" transform="rotate(-5 66.2954 198.67)" fill="#3B3B3B"/>
<rect x="79.3286" y="290.596" width="216.27" height="38.9134" transform="rotate(2.29634 79.3286 290.596)" fill="#3B3B3B"/>
<path d="M91.4429 201.47L89.452 203.461V217.969L91.4429 219.96H97.7104L100.844 216.863L104.089 220.07L100.199 223.96H88.8806L84.7698 219.849V201.581L88.8806 197.47H99.8672L103.37 200.936L100.125 204.143L97.3418 201.47H91.4429ZM117.269 204.973H121.453L117.158 213.839L122.467 223.775H117.748L113.527 215.664H110.817V223.775H106.54V204.973H110.817V212.383H113.822L117.269 204.973ZM137.62 204.788L140.828 207.996V220.752L137.62 223.96H128.145L124.937 220.752V207.996L128.145 204.788H137.62ZM130.67 208.217L129.196 209.692V219.056L130.67 220.531H135.095L136.569 219.056V209.692L135.095 208.217H130.67ZM157.934 204.788L161.142 207.996V220.752L157.934 223.96H152.791L149.823 221.176V231.057H145.547V204.973H148.68L149.657 207.572H149.823L152.791 204.788H157.934ZM155.409 220.531L156.884 219.056V209.692L155.409 208.217H153.215L149.823 211.019V217.729L153.215 220.531H155.409ZM178.359 204.788L181.567 207.996V220.752L178.359 223.96H168.884L165.677 220.752V207.996L168.884 204.788H178.359ZM171.41 208.217L169.935 209.692V219.056L171.41 220.531H175.834L177.308 219.056V209.692L175.834 208.217H171.41ZM191.761 221.139L194.489 218.595L196.664 220.715H201.383L202.858 219.241V217.287L201.383 215.812H197.125V212.641H201.051L202.489 211.203V209.507L201.015 208.033H197.125L195.079 209.95L192.332 207.461L195.005 204.788H203.54L206.747 207.996V211.701L204.48 213.969L207.135 216.605V220.752L203.927 223.96H194.599L191.761 221.139ZM228.223 227.702H223.965V223.775H213.845V227.702H209.568V220.347H210.932L211.872 219.277L213.697 204.973H226.343V220.347H228.223V227.702ZM217.273 208.401L216.075 218.946L214.822 220.347H222.066V208.401H217.273ZM247.229 221.139L244.39 223.96H234.841L231.633 220.752V207.996L234.841 204.788H243.56L246.768 207.996V215.996H235.892V219.204L237.403 220.715H242.233L244.463 218.595L247.229 221.139ZM237.403 208.033L235.892 209.544V212.899H242.546V209.544L241.035 208.033H237.403ZM266.916 221.139L264.077 223.96H254.602L251.395 220.752V207.996L254.602 204.788H263.782L266.492 207.498L263.432 210.263L261.331 208.217H257.128L255.653 209.692V219.056L257.128 220.531H261.625L263.893 218.3L266.916 221.139ZM269.939 223.775V204.973H274.216V212.18L275.709 211.056H281.424L284.631 214.263V220.568L281.424 223.775H269.939ZM278.88 214.374H274.216V220.457H278.88L280.354 218.983V215.849L278.88 214.374ZM81.4885 250.544L80.0323 252.019V256.203L81.3779 254.839H88.4382L91.6457 258.047V269.752L88.4382 272.96H78.9631L75.7556 269.752V250.304L78.9631 247.097H86.4104L88.5488 245.069L91.3876 247.816L88.6778 250.544H81.4885ZM81.4885 258.286L80.0323 259.743V268.056L81.4885 269.531H85.9127L87.3874 268.056V259.743L85.9127 258.286H81.4885ZM102.042 272.775H98.8349L93.8946 253.973H98.1897L102.042 269.347H103.038L107.222 253.973H111.075L103.794 280.057H99.941L102.042 272.775ZM130.855 276.702H126.597V272.775H116.476V276.702H112.2V269.347H113.564L114.504 268.277L116.329 253.973H128.974V269.347H130.855V276.702ZM119.905 257.401L118.707 267.946L117.453 269.347H124.698V257.401H119.905ZM149.86 270.139L147.021 272.96H137.473L134.265 269.752V256.996L137.473 253.788H146.192L149.399 256.996V264.996H138.523V268.204L140.035 269.715H144.865L147.095 267.595L149.86 270.139ZM140.035 257.033L138.523 258.544V261.899H145.178V258.544L143.666 257.033H140.035ZM157.529 257.401H151.943V253.973H167.354V257.401H161.805V272.775H157.529V257.401ZM187.318 253.973H191.503L187.207 262.839L192.516 272.775H187.797L183.576 264.664H180.866V272.775H176.589V253.973H180.866V261.383H183.871L187.318 253.973ZM207.669 253.788L210.877 256.996V269.752L207.669 272.96H198.194L194.987 269.752V256.996L198.194 253.788H207.669ZM200.72 257.217L199.245 258.692V268.056L200.72 269.531H205.144L206.618 268.056V258.692L205.144 257.217H200.72ZM231.007 270.139L228.168 272.96H218.619L215.411 269.752V256.996L218.619 253.788H227.338L230.546 256.996V264.996H219.67V268.204L221.181 269.715H226.011L228.242 267.595L231.007 270.139ZM221.181 257.033L219.67 258.544V261.899H226.324V258.544L224.813 257.033H221.181ZM245.846 265.07H234.03V261.144H245.846V265.07ZM254.805 263.669H259.782V253.973H264.059V272.775H259.782V265.973L258.27 267.116H252.279L249.072 263.909V253.973H253.33V262.213L254.805 263.669ZM272.262 257.401H266.676V253.973H282.087V257.401H276.539V272.775H272.262V257.401ZM297.222 253.788L300.429 256.996V269.752L297.222 272.96H287.746L284.539 269.752V256.996L287.746 253.788H297.222ZM290.272 257.217L288.797 258.692V268.056L290.272 269.531H294.696L296.171 268.056V258.692L294.696 257.217H290.272ZM108.623 321.775H104.365V309.425H104.218L97.3786 321.775H92.807V302.973H97.0837V315.323H97.2312L104.052 302.973H108.623V321.775ZM128.827 321.775H124.55V313.591H117.803V321.775H113.527V302.973H117.803V310.144H124.55V302.973H128.827V321.775ZM137.049 306.401H131.463V302.973H146.874V306.401H141.325V321.775H137.049V306.401ZM164.921 319.139L162.082 321.96H152.533L149.326 318.752V305.996L152.533 302.788H161.252L164.46 305.996V313.996H153.584V317.204L155.095 318.715H159.925L162.156 316.595L164.921 319.139ZM155.095 306.033L153.584 307.544V310.899H160.239V307.544L158.727 306.033H155.095ZM181.659 302.788L184.866 305.996V318.752L181.659 321.96H176.516L173.548 319.176V329.057H169.271V302.973H172.405L173.382 305.572H173.548L176.516 302.788H181.659ZM179.133 318.531L180.608 317.056V307.692L179.133 306.217H176.94L173.548 309.019V315.729L176.94 318.531H179.133ZM204.996 319.139L202.157 321.96H192.609L189.401 318.752V305.996L192.609 302.788H201.328L204.535 305.996V313.996H193.659V317.204L195.171 318.715H200.001L202.231 316.595L204.996 319.139ZM195.171 306.033L193.659 307.544V310.899H200.314V307.544L198.802 306.033H195.171ZM224.684 319.139L221.845 321.96H212.37L209.162 318.752V305.996L212.37 302.788H221.55L224.26 305.498L221.2 308.263L219.098 306.217H214.895L213.421 307.692V317.056L214.895 318.531H219.393L221.661 316.3L224.684 319.139ZM243.007 321.775H238.73V313.591H231.984V321.775H227.707V302.973H231.984V310.144H238.73V302.973H243.007V321.775ZM260.409 302.788L263.616 305.996V318.752L260.409 321.96H250.934L247.726 318.752V305.996L250.934 302.788H260.409ZM253.459 306.217L251.984 307.692V317.056L253.459 318.531H257.883L259.358 317.056V307.692L257.883 306.217H253.459ZM283.746 319.139L280.907 321.96H271.359L268.151 318.752V305.996L271.359 302.788H280.078L283.285 305.996V313.996H272.409V317.204L273.921 318.715H278.751L280.981 316.595L283.746 319.139ZM273.921 306.033L272.409 307.544V310.899H279.064V307.544L277.552 306.033H273.921Z" fill="#FFFAF1"/>
</g>
<defs>
<clipPath id="clip0_1232_3233">
<rect width="376" height="530" fill="white"/>
</clipPath>
</defs>
</svg>
